M48
; DRILL file {KiCad (5.1.5)-3} date 4/18/2020 3:08:30 PM
; FORMAT={-:-/ absolute / inch / decimal}
; #@! TF.CreationDate,2020-04-18T15:08:30-07:00
; #@! TF.GenerationSoftware,Kicad,Pcbnew,(5.1.5)-3
; #@! TF.FileFunction,Plated,1,2,PTH
FMAT,2
INCH
T1C0.0394
T2C0.0433
T3C0.1772
%
G90
G05
T1
X6.0Y-3.7
X6.1Y-3.7
X6.2Y-3.7
X6.0Y-3.2
X6.1Y-3.2
X6.2Y-3.2
X6.0Y-3.9
X6.1Y-3.9
X6.2Y-3.9
X6.0Y-2.8
X6.1Y-2.8
X6.2Y-2.8
X6.0Y-3.6
X6.1Y-3.6
X6.2Y-3.6
X7.35Y-3.0
X7.35Y-3.1
X7.35Y-3.2
X7.35Y-3.3
X7.35Y-3.4
X7.35Y-3.5
X7.35Y-3.6
X7.35Y-3.7
X7.6Y-2.8
X8.05Y-3.1
X8.05Y-3.2
X8.05Y-3.3
X8.05Y-3.4
X8.05Y-3.5
X8.05Y-3.6
X8.25Y-3.0
X8.25Y-3.1
X8.25Y-3.2
X8.25Y-3.3
X8.25Y-3.4
X8.25Y-3.5
X8.25Y-3.6
X8.25Y-3.7
X6.0Y-3.5
X6.1Y-3.5
X6.2Y-3.5
X6.0Y-4.1
X6.1Y-4.1
X6.2Y-4.1
X6.0Y-3.1
X6.1Y-3.1
X6.2Y-3.1
X6.0Y-4.0
X6.1Y-4.0
X6.2Y-4.0
X6.4Y-2.5
X6.5Y-2.5
X6.0Y-2.5
X6.1Y-2.5
X6.0Y-2.7
X6.1Y-2.7
X6.2Y-2.7
X6.0Y-3.3
X6.1Y-3.3
X6.2Y-3.3
X6.0Y-2.9
X6.1Y-2.9
X6.2Y-2.9
T2
X6.5Y-2.7
X6.5Y-2.8
X6.5Y-2.9
X6.5Y-3.0
X6.5Y-3.1
X6.5Y-3.2
X6.5Y-3.3
X6.5Y-3.4
X6.5Y-3.5
X6.5Y-3.6
X6.5Y-3.7
X6.5Y-3.8
X6.5Y-3.9
X6.5Y-4.0
X6.6Y-3.7
X6.6Y-3.8
X6.6Y-4.0
X6.7Y-3.7
X6.7Y-3.8
X6.7Y-4.0
X6.8Y-3.7
X6.8Y-3.8
X6.8Y-4.0
X6.9Y-3.7
X6.9Y-3.8
X6.9Y-4.0
X7.0Y-2.8
X7.0Y-3.7
X7.0Y-3.8
X7.0Y-4.0
X7.1Y-2.7
X7.1Y-2.8
X7.1Y-2.9
X7.1Y-3.0
X7.1Y-3.1
X7.1Y-3.2
X7.1Y-3.3
X7.1Y-3.4
X7.1Y-3.5
X7.1Y-3.6
X7.1Y-3.7
X7.1Y-3.8
X7.1Y-3.9
X7.1Y-4.0
T3
X6.0915Y-4.4
X6.375Y-4.4
T0
M30
