G04 #@! TF.GenerationSoftware,KiCad,Pcbnew,(5.1.5)-3*
G04 #@! TF.CreationDate,2020-04-04T13:54:15-07:00*
G04 #@! TF.ProjectId,ServoPower2,53657276-6f50-46f7-9765-72322e6b6963,rev?*
G04 #@! TF.SameCoordinates,Original*
G04 #@! TF.FileFunction,Copper,L1,Top*
G04 #@! TF.FilePolarity,Positive*
%FSLAX46Y46*%
G04 Gerber Fmt 4.6, Leading zero omitted, Abs format (unit mm)*
G04 Created by KiCad (PCBNEW (5.1.5)-3) date 2020-04-04 13:54:15*
%MOMM*%
%LPD*%
G04 APERTURE LIST*
%ADD10C,1.600000*%
%ADD11R,1.700000X1.700000*%
%ADD12O,1.700000X1.700000*%
%ADD13C,3.800000*%
%ADD14R,3.800000X3.800000*%
%ADD15C,0.200000*%
%ADD16C,0.800000*%
%ADD17C,0.254000*%
G04 APERTURE END LIST*
D10*
X168910000Y-93980000D03*
X168910000Y-96520000D03*
X171450000Y-93980000D03*
X171450000Y-96520000D03*
X173990000Y-93980000D03*
X173990000Y-96520000D03*
X176530000Y-93980000D03*
X176530000Y-96520000D03*
X179070000Y-93980000D03*
X179070000Y-96520000D03*
X166370000Y-68580000D03*
X166370000Y-71120000D03*
X166370000Y-73660000D03*
X166370000Y-76200000D03*
X166370000Y-78740000D03*
X166370000Y-81280000D03*
X166370000Y-83820000D03*
X166370000Y-86360000D03*
X166370000Y-88900000D03*
X166370000Y-91440000D03*
X166370000Y-93980000D03*
X166370000Y-96520000D03*
X166370000Y-99060000D03*
X179070000Y-71120000D03*
X181610000Y-68580000D03*
X181610000Y-71120000D03*
X181610000Y-73660000D03*
X181610000Y-76200000D03*
X181610000Y-78740000D03*
X181610000Y-81280000D03*
X181610000Y-83820000D03*
X181610000Y-86360000D03*
X181610000Y-88900000D03*
X181610000Y-91440000D03*
X181610000Y-93980000D03*
X181610000Y-96520000D03*
X181610000Y-99060000D03*
X166370000Y-101600000D03*
X168910000Y-101600000D03*
X171450000Y-101600000D03*
X181610000Y-101600000D03*
X179070000Y-101600000D03*
X176530000Y-101600000D03*
X173990000Y-101600000D03*
D11*
X162560000Y-63500000D03*
D12*
X165100000Y-63500000D03*
X154940000Y-63500000D03*
D11*
X152400000Y-63500000D03*
D12*
X152400000Y-104140000D03*
X154940000Y-104140000D03*
D11*
X157480000Y-104140000D03*
D12*
X152400000Y-93980000D03*
X154940000Y-93980000D03*
D11*
X157480000Y-93980000D03*
D12*
X152400000Y-83820000D03*
X154940000Y-83820000D03*
D11*
X157480000Y-83820000D03*
D12*
X152400000Y-101600000D03*
X154940000Y-101600000D03*
D11*
X157480000Y-101600000D03*
D12*
X152400000Y-91440000D03*
X154940000Y-91440000D03*
D11*
X157480000Y-91440000D03*
D12*
X152400000Y-81280000D03*
X154940000Y-81280000D03*
D11*
X157480000Y-81280000D03*
D12*
X152400000Y-99060000D03*
X154940000Y-99060000D03*
D11*
X157480000Y-99060000D03*
D12*
X152400000Y-88900000D03*
X154940000Y-88900000D03*
D11*
X157480000Y-88900000D03*
D12*
X152400000Y-78740000D03*
X154940000Y-78740000D03*
D11*
X157480000Y-78740000D03*
D13*
X152480000Y-114300000D03*
D14*
X157480000Y-114300000D03*
D11*
X157480000Y-68580000D03*
D12*
X154940000Y-68580000D03*
X152400000Y-68580000D03*
D11*
X157480000Y-73660000D03*
D12*
X154940000Y-73660000D03*
X152400000Y-73660000D03*
X152400000Y-71120000D03*
X154940000Y-71120000D03*
D11*
X157480000Y-71120000D03*
D15*
X160020000Y-71120000D02*
X157480000Y-68580000D01*
X166370000Y-71120000D02*
X160020000Y-71120000D01*
X158530000Y-104140000D02*
X157480000Y-104140000D01*
X182637001Y-102092961D02*
X180589962Y-104140000D01*
X182637001Y-97547001D02*
X182637001Y-102092961D01*
X180589962Y-104140000D02*
X158530000Y-104140000D01*
X181610000Y-96520000D02*
X182637001Y-97547001D01*
X159557001Y-100330000D02*
X180340000Y-100330000D01*
X180340000Y-100330000D02*
X181610000Y-99060000D01*
X158530000Y-101357001D02*
X159557001Y-100330000D01*
X157480000Y-101600000D02*
X157722999Y-101357001D01*
X157722999Y-101357001D02*
X158530000Y-101357001D01*
X161290000Y-99060000D02*
X166370000Y-93980000D01*
X157480000Y-99060000D02*
X161290000Y-99060000D01*
X163830000Y-93980000D02*
X157480000Y-93980000D01*
X166370000Y-91440000D02*
X163830000Y-93980000D01*
X163830000Y-91440000D02*
X166370000Y-88900000D01*
X157480000Y-91440000D02*
X163830000Y-91440000D01*
X157480000Y-87850000D02*
X157480000Y-88900000D01*
X158970000Y-86360000D02*
X157480000Y-87850000D01*
X166370000Y-86360000D02*
X158970000Y-86360000D01*
X166370000Y-83820000D02*
X157480000Y-83820000D01*
X157480000Y-81280000D02*
X166370000Y-81280000D01*
X166370000Y-78740000D02*
X157480000Y-78740000D01*
X157480000Y-74710000D02*
X157480000Y-73660000D01*
X158970000Y-76200000D02*
X157480000Y-74710000D01*
X166370000Y-76200000D02*
X158970000Y-76200000D01*
X165238630Y-73660000D02*
X166370000Y-73660000D01*
X161070000Y-73660000D02*
X165238630Y-73660000D01*
X158530000Y-71120000D02*
X161070000Y-73660000D01*
X157480000Y-71120000D02*
X158530000Y-71120000D01*
D16*
X176530000Y-63500000D02*
X167640000Y-63500000D01*
X181610000Y-68580000D02*
X176530000Y-63500000D01*
X167640000Y-63500000D02*
X165100000Y-63500000D01*
D17*
G36*
X145355406Y-60624600D02*
G01*
X145400076Y-60629000D01*
X183529924Y-60629000D01*
X183574594Y-60624600D01*
X183608025Y-60614459D01*
X183707223Y-60624185D01*
X183892130Y-60680012D01*
X184062668Y-60770688D01*
X184212347Y-60892762D01*
X184335468Y-61041590D01*
X184427334Y-61211493D01*
X184484448Y-61395997D01*
X184495575Y-61501866D01*
X184485401Y-61535406D01*
X184481001Y-61580076D01*
X184481000Y-116854923D01*
X184485400Y-116899593D01*
X184495541Y-116933024D01*
X184485815Y-117032223D01*
X184429988Y-117217130D01*
X184339310Y-117387670D01*
X184217235Y-117537349D01*
X184068410Y-117660468D01*
X183898511Y-117752332D01*
X183714003Y-117809448D01*
X183608136Y-117820575D01*
X183574594Y-117810400D01*
X183529924Y-117806000D01*
X145400076Y-117806000D01*
X145355406Y-117810400D01*
X145321975Y-117820541D01*
X145222777Y-117810815D01*
X145037870Y-117754988D01*
X144867330Y-117664310D01*
X144717651Y-117542235D01*
X144594532Y-117393410D01*
X144502668Y-117223511D01*
X144445552Y-117039003D01*
X144434425Y-116933136D01*
X144444600Y-116899594D01*
X144449000Y-116854924D01*
X144449000Y-116342742D01*
X151671867Y-116342742D01*
X151940596Y-116527662D01*
X152385556Y-116590091D01*
X152834145Y-116564513D01*
X153019404Y-116527662D01*
X153288133Y-116342742D01*
X152480000Y-115534608D01*
X151671867Y-116342742D01*
X144449000Y-116342742D01*
X144449000Y-114205556D01*
X150189909Y-114205556D01*
X150215487Y-114654145D01*
X150252338Y-114839404D01*
X150437258Y-115108133D01*
X151245392Y-114300000D01*
X153714608Y-114300000D01*
X154522742Y-115108133D01*
X154707662Y-114839404D01*
X154770091Y-114394444D01*
X154744513Y-113945855D01*
X154707662Y-113760596D01*
X154522742Y-113491867D01*
X153714608Y-114300000D01*
X151245392Y-114300000D01*
X150437258Y-113491867D01*
X150252338Y-113760596D01*
X150189909Y-114205556D01*
X144449000Y-114205556D01*
X144449000Y-112257258D01*
X151671867Y-112257258D01*
X152480000Y-113065392D01*
X153145391Y-112400000D01*
X155324772Y-112400000D01*
X155324772Y-116200000D01*
X155329676Y-116249793D01*
X155344200Y-116297672D01*
X155367786Y-116341797D01*
X155399527Y-116380473D01*
X155438203Y-116412214D01*
X155482328Y-116435800D01*
X155530207Y-116450324D01*
X155580000Y-116455228D01*
X159380000Y-116455228D01*
X159429793Y-116450324D01*
X159477672Y-116435800D01*
X159521797Y-116412214D01*
X159560473Y-116380473D01*
X159592214Y-116341797D01*
X159615800Y-116297672D01*
X159630324Y-116249793D01*
X159635228Y-116200000D01*
X159635228Y-112400000D01*
X159630324Y-112350207D01*
X159615800Y-112302328D01*
X159592214Y-112258203D01*
X159560473Y-112219527D01*
X159521797Y-112187786D01*
X159477672Y-112164200D01*
X159429793Y-112149676D01*
X159380000Y-112144772D01*
X155580000Y-112144772D01*
X155530207Y-112149676D01*
X155482328Y-112164200D01*
X155438203Y-112187786D01*
X155399527Y-112219527D01*
X155367786Y-112258203D01*
X155344200Y-112302328D01*
X155329676Y-112350207D01*
X155324772Y-112400000D01*
X153145391Y-112400000D01*
X153288133Y-112257258D01*
X153019404Y-112072338D01*
X152574444Y-112009909D01*
X152125855Y-112035487D01*
X151940596Y-112072338D01*
X151671867Y-112257258D01*
X144449000Y-112257258D01*
X144449000Y-104031265D01*
X151296000Y-104031265D01*
X151296000Y-104248735D01*
X151338426Y-104462025D01*
X151421648Y-104662940D01*
X151542467Y-104843759D01*
X151696241Y-104997533D01*
X151877060Y-105118352D01*
X152077975Y-105201574D01*
X152291265Y-105244000D01*
X152508735Y-105244000D01*
X152722025Y-105201574D01*
X152922940Y-105118352D01*
X153103759Y-104997533D01*
X153257533Y-104843759D01*
X153378352Y-104662940D01*
X153415369Y-104573571D01*
X153787870Y-104573571D01*
X153894593Y-104790009D01*
X154041491Y-104981468D01*
X154222918Y-105140590D01*
X154431902Y-105261260D01*
X154506431Y-105292119D01*
X154692000Y-105248343D01*
X154692000Y-104388000D01*
X155188000Y-104388000D01*
X155188000Y-105248343D01*
X155373569Y-105292119D01*
X155448098Y-105261260D01*
X155657082Y-105140590D01*
X155838509Y-104981468D01*
X155985407Y-104790009D01*
X156092130Y-104573571D01*
X156050521Y-104388000D01*
X155188000Y-104388000D01*
X154692000Y-104388000D01*
X153829479Y-104388000D01*
X153787870Y-104573571D01*
X153415369Y-104573571D01*
X153461574Y-104462025D01*
X153504000Y-104248735D01*
X153504000Y-104031265D01*
X153461574Y-103817975D01*
X153415370Y-103706429D01*
X153787870Y-103706429D01*
X153829479Y-103892000D01*
X154692000Y-103892000D01*
X154692000Y-103031657D01*
X155188000Y-103031657D01*
X155188000Y-103892000D01*
X156050521Y-103892000D01*
X156092130Y-103706429D01*
X155985407Y-103489991D01*
X155838509Y-103298532D01*
X155657082Y-103139410D01*
X155448098Y-103018740D01*
X155373569Y-102987881D01*
X155188000Y-103031657D01*
X154692000Y-103031657D01*
X154506431Y-102987881D01*
X154431902Y-103018740D01*
X154222918Y-103139410D01*
X154041491Y-103298532D01*
X153894593Y-103489991D01*
X153787870Y-103706429D01*
X153415370Y-103706429D01*
X153378352Y-103617060D01*
X153257533Y-103436241D01*
X153103759Y-103282467D01*
X152922940Y-103161648D01*
X152722025Y-103078426D01*
X152508735Y-103036000D01*
X152291265Y-103036000D01*
X152077975Y-103078426D01*
X151877060Y-103161648D01*
X151696241Y-103282467D01*
X151542467Y-103436241D01*
X151421648Y-103617060D01*
X151338426Y-103817975D01*
X151296000Y-104031265D01*
X144449000Y-104031265D01*
X144449000Y-101491265D01*
X151296000Y-101491265D01*
X151296000Y-101708735D01*
X151338426Y-101922025D01*
X151421648Y-102122940D01*
X151542467Y-102303759D01*
X151696241Y-102457533D01*
X151877060Y-102578352D01*
X152077975Y-102661574D01*
X152291265Y-102704000D01*
X152508735Y-102704000D01*
X152722025Y-102661574D01*
X152922940Y-102578352D01*
X153103759Y-102457533D01*
X153257533Y-102303759D01*
X153378352Y-102122940D01*
X153415369Y-102033571D01*
X153787870Y-102033571D01*
X153894593Y-102250009D01*
X154041491Y-102441468D01*
X154222918Y-102600590D01*
X154431902Y-102721260D01*
X154506431Y-102752119D01*
X154692000Y-102708343D01*
X154692000Y-101848000D01*
X155188000Y-101848000D01*
X155188000Y-102708343D01*
X155373569Y-102752119D01*
X155448098Y-102721260D01*
X155657082Y-102600590D01*
X155838509Y-102441468D01*
X155985407Y-102250009D01*
X156092130Y-102033571D01*
X156050521Y-101848000D01*
X155188000Y-101848000D01*
X154692000Y-101848000D01*
X153829479Y-101848000D01*
X153787870Y-102033571D01*
X153415369Y-102033571D01*
X153461574Y-101922025D01*
X153504000Y-101708735D01*
X153504000Y-101491265D01*
X153461574Y-101277975D01*
X153415370Y-101166429D01*
X153787870Y-101166429D01*
X153829479Y-101352000D01*
X154692000Y-101352000D01*
X154692000Y-100491657D01*
X155188000Y-100491657D01*
X155188000Y-101352000D01*
X156050521Y-101352000D01*
X156092130Y-101166429D01*
X155985407Y-100949991D01*
X155838509Y-100758532D01*
X155828782Y-100750000D01*
X156374772Y-100750000D01*
X156374772Y-102450000D01*
X156379676Y-102499793D01*
X156394200Y-102547672D01*
X156417786Y-102591797D01*
X156449527Y-102630473D01*
X156488203Y-102662214D01*
X156532328Y-102685800D01*
X156580207Y-102700324D01*
X156630000Y-102705228D01*
X158330000Y-102705228D01*
X158379793Y-102700324D01*
X158427672Y-102685800D01*
X158471797Y-102662214D01*
X158510473Y-102630473D01*
X158542214Y-102591797D01*
X158565800Y-102547672D01*
X158580324Y-102499793D01*
X158585228Y-102450000D01*
X158585228Y-101707273D01*
X158599396Y-101705878D01*
X158666125Y-101685636D01*
X158727623Y-101652765D01*
X158781526Y-101608527D01*
X158792612Y-101595019D01*
X159703632Y-100684000D01*
X165843741Y-100684000D01*
X165698114Y-100781305D01*
X165551305Y-100928114D01*
X165435957Y-101100744D01*
X165356504Y-101292559D01*
X165316000Y-101496190D01*
X165316000Y-101703810D01*
X165356504Y-101907441D01*
X165435957Y-102099256D01*
X165551305Y-102271886D01*
X165698114Y-102418695D01*
X165870744Y-102534043D01*
X166062559Y-102613496D01*
X166266190Y-102654000D01*
X166473810Y-102654000D01*
X166677441Y-102613496D01*
X166869256Y-102534043D01*
X167041886Y-102418695D01*
X167188695Y-102271886D01*
X167304043Y-102099256D01*
X167383496Y-101907441D01*
X167424000Y-101703810D01*
X167424000Y-101496190D01*
X167383496Y-101292559D01*
X167304043Y-101100744D01*
X167188695Y-100928114D01*
X167041886Y-100781305D01*
X166896259Y-100684000D01*
X168383741Y-100684000D01*
X168238114Y-100781305D01*
X168091305Y-100928114D01*
X167975957Y-101100744D01*
X167896504Y-101292559D01*
X167856000Y-101496190D01*
X167856000Y-101703810D01*
X167896504Y-101907441D01*
X167975957Y-102099256D01*
X168091305Y-102271886D01*
X168238114Y-102418695D01*
X168410744Y-102534043D01*
X168602559Y-102613496D01*
X168806190Y-102654000D01*
X169013810Y-102654000D01*
X169217441Y-102613496D01*
X169409256Y-102534043D01*
X169581886Y-102418695D01*
X169728695Y-102271886D01*
X169844043Y-102099256D01*
X169923496Y-101907441D01*
X169964000Y-101703810D01*
X169964000Y-101496190D01*
X169923496Y-101292559D01*
X169844043Y-101100744D01*
X169728695Y-100928114D01*
X169581886Y-100781305D01*
X169436259Y-100684000D01*
X170923741Y-100684000D01*
X170778114Y-100781305D01*
X170631305Y-100928114D01*
X170515957Y-101100744D01*
X170436504Y-101292559D01*
X170396000Y-101496190D01*
X170396000Y-101703810D01*
X170436504Y-101907441D01*
X170515957Y-102099256D01*
X170631305Y-102271886D01*
X170778114Y-102418695D01*
X170950744Y-102534043D01*
X171142559Y-102613496D01*
X171346190Y-102654000D01*
X171553810Y-102654000D01*
X171757441Y-102613496D01*
X171949256Y-102534043D01*
X172121886Y-102418695D01*
X172268695Y-102271886D01*
X172384043Y-102099256D01*
X172463496Y-101907441D01*
X172504000Y-101703810D01*
X172504000Y-101496190D01*
X172463496Y-101292559D01*
X172384043Y-101100744D01*
X172268695Y-100928114D01*
X172121886Y-100781305D01*
X171976259Y-100684000D01*
X173463741Y-100684000D01*
X173318114Y-100781305D01*
X173171305Y-100928114D01*
X173055957Y-101100744D01*
X172976504Y-101292559D01*
X172936000Y-101496190D01*
X172936000Y-101703810D01*
X172976504Y-101907441D01*
X173055957Y-102099256D01*
X173171305Y-102271886D01*
X173318114Y-102418695D01*
X173490744Y-102534043D01*
X173682559Y-102613496D01*
X173886190Y-102654000D01*
X174093810Y-102654000D01*
X174297441Y-102613496D01*
X174489256Y-102534043D01*
X174661886Y-102418695D01*
X174808695Y-102271886D01*
X174924043Y-102099256D01*
X175003496Y-101907441D01*
X175044000Y-101703810D01*
X175044000Y-101496190D01*
X175003496Y-101292559D01*
X174924043Y-101100744D01*
X174808695Y-100928114D01*
X174661886Y-100781305D01*
X174516259Y-100684000D01*
X176003741Y-100684000D01*
X175858114Y-100781305D01*
X175711305Y-100928114D01*
X175595957Y-101100744D01*
X175516504Y-101292559D01*
X175476000Y-101496190D01*
X175476000Y-101703810D01*
X175516504Y-101907441D01*
X175595957Y-102099256D01*
X175711305Y-102271886D01*
X175858114Y-102418695D01*
X176030744Y-102534043D01*
X176222559Y-102613496D01*
X176426190Y-102654000D01*
X176633810Y-102654000D01*
X176837441Y-102613496D01*
X177029256Y-102534043D01*
X177201886Y-102418695D01*
X177348695Y-102271886D01*
X177464043Y-102099256D01*
X177543496Y-101907441D01*
X177584000Y-101703810D01*
X177584000Y-101496190D01*
X177543496Y-101292559D01*
X177464043Y-101100744D01*
X177348695Y-100928114D01*
X177201886Y-100781305D01*
X177056259Y-100684000D01*
X178543741Y-100684000D01*
X178398114Y-100781305D01*
X178251305Y-100928114D01*
X178135957Y-101100744D01*
X178056504Y-101292559D01*
X178016000Y-101496190D01*
X178016000Y-101703810D01*
X178056504Y-101907441D01*
X178135957Y-102099256D01*
X178251305Y-102271886D01*
X178398114Y-102418695D01*
X178570744Y-102534043D01*
X178762559Y-102613496D01*
X178966190Y-102654000D01*
X179173810Y-102654000D01*
X179377441Y-102613496D01*
X179569256Y-102534043D01*
X179741886Y-102418695D01*
X179888695Y-102271886D01*
X180004043Y-102099256D01*
X180083496Y-101907441D01*
X180124000Y-101703810D01*
X180124000Y-101496190D01*
X180083496Y-101292559D01*
X180004043Y-101100744D01*
X179888695Y-100928114D01*
X179741886Y-100781305D01*
X179596259Y-100684000D01*
X180322626Y-100684000D01*
X180340000Y-100685711D01*
X180357374Y-100684000D01*
X180357382Y-100684000D01*
X180409396Y-100678877D01*
X180476125Y-100658635D01*
X180537623Y-100625764D01*
X180591526Y-100581526D01*
X180602612Y-100568018D01*
X181157303Y-100013328D01*
X181302559Y-100073496D01*
X181506190Y-100114000D01*
X181713810Y-100114000D01*
X181917441Y-100073496D01*
X182109256Y-99994043D01*
X182281886Y-99878695D01*
X182283002Y-99877579D01*
X182283002Y-100782421D01*
X182281886Y-100781305D01*
X182109256Y-100665957D01*
X181917441Y-100586504D01*
X181713810Y-100546000D01*
X181506190Y-100546000D01*
X181302559Y-100586504D01*
X181110744Y-100665957D01*
X180938114Y-100781305D01*
X180791305Y-100928114D01*
X180675957Y-101100744D01*
X180596504Y-101292559D01*
X180556000Y-101496190D01*
X180556000Y-101703810D01*
X180596504Y-101907441D01*
X180675957Y-102099256D01*
X180791305Y-102271886D01*
X180938114Y-102418695D01*
X181110744Y-102534043D01*
X181302559Y-102613496D01*
X181506190Y-102654000D01*
X181575331Y-102654000D01*
X180443332Y-103786000D01*
X158585228Y-103786000D01*
X158585228Y-103290000D01*
X158580324Y-103240207D01*
X158565800Y-103192328D01*
X158542214Y-103148203D01*
X158510473Y-103109527D01*
X158471797Y-103077786D01*
X158427672Y-103054200D01*
X158379793Y-103039676D01*
X158330000Y-103034772D01*
X156630000Y-103034772D01*
X156580207Y-103039676D01*
X156532328Y-103054200D01*
X156488203Y-103077786D01*
X156449527Y-103109527D01*
X156417786Y-103148203D01*
X156394200Y-103192328D01*
X156379676Y-103240207D01*
X156374772Y-103290000D01*
X156374772Y-104990000D01*
X156379676Y-105039793D01*
X156394200Y-105087672D01*
X156417786Y-105131797D01*
X156449527Y-105170473D01*
X156488203Y-105202214D01*
X156532328Y-105225800D01*
X156580207Y-105240324D01*
X156630000Y-105245228D01*
X158330000Y-105245228D01*
X158379793Y-105240324D01*
X158427672Y-105225800D01*
X158471797Y-105202214D01*
X158510473Y-105170473D01*
X158542214Y-105131797D01*
X158565800Y-105087672D01*
X158580324Y-105039793D01*
X158585228Y-104990000D01*
X158585228Y-104494000D01*
X180572588Y-104494000D01*
X180589962Y-104495711D01*
X180607336Y-104494000D01*
X180607344Y-104494000D01*
X180659358Y-104488877D01*
X180726087Y-104468635D01*
X180787585Y-104435764D01*
X180841488Y-104391526D01*
X180852574Y-104378018D01*
X182875030Y-102355564D01*
X182888527Y-102344487D01*
X182899604Y-102330990D01*
X182899607Y-102330987D01*
X182932764Y-102290585D01*
X182942759Y-102271886D01*
X182965636Y-102229086D01*
X182985878Y-102162357D01*
X182991001Y-102110343D01*
X182991001Y-102110336D01*
X182992712Y-102092962D01*
X182991001Y-102075588D01*
X182991001Y-97564375D01*
X182992712Y-97547001D01*
X182991001Y-97529627D01*
X182991001Y-97529619D01*
X182985878Y-97477605D01*
X182965636Y-97410876D01*
X182932765Y-97349378D01*
X182911049Y-97322919D01*
X182899607Y-97308976D01*
X182899604Y-97308973D01*
X182888526Y-97295475D01*
X182875029Y-97284398D01*
X182563328Y-96972698D01*
X182623496Y-96827441D01*
X182664000Y-96623810D01*
X182664000Y-96416190D01*
X182623496Y-96212559D01*
X182544043Y-96020744D01*
X182428695Y-95848114D01*
X182281886Y-95701305D01*
X182109256Y-95585957D01*
X181917441Y-95506504D01*
X181713810Y-95466000D01*
X181506190Y-95466000D01*
X181302559Y-95506504D01*
X181110744Y-95585957D01*
X180938114Y-95701305D01*
X180791305Y-95848114D01*
X180675957Y-96020744D01*
X180596504Y-96212559D01*
X180556000Y-96416190D01*
X180556000Y-96623810D01*
X180596504Y-96827441D01*
X180675957Y-97019256D01*
X180791305Y-97191886D01*
X180938114Y-97338695D01*
X181110744Y-97454043D01*
X181302559Y-97533496D01*
X181506190Y-97574000D01*
X181713810Y-97574000D01*
X181917441Y-97533496D01*
X182062698Y-97473328D01*
X182283001Y-97693632D01*
X182283001Y-98242420D01*
X182281886Y-98241305D01*
X182109256Y-98125957D01*
X181917441Y-98046504D01*
X181713810Y-98006000D01*
X181506190Y-98006000D01*
X181302559Y-98046504D01*
X181110744Y-98125957D01*
X180938114Y-98241305D01*
X180791305Y-98388114D01*
X180675957Y-98560744D01*
X180596504Y-98752559D01*
X180556000Y-98956190D01*
X180556000Y-99163810D01*
X180596504Y-99367441D01*
X180656672Y-99512697D01*
X180193370Y-99976000D01*
X166896259Y-99976000D01*
X167041886Y-99878695D01*
X167188695Y-99731886D01*
X167304043Y-99559256D01*
X167383496Y-99367441D01*
X167424000Y-99163810D01*
X167424000Y-98956190D01*
X167383496Y-98752559D01*
X167304043Y-98560744D01*
X167188695Y-98388114D01*
X167041886Y-98241305D01*
X166869256Y-98125957D01*
X166677441Y-98046504D01*
X166473810Y-98006000D01*
X166266190Y-98006000D01*
X166062559Y-98046504D01*
X165870744Y-98125957D01*
X165698114Y-98241305D01*
X165551305Y-98388114D01*
X165435957Y-98560744D01*
X165356504Y-98752559D01*
X165316000Y-98956190D01*
X165316000Y-99163810D01*
X165356504Y-99367441D01*
X165435957Y-99559256D01*
X165551305Y-99731886D01*
X165698114Y-99878695D01*
X165843741Y-99976000D01*
X159574375Y-99976000D01*
X159557001Y-99974289D01*
X159539627Y-99976000D01*
X159539619Y-99976000D01*
X159487605Y-99981123D01*
X159420876Y-100001365D01*
X159359378Y-100034236D01*
X159305475Y-100078474D01*
X159294394Y-100091976D01*
X158585228Y-100801143D01*
X158585228Y-100750000D01*
X158580324Y-100700207D01*
X158565800Y-100652328D01*
X158542214Y-100608203D01*
X158510473Y-100569527D01*
X158471797Y-100537786D01*
X158427672Y-100514200D01*
X158379793Y-100499676D01*
X158330000Y-100494772D01*
X156630000Y-100494772D01*
X156580207Y-100499676D01*
X156532328Y-100514200D01*
X156488203Y-100537786D01*
X156449527Y-100569527D01*
X156417786Y-100608203D01*
X156394200Y-100652328D01*
X156379676Y-100700207D01*
X156374772Y-100750000D01*
X155828782Y-100750000D01*
X155657082Y-100599410D01*
X155448098Y-100478740D01*
X155373569Y-100447881D01*
X155188000Y-100491657D01*
X154692000Y-100491657D01*
X154506431Y-100447881D01*
X154431902Y-100478740D01*
X154222918Y-100599410D01*
X154041491Y-100758532D01*
X153894593Y-100949991D01*
X153787870Y-101166429D01*
X153415370Y-101166429D01*
X153378352Y-101077060D01*
X153257533Y-100896241D01*
X153103759Y-100742467D01*
X152922940Y-100621648D01*
X152722025Y-100538426D01*
X152508735Y-100496000D01*
X152291265Y-100496000D01*
X152077975Y-100538426D01*
X151877060Y-100621648D01*
X151696241Y-100742467D01*
X151542467Y-100896241D01*
X151421648Y-101077060D01*
X151338426Y-101277975D01*
X151296000Y-101491265D01*
X144449000Y-101491265D01*
X144449000Y-98951265D01*
X151296000Y-98951265D01*
X151296000Y-99168735D01*
X151338426Y-99382025D01*
X151421648Y-99582940D01*
X151542467Y-99763759D01*
X151696241Y-99917533D01*
X151877060Y-100038352D01*
X152077975Y-100121574D01*
X152291265Y-100164000D01*
X152508735Y-100164000D01*
X152722025Y-100121574D01*
X152922940Y-100038352D01*
X153103759Y-99917533D01*
X153257533Y-99763759D01*
X153378352Y-99582940D01*
X153415369Y-99493571D01*
X153787870Y-99493571D01*
X153894593Y-99710009D01*
X154041491Y-99901468D01*
X154222918Y-100060590D01*
X154431902Y-100181260D01*
X154506431Y-100212119D01*
X154692000Y-100168343D01*
X154692000Y-99308000D01*
X155188000Y-99308000D01*
X155188000Y-100168343D01*
X155373569Y-100212119D01*
X155448098Y-100181260D01*
X155657082Y-100060590D01*
X155838509Y-99901468D01*
X155985407Y-99710009D01*
X156092130Y-99493571D01*
X156050521Y-99308000D01*
X155188000Y-99308000D01*
X154692000Y-99308000D01*
X153829479Y-99308000D01*
X153787870Y-99493571D01*
X153415369Y-99493571D01*
X153461574Y-99382025D01*
X153504000Y-99168735D01*
X153504000Y-98951265D01*
X153461574Y-98737975D01*
X153415370Y-98626429D01*
X153787870Y-98626429D01*
X153829479Y-98812000D01*
X154692000Y-98812000D01*
X154692000Y-97951657D01*
X155188000Y-97951657D01*
X155188000Y-98812000D01*
X156050521Y-98812000D01*
X156092130Y-98626429D01*
X155985407Y-98409991D01*
X155838509Y-98218532D01*
X155828782Y-98210000D01*
X156374772Y-98210000D01*
X156374772Y-99910000D01*
X156379676Y-99959793D01*
X156394200Y-100007672D01*
X156417786Y-100051797D01*
X156449527Y-100090473D01*
X156488203Y-100122214D01*
X156532328Y-100145800D01*
X156580207Y-100160324D01*
X156630000Y-100165228D01*
X158330000Y-100165228D01*
X158379793Y-100160324D01*
X158427672Y-100145800D01*
X158471797Y-100122214D01*
X158510473Y-100090473D01*
X158542214Y-100051797D01*
X158565800Y-100007672D01*
X158580324Y-99959793D01*
X158585228Y-99910000D01*
X158585228Y-99414000D01*
X161272626Y-99414000D01*
X161290000Y-99415711D01*
X161307374Y-99414000D01*
X161307382Y-99414000D01*
X161359396Y-99408877D01*
X161426125Y-99388635D01*
X161487623Y-99355764D01*
X161541526Y-99311526D01*
X161552612Y-99298018D01*
X164434440Y-96416190D01*
X165316000Y-96416190D01*
X165316000Y-96623810D01*
X165356504Y-96827441D01*
X165435957Y-97019256D01*
X165551305Y-97191886D01*
X165698114Y-97338695D01*
X165870744Y-97454043D01*
X166062559Y-97533496D01*
X166266190Y-97574000D01*
X166473810Y-97574000D01*
X166677441Y-97533496D01*
X166869256Y-97454043D01*
X167041886Y-97338695D01*
X167188695Y-97191886D01*
X167304043Y-97019256D01*
X167383496Y-96827441D01*
X167424000Y-96623810D01*
X167424000Y-96416190D01*
X167856000Y-96416190D01*
X167856000Y-96623810D01*
X167896504Y-96827441D01*
X167975957Y-97019256D01*
X168091305Y-97191886D01*
X168238114Y-97338695D01*
X168410744Y-97454043D01*
X168602559Y-97533496D01*
X168806190Y-97574000D01*
X169013810Y-97574000D01*
X169217441Y-97533496D01*
X169409256Y-97454043D01*
X169581886Y-97338695D01*
X169728695Y-97191886D01*
X169844043Y-97019256D01*
X169923496Y-96827441D01*
X169964000Y-96623810D01*
X169964000Y-96416190D01*
X170396000Y-96416190D01*
X170396000Y-96623810D01*
X170436504Y-96827441D01*
X170515957Y-97019256D01*
X170631305Y-97191886D01*
X170778114Y-97338695D01*
X170950744Y-97454043D01*
X171142559Y-97533496D01*
X171346190Y-97574000D01*
X171553810Y-97574000D01*
X171757441Y-97533496D01*
X171949256Y-97454043D01*
X172121886Y-97338695D01*
X172268695Y-97191886D01*
X172384043Y-97019256D01*
X172463496Y-96827441D01*
X172504000Y-96623810D01*
X172504000Y-96416190D01*
X172936000Y-96416190D01*
X172936000Y-96623810D01*
X172976504Y-96827441D01*
X173055957Y-97019256D01*
X173171305Y-97191886D01*
X173318114Y-97338695D01*
X173490744Y-97454043D01*
X173682559Y-97533496D01*
X173886190Y-97574000D01*
X174093810Y-97574000D01*
X174297441Y-97533496D01*
X174489256Y-97454043D01*
X174661886Y-97338695D01*
X174808695Y-97191886D01*
X174924043Y-97019256D01*
X175003496Y-96827441D01*
X175044000Y-96623810D01*
X175044000Y-96416190D01*
X175476000Y-96416190D01*
X175476000Y-96623810D01*
X175516504Y-96827441D01*
X175595957Y-97019256D01*
X175711305Y-97191886D01*
X175858114Y-97338695D01*
X176030744Y-97454043D01*
X176222559Y-97533496D01*
X176426190Y-97574000D01*
X176633810Y-97574000D01*
X176837441Y-97533496D01*
X177029256Y-97454043D01*
X177201886Y-97338695D01*
X177348695Y-97191886D01*
X177464043Y-97019256D01*
X177543496Y-96827441D01*
X177584000Y-96623810D01*
X177584000Y-96416190D01*
X178016000Y-96416190D01*
X178016000Y-96623810D01*
X178056504Y-96827441D01*
X178135957Y-97019256D01*
X178251305Y-97191886D01*
X178398114Y-97338695D01*
X178570744Y-97454043D01*
X178762559Y-97533496D01*
X178966190Y-97574000D01*
X179173810Y-97574000D01*
X179377441Y-97533496D01*
X179569256Y-97454043D01*
X179741886Y-97338695D01*
X179888695Y-97191886D01*
X180004043Y-97019256D01*
X180083496Y-96827441D01*
X180124000Y-96623810D01*
X180124000Y-96416190D01*
X180083496Y-96212559D01*
X180004043Y-96020744D01*
X179888695Y-95848114D01*
X179741886Y-95701305D01*
X179569256Y-95585957D01*
X179377441Y-95506504D01*
X179173810Y-95466000D01*
X178966190Y-95466000D01*
X178762559Y-95506504D01*
X178570744Y-95585957D01*
X178398114Y-95701305D01*
X178251305Y-95848114D01*
X178135957Y-96020744D01*
X178056504Y-96212559D01*
X178016000Y-96416190D01*
X177584000Y-96416190D01*
X177543496Y-96212559D01*
X177464043Y-96020744D01*
X177348695Y-95848114D01*
X177201886Y-95701305D01*
X177029256Y-95585957D01*
X176837441Y-95506504D01*
X176633810Y-95466000D01*
X176426190Y-95466000D01*
X176222559Y-95506504D01*
X176030744Y-95585957D01*
X175858114Y-95701305D01*
X175711305Y-95848114D01*
X175595957Y-96020744D01*
X175516504Y-96212559D01*
X175476000Y-96416190D01*
X175044000Y-96416190D01*
X175003496Y-96212559D01*
X174924043Y-96020744D01*
X174808695Y-95848114D01*
X174661886Y-95701305D01*
X174489256Y-95585957D01*
X174297441Y-95506504D01*
X174093810Y-95466000D01*
X173886190Y-95466000D01*
X173682559Y-95506504D01*
X173490744Y-95585957D01*
X173318114Y-95701305D01*
X173171305Y-95848114D01*
X173055957Y-96020744D01*
X172976504Y-96212559D01*
X172936000Y-96416190D01*
X172504000Y-96416190D01*
X172463496Y-96212559D01*
X172384043Y-96020744D01*
X172268695Y-95848114D01*
X172121886Y-95701305D01*
X171949256Y-95585957D01*
X171757441Y-95506504D01*
X171553810Y-95466000D01*
X171346190Y-95466000D01*
X171142559Y-95506504D01*
X170950744Y-95585957D01*
X170778114Y-95701305D01*
X170631305Y-95848114D01*
X170515957Y-96020744D01*
X170436504Y-96212559D01*
X170396000Y-96416190D01*
X169964000Y-96416190D01*
X169923496Y-96212559D01*
X169844043Y-96020744D01*
X169728695Y-95848114D01*
X169581886Y-95701305D01*
X169409256Y-95585957D01*
X169217441Y-95506504D01*
X169013810Y-95466000D01*
X168806190Y-95466000D01*
X168602559Y-95506504D01*
X168410744Y-95585957D01*
X168238114Y-95701305D01*
X168091305Y-95848114D01*
X167975957Y-96020744D01*
X167896504Y-96212559D01*
X167856000Y-96416190D01*
X167424000Y-96416190D01*
X167383496Y-96212559D01*
X167304043Y-96020744D01*
X167188695Y-95848114D01*
X167041886Y-95701305D01*
X166869256Y-95585957D01*
X166677441Y-95506504D01*
X166473810Y-95466000D01*
X166266190Y-95466000D01*
X166062559Y-95506504D01*
X165870744Y-95585957D01*
X165698114Y-95701305D01*
X165551305Y-95848114D01*
X165435957Y-96020744D01*
X165356504Y-96212559D01*
X165316000Y-96416190D01*
X164434440Y-96416190D01*
X165917303Y-94933328D01*
X166062559Y-94993496D01*
X166266190Y-95034000D01*
X166473810Y-95034000D01*
X166677441Y-94993496D01*
X166869256Y-94914043D01*
X167041886Y-94798695D01*
X167188695Y-94651886D01*
X167304043Y-94479256D01*
X167383496Y-94287441D01*
X167424000Y-94083810D01*
X167424000Y-93876190D01*
X167856000Y-93876190D01*
X167856000Y-94083810D01*
X167896504Y-94287441D01*
X167975957Y-94479256D01*
X168091305Y-94651886D01*
X168238114Y-94798695D01*
X168410744Y-94914043D01*
X168602559Y-94993496D01*
X168806190Y-95034000D01*
X169013810Y-95034000D01*
X169217441Y-94993496D01*
X169409256Y-94914043D01*
X169581886Y-94798695D01*
X169728695Y-94651886D01*
X169844043Y-94479256D01*
X169923496Y-94287441D01*
X169964000Y-94083810D01*
X169964000Y-93876190D01*
X170396000Y-93876190D01*
X170396000Y-94083810D01*
X170436504Y-94287441D01*
X170515957Y-94479256D01*
X170631305Y-94651886D01*
X170778114Y-94798695D01*
X170950744Y-94914043D01*
X171142559Y-94993496D01*
X171346190Y-95034000D01*
X171553810Y-95034000D01*
X171757441Y-94993496D01*
X171949256Y-94914043D01*
X172121886Y-94798695D01*
X172268695Y-94651886D01*
X172384043Y-94479256D01*
X172463496Y-94287441D01*
X172504000Y-94083810D01*
X172504000Y-93876190D01*
X172936000Y-93876190D01*
X172936000Y-94083810D01*
X172976504Y-94287441D01*
X173055957Y-94479256D01*
X173171305Y-94651886D01*
X173318114Y-94798695D01*
X173490744Y-94914043D01*
X173682559Y-94993496D01*
X173886190Y-95034000D01*
X174093810Y-95034000D01*
X174297441Y-94993496D01*
X174489256Y-94914043D01*
X174661886Y-94798695D01*
X174808695Y-94651886D01*
X174924043Y-94479256D01*
X175003496Y-94287441D01*
X175044000Y-94083810D01*
X175044000Y-93876190D01*
X175476000Y-93876190D01*
X175476000Y-94083810D01*
X175516504Y-94287441D01*
X175595957Y-94479256D01*
X175711305Y-94651886D01*
X175858114Y-94798695D01*
X176030744Y-94914043D01*
X176222559Y-94993496D01*
X176426190Y-95034000D01*
X176633810Y-95034000D01*
X176837441Y-94993496D01*
X177029256Y-94914043D01*
X177201886Y-94798695D01*
X177348695Y-94651886D01*
X177464043Y-94479256D01*
X177543496Y-94287441D01*
X177584000Y-94083810D01*
X177584000Y-93876190D01*
X178016000Y-93876190D01*
X178016000Y-94083810D01*
X178056504Y-94287441D01*
X178135957Y-94479256D01*
X178251305Y-94651886D01*
X178398114Y-94798695D01*
X178570744Y-94914043D01*
X178762559Y-94993496D01*
X178966190Y-95034000D01*
X179173810Y-95034000D01*
X179377441Y-94993496D01*
X179569256Y-94914043D01*
X179741886Y-94798695D01*
X179888695Y-94651886D01*
X180004043Y-94479256D01*
X180083496Y-94287441D01*
X180124000Y-94083810D01*
X180124000Y-93876190D01*
X180556000Y-93876190D01*
X180556000Y-94083810D01*
X180596504Y-94287441D01*
X180675957Y-94479256D01*
X180791305Y-94651886D01*
X180938114Y-94798695D01*
X181110744Y-94914043D01*
X181302559Y-94993496D01*
X181506190Y-95034000D01*
X181713810Y-95034000D01*
X181917441Y-94993496D01*
X182109256Y-94914043D01*
X182281886Y-94798695D01*
X182428695Y-94651886D01*
X182544043Y-94479256D01*
X182623496Y-94287441D01*
X182664000Y-94083810D01*
X182664000Y-93876190D01*
X182623496Y-93672559D01*
X182544043Y-93480744D01*
X182428695Y-93308114D01*
X182281886Y-93161305D01*
X182109256Y-93045957D01*
X181917441Y-92966504D01*
X181713810Y-92926000D01*
X181506190Y-92926000D01*
X181302559Y-92966504D01*
X181110744Y-93045957D01*
X180938114Y-93161305D01*
X180791305Y-93308114D01*
X180675957Y-93480744D01*
X180596504Y-93672559D01*
X180556000Y-93876190D01*
X180124000Y-93876190D01*
X180083496Y-93672559D01*
X180004043Y-93480744D01*
X179888695Y-93308114D01*
X179741886Y-93161305D01*
X179569256Y-93045957D01*
X179377441Y-92966504D01*
X179173810Y-92926000D01*
X178966190Y-92926000D01*
X178762559Y-92966504D01*
X178570744Y-93045957D01*
X178398114Y-93161305D01*
X178251305Y-93308114D01*
X178135957Y-93480744D01*
X178056504Y-93672559D01*
X178016000Y-93876190D01*
X177584000Y-93876190D01*
X177543496Y-93672559D01*
X177464043Y-93480744D01*
X177348695Y-93308114D01*
X177201886Y-93161305D01*
X177029256Y-93045957D01*
X176837441Y-92966504D01*
X176633810Y-92926000D01*
X176426190Y-92926000D01*
X176222559Y-92966504D01*
X176030744Y-93045957D01*
X175858114Y-93161305D01*
X175711305Y-93308114D01*
X175595957Y-93480744D01*
X175516504Y-93672559D01*
X175476000Y-93876190D01*
X175044000Y-93876190D01*
X175003496Y-93672559D01*
X174924043Y-93480744D01*
X174808695Y-93308114D01*
X174661886Y-93161305D01*
X174489256Y-93045957D01*
X174297441Y-92966504D01*
X174093810Y-92926000D01*
X173886190Y-92926000D01*
X173682559Y-92966504D01*
X173490744Y-93045957D01*
X173318114Y-93161305D01*
X173171305Y-93308114D01*
X173055957Y-93480744D01*
X172976504Y-93672559D01*
X172936000Y-93876190D01*
X172504000Y-93876190D01*
X172463496Y-93672559D01*
X172384043Y-93480744D01*
X172268695Y-93308114D01*
X172121886Y-93161305D01*
X171949256Y-93045957D01*
X171757441Y-92966504D01*
X171553810Y-92926000D01*
X171346190Y-92926000D01*
X171142559Y-92966504D01*
X170950744Y-93045957D01*
X170778114Y-93161305D01*
X170631305Y-93308114D01*
X170515957Y-93480744D01*
X170436504Y-93672559D01*
X170396000Y-93876190D01*
X169964000Y-93876190D01*
X169923496Y-93672559D01*
X169844043Y-93480744D01*
X169728695Y-93308114D01*
X169581886Y-93161305D01*
X169409256Y-93045957D01*
X169217441Y-92966504D01*
X169013810Y-92926000D01*
X168806190Y-92926000D01*
X168602559Y-92966504D01*
X168410744Y-93045957D01*
X168238114Y-93161305D01*
X168091305Y-93308114D01*
X167975957Y-93480744D01*
X167896504Y-93672559D01*
X167856000Y-93876190D01*
X167424000Y-93876190D01*
X167383496Y-93672559D01*
X167304043Y-93480744D01*
X167188695Y-93308114D01*
X167041886Y-93161305D01*
X166869256Y-93045957D01*
X166677441Y-92966504D01*
X166473810Y-92926000D01*
X166266190Y-92926000D01*
X166062559Y-92966504D01*
X165870744Y-93045957D01*
X165698114Y-93161305D01*
X165551305Y-93308114D01*
X165435957Y-93480744D01*
X165356504Y-93672559D01*
X165316000Y-93876190D01*
X165316000Y-94083810D01*
X165356504Y-94287441D01*
X165416672Y-94432697D01*
X161143370Y-98706000D01*
X158585228Y-98706000D01*
X158585228Y-98210000D01*
X158580324Y-98160207D01*
X158565800Y-98112328D01*
X158542214Y-98068203D01*
X158510473Y-98029527D01*
X158471797Y-97997786D01*
X158427672Y-97974200D01*
X158379793Y-97959676D01*
X158330000Y-97954772D01*
X156630000Y-97954772D01*
X156580207Y-97959676D01*
X156532328Y-97974200D01*
X156488203Y-97997786D01*
X156449527Y-98029527D01*
X156417786Y-98068203D01*
X156394200Y-98112328D01*
X156379676Y-98160207D01*
X156374772Y-98210000D01*
X155828782Y-98210000D01*
X155657082Y-98059410D01*
X155448098Y-97938740D01*
X155373569Y-97907881D01*
X155188000Y-97951657D01*
X154692000Y-97951657D01*
X154506431Y-97907881D01*
X154431902Y-97938740D01*
X154222918Y-98059410D01*
X154041491Y-98218532D01*
X153894593Y-98409991D01*
X153787870Y-98626429D01*
X153415370Y-98626429D01*
X153378352Y-98537060D01*
X153257533Y-98356241D01*
X153103759Y-98202467D01*
X152922940Y-98081648D01*
X152722025Y-97998426D01*
X152508735Y-97956000D01*
X152291265Y-97956000D01*
X152077975Y-97998426D01*
X151877060Y-98081648D01*
X151696241Y-98202467D01*
X151542467Y-98356241D01*
X151421648Y-98537060D01*
X151338426Y-98737975D01*
X151296000Y-98951265D01*
X144449000Y-98951265D01*
X144449000Y-93871265D01*
X151296000Y-93871265D01*
X151296000Y-94088735D01*
X151338426Y-94302025D01*
X151421648Y-94502940D01*
X151542467Y-94683759D01*
X151696241Y-94837533D01*
X151877060Y-94958352D01*
X152077975Y-95041574D01*
X152291265Y-95084000D01*
X152508735Y-95084000D01*
X152722025Y-95041574D01*
X152922940Y-94958352D01*
X153103759Y-94837533D01*
X153257533Y-94683759D01*
X153378352Y-94502940D01*
X153415369Y-94413571D01*
X153787870Y-94413571D01*
X153894593Y-94630009D01*
X154041491Y-94821468D01*
X154222918Y-94980590D01*
X154431902Y-95101260D01*
X154506431Y-95132119D01*
X154692000Y-95088343D01*
X154692000Y-94228000D01*
X155188000Y-94228000D01*
X155188000Y-95088343D01*
X155373569Y-95132119D01*
X155448098Y-95101260D01*
X155657082Y-94980590D01*
X155838509Y-94821468D01*
X155985407Y-94630009D01*
X156092130Y-94413571D01*
X156050521Y-94228000D01*
X155188000Y-94228000D01*
X154692000Y-94228000D01*
X153829479Y-94228000D01*
X153787870Y-94413571D01*
X153415369Y-94413571D01*
X153461574Y-94302025D01*
X153504000Y-94088735D01*
X153504000Y-93871265D01*
X153461574Y-93657975D01*
X153415370Y-93546429D01*
X153787870Y-93546429D01*
X153829479Y-93732000D01*
X154692000Y-93732000D01*
X154692000Y-92871657D01*
X155188000Y-92871657D01*
X155188000Y-93732000D01*
X156050521Y-93732000D01*
X156092130Y-93546429D01*
X155985407Y-93329991D01*
X155838509Y-93138532D01*
X155828782Y-93130000D01*
X156374772Y-93130000D01*
X156374772Y-94830000D01*
X156379676Y-94879793D01*
X156394200Y-94927672D01*
X156417786Y-94971797D01*
X156449527Y-95010473D01*
X156488203Y-95042214D01*
X156532328Y-95065800D01*
X156580207Y-95080324D01*
X156630000Y-95085228D01*
X158330000Y-95085228D01*
X158379793Y-95080324D01*
X158427672Y-95065800D01*
X158471797Y-95042214D01*
X158510473Y-95010473D01*
X158542214Y-94971797D01*
X158565800Y-94927672D01*
X158580324Y-94879793D01*
X158585228Y-94830000D01*
X158585228Y-94334000D01*
X163812626Y-94334000D01*
X163830000Y-94335711D01*
X163847374Y-94334000D01*
X163847382Y-94334000D01*
X163899396Y-94328877D01*
X163966125Y-94308635D01*
X164027623Y-94275764D01*
X164081526Y-94231526D01*
X164092612Y-94218018D01*
X165917303Y-92393328D01*
X166062559Y-92453496D01*
X166266190Y-92494000D01*
X166473810Y-92494000D01*
X166677441Y-92453496D01*
X166869256Y-92374043D01*
X167041886Y-92258695D01*
X167188695Y-92111886D01*
X167304043Y-91939256D01*
X167383496Y-91747441D01*
X167424000Y-91543810D01*
X167424000Y-91336190D01*
X180556000Y-91336190D01*
X180556000Y-91543810D01*
X180596504Y-91747441D01*
X180675957Y-91939256D01*
X180791305Y-92111886D01*
X180938114Y-92258695D01*
X181110744Y-92374043D01*
X181302559Y-92453496D01*
X181506190Y-92494000D01*
X181713810Y-92494000D01*
X181917441Y-92453496D01*
X182109256Y-92374043D01*
X182281886Y-92258695D01*
X182428695Y-92111886D01*
X182544043Y-91939256D01*
X182623496Y-91747441D01*
X182664000Y-91543810D01*
X182664000Y-91336190D01*
X182623496Y-91132559D01*
X182544043Y-90940744D01*
X182428695Y-90768114D01*
X182281886Y-90621305D01*
X182109256Y-90505957D01*
X181917441Y-90426504D01*
X181713810Y-90386000D01*
X181506190Y-90386000D01*
X181302559Y-90426504D01*
X181110744Y-90505957D01*
X180938114Y-90621305D01*
X180791305Y-90768114D01*
X180675957Y-90940744D01*
X180596504Y-91132559D01*
X180556000Y-91336190D01*
X167424000Y-91336190D01*
X167383496Y-91132559D01*
X167304043Y-90940744D01*
X167188695Y-90768114D01*
X167041886Y-90621305D01*
X166869256Y-90505957D01*
X166677441Y-90426504D01*
X166473810Y-90386000D01*
X166266190Y-90386000D01*
X166062559Y-90426504D01*
X165870744Y-90505957D01*
X165698114Y-90621305D01*
X165551305Y-90768114D01*
X165435957Y-90940744D01*
X165356504Y-91132559D01*
X165316000Y-91336190D01*
X165316000Y-91543810D01*
X165356504Y-91747441D01*
X165416672Y-91892697D01*
X163683370Y-93626000D01*
X158585228Y-93626000D01*
X158585228Y-93130000D01*
X158580324Y-93080207D01*
X158565800Y-93032328D01*
X158542214Y-92988203D01*
X158510473Y-92949527D01*
X158471797Y-92917786D01*
X158427672Y-92894200D01*
X158379793Y-92879676D01*
X158330000Y-92874772D01*
X156630000Y-92874772D01*
X156580207Y-92879676D01*
X156532328Y-92894200D01*
X156488203Y-92917786D01*
X156449527Y-92949527D01*
X156417786Y-92988203D01*
X156394200Y-93032328D01*
X156379676Y-93080207D01*
X156374772Y-93130000D01*
X155828782Y-93130000D01*
X155657082Y-92979410D01*
X155448098Y-92858740D01*
X155373569Y-92827881D01*
X155188000Y-92871657D01*
X154692000Y-92871657D01*
X154506431Y-92827881D01*
X154431902Y-92858740D01*
X154222918Y-92979410D01*
X154041491Y-93138532D01*
X153894593Y-93329991D01*
X153787870Y-93546429D01*
X153415370Y-93546429D01*
X153378352Y-93457060D01*
X153257533Y-93276241D01*
X153103759Y-93122467D01*
X152922940Y-93001648D01*
X152722025Y-92918426D01*
X152508735Y-92876000D01*
X152291265Y-92876000D01*
X152077975Y-92918426D01*
X151877060Y-93001648D01*
X151696241Y-93122467D01*
X151542467Y-93276241D01*
X151421648Y-93457060D01*
X151338426Y-93657975D01*
X151296000Y-93871265D01*
X144449000Y-93871265D01*
X144449000Y-91331265D01*
X151296000Y-91331265D01*
X151296000Y-91548735D01*
X151338426Y-91762025D01*
X151421648Y-91962940D01*
X151542467Y-92143759D01*
X151696241Y-92297533D01*
X151877060Y-92418352D01*
X152077975Y-92501574D01*
X152291265Y-92544000D01*
X152508735Y-92544000D01*
X152722025Y-92501574D01*
X152922940Y-92418352D01*
X153103759Y-92297533D01*
X153257533Y-92143759D01*
X153378352Y-91962940D01*
X153415369Y-91873571D01*
X153787870Y-91873571D01*
X153894593Y-92090009D01*
X154041491Y-92281468D01*
X154222918Y-92440590D01*
X154431902Y-92561260D01*
X154506431Y-92592119D01*
X154692000Y-92548343D01*
X154692000Y-91688000D01*
X155188000Y-91688000D01*
X155188000Y-92548343D01*
X155373569Y-92592119D01*
X155448098Y-92561260D01*
X155657082Y-92440590D01*
X155838509Y-92281468D01*
X155985407Y-92090009D01*
X156092130Y-91873571D01*
X156050521Y-91688000D01*
X155188000Y-91688000D01*
X154692000Y-91688000D01*
X153829479Y-91688000D01*
X153787870Y-91873571D01*
X153415369Y-91873571D01*
X153461574Y-91762025D01*
X153504000Y-91548735D01*
X153504000Y-91331265D01*
X153461574Y-91117975D01*
X153415370Y-91006429D01*
X153787870Y-91006429D01*
X153829479Y-91192000D01*
X154692000Y-91192000D01*
X154692000Y-90331657D01*
X155188000Y-90331657D01*
X155188000Y-91192000D01*
X156050521Y-91192000D01*
X156092130Y-91006429D01*
X155985407Y-90789991D01*
X155838509Y-90598532D01*
X155828782Y-90590000D01*
X156374772Y-90590000D01*
X156374772Y-92290000D01*
X156379676Y-92339793D01*
X156394200Y-92387672D01*
X156417786Y-92431797D01*
X156449527Y-92470473D01*
X156488203Y-92502214D01*
X156532328Y-92525800D01*
X156580207Y-92540324D01*
X156630000Y-92545228D01*
X158330000Y-92545228D01*
X158379793Y-92540324D01*
X158427672Y-92525800D01*
X158471797Y-92502214D01*
X158510473Y-92470473D01*
X158542214Y-92431797D01*
X158565800Y-92387672D01*
X158580324Y-92339793D01*
X158585228Y-92290000D01*
X158585228Y-91794000D01*
X163812626Y-91794000D01*
X163830000Y-91795711D01*
X163847374Y-91794000D01*
X163847382Y-91794000D01*
X163899396Y-91788877D01*
X163966125Y-91768635D01*
X164027623Y-91735764D01*
X164081526Y-91691526D01*
X164092612Y-91678018D01*
X165917303Y-89853328D01*
X166062559Y-89913496D01*
X166266190Y-89954000D01*
X166473810Y-89954000D01*
X166677441Y-89913496D01*
X166869256Y-89834043D01*
X167041886Y-89718695D01*
X167188695Y-89571886D01*
X167304043Y-89399256D01*
X167383496Y-89207441D01*
X167424000Y-89003810D01*
X167424000Y-88796190D01*
X180556000Y-88796190D01*
X180556000Y-89003810D01*
X180596504Y-89207441D01*
X180675957Y-89399256D01*
X180791305Y-89571886D01*
X180938114Y-89718695D01*
X181110744Y-89834043D01*
X181302559Y-89913496D01*
X181506190Y-89954000D01*
X181713810Y-89954000D01*
X181917441Y-89913496D01*
X182109256Y-89834043D01*
X182281886Y-89718695D01*
X182428695Y-89571886D01*
X182544043Y-89399256D01*
X182623496Y-89207441D01*
X182664000Y-89003810D01*
X182664000Y-88796190D01*
X182623496Y-88592559D01*
X182544043Y-88400744D01*
X182428695Y-88228114D01*
X182281886Y-88081305D01*
X182109256Y-87965957D01*
X181917441Y-87886504D01*
X181713810Y-87846000D01*
X181506190Y-87846000D01*
X181302559Y-87886504D01*
X181110744Y-87965957D01*
X180938114Y-88081305D01*
X180791305Y-88228114D01*
X180675957Y-88400744D01*
X180596504Y-88592559D01*
X180556000Y-88796190D01*
X167424000Y-88796190D01*
X167383496Y-88592559D01*
X167304043Y-88400744D01*
X167188695Y-88228114D01*
X167041886Y-88081305D01*
X166869256Y-87965957D01*
X166677441Y-87886504D01*
X166473810Y-87846000D01*
X166266190Y-87846000D01*
X166062559Y-87886504D01*
X165870744Y-87965957D01*
X165698114Y-88081305D01*
X165551305Y-88228114D01*
X165435957Y-88400744D01*
X165356504Y-88592559D01*
X165316000Y-88796190D01*
X165316000Y-89003810D01*
X165356504Y-89207441D01*
X165416672Y-89352697D01*
X163683370Y-91086000D01*
X158585228Y-91086000D01*
X158585228Y-90590000D01*
X158580324Y-90540207D01*
X158565800Y-90492328D01*
X158542214Y-90448203D01*
X158510473Y-90409527D01*
X158471797Y-90377786D01*
X158427672Y-90354200D01*
X158379793Y-90339676D01*
X158330000Y-90334772D01*
X156630000Y-90334772D01*
X156580207Y-90339676D01*
X156532328Y-90354200D01*
X156488203Y-90377786D01*
X156449527Y-90409527D01*
X156417786Y-90448203D01*
X156394200Y-90492328D01*
X156379676Y-90540207D01*
X156374772Y-90590000D01*
X155828782Y-90590000D01*
X155657082Y-90439410D01*
X155448098Y-90318740D01*
X155373569Y-90287881D01*
X155188000Y-90331657D01*
X154692000Y-90331657D01*
X154506431Y-90287881D01*
X154431902Y-90318740D01*
X154222918Y-90439410D01*
X154041491Y-90598532D01*
X153894593Y-90789991D01*
X153787870Y-91006429D01*
X153415370Y-91006429D01*
X153378352Y-90917060D01*
X153257533Y-90736241D01*
X153103759Y-90582467D01*
X152922940Y-90461648D01*
X152722025Y-90378426D01*
X152508735Y-90336000D01*
X152291265Y-90336000D01*
X152077975Y-90378426D01*
X151877060Y-90461648D01*
X151696241Y-90582467D01*
X151542467Y-90736241D01*
X151421648Y-90917060D01*
X151338426Y-91117975D01*
X151296000Y-91331265D01*
X144449000Y-91331265D01*
X144449000Y-88791265D01*
X151296000Y-88791265D01*
X151296000Y-89008735D01*
X151338426Y-89222025D01*
X151421648Y-89422940D01*
X151542467Y-89603759D01*
X151696241Y-89757533D01*
X151877060Y-89878352D01*
X152077975Y-89961574D01*
X152291265Y-90004000D01*
X152508735Y-90004000D01*
X152722025Y-89961574D01*
X152922940Y-89878352D01*
X153103759Y-89757533D01*
X153257533Y-89603759D01*
X153378352Y-89422940D01*
X153415369Y-89333571D01*
X153787870Y-89333571D01*
X153894593Y-89550009D01*
X154041491Y-89741468D01*
X154222918Y-89900590D01*
X154431902Y-90021260D01*
X154506431Y-90052119D01*
X154692000Y-90008343D01*
X154692000Y-89148000D01*
X155188000Y-89148000D01*
X155188000Y-90008343D01*
X155373569Y-90052119D01*
X155448098Y-90021260D01*
X155657082Y-89900590D01*
X155838509Y-89741468D01*
X155985407Y-89550009D01*
X156092130Y-89333571D01*
X156050521Y-89148000D01*
X155188000Y-89148000D01*
X154692000Y-89148000D01*
X153829479Y-89148000D01*
X153787870Y-89333571D01*
X153415369Y-89333571D01*
X153461574Y-89222025D01*
X153504000Y-89008735D01*
X153504000Y-88791265D01*
X153461574Y-88577975D01*
X153415370Y-88466429D01*
X153787870Y-88466429D01*
X153829479Y-88652000D01*
X154692000Y-88652000D01*
X154692000Y-87791657D01*
X155188000Y-87791657D01*
X155188000Y-88652000D01*
X156050521Y-88652000D01*
X156092130Y-88466429D01*
X155985407Y-88249991D01*
X155838509Y-88058532D01*
X155828782Y-88050000D01*
X156374772Y-88050000D01*
X156374772Y-89750000D01*
X156379676Y-89799793D01*
X156394200Y-89847672D01*
X156417786Y-89891797D01*
X156449527Y-89930473D01*
X156488203Y-89962214D01*
X156532328Y-89985800D01*
X156580207Y-90000324D01*
X156630000Y-90005228D01*
X158330000Y-90005228D01*
X158379793Y-90000324D01*
X158427672Y-89985800D01*
X158471797Y-89962214D01*
X158510473Y-89930473D01*
X158542214Y-89891797D01*
X158565800Y-89847672D01*
X158580324Y-89799793D01*
X158585228Y-89750000D01*
X158585228Y-88050000D01*
X158580324Y-88000207D01*
X158565800Y-87952328D01*
X158542214Y-87908203D01*
X158510473Y-87869527D01*
X158471797Y-87837786D01*
X158427672Y-87814200D01*
X158379793Y-87799676D01*
X158330000Y-87794772D01*
X158035858Y-87794772D01*
X159116632Y-86714000D01*
X165375790Y-86714000D01*
X165435957Y-86859256D01*
X165551305Y-87031886D01*
X165698114Y-87178695D01*
X165870744Y-87294043D01*
X166062559Y-87373496D01*
X166266190Y-87414000D01*
X166473810Y-87414000D01*
X166677441Y-87373496D01*
X166869256Y-87294043D01*
X167041886Y-87178695D01*
X167188695Y-87031886D01*
X167304043Y-86859256D01*
X167383496Y-86667441D01*
X167424000Y-86463810D01*
X167424000Y-86256190D01*
X180556000Y-86256190D01*
X180556000Y-86463810D01*
X180596504Y-86667441D01*
X180675957Y-86859256D01*
X180791305Y-87031886D01*
X180938114Y-87178695D01*
X181110744Y-87294043D01*
X181302559Y-87373496D01*
X181506190Y-87414000D01*
X181713810Y-87414000D01*
X181917441Y-87373496D01*
X182109256Y-87294043D01*
X182281886Y-87178695D01*
X182428695Y-87031886D01*
X182544043Y-86859256D01*
X182623496Y-86667441D01*
X182664000Y-86463810D01*
X182664000Y-86256190D01*
X182623496Y-86052559D01*
X182544043Y-85860744D01*
X182428695Y-85688114D01*
X182281886Y-85541305D01*
X182109256Y-85425957D01*
X181917441Y-85346504D01*
X181713810Y-85306000D01*
X181506190Y-85306000D01*
X181302559Y-85346504D01*
X181110744Y-85425957D01*
X180938114Y-85541305D01*
X180791305Y-85688114D01*
X180675957Y-85860744D01*
X180596504Y-86052559D01*
X180556000Y-86256190D01*
X167424000Y-86256190D01*
X167383496Y-86052559D01*
X167304043Y-85860744D01*
X167188695Y-85688114D01*
X167041886Y-85541305D01*
X166869256Y-85425957D01*
X166677441Y-85346504D01*
X166473810Y-85306000D01*
X166266190Y-85306000D01*
X166062559Y-85346504D01*
X165870744Y-85425957D01*
X165698114Y-85541305D01*
X165551305Y-85688114D01*
X165435957Y-85860744D01*
X165375790Y-86006000D01*
X158987374Y-86006000D01*
X158969999Y-86004289D01*
X158952625Y-86006000D01*
X158952618Y-86006000D01*
X158907436Y-86010450D01*
X158900603Y-86011123D01*
X158880361Y-86017264D01*
X158833875Y-86031365D01*
X158772377Y-86064236D01*
X158772375Y-86064237D01*
X158772376Y-86064237D01*
X158731974Y-86097394D01*
X158731971Y-86097397D01*
X158718474Y-86108474D01*
X158707397Y-86121971D01*
X157241977Y-87587393D01*
X157228474Y-87598475D01*
X157184236Y-87652378D01*
X157151365Y-87713876D01*
X157141050Y-87747881D01*
X157131689Y-87778740D01*
X157131123Y-87780605D01*
X157129728Y-87794772D01*
X156630000Y-87794772D01*
X156580207Y-87799676D01*
X156532328Y-87814200D01*
X156488203Y-87837786D01*
X156449527Y-87869527D01*
X156417786Y-87908203D01*
X156394200Y-87952328D01*
X156379676Y-88000207D01*
X156374772Y-88050000D01*
X155828782Y-88050000D01*
X155657082Y-87899410D01*
X155448098Y-87778740D01*
X155373569Y-87747881D01*
X155188000Y-87791657D01*
X154692000Y-87791657D01*
X154506431Y-87747881D01*
X154431902Y-87778740D01*
X154222918Y-87899410D01*
X154041491Y-88058532D01*
X153894593Y-88249991D01*
X153787870Y-88466429D01*
X153415370Y-88466429D01*
X153378352Y-88377060D01*
X153257533Y-88196241D01*
X153103759Y-88042467D01*
X152922940Y-87921648D01*
X152722025Y-87838426D01*
X152508735Y-87796000D01*
X152291265Y-87796000D01*
X152077975Y-87838426D01*
X151877060Y-87921648D01*
X151696241Y-88042467D01*
X151542467Y-88196241D01*
X151421648Y-88377060D01*
X151338426Y-88577975D01*
X151296000Y-88791265D01*
X144449000Y-88791265D01*
X144449000Y-83711265D01*
X151296000Y-83711265D01*
X151296000Y-83928735D01*
X151338426Y-84142025D01*
X151421648Y-84342940D01*
X151542467Y-84523759D01*
X151696241Y-84677533D01*
X151877060Y-84798352D01*
X152077975Y-84881574D01*
X152291265Y-84924000D01*
X152508735Y-84924000D01*
X152722025Y-84881574D01*
X152922940Y-84798352D01*
X153103759Y-84677533D01*
X153257533Y-84523759D01*
X153378352Y-84342940D01*
X153415369Y-84253571D01*
X153787870Y-84253571D01*
X153894593Y-84470009D01*
X154041491Y-84661468D01*
X154222918Y-84820590D01*
X154431902Y-84941260D01*
X154506431Y-84972119D01*
X154692000Y-84928343D01*
X154692000Y-84068000D01*
X155188000Y-84068000D01*
X155188000Y-84928343D01*
X155373569Y-84972119D01*
X155448098Y-84941260D01*
X155657082Y-84820590D01*
X155838509Y-84661468D01*
X155985407Y-84470009D01*
X156092130Y-84253571D01*
X156050521Y-84068000D01*
X155188000Y-84068000D01*
X154692000Y-84068000D01*
X153829479Y-84068000D01*
X153787870Y-84253571D01*
X153415369Y-84253571D01*
X153461574Y-84142025D01*
X153504000Y-83928735D01*
X153504000Y-83711265D01*
X153461574Y-83497975D01*
X153415370Y-83386429D01*
X153787870Y-83386429D01*
X153829479Y-83572000D01*
X154692000Y-83572000D01*
X154692000Y-82711657D01*
X155188000Y-82711657D01*
X155188000Y-83572000D01*
X156050521Y-83572000D01*
X156092130Y-83386429D01*
X155985407Y-83169991D01*
X155838509Y-82978532D01*
X155828782Y-82970000D01*
X156374772Y-82970000D01*
X156374772Y-84670000D01*
X156379676Y-84719793D01*
X156394200Y-84767672D01*
X156417786Y-84811797D01*
X156449527Y-84850473D01*
X156488203Y-84882214D01*
X156532328Y-84905800D01*
X156580207Y-84920324D01*
X156630000Y-84925228D01*
X158330000Y-84925228D01*
X158379793Y-84920324D01*
X158427672Y-84905800D01*
X158471797Y-84882214D01*
X158510473Y-84850473D01*
X158542214Y-84811797D01*
X158565800Y-84767672D01*
X158580324Y-84719793D01*
X158585228Y-84670000D01*
X158585228Y-84174000D01*
X165375790Y-84174000D01*
X165435957Y-84319256D01*
X165551305Y-84491886D01*
X165698114Y-84638695D01*
X165870744Y-84754043D01*
X166062559Y-84833496D01*
X166266190Y-84874000D01*
X166473810Y-84874000D01*
X166677441Y-84833496D01*
X166869256Y-84754043D01*
X167041886Y-84638695D01*
X167188695Y-84491886D01*
X167304043Y-84319256D01*
X167383496Y-84127441D01*
X167424000Y-83923810D01*
X167424000Y-83716190D01*
X180556000Y-83716190D01*
X180556000Y-83923810D01*
X180596504Y-84127441D01*
X180675957Y-84319256D01*
X180791305Y-84491886D01*
X180938114Y-84638695D01*
X181110744Y-84754043D01*
X181302559Y-84833496D01*
X181506190Y-84874000D01*
X181713810Y-84874000D01*
X181917441Y-84833496D01*
X182109256Y-84754043D01*
X182281886Y-84638695D01*
X182428695Y-84491886D01*
X182544043Y-84319256D01*
X182623496Y-84127441D01*
X182664000Y-83923810D01*
X182664000Y-83716190D01*
X182623496Y-83512559D01*
X182544043Y-83320744D01*
X182428695Y-83148114D01*
X182281886Y-83001305D01*
X182109256Y-82885957D01*
X181917441Y-82806504D01*
X181713810Y-82766000D01*
X181506190Y-82766000D01*
X181302559Y-82806504D01*
X181110744Y-82885957D01*
X180938114Y-83001305D01*
X180791305Y-83148114D01*
X180675957Y-83320744D01*
X180596504Y-83512559D01*
X180556000Y-83716190D01*
X167424000Y-83716190D01*
X167383496Y-83512559D01*
X167304043Y-83320744D01*
X167188695Y-83148114D01*
X167041886Y-83001305D01*
X166869256Y-82885957D01*
X166677441Y-82806504D01*
X166473810Y-82766000D01*
X166266190Y-82766000D01*
X166062559Y-82806504D01*
X165870744Y-82885957D01*
X165698114Y-83001305D01*
X165551305Y-83148114D01*
X165435957Y-83320744D01*
X165375790Y-83466000D01*
X158585228Y-83466000D01*
X158585228Y-82970000D01*
X158580324Y-82920207D01*
X158565800Y-82872328D01*
X158542214Y-82828203D01*
X158510473Y-82789527D01*
X158471797Y-82757786D01*
X158427672Y-82734200D01*
X158379793Y-82719676D01*
X158330000Y-82714772D01*
X156630000Y-82714772D01*
X156580207Y-82719676D01*
X156532328Y-82734200D01*
X156488203Y-82757786D01*
X156449527Y-82789527D01*
X156417786Y-82828203D01*
X156394200Y-82872328D01*
X156379676Y-82920207D01*
X156374772Y-82970000D01*
X155828782Y-82970000D01*
X155657082Y-82819410D01*
X155448098Y-82698740D01*
X155373569Y-82667881D01*
X155188000Y-82711657D01*
X154692000Y-82711657D01*
X154506431Y-82667881D01*
X154431902Y-82698740D01*
X154222918Y-82819410D01*
X154041491Y-82978532D01*
X153894593Y-83169991D01*
X153787870Y-83386429D01*
X153415370Y-83386429D01*
X153378352Y-83297060D01*
X153257533Y-83116241D01*
X153103759Y-82962467D01*
X152922940Y-82841648D01*
X152722025Y-82758426D01*
X152508735Y-82716000D01*
X152291265Y-82716000D01*
X152077975Y-82758426D01*
X151877060Y-82841648D01*
X151696241Y-82962467D01*
X151542467Y-83116241D01*
X151421648Y-83297060D01*
X151338426Y-83497975D01*
X151296000Y-83711265D01*
X144449000Y-83711265D01*
X144449000Y-81171265D01*
X151296000Y-81171265D01*
X151296000Y-81388735D01*
X151338426Y-81602025D01*
X151421648Y-81802940D01*
X151542467Y-81983759D01*
X151696241Y-82137533D01*
X151877060Y-82258352D01*
X152077975Y-82341574D01*
X152291265Y-82384000D01*
X152508735Y-82384000D01*
X152722025Y-82341574D01*
X152922940Y-82258352D01*
X153103759Y-82137533D01*
X153257533Y-81983759D01*
X153378352Y-81802940D01*
X153415369Y-81713571D01*
X153787870Y-81713571D01*
X153894593Y-81930009D01*
X154041491Y-82121468D01*
X154222918Y-82280590D01*
X154431902Y-82401260D01*
X154506431Y-82432119D01*
X154692000Y-82388343D01*
X154692000Y-81528000D01*
X155188000Y-81528000D01*
X155188000Y-82388343D01*
X155373569Y-82432119D01*
X155448098Y-82401260D01*
X155657082Y-82280590D01*
X155838509Y-82121468D01*
X155985407Y-81930009D01*
X156092130Y-81713571D01*
X156050521Y-81528000D01*
X155188000Y-81528000D01*
X154692000Y-81528000D01*
X153829479Y-81528000D01*
X153787870Y-81713571D01*
X153415369Y-81713571D01*
X153461574Y-81602025D01*
X153504000Y-81388735D01*
X153504000Y-81171265D01*
X153461574Y-80957975D01*
X153415370Y-80846429D01*
X153787870Y-80846429D01*
X153829479Y-81032000D01*
X154692000Y-81032000D01*
X154692000Y-80171657D01*
X155188000Y-80171657D01*
X155188000Y-81032000D01*
X156050521Y-81032000D01*
X156092130Y-80846429D01*
X155985407Y-80629991D01*
X155838509Y-80438532D01*
X155828782Y-80430000D01*
X156374772Y-80430000D01*
X156374772Y-82130000D01*
X156379676Y-82179793D01*
X156394200Y-82227672D01*
X156417786Y-82271797D01*
X156449527Y-82310473D01*
X156488203Y-82342214D01*
X156532328Y-82365800D01*
X156580207Y-82380324D01*
X156630000Y-82385228D01*
X158330000Y-82385228D01*
X158379793Y-82380324D01*
X158427672Y-82365800D01*
X158471797Y-82342214D01*
X158510473Y-82310473D01*
X158542214Y-82271797D01*
X158565800Y-82227672D01*
X158580324Y-82179793D01*
X158585228Y-82130000D01*
X158585228Y-81634000D01*
X165375790Y-81634000D01*
X165435957Y-81779256D01*
X165551305Y-81951886D01*
X165698114Y-82098695D01*
X165870744Y-82214043D01*
X166062559Y-82293496D01*
X166266190Y-82334000D01*
X166473810Y-82334000D01*
X166677441Y-82293496D01*
X166869256Y-82214043D01*
X167041886Y-82098695D01*
X167188695Y-81951886D01*
X167304043Y-81779256D01*
X167383496Y-81587441D01*
X167424000Y-81383810D01*
X167424000Y-81176190D01*
X180556000Y-81176190D01*
X180556000Y-81383810D01*
X180596504Y-81587441D01*
X180675957Y-81779256D01*
X180791305Y-81951886D01*
X180938114Y-82098695D01*
X181110744Y-82214043D01*
X181302559Y-82293496D01*
X181506190Y-82334000D01*
X181713810Y-82334000D01*
X181917441Y-82293496D01*
X182109256Y-82214043D01*
X182281886Y-82098695D01*
X182428695Y-81951886D01*
X182544043Y-81779256D01*
X182623496Y-81587441D01*
X182664000Y-81383810D01*
X182664000Y-81176190D01*
X182623496Y-80972559D01*
X182544043Y-80780744D01*
X182428695Y-80608114D01*
X182281886Y-80461305D01*
X182109256Y-80345957D01*
X181917441Y-80266504D01*
X181713810Y-80226000D01*
X181506190Y-80226000D01*
X181302559Y-80266504D01*
X181110744Y-80345957D01*
X180938114Y-80461305D01*
X180791305Y-80608114D01*
X180675957Y-80780744D01*
X180596504Y-80972559D01*
X180556000Y-81176190D01*
X167424000Y-81176190D01*
X167383496Y-80972559D01*
X167304043Y-80780744D01*
X167188695Y-80608114D01*
X167041886Y-80461305D01*
X166869256Y-80345957D01*
X166677441Y-80266504D01*
X166473810Y-80226000D01*
X166266190Y-80226000D01*
X166062559Y-80266504D01*
X165870744Y-80345957D01*
X165698114Y-80461305D01*
X165551305Y-80608114D01*
X165435957Y-80780744D01*
X165375790Y-80926000D01*
X158585228Y-80926000D01*
X158585228Y-80430000D01*
X158580324Y-80380207D01*
X158565800Y-80332328D01*
X158542214Y-80288203D01*
X158510473Y-80249527D01*
X158471797Y-80217786D01*
X158427672Y-80194200D01*
X158379793Y-80179676D01*
X158330000Y-80174772D01*
X156630000Y-80174772D01*
X156580207Y-80179676D01*
X156532328Y-80194200D01*
X156488203Y-80217786D01*
X156449527Y-80249527D01*
X156417786Y-80288203D01*
X156394200Y-80332328D01*
X156379676Y-80380207D01*
X156374772Y-80430000D01*
X155828782Y-80430000D01*
X155657082Y-80279410D01*
X155448098Y-80158740D01*
X155373569Y-80127881D01*
X155188000Y-80171657D01*
X154692000Y-80171657D01*
X154506431Y-80127881D01*
X154431902Y-80158740D01*
X154222918Y-80279410D01*
X154041491Y-80438532D01*
X153894593Y-80629991D01*
X153787870Y-80846429D01*
X153415370Y-80846429D01*
X153378352Y-80757060D01*
X153257533Y-80576241D01*
X153103759Y-80422467D01*
X152922940Y-80301648D01*
X152722025Y-80218426D01*
X152508735Y-80176000D01*
X152291265Y-80176000D01*
X152077975Y-80218426D01*
X151877060Y-80301648D01*
X151696241Y-80422467D01*
X151542467Y-80576241D01*
X151421648Y-80757060D01*
X151338426Y-80957975D01*
X151296000Y-81171265D01*
X144449000Y-81171265D01*
X144449000Y-78631265D01*
X151296000Y-78631265D01*
X151296000Y-78848735D01*
X151338426Y-79062025D01*
X151421648Y-79262940D01*
X151542467Y-79443759D01*
X151696241Y-79597533D01*
X151877060Y-79718352D01*
X152077975Y-79801574D01*
X152291265Y-79844000D01*
X152508735Y-79844000D01*
X152722025Y-79801574D01*
X152922940Y-79718352D01*
X153103759Y-79597533D01*
X153257533Y-79443759D01*
X153378352Y-79262940D01*
X153415369Y-79173571D01*
X153787870Y-79173571D01*
X153894593Y-79390009D01*
X154041491Y-79581468D01*
X154222918Y-79740590D01*
X154431902Y-79861260D01*
X154506431Y-79892119D01*
X154692000Y-79848343D01*
X154692000Y-78988000D01*
X155188000Y-78988000D01*
X155188000Y-79848343D01*
X155373569Y-79892119D01*
X155448098Y-79861260D01*
X155657082Y-79740590D01*
X155838509Y-79581468D01*
X155985407Y-79390009D01*
X156092130Y-79173571D01*
X156050521Y-78988000D01*
X155188000Y-78988000D01*
X154692000Y-78988000D01*
X153829479Y-78988000D01*
X153787870Y-79173571D01*
X153415369Y-79173571D01*
X153461574Y-79062025D01*
X153504000Y-78848735D01*
X153504000Y-78631265D01*
X153461574Y-78417975D01*
X153415370Y-78306429D01*
X153787870Y-78306429D01*
X153829479Y-78492000D01*
X154692000Y-78492000D01*
X154692000Y-77631657D01*
X155188000Y-77631657D01*
X155188000Y-78492000D01*
X156050521Y-78492000D01*
X156092130Y-78306429D01*
X155985407Y-78089991D01*
X155838509Y-77898532D01*
X155828782Y-77890000D01*
X156374772Y-77890000D01*
X156374772Y-79590000D01*
X156379676Y-79639793D01*
X156394200Y-79687672D01*
X156417786Y-79731797D01*
X156449527Y-79770473D01*
X156488203Y-79802214D01*
X156532328Y-79825800D01*
X156580207Y-79840324D01*
X156630000Y-79845228D01*
X158330000Y-79845228D01*
X158379793Y-79840324D01*
X158427672Y-79825800D01*
X158471797Y-79802214D01*
X158510473Y-79770473D01*
X158542214Y-79731797D01*
X158565800Y-79687672D01*
X158580324Y-79639793D01*
X158585228Y-79590000D01*
X158585228Y-79094000D01*
X165375790Y-79094000D01*
X165435957Y-79239256D01*
X165551305Y-79411886D01*
X165698114Y-79558695D01*
X165870744Y-79674043D01*
X166062559Y-79753496D01*
X166266190Y-79794000D01*
X166473810Y-79794000D01*
X166677441Y-79753496D01*
X166869256Y-79674043D01*
X167041886Y-79558695D01*
X167188695Y-79411886D01*
X167304043Y-79239256D01*
X167383496Y-79047441D01*
X167424000Y-78843810D01*
X167424000Y-78636190D01*
X180556000Y-78636190D01*
X180556000Y-78843810D01*
X180596504Y-79047441D01*
X180675957Y-79239256D01*
X180791305Y-79411886D01*
X180938114Y-79558695D01*
X181110744Y-79674043D01*
X181302559Y-79753496D01*
X181506190Y-79794000D01*
X181713810Y-79794000D01*
X181917441Y-79753496D01*
X182109256Y-79674043D01*
X182281886Y-79558695D01*
X182428695Y-79411886D01*
X182544043Y-79239256D01*
X182623496Y-79047441D01*
X182664000Y-78843810D01*
X182664000Y-78636190D01*
X182623496Y-78432559D01*
X182544043Y-78240744D01*
X182428695Y-78068114D01*
X182281886Y-77921305D01*
X182109256Y-77805957D01*
X181917441Y-77726504D01*
X181713810Y-77686000D01*
X181506190Y-77686000D01*
X181302559Y-77726504D01*
X181110744Y-77805957D01*
X180938114Y-77921305D01*
X180791305Y-78068114D01*
X180675957Y-78240744D01*
X180596504Y-78432559D01*
X180556000Y-78636190D01*
X167424000Y-78636190D01*
X167383496Y-78432559D01*
X167304043Y-78240744D01*
X167188695Y-78068114D01*
X167041886Y-77921305D01*
X166869256Y-77805957D01*
X166677441Y-77726504D01*
X166473810Y-77686000D01*
X166266190Y-77686000D01*
X166062559Y-77726504D01*
X165870744Y-77805957D01*
X165698114Y-77921305D01*
X165551305Y-78068114D01*
X165435957Y-78240744D01*
X165375790Y-78386000D01*
X158585228Y-78386000D01*
X158585228Y-77890000D01*
X158580324Y-77840207D01*
X158565800Y-77792328D01*
X158542214Y-77748203D01*
X158510473Y-77709527D01*
X158471797Y-77677786D01*
X158427672Y-77654200D01*
X158379793Y-77639676D01*
X158330000Y-77634772D01*
X156630000Y-77634772D01*
X156580207Y-77639676D01*
X156532328Y-77654200D01*
X156488203Y-77677786D01*
X156449527Y-77709527D01*
X156417786Y-77748203D01*
X156394200Y-77792328D01*
X156379676Y-77840207D01*
X156374772Y-77890000D01*
X155828782Y-77890000D01*
X155657082Y-77739410D01*
X155448098Y-77618740D01*
X155373569Y-77587881D01*
X155188000Y-77631657D01*
X154692000Y-77631657D01*
X154506431Y-77587881D01*
X154431902Y-77618740D01*
X154222918Y-77739410D01*
X154041491Y-77898532D01*
X153894593Y-78089991D01*
X153787870Y-78306429D01*
X153415370Y-78306429D01*
X153378352Y-78217060D01*
X153257533Y-78036241D01*
X153103759Y-77882467D01*
X152922940Y-77761648D01*
X152722025Y-77678426D01*
X152508735Y-77636000D01*
X152291265Y-77636000D01*
X152077975Y-77678426D01*
X151877060Y-77761648D01*
X151696241Y-77882467D01*
X151542467Y-78036241D01*
X151421648Y-78217060D01*
X151338426Y-78417975D01*
X151296000Y-78631265D01*
X144449000Y-78631265D01*
X144449000Y-73551265D01*
X151296000Y-73551265D01*
X151296000Y-73768735D01*
X151338426Y-73982025D01*
X151421648Y-74182940D01*
X151542467Y-74363759D01*
X151696241Y-74517533D01*
X151877060Y-74638352D01*
X152077975Y-74721574D01*
X152291265Y-74764000D01*
X152508735Y-74764000D01*
X152722025Y-74721574D01*
X152922940Y-74638352D01*
X153103759Y-74517533D01*
X153257533Y-74363759D01*
X153378352Y-74182940D01*
X153415369Y-74093571D01*
X153787870Y-74093571D01*
X153894593Y-74310009D01*
X154041491Y-74501468D01*
X154222918Y-74660590D01*
X154431902Y-74781260D01*
X154506431Y-74812119D01*
X154692000Y-74768343D01*
X154692000Y-73908000D01*
X155188000Y-73908000D01*
X155188000Y-74768343D01*
X155373569Y-74812119D01*
X155448098Y-74781260D01*
X155657082Y-74660590D01*
X155838509Y-74501468D01*
X155985407Y-74310009D01*
X156092130Y-74093571D01*
X156050521Y-73908000D01*
X155188000Y-73908000D01*
X154692000Y-73908000D01*
X153829479Y-73908000D01*
X153787870Y-74093571D01*
X153415369Y-74093571D01*
X153461574Y-73982025D01*
X153504000Y-73768735D01*
X153504000Y-73551265D01*
X153461574Y-73337975D01*
X153415370Y-73226429D01*
X153787870Y-73226429D01*
X153829479Y-73412000D01*
X154692000Y-73412000D01*
X154692000Y-72551657D01*
X155188000Y-72551657D01*
X155188000Y-73412000D01*
X156050521Y-73412000D01*
X156092130Y-73226429D01*
X155985407Y-73009991D01*
X155838509Y-72818532D01*
X155828782Y-72810000D01*
X156374772Y-72810000D01*
X156374772Y-74510000D01*
X156379676Y-74559793D01*
X156394200Y-74607672D01*
X156417786Y-74651797D01*
X156449527Y-74690473D01*
X156488203Y-74722214D01*
X156532328Y-74745800D01*
X156580207Y-74760324D01*
X156630000Y-74765228D01*
X157129728Y-74765228D01*
X157130450Y-74772563D01*
X157131123Y-74779396D01*
X157137264Y-74799638D01*
X157151365Y-74846124D01*
X157184236Y-74907622D01*
X157228474Y-74961525D01*
X157241977Y-74972607D01*
X158707397Y-76438029D01*
X158718474Y-76451526D01*
X158731971Y-76462603D01*
X158731974Y-76462606D01*
X158763058Y-76488116D01*
X158772377Y-76495764D01*
X158833875Y-76528635D01*
X158880361Y-76542736D01*
X158900603Y-76548877D01*
X158907436Y-76549550D01*
X158952618Y-76554000D01*
X158952625Y-76554000D01*
X158969999Y-76555711D01*
X158987374Y-76554000D01*
X165375790Y-76554000D01*
X165435957Y-76699256D01*
X165551305Y-76871886D01*
X165698114Y-77018695D01*
X165870744Y-77134043D01*
X166062559Y-77213496D01*
X166266190Y-77254000D01*
X166473810Y-77254000D01*
X166677441Y-77213496D01*
X166869256Y-77134043D01*
X167041886Y-77018695D01*
X167188695Y-76871886D01*
X167304043Y-76699256D01*
X167383496Y-76507441D01*
X167424000Y-76303810D01*
X167424000Y-76096190D01*
X180556000Y-76096190D01*
X180556000Y-76303810D01*
X180596504Y-76507441D01*
X180675957Y-76699256D01*
X180791305Y-76871886D01*
X180938114Y-77018695D01*
X181110744Y-77134043D01*
X181302559Y-77213496D01*
X181506190Y-77254000D01*
X181713810Y-77254000D01*
X181917441Y-77213496D01*
X182109256Y-77134043D01*
X182281886Y-77018695D01*
X182428695Y-76871886D01*
X182544043Y-76699256D01*
X182623496Y-76507441D01*
X182664000Y-76303810D01*
X182664000Y-76096190D01*
X182623496Y-75892559D01*
X182544043Y-75700744D01*
X182428695Y-75528114D01*
X182281886Y-75381305D01*
X182109256Y-75265957D01*
X181917441Y-75186504D01*
X181713810Y-75146000D01*
X181506190Y-75146000D01*
X181302559Y-75186504D01*
X181110744Y-75265957D01*
X180938114Y-75381305D01*
X180791305Y-75528114D01*
X180675957Y-75700744D01*
X180596504Y-75892559D01*
X180556000Y-76096190D01*
X167424000Y-76096190D01*
X167383496Y-75892559D01*
X167304043Y-75700744D01*
X167188695Y-75528114D01*
X167041886Y-75381305D01*
X166869256Y-75265957D01*
X166677441Y-75186504D01*
X166473810Y-75146000D01*
X166266190Y-75146000D01*
X166062559Y-75186504D01*
X165870744Y-75265957D01*
X165698114Y-75381305D01*
X165551305Y-75528114D01*
X165435957Y-75700744D01*
X165375790Y-75846000D01*
X159116632Y-75846000D01*
X158035858Y-74765228D01*
X158330000Y-74765228D01*
X158379793Y-74760324D01*
X158427672Y-74745800D01*
X158471797Y-74722214D01*
X158510473Y-74690473D01*
X158542214Y-74651797D01*
X158565800Y-74607672D01*
X158580324Y-74559793D01*
X158585228Y-74510000D01*
X158585228Y-72810000D01*
X158580324Y-72760207D01*
X158565800Y-72712328D01*
X158542214Y-72668203D01*
X158510473Y-72629527D01*
X158471797Y-72597786D01*
X158427672Y-72574200D01*
X158379793Y-72559676D01*
X158330000Y-72554772D01*
X156630000Y-72554772D01*
X156580207Y-72559676D01*
X156532328Y-72574200D01*
X156488203Y-72597786D01*
X156449527Y-72629527D01*
X156417786Y-72668203D01*
X156394200Y-72712328D01*
X156379676Y-72760207D01*
X156374772Y-72810000D01*
X155828782Y-72810000D01*
X155657082Y-72659410D01*
X155448098Y-72538740D01*
X155373569Y-72507881D01*
X155188000Y-72551657D01*
X154692000Y-72551657D01*
X154506431Y-72507881D01*
X154431902Y-72538740D01*
X154222918Y-72659410D01*
X154041491Y-72818532D01*
X153894593Y-73009991D01*
X153787870Y-73226429D01*
X153415370Y-73226429D01*
X153378352Y-73137060D01*
X153257533Y-72956241D01*
X153103759Y-72802467D01*
X152922940Y-72681648D01*
X152722025Y-72598426D01*
X152508735Y-72556000D01*
X152291265Y-72556000D01*
X152077975Y-72598426D01*
X151877060Y-72681648D01*
X151696241Y-72802467D01*
X151542467Y-72956241D01*
X151421648Y-73137060D01*
X151338426Y-73337975D01*
X151296000Y-73551265D01*
X144449000Y-73551265D01*
X144449000Y-71011265D01*
X151296000Y-71011265D01*
X151296000Y-71228735D01*
X151338426Y-71442025D01*
X151421648Y-71642940D01*
X151542467Y-71823759D01*
X151696241Y-71977533D01*
X151877060Y-72098352D01*
X152077975Y-72181574D01*
X152291265Y-72224000D01*
X152508735Y-72224000D01*
X152722025Y-72181574D01*
X152922940Y-72098352D01*
X153103759Y-71977533D01*
X153257533Y-71823759D01*
X153378352Y-71642940D01*
X153415369Y-71553571D01*
X153787870Y-71553571D01*
X153894593Y-71770009D01*
X154041491Y-71961468D01*
X154222918Y-72120590D01*
X154431902Y-72241260D01*
X154506431Y-72272119D01*
X154692000Y-72228343D01*
X154692000Y-71368000D01*
X155188000Y-71368000D01*
X155188000Y-72228343D01*
X155373569Y-72272119D01*
X155448098Y-72241260D01*
X155657082Y-72120590D01*
X155838509Y-71961468D01*
X155985407Y-71770009D01*
X156092130Y-71553571D01*
X156050521Y-71368000D01*
X155188000Y-71368000D01*
X154692000Y-71368000D01*
X153829479Y-71368000D01*
X153787870Y-71553571D01*
X153415369Y-71553571D01*
X153461574Y-71442025D01*
X153504000Y-71228735D01*
X153504000Y-71011265D01*
X153461574Y-70797975D01*
X153415370Y-70686429D01*
X153787870Y-70686429D01*
X153829479Y-70872000D01*
X154692000Y-70872000D01*
X154692000Y-70011657D01*
X155188000Y-70011657D01*
X155188000Y-70872000D01*
X156050521Y-70872000D01*
X156092130Y-70686429D01*
X155985407Y-70469991D01*
X155838509Y-70278532D01*
X155657082Y-70119410D01*
X155448098Y-69998740D01*
X155373569Y-69967881D01*
X155188000Y-70011657D01*
X154692000Y-70011657D01*
X154506431Y-69967881D01*
X154431902Y-69998740D01*
X154222918Y-70119410D01*
X154041491Y-70278532D01*
X153894593Y-70469991D01*
X153787870Y-70686429D01*
X153415370Y-70686429D01*
X153378352Y-70597060D01*
X153257533Y-70416241D01*
X153103759Y-70262467D01*
X152922940Y-70141648D01*
X152722025Y-70058426D01*
X152508735Y-70016000D01*
X152291265Y-70016000D01*
X152077975Y-70058426D01*
X151877060Y-70141648D01*
X151696241Y-70262467D01*
X151542467Y-70416241D01*
X151421648Y-70597060D01*
X151338426Y-70797975D01*
X151296000Y-71011265D01*
X144449000Y-71011265D01*
X144449000Y-68471265D01*
X151296000Y-68471265D01*
X151296000Y-68688735D01*
X151338426Y-68902025D01*
X151421648Y-69102940D01*
X151542467Y-69283759D01*
X151696241Y-69437533D01*
X151877060Y-69558352D01*
X152077975Y-69641574D01*
X152291265Y-69684000D01*
X152508735Y-69684000D01*
X152722025Y-69641574D01*
X152922940Y-69558352D01*
X153103759Y-69437533D01*
X153257533Y-69283759D01*
X153378352Y-69102940D01*
X153415369Y-69013571D01*
X153787870Y-69013571D01*
X153894593Y-69230009D01*
X154041491Y-69421468D01*
X154222918Y-69580590D01*
X154431902Y-69701260D01*
X154506431Y-69732119D01*
X154692000Y-69688343D01*
X154692000Y-68828000D01*
X155188000Y-68828000D01*
X155188000Y-69688343D01*
X155373569Y-69732119D01*
X155448098Y-69701260D01*
X155657082Y-69580590D01*
X155838509Y-69421468D01*
X155985407Y-69230009D01*
X156092130Y-69013571D01*
X156050521Y-68828000D01*
X155188000Y-68828000D01*
X154692000Y-68828000D01*
X153829479Y-68828000D01*
X153787870Y-69013571D01*
X153415369Y-69013571D01*
X153461574Y-68902025D01*
X153504000Y-68688735D01*
X153504000Y-68471265D01*
X153461574Y-68257975D01*
X153415370Y-68146429D01*
X153787870Y-68146429D01*
X153829479Y-68332000D01*
X154692000Y-68332000D01*
X154692000Y-67471657D01*
X155188000Y-67471657D01*
X155188000Y-68332000D01*
X156050521Y-68332000D01*
X156092130Y-68146429D01*
X155985407Y-67929991D01*
X155838509Y-67738532D01*
X155828782Y-67730000D01*
X156374772Y-67730000D01*
X156374772Y-69430000D01*
X156379676Y-69479793D01*
X156394200Y-69527672D01*
X156417786Y-69571797D01*
X156449527Y-69610473D01*
X156488203Y-69642214D01*
X156532328Y-69665800D01*
X156580207Y-69680324D01*
X156630000Y-69685228D01*
X158084597Y-69685228D01*
X158440341Y-70040972D01*
X158427672Y-70034200D01*
X158379793Y-70019676D01*
X158330000Y-70014772D01*
X156630000Y-70014772D01*
X156580207Y-70019676D01*
X156532328Y-70034200D01*
X156488203Y-70057786D01*
X156449527Y-70089527D01*
X156417786Y-70128203D01*
X156394200Y-70172328D01*
X156379676Y-70220207D01*
X156374772Y-70270000D01*
X156374772Y-71970000D01*
X156379676Y-72019793D01*
X156394200Y-72067672D01*
X156417786Y-72111797D01*
X156449527Y-72150473D01*
X156488203Y-72182214D01*
X156532328Y-72205800D01*
X156580207Y-72220324D01*
X156630000Y-72225228D01*
X158330000Y-72225228D01*
X158379793Y-72220324D01*
X158427672Y-72205800D01*
X158471797Y-72182214D01*
X158510473Y-72150473D01*
X158542214Y-72111797D01*
X158565800Y-72067672D01*
X158580324Y-72019793D01*
X158585228Y-71970000D01*
X158585228Y-71675858D01*
X160807397Y-73898029D01*
X160818474Y-73911526D01*
X160831971Y-73922603D01*
X160831974Y-73922606D01*
X160863058Y-73948116D01*
X160872377Y-73955764D01*
X160933875Y-73988635D01*
X161000604Y-74008877D01*
X161052618Y-74014000D01*
X161052627Y-74014000D01*
X161069999Y-74015711D01*
X161087371Y-74014000D01*
X165375790Y-74014000D01*
X165435957Y-74159256D01*
X165551305Y-74331886D01*
X165698114Y-74478695D01*
X165870744Y-74594043D01*
X166062559Y-74673496D01*
X166266190Y-74714000D01*
X166473810Y-74714000D01*
X166677441Y-74673496D01*
X166869256Y-74594043D01*
X167041886Y-74478695D01*
X167188695Y-74331886D01*
X167304043Y-74159256D01*
X167383496Y-73967441D01*
X167424000Y-73763810D01*
X167424000Y-73556190D01*
X180556000Y-73556190D01*
X180556000Y-73763810D01*
X180596504Y-73967441D01*
X180675957Y-74159256D01*
X180791305Y-74331886D01*
X180938114Y-74478695D01*
X181110744Y-74594043D01*
X181302559Y-74673496D01*
X181506190Y-74714000D01*
X181713810Y-74714000D01*
X181917441Y-74673496D01*
X182109256Y-74594043D01*
X182281886Y-74478695D01*
X182428695Y-74331886D01*
X182544043Y-74159256D01*
X182623496Y-73967441D01*
X182664000Y-73763810D01*
X182664000Y-73556190D01*
X182623496Y-73352559D01*
X182544043Y-73160744D01*
X182428695Y-72988114D01*
X182281886Y-72841305D01*
X182109256Y-72725957D01*
X181917441Y-72646504D01*
X181713810Y-72606000D01*
X181506190Y-72606000D01*
X181302559Y-72646504D01*
X181110744Y-72725957D01*
X180938114Y-72841305D01*
X180791305Y-72988114D01*
X180675957Y-73160744D01*
X180596504Y-73352559D01*
X180556000Y-73556190D01*
X167424000Y-73556190D01*
X167383496Y-73352559D01*
X167304043Y-73160744D01*
X167188695Y-72988114D01*
X167041886Y-72841305D01*
X166869256Y-72725957D01*
X166677441Y-72646504D01*
X166473810Y-72606000D01*
X166266190Y-72606000D01*
X166062559Y-72646504D01*
X165870744Y-72725957D01*
X165698114Y-72841305D01*
X165551305Y-72988114D01*
X165435957Y-73160744D01*
X165375790Y-73306000D01*
X161216632Y-73306000D01*
X158792612Y-70881982D01*
X158781526Y-70868474D01*
X158727623Y-70824236D01*
X158666125Y-70791365D01*
X158599396Y-70771123D01*
X158585228Y-70769728D01*
X158585228Y-70270000D01*
X158580324Y-70220207D01*
X158565800Y-70172328D01*
X158559028Y-70159659D01*
X159757397Y-71358029D01*
X159768474Y-71371526D01*
X159781971Y-71382603D01*
X159781974Y-71382606D01*
X159813058Y-71408116D01*
X159822377Y-71415764D01*
X159883875Y-71448635D01*
X159950604Y-71468877D01*
X160002618Y-71474000D01*
X160002627Y-71474000D01*
X160019999Y-71475711D01*
X160037371Y-71474000D01*
X165375790Y-71474000D01*
X165435957Y-71619256D01*
X165551305Y-71791886D01*
X165698114Y-71938695D01*
X165870744Y-72054043D01*
X166062559Y-72133496D01*
X166266190Y-72174000D01*
X166473810Y-72174000D01*
X166677441Y-72133496D01*
X166869256Y-72054043D01*
X167041886Y-71938695D01*
X167188695Y-71791886D01*
X167304043Y-71619256D01*
X167383496Y-71427441D01*
X167424000Y-71223810D01*
X167424000Y-71016190D01*
X178016000Y-71016190D01*
X178016000Y-71223810D01*
X178056504Y-71427441D01*
X178135957Y-71619256D01*
X178251305Y-71791886D01*
X178398114Y-71938695D01*
X178570744Y-72054043D01*
X178762559Y-72133496D01*
X178966190Y-72174000D01*
X179173810Y-72174000D01*
X179377441Y-72133496D01*
X179569256Y-72054043D01*
X179741886Y-71938695D01*
X179888695Y-71791886D01*
X180004043Y-71619256D01*
X180083496Y-71427441D01*
X180124000Y-71223810D01*
X180124000Y-71016190D01*
X180556000Y-71016190D01*
X180556000Y-71223810D01*
X180596504Y-71427441D01*
X180675957Y-71619256D01*
X180791305Y-71791886D01*
X180938114Y-71938695D01*
X181110744Y-72054043D01*
X181302559Y-72133496D01*
X181506190Y-72174000D01*
X181713810Y-72174000D01*
X181917441Y-72133496D01*
X182109256Y-72054043D01*
X182281886Y-71938695D01*
X182428695Y-71791886D01*
X182544043Y-71619256D01*
X182623496Y-71427441D01*
X182664000Y-71223810D01*
X182664000Y-71016190D01*
X182623496Y-70812559D01*
X182544043Y-70620744D01*
X182428695Y-70448114D01*
X182281886Y-70301305D01*
X182109256Y-70185957D01*
X181917441Y-70106504D01*
X181713810Y-70066000D01*
X181506190Y-70066000D01*
X181302559Y-70106504D01*
X181110744Y-70185957D01*
X180938114Y-70301305D01*
X180791305Y-70448114D01*
X180675957Y-70620744D01*
X180596504Y-70812559D01*
X180556000Y-71016190D01*
X180124000Y-71016190D01*
X180083496Y-70812559D01*
X180004043Y-70620744D01*
X179888695Y-70448114D01*
X179741886Y-70301305D01*
X179569256Y-70185957D01*
X179377441Y-70106504D01*
X179173810Y-70066000D01*
X178966190Y-70066000D01*
X178762559Y-70106504D01*
X178570744Y-70185957D01*
X178398114Y-70301305D01*
X178251305Y-70448114D01*
X178135957Y-70620744D01*
X178056504Y-70812559D01*
X178016000Y-71016190D01*
X167424000Y-71016190D01*
X167383496Y-70812559D01*
X167304043Y-70620744D01*
X167188695Y-70448114D01*
X167041886Y-70301305D01*
X166869256Y-70185957D01*
X166677441Y-70106504D01*
X166473810Y-70066000D01*
X166266190Y-70066000D01*
X166062559Y-70106504D01*
X165870744Y-70185957D01*
X165698114Y-70301305D01*
X165551305Y-70448114D01*
X165435957Y-70620744D01*
X165375790Y-70766000D01*
X160166632Y-70766000D01*
X158585228Y-69184597D01*
X158585228Y-68476190D01*
X165316000Y-68476190D01*
X165316000Y-68683810D01*
X165356504Y-68887441D01*
X165435957Y-69079256D01*
X165551305Y-69251886D01*
X165698114Y-69398695D01*
X165870744Y-69514043D01*
X166062559Y-69593496D01*
X166266190Y-69634000D01*
X166473810Y-69634000D01*
X166677441Y-69593496D01*
X166869256Y-69514043D01*
X167041886Y-69398695D01*
X167188695Y-69251886D01*
X167304043Y-69079256D01*
X167383496Y-68887441D01*
X167424000Y-68683810D01*
X167424000Y-68476190D01*
X167383496Y-68272559D01*
X167304043Y-68080744D01*
X167188695Y-67908114D01*
X167041886Y-67761305D01*
X166869256Y-67645957D01*
X166677441Y-67566504D01*
X166473810Y-67526000D01*
X166266190Y-67526000D01*
X166062559Y-67566504D01*
X165870744Y-67645957D01*
X165698114Y-67761305D01*
X165551305Y-67908114D01*
X165435957Y-68080744D01*
X165356504Y-68272559D01*
X165316000Y-68476190D01*
X158585228Y-68476190D01*
X158585228Y-67730000D01*
X158580324Y-67680207D01*
X158565800Y-67632328D01*
X158542214Y-67588203D01*
X158510473Y-67549527D01*
X158471797Y-67517786D01*
X158427672Y-67494200D01*
X158379793Y-67479676D01*
X158330000Y-67474772D01*
X156630000Y-67474772D01*
X156580207Y-67479676D01*
X156532328Y-67494200D01*
X156488203Y-67517786D01*
X156449527Y-67549527D01*
X156417786Y-67588203D01*
X156394200Y-67632328D01*
X156379676Y-67680207D01*
X156374772Y-67730000D01*
X155828782Y-67730000D01*
X155657082Y-67579410D01*
X155448098Y-67458740D01*
X155373569Y-67427881D01*
X155188000Y-67471657D01*
X154692000Y-67471657D01*
X154506431Y-67427881D01*
X154431902Y-67458740D01*
X154222918Y-67579410D01*
X154041491Y-67738532D01*
X153894593Y-67929991D01*
X153787870Y-68146429D01*
X153415370Y-68146429D01*
X153378352Y-68057060D01*
X153257533Y-67876241D01*
X153103759Y-67722467D01*
X152922940Y-67601648D01*
X152722025Y-67518426D01*
X152508735Y-67476000D01*
X152291265Y-67476000D01*
X152077975Y-67518426D01*
X151877060Y-67601648D01*
X151696241Y-67722467D01*
X151542467Y-67876241D01*
X151421648Y-68057060D01*
X151338426Y-68257975D01*
X151296000Y-68471265D01*
X144449000Y-68471265D01*
X144449000Y-62650000D01*
X151294772Y-62650000D01*
X151294772Y-64350000D01*
X151299676Y-64399793D01*
X151314200Y-64447672D01*
X151337786Y-64491797D01*
X151369527Y-64530473D01*
X151408203Y-64562214D01*
X151452328Y-64585800D01*
X151500207Y-64600324D01*
X151550000Y-64605228D01*
X153250000Y-64605228D01*
X153299793Y-64600324D01*
X153347672Y-64585800D01*
X153391797Y-64562214D01*
X153430473Y-64530473D01*
X153462214Y-64491797D01*
X153485800Y-64447672D01*
X153500324Y-64399793D01*
X153505228Y-64350000D01*
X153505228Y-63957416D01*
X153797126Y-63957416D01*
X153908323Y-64171591D01*
X154059167Y-64359957D01*
X154243861Y-64515275D01*
X154455307Y-64631577D01*
X154482585Y-64642862D01*
X154667000Y-64602451D01*
X154667000Y-63773000D01*
X155213000Y-63773000D01*
X155213000Y-64602451D01*
X155397415Y-64642862D01*
X155424693Y-64631577D01*
X155636139Y-64515275D01*
X155820833Y-64359957D01*
X155971677Y-64171591D01*
X156082874Y-63957416D01*
X156045109Y-63773000D01*
X155213000Y-63773000D01*
X154667000Y-63773000D01*
X153834891Y-63773000D01*
X153797126Y-63957416D01*
X153505228Y-63957416D01*
X153505228Y-63042584D01*
X153797126Y-63042584D01*
X153834891Y-63227000D01*
X154667000Y-63227000D01*
X154667000Y-62397549D01*
X155213000Y-62397549D01*
X155213000Y-63227000D01*
X156045109Y-63227000D01*
X156082874Y-63042584D01*
X155971677Y-62828409D01*
X155828807Y-62650000D01*
X161454772Y-62650000D01*
X161454772Y-64350000D01*
X161459676Y-64399793D01*
X161474200Y-64447672D01*
X161497786Y-64491797D01*
X161529527Y-64530473D01*
X161568203Y-64562214D01*
X161612328Y-64585800D01*
X161660207Y-64600324D01*
X161710000Y-64605228D01*
X163410000Y-64605228D01*
X163459793Y-64600324D01*
X163507672Y-64585800D01*
X163551797Y-64562214D01*
X163590473Y-64530473D01*
X163622214Y-64491797D01*
X163645800Y-64447672D01*
X163660324Y-64399793D01*
X163665228Y-64350000D01*
X163665228Y-63379151D01*
X163873000Y-63379151D01*
X163873000Y-63620849D01*
X163920153Y-63857903D01*
X164012647Y-64081202D01*
X164146927Y-64282167D01*
X164317833Y-64453073D01*
X164518798Y-64587353D01*
X164742097Y-64679847D01*
X164979151Y-64727000D01*
X165220849Y-64727000D01*
X165457903Y-64679847D01*
X165681202Y-64587353D01*
X165882167Y-64453073D01*
X166053073Y-64282167D01*
X166056525Y-64277000D01*
X176208157Y-64277000D01*
X180433000Y-68501844D01*
X180433000Y-68695924D01*
X180478231Y-68923318D01*
X180566956Y-69137519D01*
X180695764Y-69330294D01*
X180859706Y-69494236D01*
X181052481Y-69623044D01*
X181266682Y-69711769D01*
X181494076Y-69757000D01*
X181725924Y-69757000D01*
X181953318Y-69711769D01*
X182167519Y-69623044D01*
X182360294Y-69494236D01*
X182524236Y-69330294D01*
X182653044Y-69137519D01*
X182741769Y-68923318D01*
X182787000Y-68695924D01*
X182787000Y-68464076D01*
X182741769Y-68236682D01*
X182653044Y-68022481D01*
X182524236Y-67829706D01*
X182360294Y-67665764D01*
X182167519Y-67536956D01*
X181953318Y-67448231D01*
X181725924Y-67403000D01*
X181531844Y-67403000D01*
X177106413Y-62977570D01*
X177082080Y-62947920D01*
X176963766Y-62850823D01*
X176828784Y-62778673D01*
X176682319Y-62734243D01*
X176568166Y-62723000D01*
X176568163Y-62723000D01*
X176530000Y-62719241D01*
X176491837Y-62723000D01*
X166056525Y-62723000D01*
X166053073Y-62717833D01*
X165882167Y-62546927D01*
X165681202Y-62412647D01*
X165457903Y-62320153D01*
X165220849Y-62273000D01*
X164979151Y-62273000D01*
X164742097Y-62320153D01*
X164518798Y-62412647D01*
X164317833Y-62546927D01*
X164146927Y-62717833D01*
X164012647Y-62918798D01*
X163920153Y-63142097D01*
X163873000Y-63379151D01*
X163665228Y-63379151D01*
X163665228Y-62650000D01*
X163660324Y-62600207D01*
X163645800Y-62552328D01*
X163622214Y-62508203D01*
X163590473Y-62469527D01*
X163551797Y-62437786D01*
X163507672Y-62414200D01*
X163459793Y-62399676D01*
X163410000Y-62394772D01*
X161710000Y-62394772D01*
X161660207Y-62399676D01*
X161612328Y-62414200D01*
X161568203Y-62437786D01*
X161529527Y-62469527D01*
X161497786Y-62508203D01*
X161474200Y-62552328D01*
X161459676Y-62600207D01*
X161454772Y-62650000D01*
X155828807Y-62650000D01*
X155820833Y-62640043D01*
X155636139Y-62484725D01*
X155424693Y-62368423D01*
X155397415Y-62357138D01*
X155213000Y-62397549D01*
X154667000Y-62397549D01*
X154482585Y-62357138D01*
X154455307Y-62368423D01*
X154243861Y-62484725D01*
X154059167Y-62640043D01*
X153908323Y-62828409D01*
X153797126Y-63042584D01*
X153505228Y-63042584D01*
X153505228Y-62650000D01*
X153500324Y-62600207D01*
X153485800Y-62552328D01*
X153462214Y-62508203D01*
X153430473Y-62469527D01*
X153391797Y-62437786D01*
X153347672Y-62414200D01*
X153299793Y-62399676D01*
X153250000Y-62394772D01*
X151550000Y-62394772D01*
X151500207Y-62399676D01*
X151452328Y-62414200D01*
X151408203Y-62437786D01*
X151369527Y-62469527D01*
X151337786Y-62508203D01*
X151314200Y-62552328D01*
X151299676Y-62600207D01*
X151294772Y-62650000D01*
X144449000Y-62650000D01*
X144449000Y-61580076D01*
X144444600Y-61535406D01*
X144434459Y-61501975D01*
X144444185Y-61402777D01*
X144500012Y-61217870D01*
X144590688Y-61047332D01*
X144712762Y-60897653D01*
X144861590Y-60774532D01*
X145031493Y-60682666D01*
X145215997Y-60625552D01*
X145321864Y-60614425D01*
X145355406Y-60624600D01*
G37*
X145355406Y-60624600D02*
X145400076Y-60629000D01*
X183529924Y-60629000D01*
X183574594Y-60624600D01*
X183608025Y-60614459D01*
X183707223Y-60624185D01*
X183892130Y-60680012D01*
X184062668Y-60770688D01*
X184212347Y-60892762D01*
X184335468Y-61041590D01*
X184427334Y-61211493D01*
X184484448Y-61395997D01*
X184495575Y-61501866D01*
X184485401Y-61535406D01*
X184481001Y-61580076D01*
X184481000Y-116854923D01*
X184485400Y-116899593D01*
X184495541Y-116933024D01*
X184485815Y-117032223D01*
X184429988Y-117217130D01*
X184339310Y-117387670D01*
X184217235Y-117537349D01*
X184068410Y-117660468D01*
X183898511Y-117752332D01*
X183714003Y-117809448D01*
X183608136Y-117820575D01*
X183574594Y-117810400D01*
X183529924Y-117806000D01*
X145400076Y-117806000D01*
X145355406Y-117810400D01*
X145321975Y-117820541D01*
X145222777Y-117810815D01*
X145037870Y-117754988D01*
X144867330Y-117664310D01*
X144717651Y-117542235D01*
X144594532Y-117393410D01*
X144502668Y-117223511D01*
X144445552Y-117039003D01*
X144434425Y-116933136D01*
X144444600Y-116899594D01*
X144449000Y-116854924D01*
X144449000Y-116342742D01*
X151671867Y-116342742D01*
X151940596Y-116527662D01*
X152385556Y-116590091D01*
X152834145Y-116564513D01*
X153019404Y-116527662D01*
X153288133Y-116342742D01*
X152480000Y-115534608D01*
X151671867Y-116342742D01*
X144449000Y-116342742D01*
X144449000Y-114205556D01*
X150189909Y-114205556D01*
X150215487Y-114654145D01*
X150252338Y-114839404D01*
X150437258Y-115108133D01*
X151245392Y-114300000D01*
X153714608Y-114300000D01*
X154522742Y-115108133D01*
X154707662Y-114839404D01*
X154770091Y-114394444D01*
X154744513Y-113945855D01*
X154707662Y-113760596D01*
X154522742Y-113491867D01*
X153714608Y-114300000D01*
X151245392Y-114300000D01*
X150437258Y-113491867D01*
X150252338Y-113760596D01*
X150189909Y-114205556D01*
X144449000Y-114205556D01*
X144449000Y-112257258D01*
X151671867Y-112257258D01*
X152480000Y-113065392D01*
X153145391Y-112400000D01*
X155324772Y-112400000D01*
X155324772Y-116200000D01*
X155329676Y-116249793D01*
X155344200Y-116297672D01*
X155367786Y-116341797D01*
X155399527Y-116380473D01*
X155438203Y-116412214D01*
X155482328Y-116435800D01*
X155530207Y-116450324D01*
X155580000Y-116455228D01*
X159380000Y-116455228D01*
X159429793Y-116450324D01*
X159477672Y-116435800D01*
X159521797Y-116412214D01*
X159560473Y-116380473D01*
X159592214Y-116341797D01*
X159615800Y-116297672D01*
X159630324Y-116249793D01*
X159635228Y-116200000D01*
X159635228Y-112400000D01*
X159630324Y-112350207D01*
X159615800Y-112302328D01*
X159592214Y-112258203D01*
X159560473Y-112219527D01*
X159521797Y-112187786D01*
X159477672Y-112164200D01*
X159429793Y-112149676D01*
X159380000Y-112144772D01*
X155580000Y-112144772D01*
X155530207Y-112149676D01*
X155482328Y-112164200D01*
X155438203Y-112187786D01*
X155399527Y-112219527D01*
X155367786Y-112258203D01*
X155344200Y-112302328D01*
X155329676Y-112350207D01*
X155324772Y-112400000D01*
X153145391Y-112400000D01*
X153288133Y-112257258D01*
X153019404Y-112072338D01*
X152574444Y-112009909D01*
X152125855Y-112035487D01*
X151940596Y-112072338D01*
X151671867Y-112257258D01*
X144449000Y-112257258D01*
X144449000Y-104031265D01*
X151296000Y-104031265D01*
X151296000Y-104248735D01*
X151338426Y-104462025D01*
X151421648Y-104662940D01*
X151542467Y-104843759D01*
X151696241Y-104997533D01*
X151877060Y-105118352D01*
X152077975Y-105201574D01*
X152291265Y-105244000D01*
X152508735Y-105244000D01*
X152722025Y-105201574D01*
X152922940Y-105118352D01*
X153103759Y-104997533D01*
X153257533Y-104843759D01*
X153378352Y-104662940D01*
X153415369Y-104573571D01*
X153787870Y-104573571D01*
X153894593Y-104790009D01*
X154041491Y-104981468D01*
X154222918Y-105140590D01*
X154431902Y-105261260D01*
X154506431Y-105292119D01*
X154692000Y-105248343D01*
X154692000Y-104388000D01*
X155188000Y-104388000D01*
X155188000Y-105248343D01*
X155373569Y-105292119D01*
X155448098Y-105261260D01*
X155657082Y-105140590D01*
X155838509Y-104981468D01*
X155985407Y-104790009D01*
X156092130Y-104573571D01*
X156050521Y-104388000D01*
X155188000Y-104388000D01*
X154692000Y-104388000D01*
X153829479Y-104388000D01*
X153787870Y-104573571D01*
X153415369Y-104573571D01*
X153461574Y-104462025D01*
X153504000Y-104248735D01*
X153504000Y-104031265D01*
X153461574Y-103817975D01*
X153415370Y-103706429D01*
X153787870Y-103706429D01*
X153829479Y-103892000D01*
X154692000Y-103892000D01*
X154692000Y-103031657D01*
X155188000Y-103031657D01*
X155188000Y-103892000D01*
X156050521Y-103892000D01*
X156092130Y-103706429D01*
X155985407Y-103489991D01*
X155838509Y-103298532D01*
X155657082Y-103139410D01*
X155448098Y-103018740D01*
X155373569Y-102987881D01*
X155188000Y-103031657D01*
X154692000Y-103031657D01*
X154506431Y-102987881D01*
X154431902Y-103018740D01*
X154222918Y-103139410D01*
X154041491Y-103298532D01*
X153894593Y-103489991D01*
X153787870Y-103706429D01*
X153415370Y-103706429D01*
X153378352Y-103617060D01*
X153257533Y-103436241D01*
X153103759Y-103282467D01*
X152922940Y-103161648D01*
X152722025Y-103078426D01*
X152508735Y-103036000D01*
X152291265Y-103036000D01*
X152077975Y-103078426D01*
X151877060Y-103161648D01*
X151696241Y-103282467D01*
X151542467Y-103436241D01*
X151421648Y-103617060D01*
X151338426Y-103817975D01*
X151296000Y-104031265D01*
X144449000Y-104031265D01*
X144449000Y-101491265D01*
X151296000Y-101491265D01*
X151296000Y-101708735D01*
X151338426Y-101922025D01*
X151421648Y-102122940D01*
X151542467Y-102303759D01*
X151696241Y-102457533D01*
X151877060Y-102578352D01*
X152077975Y-102661574D01*
X152291265Y-102704000D01*
X152508735Y-102704000D01*
X152722025Y-102661574D01*
X152922940Y-102578352D01*
X153103759Y-102457533D01*
X153257533Y-102303759D01*
X153378352Y-102122940D01*
X153415369Y-102033571D01*
X153787870Y-102033571D01*
X153894593Y-102250009D01*
X154041491Y-102441468D01*
X154222918Y-102600590D01*
X154431902Y-102721260D01*
X154506431Y-102752119D01*
X154692000Y-102708343D01*
X154692000Y-101848000D01*
X155188000Y-101848000D01*
X155188000Y-102708343D01*
X155373569Y-102752119D01*
X155448098Y-102721260D01*
X155657082Y-102600590D01*
X155838509Y-102441468D01*
X155985407Y-102250009D01*
X156092130Y-102033571D01*
X156050521Y-101848000D01*
X155188000Y-101848000D01*
X154692000Y-101848000D01*
X153829479Y-101848000D01*
X153787870Y-102033571D01*
X153415369Y-102033571D01*
X153461574Y-101922025D01*
X153504000Y-101708735D01*
X153504000Y-101491265D01*
X153461574Y-101277975D01*
X153415370Y-101166429D01*
X153787870Y-101166429D01*
X153829479Y-101352000D01*
X154692000Y-101352000D01*
X154692000Y-100491657D01*
X155188000Y-100491657D01*
X155188000Y-101352000D01*
X156050521Y-101352000D01*
X156092130Y-101166429D01*
X155985407Y-100949991D01*
X155838509Y-100758532D01*
X155828782Y-100750000D01*
X156374772Y-100750000D01*
X156374772Y-102450000D01*
X156379676Y-102499793D01*
X156394200Y-102547672D01*
X156417786Y-102591797D01*
X156449527Y-102630473D01*
X156488203Y-102662214D01*
X156532328Y-102685800D01*
X156580207Y-102700324D01*
X156630000Y-102705228D01*
X158330000Y-102705228D01*
X158379793Y-102700324D01*
X158427672Y-102685800D01*
X158471797Y-102662214D01*
X158510473Y-102630473D01*
X158542214Y-102591797D01*
X158565800Y-102547672D01*
X158580324Y-102499793D01*
X158585228Y-102450000D01*
X158585228Y-101707273D01*
X158599396Y-101705878D01*
X158666125Y-101685636D01*
X158727623Y-101652765D01*
X158781526Y-101608527D01*
X158792612Y-101595019D01*
X159703632Y-100684000D01*
X165843741Y-100684000D01*
X165698114Y-100781305D01*
X165551305Y-100928114D01*
X165435957Y-101100744D01*
X165356504Y-101292559D01*
X165316000Y-101496190D01*
X165316000Y-101703810D01*
X165356504Y-101907441D01*
X165435957Y-102099256D01*
X165551305Y-102271886D01*
X165698114Y-102418695D01*
X165870744Y-102534043D01*
X166062559Y-102613496D01*
X166266190Y-102654000D01*
X166473810Y-102654000D01*
X166677441Y-102613496D01*
X166869256Y-102534043D01*
X167041886Y-102418695D01*
X167188695Y-102271886D01*
X167304043Y-102099256D01*
X167383496Y-101907441D01*
X167424000Y-101703810D01*
X167424000Y-101496190D01*
X167383496Y-101292559D01*
X167304043Y-101100744D01*
X167188695Y-100928114D01*
X167041886Y-100781305D01*
X166896259Y-100684000D01*
X168383741Y-100684000D01*
X168238114Y-100781305D01*
X168091305Y-100928114D01*
X167975957Y-101100744D01*
X167896504Y-101292559D01*
X167856000Y-101496190D01*
X167856000Y-101703810D01*
X167896504Y-101907441D01*
X167975957Y-102099256D01*
X168091305Y-102271886D01*
X168238114Y-102418695D01*
X168410744Y-102534043D01*
X168602559Y-102613496D01*
X168806190Y-102654000D01*
X169013810Y-102654000D01*
X169217441Y-102613496D01*
X169409256Y-102534043D01*
X169581886Y-102418695D01*
X169728695Y-102271886D01*
X169844043Y-102099256D01*
X169923496Y-101907441D01*
X169964000Y-101703810D01*
X169964000Y-101496190D01*
X169923496Y-101292559D01*
X169844043Y-101100744D01*
X169728695Y-100928114D01*
X169581886Y-100781305D01*
X169436259Y-100684000D01*
X170923741Y-100684000D01*
X170778114Y-100781305D01*
X170631305Y-100928114D01*
X170515957Y-101100744D01*
X170436504Y-101292559D01*
X170396000Y-101496190D01*
X170396000Y-101703810D01*
X170436504Y-101907441D01*
X170515957Y-102099256D01*
X170631305Y-102271886D01*
X170778114Y-102418695D01*
X170950744Y-102534043D01*
X171142559Y-102613496D01*
X171346190Y-102654000D01*
X171553810Y-102654000D01*
X171757441Y-102613496D01*
X171949256Y-102534043D01*
X172121886Y-102418695D01*
X172268695Y-102271886D01*
X172384043Y-102099256D01*
X172463496Y-101907441D01*
X172504000Y-101703810D01*
X172504000Y-101496190D01*
X172463496Y-101292559D01*
X172384043Y-101100744D01*
X172268695Y-100928114D01*
X172121886Y-100781305D01*
X171976259Y-100684000D01*
X173463741Y-100684000D01*
X173318114Y-100781305D01*
X173171305Y-100928114D01*
X173055957Y-101100744D01*
X172976504Y-101292559D01*
X172936000Y-101496190D01*
X172936000Y-101703810D01*
X172976504Y-101907441D01*
X173055957Y-102099256D01*
X173171305Y-102271886D01*
X173318114Y-102418695D01*
X173490744Y-102534043D01*
X173682559Y-102613496D01*
X173886190Y-102654000D01*
X174093810Y-102654000D01*
X174297441Y-102613496D01*
X174489256Y-102534043D01*
X174661886Y-102418695D01*
X174808695Y-102271886D01*
X174924043Y-102099256D01*
X175003496Y-101907441D01*
X175044000Y-101703810D01*
X175044000Y-101496190D01*
X175003496Y-101292559D01*
X174924043Y-101100744D01*
X174808695Y-100928114D01*
X174661886Y-100781305D01*
X174516259Y-100684000D01*
X176003741Y-100684000D01*
X175858114Y-100781305D01*
X175711305Y-100928114D01*
X175595957Y-101100744D01*
X175516504Y-101292559D01*
X175476000Y-101496190D01*
X175476000Y-101703810D01*
X175516504Y-101907441D01*
X175595957Y-102099256D01*
X175711305Y-102271886D01*
X175858114Y-102418695D01*
X176030744Y-102534043D01*
X176222559Y-102613496D01*
X176426190Y-102654000D01*
X176633810Y-102654000D01*
X176837441Y-102613496D01*
X177029256Y-102534043D01*
X177201886Y-102418695D01*
X177348695Y-102271886D01*
X177464043Y-102099256D01*
X177543496Y-101907441D01*
X177584000Y-101703810D01*
X177584000Y-101496190D01*
X177543496Y-101292559D01*
X177464043Y-101100744D01*
X177348695Y-100928114D01*
X177201886Y-100781305D01*
X177056259Y-100684000D01*
X178543741Y-100684000D01*
X178398114Y-100781305D01*
X178251305Y-100928114D01*
X178135957Y-101100744D01*
X178056504Y-101292559D01*
X178016000Y-101496190D01*
X178016000Y-101703810D01*
X178056504Y-101907441D01*
X178135957Y-102099256D01*
X178251305Y-102271886D01*
X178398114Y-102418695D01*
X178570744Y-102534043D01*
X178762559Y-102613496D01*
X178966190Y-102654000D01*
X179173810Y-102654000D01*
X179377441Y-102613496D01*
X179569256Y-102534043D01*
X179741886Y-102418695D01*
X179888695Y-102271886D01*
X180004043Y-102099256D01*
X180083496Y-101907441D01*
X180124000Y-101703810D01*
X180124000Y-101496190D01*
X180083496Y-101292559D01*
X180004043Y-101100744D01*
X179888695Y-100928114D01*
X179741886Y-100781305D01*
X179596259Y-100684000D01*
X180322626Y-100684000D01*
X180340000Y-100685711D01*
X180357374Y-100684000D01*
X180357382Y-100684000D01*
X180409396Y-100678877D01*
X180476125Y-100658635D01*
X180537623Y-100625764D01*
X180591526Y-100581526D01*
X180602612Y-100568018D01*
X181157303Y-100013328D01*
X181302559Y-100073496D01*
X181506190Y-100114000D01*
X181713810Y-100114000D01*
X181917441Y-100073496D01*
X182109256Y-99994043D01*
X182281886Y-99878695D01*
X182283002Y-99877579D01*
X182283002Y-100782421D01*
X182281886Y-100781305D01*
X182109256Y-100665957D01*
X181917441Y-100586504D01*
X181713810Y-100546000D01*
X181506190Y-100546000D01*
X181302559Y-100586504D01*
X181110744Y-100665957D01*
X180938114Y-100781305D01*
X180791305Y-100928114D01*
X180675957Y-101100744D01*
X180596504Y-101292559D01*
X180556000Y-101496190D01*
X180556000Y-101703810D01*
X180596504Y-101907441D01*
X180675957Y-102099256D01*
X180791305Y-102271886D01*
X180938114Y-102418695D01*
X181110744Y-102534043D01*
X181302559Y-102613496D01*
X181506190Y-102654000D01*
X181575331Y-102654000D01*
X180443332Y-103786000D01*
X158585228Y-103786000D01*
X158585228Y-103290000D01*
X158580324Y-103240207D01*
X158565800Y-103192328D01*
X158542214Y-103148203D01*
X158510473Y-103109527D01*
X158471797Y-103077786D01*
X158427672Y-103054200D01*
X158379793Y-103039676D01*
X158330000Y-103034772D01*
X156630000Y-103034772D01*
X156580207Y-103039676D01*
X156532328Y-103054200D01*
X156488203Y-103077786D01*
X156449527Y-103109527D01*
X156417786Y-103148203D01*
X156394200Y-103192328D01*
X156379676Y-103240207D01*
X156374772Y-103290000D01*
X156374772Y-104990000D01*
X156379676Y-105039793D01*
X156394200Y-105087672D01*
X156417786Y-105131797D01*
X156449527Y-105170473D01*
X156488203Y-105202214D01*
X156532328Y-105225800D01*
X156580207Y-105240324D01*
X156630000Y-105245228D01*
X158330000Y-105245228D01*
X158379793Y-105240324D01*
X158427672Y-105225800D01*
X158471797Y-105202214D01*
X158510473Y-105170473D01*
X158542214Y-105131797D01*
X158565800Y-105087672D01*
X158580324Y-105039793D01*
X158585228Y-104990000D01*
X158585228Y-104494000D01*
X180572588Y-104494000D01*
X180589962Y-104495711D01*
X180607336Y-104494000D01*
X180607344Y-104494000D01*
X180659358Y-104488877D01*
X180726087Y-104468635D01*
X180787585Y-104435764D01*
X180841488Y-104391526D01*
X180852574Y-104378018D01*
X182875030Y-102355564D01*
X182888527Y-102344487D01*
X182899604Y-102330990D01*
X182899607Y-102330987D01*
X182932764Y-102290585D01*
X182942759Y-102271886D01*
X182965636Y-102229086D01*
X182985878Y-102162357D01*
X182991001Y-102110343D01*
X182991001Y-102110336D01*
X182992712Y-102092962D01*
X182991001Y-102075588D01*
X182991001Y-97564375D01*
X182992712Y-97547001D01*
X182991001Y-97529627D01*
X182991001Y-97529619D01*
X182985878Y-97477605D01*
X182965636Y-97410876D01*
X182932765Y-97349378D01*
X182911049Y-97322919D01*
X182899607Y-97308976D01*
X182899604Y-97308973D01*
X182888526Y-97295475D01*
X182875029Y-97284398D01*
X182563328Y-96972698D01*
X182623496Y-96827441D01*
X182664000Y-96623810D01*
X182664000Y-96416190D01*
X182623496Y-96212559D01*
X182544043Y-96020744D01*
X182428695Y-95848114D01*
X182281886Y-95701305D01*
X182109256Y-95585957D01*
X181917441Y-95506504D01*
X181713810Y-95466000D01*
X181506190Y-95466000D01*
X181302559Y-95506504D01*
X181110744Y-95585957D01*
X180938114Y-95701305D01*
X180791305Y-95848114D01*
X180675957Y-96020744D01*
X180596504Y-96212559D01*
X180556000Y-96416190D01*
X180556000Y-96623810D01*
X180596504Y-96827441D01*
X180675957Y-97019256D01*
X180791305Y-97191886D01*
X180938114Y-97338695D01*
X181110744Y-97454043D01*
X181302559Y-97533496D01*
X181506190Y-97574000D01*
X181713810Y-97574000D01*
X181917441Y-97533496D01*
X182062698Y-97473328D01*
X182283001Y-97693632D01*
X182283001Y-98242420D01*
X182281886Y-98241305D01*
X182109256Y-98125957D01*
X181917441Y-98046504D01*
X181713810Y-98006000D01*
X181506190Y-98006000D01*
X181302559Y-98046504D01*
X181110744Y-98125957D01*
X180938114Y-98241305D01*
X180791305Y-98388114D01*
X180675957Y-98560744D01*
X180596504Y-98752559D01*
X180556000Y-98956190D01*
X180556000Y-99163810D01*
X180596504Y-99367441D01*
X180656672Y-99512697D01*
X180193370Y-99976000D01*
X166896259Y-99976000D01*
X167041886Y-99878695D01*
X167188695Y-99731886D01*
X167304043Y-99559256D01*
X167383496Y-99367441D01*
X167424000Y-99163810D01*
X167424000Y-98956190D01*
X167383496Y-98752559D01*
X167304043Y-98560744D01*
X167188695Y-98388114D01*
X167041886Y-98241305D01*
X166869256Y-98125957D01*
X166677441Y-98046504D01*
X166473810Y-98006000D01*
X166266190Y-98006000D01*
X166062559Y-98046504D01*
X165870744Y-98125957D01*
X165698114Y-98241305D01*
X165551305Y-98388114D01*
X165435957Y-98560744D01*
X165356504Y-98752559D01*
X165316000Y-98956190D01*
X165316000Y-99163810D01*
X165356504Y-99367441D01*
X165435957Y-99559256D01*
X165551305Y-99731886D01*
X165698114Y-99878695D01*
X165843741Y-99976000D01*
X159574375Y-99976000D01*
X159557001Y-99974289D01*
X159539627Y-99976000D01*
X159539619Y-99976000D01*
X159487605Y-99981123D01*
X159420876Y-100001365D01*
X159359378Y-100034236D01*
X159305475Y-100078474D01*
X159294394Y-100091976D01*
X158585228Y-100801143D01*
X158585228Y-100750000D01*
X158580324Y-100700207D01*
X158565800Y-100652328D01*
X158542214Y-100608203D01*
X158510473Y-100569527D01*
X158471797Y-100537786D01*
X158427672Y-100514200D01*
X158379793Y-100499676D01*
X158330000Y-100494772D01*
X156630000Y-100494772D01*
X156580207Y-100499676D01*
X156532328Y-100514200D01*
X156488203Y-100537786D01*
X156449527Y-100569527D01*
X156417786Y-100608203D01*
X156394200Y-100652328D01*
X156379676Y-100700207D01*
X156374772Y-100750000D01*
X155828782Y-100750000D01*
X155657082Y-100599410D01*
X155448098Y-100478740D01*
X155373569Y-100447881D01*
X155188000Y-100491657D01*
X154692000Y-100491657D01*
X154506431Y-100447881D01*
X154431902Y-100478740D01*
X154222918Y-100599410D01*
X154041491Y-100758532D01*
X153894593Y-100949991D01*
X153787870Y-101166429D01*
X153415370Y-101166429D01*
X153378352Y-101077060D01*
X153257533Y-100896241D01*
X153103759Y-100742467D01*
X152922940Y-100621648D01*
X152722025Y-100538426D01*
X152508735Y-100496000D01*
X152291265Y-100496000D01*
X152077975Y-100538426D01*
X151877060Y-100621648D01*
X151696241Y-100742467D01*
X151542467Y-100896241D01*
X151421648Y-101077060D01*
X151338426Y-101277975D01*
X151296000Y-101491265D01*
X144449000Y-101491265D01*
X144449000Y-98951265D01*
X151296000Y-98951265D01*
X151296000Y-99168735D01*
X151338426Y-99382025D01*
X151421648Y-99582940D01*
X151542467Y-99763759D01*
X151696241Y-99917533D01*
X151877060Y-100038352D01*
X152077975Y-100121574D01*
X152291265Y-100164000D01*
X152508735Y-100164000D01*
X152722025Y-100121574D01*
X152922940Y-100038352D01*
X153103759Y-99917533D01*
X153257533Y-99763759D01*
X153378352Y-99582940D01*
X153415369Y-99493571D01*
X153787870Y-99493571D01*
X153894593Y-99710009D01*
X154041491Y-99901468D01*
X154222918Y-100060590D01*
X154431902Y-100181260D01*
X154506431Y-100212119D01*
X154692000Y-100168343D01*
X154692000Y-99308000D01*
X155188000Y-99308000D01*
X155188000Y-100168343D01*
X155373569Y-100212119D01*
X155448098Y-100181260D01*
X155657082Y-100060590D01*
X155838509Y-99901468D01*
X155985407Y-99710009D01*
X156092130Y-99493571D01*
X156050521Y-99308000D01*
X155188000Y-99308000D01*
X154692000Y-99308000D01*
X153829479Y-99308000D01*
X153787870Y-99493571D01*
X153415369Y-99493571D01*
X153461574Y-99382025D01*
X153504000Y-99168735D01*
X153504000Y-98951265D01*
X153461574Y-98737975D01*
X153415370Y-98626429D01*
X153787870Y-98626429D01*
X153829479Y-98812000D01*
X154692000Y-98812000D01*
X154692000Y-97951657D01*
X155188000Y-97951657D01*
X155188000Y-98812000D01*
X156050521Y-98812000D01*
X156092130Y-98626429D01*
X155985407Y-98409991D01*
X155838509Y-98218532D01*
X155828782Y-98210000D01*
X156374772Y-98210000D01*
X156374772Y-99910000D01*
X156379676Y-99959793D01*
X156394200Y-100007672D01*
X156417786Y-100051797D01*
X156449527Y-100090473D01*
X156488203Y-100122214D01*
X156532328Y-100145800D01*
X156580207Y-100160324D01*
X156630000Y-100165228D01*
X158330000Y-100165228D01*
X158379793Y-100160324D01*
X158427672Y-100145800D01*
X158471797Y-100122214D01*
X158510473Y-100090473D01*
X158542214Y-100051797D01*
X158565800Y-100007672D01*
X158580324Y-99959793D01*
X158585228Y-99910000D01*
X158585228Y-99414000D01*
X161272626Y-99414000D01*
X161290000Y-99415711D01*
X161307374Y-99414000D01*
X161307382Y-99414000D01*
X161359396Y-99408877D01*
X161426125Y-99388635D01*
X161487623Y-99355764D01*
X161541526Y-99311526D01*
X161552612Y-99298018D01*
X164434440Y-96416190D01*
X165316000Y-96416190D01*
X165316000Y-96623810D01*
X165356504Y-96827441D01*
X165435957Y-97019256D01*
X165551305Y-97191886D01*
X165698114Y-97338695D01*
X165870744Y-97454043D01*
X166062559Y-97533496D01*
X166266190Y-97574000D01*
X166473810Y-97574000D01*
X166677441Y-97533496D01*
X166869256Y-97454043D01*
X167041886Y-97338695D01*
X167188695Y-97191886D01*
X167304043Y-97019256D01*
X167383496Y-96827441D01*
X167424000Y-96623810D01*
X167424000Y-96416190D01*
X167856000Y-96416190D01*
X167856000Y-96623810D01*
X167896504Y-96827441D01*
X167975957Y-97019256D01*
X168091305Y-97191886D01*
X168238114Y-97338695D01*
X168410744Y-97454043D01*
X168602559Y-97533496D01*
X168806190Y-97574000D01*
X169013810Y-97574000D01*
X169217441Y-97533496D01*
X169409256Y-97454043D01*
X169581886Y-97338695D01*
X169728695Y-97191886D01*
X169844043Y-97019256D01*
X169923496Y-96827441D01*
X169964000Y-96623810D01*
X169964000Y-96416190D01*
X170396000Y-96416190D01*
X170396000Y-96623810D01*
X170436504Y-96827441D01*
X170515957Y-97019256D01*
X170631305Y-97191886D01*
X170778114Y-97338695D01*
X170950744Y-97454043D01*
X171142559Y-97533496D01*
X171346190Y-97574000D01*
X171553810Y-97574000D01*
X171757441Y-97533496D01*
X171949256Y-97454043D01*
X172121886Y-97338695D01*
X172268695Y-97191886D01*
X172384043Y-97019256D01*
X172463496Y-96827441D01*
X172504000Y-96623810D01*
X172504000Y-96416190D01*
X172936000Y-96416190D01*
X172936000Y-96623810D01*
X172976504Y-96827441D01*
X173055957Y-97019256D01*
X173171305Y-97191886D01*
X173318114Y-97338695D01*
X173490744Y-97454043D01*
X173682559Y-97533496D01*
X173886190Y-97574000D01*
X174093810Y-97574000D01*
X174297441Y-97533496D01*
X174489256Y-97454043D01*
X174661886Y-97338695D01*
X174808695Y-97191886D01*
X174924043Y-97019256D01*
X175003496Y-96827441D01*
X175044000Y-96623810D01*
X175044000Y-96416190D01*
X175476000Y-96416190D01*
X175476000Y-96623810D01*
X175516504Y-96827441D01*
X175595957Y-97019256D01*
X175711305Y-97191886D01*
X175858114Y-97338695D01*
X176030744Y-97454043D01*
X176222559Y-97533496D01*
X176426190Y-97574000D01*
X176633810Y-97574000D01*
X176837441Y-97533496D01*
X177029256Y-97454043D01*
X177201886Y-97338695D01*
X177348695Y-97191886D01*
X177464043Y-97019256D01*
X177543496Y-96827441D01*
X177584000Y-96623810D01*
X177584000Y-96416190D01*
X178016000Y-96416190D01*
X178016000Y-96623810D01*
X178056504Y-96827441D01*
X178135957Y-97019256D01*
X178251305Y-97191886D01*
X178398114Y-97338695D01*
X178570744Y-97454043D01*
X178762559Y-97533496D01*
X178966190Y-97574000D01*
X179173810Y-97574000D01*
X179377441Y-97533496D01*
X179569256Y-97454043D01*
X179741886Y-97338695D01*
X179888695Y-97191886D01*
X180004043Y-97019256D01*
X180083496Y-96827441D01*
X180124000Y-96623810D01*
X180124000Y-96416190D01*
X180083496Y-96212559D01*
X180004043Y-96020744D01*
X179888695Y-95848114D01*
X179741886Y-95701305D01*
X179569256Y-95585957D01*
X179377441Y-95506504D01*
X179173810Y-95466000D01*
X178966190Y-95466000D01*
X178762559Y-95506504D01*
X178570744Y-95585957D01*
X178398114Y-95701305D01*
X178251305Y-95848114D01*
X178135957Y-96020744D01*
X178056504Y-96212559D01*
X178016000Y-96416190D01*
X177584000Y-96416190D01*
X177543496Y-96212559D01*
X177464043Y-96020744D01*
X177348695Y-95848114D01*
X177201886Y-95701305D01*
X177029256Y-95585957D01*
X176837441Y-95506504D01*
X176633810Y-95466000D01*
X176426190Y-95466000D01*
X176222559Y-95506504D01*
X176030744Y-95585957D01*
X175858114Y-95701305D01*
X175711305Y-95848114D01*
X175595957Y-96020744D01*
X175516504Y-96212559D01*
X175476000Y-96416190D01*
X175044000Y-96416190D01*
X175003496Y-96212559D01*
X174924043Y-96020744D01*
X174808695Y-95848114D01*
X174661886Y-95701305D01*
X174489256Y-95585957D01*
X174297441Y-95506504D01*
X174093810Y-95466000D01*
X173886190Y-95466000D01*
X173682559Y-95506504D01*
X173490744Y-95585957D01*
X173318114Y-95701305D01*
X173171305Y-95848114D01*
X173055957Y-96020744D01*
X172976504Y-96212559D01*
X172936000Y-96416190D01*
X172504000Y-96416190D01*
X172463496Y-96212559D01*
X172384043Y-96020744D01*
X172268695Y-95848114D01*
X172121886Y-95701305D01*
X171949256Y-95585957D01*
X171757441Y-95506504D01*
X171553810Y-95466000D01*
X171346190Y-95466000D01*
X171142559Y-95506504D01*
X170950744Y-95585957D01*
X170778114Y-95701305D01*
X170631305Y-95848114D01*
X170515957Y-96020744D01*
X170436504Y-96212559D01*
X170396000Y-96416190D01*
X169964000Y-96416190D01*
X169923496Y-96212559D01*
X169844043Y-96020744D01*
X169728695Y-95848114D01*
X169581886Y-95701305D01*
X169409256Y-95585957D01*
X169217441Y-95506504D01*
X169013810Y-95466000D01*
X168806190Y-95466000D01*
X168602559Y-95506504D01*
X168410744Y-95585957D01*
X168238114Y-95701305D01*
X168091305Y-95848114D01*
X167975957Y-96020744D01*
X167896504Y-96212559D01*
X167856000Y-96416190D01*
X167424000Y-96416190D01*
X167383496Y-96212559D01*
X167304043Y-96020744D01*
X167188695Y-95848114D01*
X167041886Y-95701305D01*
X166869256Y-95585957D01*
X166677441Y-95506504D01*
X166473810Y-95466000D01*
X166266190Y-95466000D01*
X166062559Y-95506504D01*
X165870744Y-95585957D01*
X165698114Y-95701305D01*
X165551305Y-95848114D01*
X165435957Y-96020744D01*
X165356504Y-96212559D01*
X165316000Y-96416190D01*
X164434440Y-96416190D01*
X165917303Y-94933328D01*
X166062559Y-94993496D01*
X166266190Y-95034000D01*
X166473810Y-95034000D01*
X166677441Y-94993496D01*
X166869256Y-94914043D01*
X167041886Y-94798695D01*
X167188695Y-94651886D01*
X167304043Y-94479256D01*
X167383496Y-94287441D01*
X167424000Y-94083810D01*
X167424000Y-93876190D01*
X167856000Y-93876190D01*
X167856000Y-94083810D01*
X167896504Y-94287441D01*
X167975957Y-94479256D01*
X168091305Y-94651886D01*
X168238114Y-94798695D01*
X168410744Y-94914043D01*
X168602559Y-94993496D01*
X168806190Y-95034000D01*
X169013810Y-95034000D01*
X169217441Y-94993496D01*
X169409256Y-94914043D01*
X169581886Y-94798695D01*
X169728695Y-94651886D01*
X169844043Y-94479256D01*
X169923496Y-94287441D01*
X169964000Y-94083810D01*
X169964000Y-93876190D01*
X170396000Y-93876190D01*
X170396000Y-94083810D01*
X170436504Y-94287441D01*
X170515957Y-94479256D01*
X170631305Y-94651886D01*
X170778114Y-94798695D01*
X170950744Y-94914043D01*
X171142559Y-94993496D01*
X171346190Y-95034000D01*
X171553810Y-95034000D01*
X171757441Y-94993496D01*
X171949256Y-94914043D01*
X172121886Y-94798695D01*
X172268695Y-94651886D01*
X172384043Y-94479256D01*
X172463496Y-94287441D01*
X172504000Y-94083810D01*
X172504000Y-93876190D01*
X172936000Y-93876190D01*
X172936000Y-94083810D01*
X172976504Y-94287441D01*
X173055957Y-94479256D01*
X173171305Y-94651886D01*
X173318114Y-94798695D01*
X173490744Y-94914043D01*
X173682559Y-94993496D01*
X173886190Y-95034000D01*
X174093810Y-95034000D01*
X174297441Y-94993496D01*
X174489256Y-94914043D01*
X174661886Y-94798695D01*
X174808695Y-94651886D01*
X174924043Y-94479256D01*
X175003496Y-94287441D01*
X175044000Y-94083810D01*
X175044000Y-93876190D01*
X175476000Y-93876190D01*
X175476000Y-94083810D01*
X175516504Y-94287441D01*
X175595957Y-94479256D01*
X175711305Y-94651886D01*
X175858114Y-94798695D01*
X176030744Y-94914043D01*
X176222559Y-94993496D01*
X176426190Y-95034000D01*
X176633810Y-95034000D01*
X176837441Y-94993496D01*
X177029256Y-94914043D01*
X177201886Y-94798695D01*
X177348695Y-94651886D01*
X177464043Y-94479256D01*
X177543496Y-94287441D01*
X177584000Y-94083810D01*
X177584000Y-93876190D01*
X178016000Y-93876190D01*
X178016000Y-94083810D01*
X178056504Y-94287441D01*
X178135957Y-94479256D01*
X178251305Y-94651886D01*
X178398114Y-94798695D01*
X178570744Y-94914043D01*
X178762559Y-94993496D01*
X178966190Y-95034000D01*
X179173810Y-95034000D01*
X179377441Y-94993496D01*
X179569256Y-94914043D01*
X179741886Y-94798695D01*
X179888695Y-94651886D01*
X180004043Y-94479256D01*
X180083496Y-94287441D01*
X180124000Y-94083810D01*
X180124000Y-93876190D01*
X180556000Y-93876190D01*
X180556000Y-94083810D01*
X180596504Y-94287441D01*
X180675957Y-94479256D01*
X180791305Y-94651886D01*
X180938114Y-94798695D01*
X181110744Y-94914043D01*
X181302559Y-94993496D01*
X181506190Y-95034000D01*
X181713810Y-95034000D01*
X181917441Y-94993496D01*
X182109256Y-94914043D01*
X182281886Y-94798695D01*
X182428695Y-94651886D01*
X182544043Y-94479256D01*
X182623496Y-94287441D01*
X182664000Y-94083810D01*
X182664000Y-93876190D01*
X182623496Y-93672559D01*
X182544043Y-93480744D01*
X182428695Y-93308114D01*
X182281886Y-93161305D01*
X182109256Y-93045957D01*
X181917441Y-92966504D01*
X181713810Y-92926000D01*
X181506190Y-92926000D01*
X181302559Y-92966504D01*
X181110744Y-93045957D01*
X180938114Y-93161305D01*
X180791305Y-93308114D01*
X180675957Y-93480744D01*
X180596504Y-93672559D01*
X180556000Y-93876190D01*
X180124000Y-93876190D01*
X180083496Y-93672559D01*
X180004043Y-93480744D01*
X179888695Y-93308114D01*
X179741886Y-93161305D01*
X179569256Y-93045957D01*
X179377441Y-92966504D01*
X179173810Y-92926000D01*
X178966190Y-92926000D01*
X178762559Y-92966504D01*
X178570744Y-93045957D01*
X178398114Y-93161305D01*
X178251305Y-93308114D01*
X178135957Y-93480744D01*
X178056504Y-93672559D01*
X178016000Y-93876190D01*
X177584000Y-93876190D01*
X177543496Y-93672559D01*
X177464043Y-93480744D01*
X177348695Y-93308114D01*
X177201886Y-93161305D01*
X177029256Y-93045957D01*
X176837441Y-92966504D01*
X176633810Y-92926000D01*
X176426190Y-92926000D01*
X176222559Y-92966504D01*
X176030744Y-93045957D01*
X175858114Y-93161305D01*
X175711305Y-93308114D01*
X175595957Y-93480744D01*
X175516504Y-93672559D01*
X175476000Y-93876190D01*
X175044000Y-93876190D01*
X175003496Y-93672559D01*
X174924043Y-93480744D01*
X174808695Y-93308114D01*
X174661886Y-93161305D01*
X174489256Y-93045957D01*
X174297441Y-92966504D01*
X174093810Y-92926000D01*
X173886190Y-92926000D01*
X173682559Y-92966504D01*
X173490744Y-93045957D01*
X173318114Y-93161305D01*
X173171305Y-93308114D01*
X173055957Y-93480744D01*
X172976504Y-93672559D01*
X172936000Y-93876190D01*
X172504000Y-93876190D01*
X172463496Y-93672559D01*
X172384043Y-93480744D01*
X172268695Y-93308114D01*
X172121886Y-93161305D01*
X171949256Y-93045957D01*
X171757441Y-92966504D01*
X171553810Y-92926000D01*
X171346190Y-92926000D01*
X171142559Y-92966504D01*
X170950744Y-93045957D01*
X170778114Y-93161305D01*
X170631305Y-93308114D01*
X170515957Y-93480744D01*
X170436504Y-93672559D01*
X170396000Y-93876190D01*
X169964000Y-93876190D01*
X169923496Y-93672559D01*
X169844043Y-93480744D01*
X169728695Y-93308114D01*
X169581886Y-93161305D01*
X169409256Y-93045957D01*
X169217441Y-92966504D01*
X169013810Y-92926000D01*
X168806190Y-92926000D01*
X168602559Y-92966504D01*
X168410744Y-93045957D01*
X168238114Y-93161305D01*
X168091305Y-93308114D01*
X167975957Y-93480744D01*
X167896504Y-93672559D01*
X167856000Y-93876190D01*
X167424000Y-93876190D01*
X167383496Y-93672559D01*
X167304043Y-93480744D01*
X167188695Y-93308114D01*
X167041886Y-93161305D01*
X166869256Y-93045957D01*
X166677441Y-92966504D01*
X166473810Y-92926000D01*
X166266190Y-92926000D01*
X166062559Y-92966504D01*
X165870744Y-93045957D01*
X165698114Y-93161305D01*
X165551305Y-93308114D01*
X165435957Y-93480744D01*
X165356504Y-93672559D01*
X165316000Y-93876190D01*
X165316000Y-94083810D01*
X165356504Y-94287441D01*
X165416672Y-94432697D01*
X161143370Y-98706000D01*
X158585228Y-98706000D01*
X158585228Y-98210000D01*
X158580324Y-98160207D01*
X158565800Y-98112328D01*
X158542214Y-98068203D01*
X158510473Y-98029527D01*
X158471797Y-97997786D01*
X158427672Y-97974200D01*
X158379793Y-97959676D01*
X158330000Y-97954772D01*
X156630000Y-97954772D01*
X156580207Y-97959676D01*
X156532328Y-97974200D01*
X156488203Y-97997786D01*
X156449527Y-98029527D01*
X156417786Y-98068203D01*
X156394200Y-98112328D01*
X156379676Y-98160207D01*
X156374772Y-98210000D01*
X155828782Y-98210000D01*
X155657082Y-98059410D01*
X155448098Y-97938740D01*
X155373569Y-97907881D01*
X155188000Y-97951657D01*
X154692000Y-97951657D01*
X154506431Y-97907881D01*
X154431902Y-97938740D01*
X154222918Y-98059410D01*
X154041491Y-98218532D01*
X153894593Y-98409991D01*
X153787870Y-98626429D01*
X153415370Y-98626429D01*
X153378352Y-98537060D01*
X153257533Y-98356241D01*
X153103759Y-98202467D01*
X152922940Y-98081648D01*
X152722025Y-97998426D01*
X152508735Y-97956000D01*
X152291265Y-97956000D01*
X152077975Y-97998426D01*
X151877060Y-98081648D01*
X151696241Y-98202467D01*
X151542467Y-98356241D01*
X151421648Y-98537060D01*
X151338426Y-98737975D01*
X151296000Y-98951265D01*
X144449000Y-98951265D01*
X144449000Y-93871265D01*
X151296000Y-93871265D01*
X151296000Y-94088735D01*
X151338426Y-94302025D01*
X151421648Y-94502940D01*
X151542467Y-94683759D01*
X151696241Y-94837533D01*
X151877060Y-94958352D01*
X152077975Y-95041574D01*
X152291265Y-95084000D01*
X152508735Y-95084000D01*
X152722025Y-95041574D01*
X152922940Y-94958352D01*
X153103759Y-94837533D01*
X153257533Y-94683759D01*
X153378352Y-94502940D01*
X153415369Y-94413571D01*
X153787870Y-94413571D01*
X153894593Y-94630009D01*
X154041491Y-94821468D01*
X154222918Y-94980590D01*
X154431902Y-95101260D01*
X154506431Y-95132119D01*
X154692000Y-95088343D01*
X154692000Y-94228000D01*
X155188000Y-94228000D01*
X155188000Y-95088343D01*
X155373569Y-95132119D01*
X155448098Y-95101260D01*
X155657082Y-94980590D01*
X155838509Y-94821468D01*
X155985407Y-94630009D01*
X156092130Y-94413571D01*
X156050521Y-94228000D01*
X155188000Y-94228000D01*
X154692000Y-94228000D01*
X153829479Y-94228000D01*
X153787870Y-94413571D01*
X153415369Y-94413571D01*
X153461574Y-94302025D01*
X153504000Y-94088735D01*
X153504000Y-93871265D01*
X153461574Y-93657975D01*
X153415370Y-93546429D01*
X153787870Y-93546429D01*
X153829479Y-93732000D01*
X154692000Y-93732000D01*
X154692000Y-92871657D01*
X155188000Y-92871657D01*
X155188000Y-93732000D01*
X156050521Y-93732000D01*
X156092130Y-93546429D01*
X155985407Y-93329991D01*
X155838509Y-93138532D01*
X155828782Y-93130000D01*
X156374772Y-93130000D01*
X156374772Y-94830000D01*
X156379676Y-94879793D01*
X156394200Y-94927672D01*
X156417786Y-94971797D01*
X156449527Y-95010473D01*
X156488203Y-95042214D01*
X156532328Y-95065800D01*
X156580207Y-95080324D01*
X156630000Y-95085228D01*
X158330000Y-95085228D01*
X158379793Y-95080324D01*
X158427672Y-95065800D01*
X158471797Y-95042214D01*
X158510473Y-95010473D01*
X158542214Y-94971797D01*
X158565800Y-94927672D01*
X158580324Y-94879793D01*
X158585228Y-94830000D01*
X158585228Y-94334000D01*
X163812626Y-94334000D01*
X163830000Y-94335711D01*
X163847374Y-94334000D01*
X163847382Y-94334000D01*
X163899396Y-94328877D01*
X163966125Y-94308635D01*
X164027623Y-94275764D01*
X164081526Y-94231526D01*
X164092612Y-94218018D01*
X165917303Y-92393328D01*
X166062559Y-92453496D01*
X166266190Y-92494000D01*
X166473810Y-92494000D01*
X166677441Y-92453496D01*
X166869256Y-92374043D01*
X167041886Y-92258695D01*
X167188695Y-92111886D01*
X167304043Y-91939256D01*
X167383496Y-91747441D01*
X167424000Y-91543810D01*
X167424000Y-91336190D01*
X180556000Y-91336190D01*
X180556000Y-91543810D01*
X180596504Y-91747441D01*
X180675957Y-91939256D01*
X180791305Y-92111886D01*
X180938114Y-92258695D01*
X181110744Y-92374043D01*
X181302559Y-92453496D01*
X181506190Y-92494000D01*
X181713810Y-92494000D01*
X181917441Y-92453496D01*
X182109256Y-92374043D01*
X182281886Y-92258695D01*
X182428695Y-92111886D01*
X182544043Y-91939256D01*
X182623496Y-91747441D01*
X182664000Y-91543810D01*
X182664000Y-91336190D01*
X182623496Y-91132559D01*
X182544043Y-90940744D01*
X182428695Y-90768114D01*
X182281886Y-90621305D01*
X182109256Y-90505957D01*
X181917441Y-90426504D01*
X181713810Y-90386000D01*
X181506190Y-90386000D01*
X181302559Y-90426504D01*
X181110744Y-90505957D01*
X180938114Y-90621305D01*
X180791305Y-90768114D01*
X180675957Y-90940744D01*
X180596504Y-91132559D01*
X180556000Y-91336190D01*
X167424000Y-91336190D01*
X167383496Y-91132559D01*
X167304043Y-90940744D01*
X167188695Y-90768114D01*
X167041886Y-90621305D01*
X166869256Y-90505957D01*
X166677441Y-90426504D01*
X166473810Y-90386000D01*
X166266190Y-90386000D01*
X166062559Y-90426504D01*
X165870744Y-90505957D01*
X165698114Y-90621305D01*
X165551305Y-90768114D01*
X165435957Y-90940744D01*
X165356504Y-91132559D01*
X165316000Y-91336190D01*
X165316000Y-91543810D01*
X165356504Y-91747441D01*
X165416672Y-91892697D01*
X163683370Y-93626000D01*
X158585228Y-93626000D01*
X158585228Y-93130000D01*
X158580324Y-93080207D01*
X158565800Y-93032328D01*
X158542214Y-92988203D01*
X158510473Y-92949527D01*
X158471797Y-92917786D01*
X158427672Y-92894200D01*
X158379793Y-92879676D01*
X158330000Y-92874772D01*
X156630000Y-92874772D01*
X156580207Y-92879676D01*
X156532328Y-92894200D01*
X156488203Y-92917786D01*
X156449527Y-92949527D01*
X156417786Y-92988203D01*
X156394200Y-93032328D01*
X156379676Y-93080207D01*
X156374772Y-93130000D01*
X155828782Y-93130000D01*
X155657082Y-92979410D01*
X155448098Y-92858740D01*
X155373569Y-92827881D01*
X155188000Y-92871657D01*
X154692000Y-92871657D01*
X154506431Y-92827881D01*
X154431902Y-92858740D01*
X154222918Y-92979410D01*
X154041491Y-93138532D01*
X153894593Y-93329991D01*
X153787870Y-93546429D01*
X153415370Y-93546429D01*
X153378352Y-93457060D01*
X153257533Y-93276241D01*
X153103759Y-93122467D01*
X152922940Y-93001648D01*
X152722025Y-92918426D01*
X152508735Y-92876000D01*
X152291265Y-92876000D01*
X152077975Y-92918426D01*
X151877060Y-93001648D01*
X151696241Y-93122467D01*
X151542467Y-93276241D01*
X151421648Y-93457060D01*
X151338426Y-93657975D01*
X151296000Y-93871265D01*
X144449000Y-93871265D01*
X144449000Y-91331265D01*
X151296000Y-91331265D01*
X151296000Y-91548735D01*
X151338426Y-91762025D01*
X151421648Y-91962940D01*
X151542467Y-92143759D01*
X151696241Y-92297533D01*
X151877060Y-92418352D01*
X152077975Y-92501574D01*
X152291265Y-92544000D01*
X152508735Y-92544000D01*
X152722025Y-92501574D01*
X152922940Y-92418352D01*
X153103759Y-92297533D01*
X153257533Y-92143759D01*
X153378352Y-91962940D01*
X153415369Y-91873571D01*
X153787870Y-91873571D01*
X153894593Y-92090009D01*
X154041491Y-92281468D01*
X154222918Y-92440590D01*
X154431902Y-92561260D01*
X154506431Y-92592119D01*
X154692000Y-92548343D01*
X154692000Y-91688000D01*
X155188000Y-91688000D01*
X155188000Y-92548343D01*
X155373569Y-92592119D01*
X155448098Y-92561260D01*
X155657082Y-92440590D01*
X155838509Y-92281468D01*
X155985407Y-92090009D01*
X156092130Y-91873571D01*
X156050521Y-91688000D01*
X155188000Y-91688000D01*
X154692000Y-91688000D01*
X153829479Y-91688000D01*
X153787870Y-91873571D01*
X153415369Y-91873571D01*
X153461574Y-91762025D01*
X153504000Y-91548735D01*
X153504000Y-91331265D01*
X153461574Y-91117975D01*
X153415370Y-91006429D01*
X153787870Y-91006429D01*
X153829479Y-91192000D01*
X154692000Y-91192000D01*
X154692000Y-90331657D01*
X155188000Y-90331657D01*
X155188000Y-91192000D01*
X156050521Y-91192000D01*
X156092130Y-91006429D01*
X155985407Y-90789991D01*
X155838509Y-90598532D01*
X155828782Y-90590000D01*
X156374772Y-90590000D01*
X156374772Y-92290000D01*
X156379676Y-92339793D01*
X156394200Y-92387672D01*
X156417786Y-92431797D01*
X156449527Y-92470473D01*
X156488203Y-92502214D01*
X156532328Y-92525800D01*
X156580207Y-92540324D01*
X156630000Y-92545228D01*
X158330000Y-92545228D01*
X158379793Y-92540324D01*
X158427672Y-92525800D01*
X158471797Y-92502214D01*
X158510473Y-92470473D01*
X158542214Y-92431797D01*
X158565800Y-92387672D01*
X158580324Y-92339793D01*
X158585228Y-92290000D01*
X158585228Y-91794000D01*
X163812626Y-91794000D01*
X163830000Y-91795711D01*
X163847374Y-91794000D01*
X163847382Y-91794000D01*
X163899396Y-91788877D01*
X163966125Y-91768635D01*
X164027623Y-91735764D01*
X164081526Y-91691526D01*
X164092612Y-91678018D01*
X165917303Y-89853328D01*
X166062559Y-89913496D01*
X166266190Y-89954000D01*
X166473810Y-89954000D01*
X166677441Y-89913496D01*
X166869256Y-89834043D01*
X167041886Y-89718695D01*
X167188695Y-89571886D01*
X167304043Y-89399256D01*
X167383496Y-89207441D01*
X167424000Y-89003810D01*
X167424000Y-88796190D01*
X180556000Y-88796190D01*
X180556000Y-89003810D01*
X180596504Y-89207441D01*
X180675957Y-89399256D01*
X180791305Y-89571886D01*
X180938114Y-89718695D01*
X181110744Y-89834043D01*
X181302559Y-89913496D01*
X181506190Y-89954000D01*
X181713810Y-89954000D01*
X181917441Y-89913496D01*
X182109256Y-89834043D01*
X182281886Y-89718695D01*
X182428695Y-89571886D01*
X182544043Y-89399256D01*
X182623496Y-89207441D01*
X182664000Y-89003810D01*
X182664000Y-88796190D01*
X182623496Y-88592559D01*
X182544043Y-88400744D01*
X182428695Y-88228114D01*
X182281886Y-88081305D01*
X182109256Y-87965957D01*
X181917441Y-87886504D01*
X181713810Y-87846000D01*
X181506190Y-87846000D01*
X181302559Y-87886504D01*
X181110744Y-87965957D01*
X180938114Y-88081305D01*
X180791305Y-88228114D01*
X180675957Y-88400744D01*
X180596504Y-88592559D01*
X180556000Y-88796190D01*
X167424000Y-88796190D01*
X167383496Y-88592559D01*
X167304043Y-88400744D01*
X167188695Y-88228114D01*
X167041886Y-88081305D01*
X166869256Y-87965957D01*
X166677441Y-87886504D01*
X166473810Y-87846000D01*
X166266190Y-87846000D01*
X166062559Y-87886504D01*
X165870744Y-87965957D01*
X165698114Y-88081305D01*
X165551305Y-88228114D01*
X165435957Y-88400744D01*
X165356504Y-88592559D01*
X165316000Y-88796190D01*
X165316000Y-89003810D01*
X165356504Y-89207441D01*
X165416672Y-89352697D01*
X163683370Y-91086000D01*
X158585228Y-91086000D01*
X158585228Y-90590000D01*
X158580324Y-90540207D01*
X158565800Y-90492328D01*
X158542214Y-90448203D01*
X158510473Y-90409527D01*
X158471797Y-90377786D01*
X158427672Y-90354200D01*
X158379793Y-90339676D01*
X158330000Y-90334772D01*
X156630000Y-90334772D01*
X156580207Y-90339676D01*
X156532328Y-90354200D01*
X156488203Y-90377786D01*
X156449527Y-90409527D01*
X156417786Y-90448203D01*
X156394200Y-90492328D01*
X156379676Y-90540207D01*
X156374772Y-90590000D01*
X155828782Y-90590000D01*
X155657082Y-90439410D01*
X155448098Y-90318740D01*
X155373569Y-90287881D01*
X155188000Y-90331657D01*
X154692000Y-90331657D01*
X154506431Y-90287881D01*
X154431902Y-90318740D01*
X154222918Y-90439410D01*
X154041491Y-90598532D01*
X153894593Y-90789991D01*
X153787870Y-91006429D01*
X153415370Y-91006429D01*
X153378352Y-90917060D01*
X153257533Y-90736241D01*
X153103759Y-90582467D01*
X152922940Y-90461648D01*
X152722025Y-90378426D01*
X152508735Y-90336000D01*
X152291265Y-90336000D01*
X152077975Y-90378426D01*
X151877060Y-90461648D01*
X151696241Y-90582467D01*
X151542467Y-90736241D01*
X151421648Y-90917060D01*
X151338426Y-91117975D01*
X151296000Y-91331265D01*
X144449000Y-91331265D01*
X144449000Y-88791265D01*
X151296000Y-88791265D01*
X151296000Y-89008735D01*
X151338426Y-89222025D01*
X151421648Y-89422940D01*
X151542467Y-89603759D01*
X151696241Y-89757533D01*
X151877060Y-89878352D01*
X152077975Y-89961574D01*
X152291265Y-90004000D01*
X152508735Y-90004000D01*
X152722025Y-89961574D01*
X152922940Y-89878352D01*
X153103759Y-89757533D01*
X153257533Y-89603759D01*
X153378352Y-89422940D01*
X153415369Y-89333571D01*
X153787870Y-89333571D01*
X153894593Y-89550009D01*
X154041491Y-89741468D01*
X154222918Y-89900590D01*
X154431902Y-90021260D01*
X154506431Y-90052119D01*
X154692000Y-90008343D01*
X154692000Y-89148000D01*
X155188000Y-89148000D01*
X155188000Y-90008343D01*
X155373569Y-90052119D01*
X155448098Y-90021260D01*
X155657082Y-89900590D01*
X155838509Y-89741468D01*
X155985407Y-89550009D01*
X156092130Y-89333571D01*
X156050521Y-89148000D01*
X155188000Y-89148000D01*
X154692000Y-89148000D01*
X153829479Y-89148000D01*
X153787870Y-89333571D01*
X153415369Y-89333571D01*
X153461574Y-89222025D01*
X153504000Y-89008735D01*
X153504000Y-88791265D01*
X153461574Y-88577975D01*
X153415370Y-88466429D01*
X153787870Y-88466429D01*
X153829479Y-88652000D01*
X154692000Y-88652000D01*
X154692000Y-87791657D01*
X155188000Y-87791657D01*
X155188000Y-88652000D01*
X156050521Y-88652000D01*
X156092130Y-88466429D01*
X155985407Y-88249991D01*
X155838509Y-88058532D01*
X155828782Y-88050000D01*
X156374772Y-88050000D01*
X156374772Y-89750000D01*
X156379676Y-89799793D01*
X156394200Y-89847672D01*
X156417786Y-89891797D01*
X156449527Y-89930473D01*
X156488203Y-89962214D01*
X156532328Y-89985800D01*
X156580207Y-90000324D01*
X156630000Y-90005228D01*
X158330000Y-90005228D01*
X158379793Y-90000324D01*
X158427672Y-89985800D01*
X158471797Y-89962214D01*
X158510473Y-89930473D01*
X158542214Y-89891797D01*
X158565800Y-89847672D01*
X158580324Y-89799793D01*
X158585228Y-89750000D01*
X158585228Y-88050000D01*
X158580324Y-88000207D01*
X158565800Y-87952328D01*
X158542214Y-87908203D01*
X158510473Y-87869527D01*
X158471797Y-87837786D01*
X158427672Y-87814200D01*
X158379793Y-87799676D01*
X158330000Y-87794772D01*
X158035858Y-87794772D01*
X159116632Y-86714000D01*
X165375790Y-86714000D01*
X165435957Y-86859256D01*
X165551305Y-87031886D01*
X165698114Y-87178695D01*
X165870744Y-87294043D01*
X166062559Y-87373496D01*
X166266190Y-87414000D01*
X166473810Y-87414000D01*
X166677441Y-87373496D01*
X166869256Y-87294043D01*
X167041886Y-87178695D01*
X167188695Y-87031886D01*
X167304043Y-86859256D01*
X167383496Y-86667441D01*
X167424000Y-86463810D01*
X167424000Y-86256190D01*
X180556000Y-86256190D01*
X180556000Y-86463810D01*
X180596504Y-86667441D01*
X180675957Y-86859256D01*
X180791305Y-87031886D01*
X180938114Y-87178695D01*
X181110744Y-87294043D01*
X181302559Y-87373496D01*
X181506190Y-87414000D01*
X181713810Y-87414000D01*
X181917441Y-87373496D01*
X182109256Y-87294043D01*
X182281886Y-87178695D01*
X182428695Y-87031886D01*
X182544043Y-86859256D01*
X182623496Y-86667441D01*
X182664000Y-86463810D01*
X182664000Y-86256190D01*
X182623496Y-86052559D01*
X182544043Y-85860744D01*
X182428695Y-85688114D01*
X182281886Y-85541305D01*
X182109256Y-85425957D01*
X181917441Y-85346504D01*
X181713810Y-85306000D01*
X181506190Y-85306000D01*
X181302559Y-85346504D01*
X181110744Y-85425957D01*
X180938114Y-85541305D01*
X180791305Y-85688114D01*
X180675957Y-85860744D01*
X180596504Y-86052559D01*
X180556000Y-86256190D01*
X167424000Y-86256190D01*
X167383496Y-86052559D01*
X167304043Y-85860744D01*
X167188695Y-85688114D01*
X167041886Y-85541305D01*
X166869256Y-85425957D01*
X166677441Y-85346504D01*
X166473810Y-85306000D01*
X166266190Y-85306000D01*
X166062559Y-85346504D01*
X165870744Y-85425957D01*
X165698114Y-85541305D01*
X165551305Y-85688114D01*
X165435957Y-85860744D01*
X165375790Y-86006000D01*
X158987374Y-86006000D01*
X158969999Y-86004289D01*
X158952625Y-86006000D01*
X158952618Y-86006000D01*
X158907436Y-86010450D01*
X158900603Y-86011123D01*
X158880361Y-86017264D01*
X158833875Y-86031365D01*
X158772377Y-86064236D01*
X158772375Y-86064237D01*
X158772376Y-86064237D01*
X158731974Y-86097394D01*
X158731971Y-86097397D01*
X158718474Y-86108474D01*
X158707397Y-86121971D01*
X157241977Y-87587393D01*
X157228474Y-87598475D01*
X157184236Y-87652378D01*
X157151365Y-87713876D01*
X157141050Y-87747881D01*
X157131689Y-87778740D01*
X157131123Y-87780605D01*
X157129728Y-87794772D01*
X156630000Y-87794772D01*
X156580207Y-87799676D01*
X156532328Y-87814200D01*
X156488203Y-87837786D01*
X156449527Y-87869527D01*
X156417786Y-87908203D01*
X156394200Y-87952328D01*
X156379676Y-88000207D01*
X156374772Y-88050000D01*
X155828782Y-88050000D01*
X155657082Y-87899410D01*
X155448098Y-87778740D01*
X155373569Y-87747881D01*
X155188000Y-87791657D01*
X154692000Y-87791657D01*
X154506431Y-87747881D01*
X154431902Y-87778740D01*
X154222918Y-87899410D01*
X154041491Y-88058532D01*
X153894593Y-88249991D01*
X153787870Y-88466429D01*
X153415370Y-88466429D01*
X153378352Y-88377060D01*
X153257533Y-88196241D01*
X153103759Y-88042467D01*
X152922940Y-87921648D01*
X152722025Y-87838426D01*
X152508735Y-87796000D01*
X152291265Y-87796000D01*
X152077975Y-87838426D01*
X151877060Y-87921648D01*
X151696241Y-88042467D01*
X151542467Y-88196241D01*
X151421648Y-88377060D01*
X151338426Y-88577975D01*
X151296000Y-88791265D01*
X144449000Y-88791265D01*
X144449000Y-83711265D01*
X151296000Y-83711265D01*
X151296000Y-83928735D01*
X151338426Y-84142025D01*
X151421648Y-84342940D01*
X151542467Y-84523759D01*
X151696241Y-84677533D01*
X151877060Y-84798352D01*
X152077975Y-84881574D01*
X152291265Y-84924000D01*
X152508735Y-84924000D01*
X152722025Y-84881574D01*
X152922940Y-84798352D01*
X153103759Y-84677533D01*
X153257533Y-84523759D01*
X153378352Y-84342940D01*
X153415369Y-84253571D01*
X153787870Y-84253571D01*
X153894593Y-84470009D01*
X154041491Y-84661468D01*
X154222918Y-84820590D01*
X154431902Y-84941260D01*
X154506431Y-84972119D01*
X154692000Y-84928343D01*
X154692000Y-84068000D01*
X155188000Y-84068000D01*
X155188000Y-84928343D01*
X155373569Y-84972119D01*
X155448098Y-84941260D01*
X155657082Y-84820590D01*
X155838509Y-84661468D01*
X155985407Y-84470009D01*
X156092130Y-84253571D01*
X156050521Y-84068000D01*
X155188000Y-84068000D01*
X154692000Y-84068000D01*
X153829479Y-84068000D01*
X153787870Y-84253571D01*
X153415369Y-84253571D01*
X153461574Y-84142025D01*
X153504000Y-83928735D01*
X153504000Y-83711265D01*
X153461574Y-83497975D01*
X153415370Y-83386429D01*
X153787870Y-83386429D01*
X153829479Y-83572000D01*
X154692000Y-83572000D01*
X154692000Y-82711657D01*
X155188000Y-82711657D01*
X155188000Y-83572000D01*
X156050521Y-83572000D01*
X156092130Y-83386429D01*
X155985407Y-83169991D01*
X155838509Y-82978532D01*
X155828782Y-82970000D01*
X156374772Y-82970000D01*
X156374772Y-84670000D01*
X156379676Y-84719793D01*
X156394200Y-84767672D01*
X156417786Y-84811797D01*
X156449527Y-84850473D01*
X156488203Y-84882214D01*
X156532328Y-84905800D01*
X156580207Y-84920324D01*
X156630000Y-84925228D01*
X158330000Y-84925228D01*
X158379793Y-84920324D01*
X158427672Y-84905800D01*
X158471797Y-84882214D01*
X158510473Y-84850473D01*
X158542214Y-84811797D01*
X158565800Y-84767672D01*
X158580324Y-84719793D01*
X158585228Y-84670000D01*
X158585228Y-84174000D01*
X165375790Y-84174000D01*
X165435957Y-84319256D01*
X165551305Y-84491886D01*
X165698114Y-84638695D01*
X165870744Y-84754043D01*
X166062559Y-84833496D01*
X166266190Y-84874000D01*
X166473810Y-84874000D01*
X166677441Y-84833496D01*
X166869256Y-84754043D01*
X167041886Y-84638695D01*
X167188695Y-84491886D01*
X167304043Y-84319256D01*
X167383496Y-84127441D01*
X167424000Y-83923810D01*
X167424000Y-83716190D01*
X180556000Y-83716190D01*
X180556000Y-83923810D01*
X180596504Y-84127441D01*
X180675957Y-84319256D01*
X180791305Y-84491886D01*
X180938114Y-84638695D01*
X181110744Y-84754043D01*
X181302559Y-84833496D01*
X181506190Y-84874000D01*
X181713810Y-84874000D01*
X181917441Y-84833496D01*
X182109256Y-84754043D01*
X182281886Y-84638695D01*
X182428695Y-84491886D01*
X182544043Y-84319256D01*
X182623496Y-84127441D01*
X182664000Y-83923810D01*
X182664000Y-83716190D01*
X182623496Y-83512559D01*
X182544043Y-83320744D01*
X182428695Y-83148114D01*
X182281886Y-83001305D01*
X182109256Y-82885957D01*
X181917441Y-82806504D01*
X181713810Y-82766000D01*
X181506190Y-82766000D01*
X181302559Y-82806504D01*
X181110744Y-82885957D01*
X180938114Y-83001305D01*
X180791305Y-83148114D01*
X180675957Y-83320744D01*
X180596504Y-83512559D01*
X180556000Y-83716190D01*
X167424000Y-83716190D01*
X167383496Y-83512559D01*
X167304043Y-83320744D01*
X167188695Y-83148114D01*
X167041886Y-83001305D01*
X166869256Y-82885957D01*
X166677441Y-82806504D01*
X166473810Y-82766000D01*
X166266190Y-82766000D01*
X166062559Y-82806504D01*
X165870744Y-82885957D01*
X165698114Y-83001305D01*
X165551305Y-83148114D01*
X165435957Y-83320744D01*
X165375790Y-83466000D01*
X158585228Y-83466000D01*
X158585228Y-82970000D01*
X158580324Y-82920207D01*
X158565800Y-82872328D01*
X158542214Y-82828203D01*
X158510473Y-82789527D01*
X158471797Y-82757786D01*
X158427672Y-82734200D01*
X158379793Y-82719676D01*
X158330000Y-82714772D01*
X156630000Y-82714772D01*
X156580207Y-82719676D01*
X156532328Y-82734200D01*
X156488203Y-82757786D01*
X156449527Y-82789527D01*
X156417786Y-82828203D01*
X156394200Y-82872328D01*
X156379676Y-82920207D01*
X156374772Y-82970000D01*
X155828782Y-82970000D01*
X155657082Y-82819410D01*
X155448098Y-82698740D01*
X155373569Y-82667881D01*
X155188000Y-82711657D01*
X154692000Y-82711657D01*
X154506431Y-82667881D01*
X154431902Y-82698740D01*
X154222918Y-82819410D01*
X154041491Y-82978532D01*
X153894593Y-83169991D01*
X153787870Y-83386429D01*
X153415370Y-83386429D01*
X153378352Y-83297060D01*
X153257533Y-83116241D01*
X153103759Y-82962467D01*
X152922940Y-82841648D01*
X152722025Y-82758426D01*
X152508735Y-82716000D01*
X152291265Y-82716000D01*
X152077975Y-82758426D01*
X151877060Y-82841648D01*
X151696241Y-82962467D01*
X151542467Y-83116241D01*
X151421648Y-83297060D01*
X151338426Y-83497975D01*
X151296000Y-83711265D01*
X144449000Y-83711265D01*
X144449000Y-81171265D01*
X151296000Y-81171265D01*
X151296000Y-81388735D01*
X151338426Y-81602025D01*
X151421648Y-81802940D01*
X151542467Y-81983759D01*
X151696241Y-82137533D01*
X151877060Y-82258352D01*
X152077975Y-82341574D01*
X152291265Y-82384000D01*
X152508735Y-82384000D01*
X152722025Y-82341574D01*
X152922940Y-82258352D01*
X153103759Y-82137533D01*
X153257533Y-81983759D01*
X153378352Y-81802940D01*
X153415369Y-81713571D01*
X153787870Y-81713571D01*
X153894593Y-81930009D01*
X154041491Y-82121468D01*
X154222918Y-82280590D01*
X154431902Y-82401260D01*
X154506431Y-82432119D01*
X154692000Y-82388343D01*
X154692000Y-81528000D01*
X155188000Y-81528000D01*
X155188000Y-82388343D01*
X155373569Y-82432119D01*
X155448098Y-82401260D01*
X155657082Y-82280590D01*
X155838509Y-82121468D01*
X155985407Y-81930009D01*
X156092130Y-81713571D01*
X156050521Y-81528000D01*
X155188000Y-81528000D01*
X154692000Y-81528000D01*
X153829479Y-81528000D01*
X153787870Y-81713571D01*
X153415369Y-81713571D01*
X153461574Y-81602025D01*
X153504000Y-81388735D01*
X153504000Y-81171265D01*
X153461574Y-80957975D01*
X153415370Y-80846429D01*
X153787870Y-80846429D01*
X153829479Y-81032000D01*
X154692000Y-81032000D01*
X154692000Y-80171657D01*
X155188000Y-80171657D01*
X155188000Y-81032000D01*
X156050521Y-81032000D01*
X156092130Y-80846429D01*
X155985407Y-80629991D01*
X155838509Y-80438532D01*
X155828782Y-80430000D01*
X156374772Y-80430000D01*
X156374772Y-82130000D01*
X156379676Y-82179793D01*
X156394200Y-82227672D01*
X156417786Y-82271797D01*
X156449527Y-82310473D01*
X156488203Y-82342214D01*
X156532328Y-82365800D01*
X156580207Y-82380324D01*
X156630000Y-82385228D01*
X158330000Y-82385228D01*
X158379793Y-82380324D01*
X158427672Y-82365800D01*
X158471797Y-82342214D01*
X158510473Y-82310473D01*
X158542214Y-82271797D01*
X158565800Y-82227672D01*
X158580324Y-82179793D01*
X158585228Y-82130000D01*
X158585228Y-81634000D01*
X165375790Y-81634000D01*
X165435957Y-81779256D01*
X165551305Y-81951886D01*
X165698114Y-82098695D01*
X165870744Y-82214043D01*
X166062559Y-82293496D01*
X166266190Y-82334000D01*
X166473810Y-82334000D01*
X166677441Y-82293496D01*
X166869256Y-82214043D01*
X167041886Y-82098695D01*
X167188695Y-81951886D01*
X167304043Y-81779256D01*
X167383496Y-81587441D01*
X167424000Y-81383810D01*
X167424000Y-81176190D01*
X180556000Y-81176190D01*
X180556000Y-81383810D01*
X180596504Y-81587441D01*
X180675957Y-81779256D01*
X180791305Y-81951886D01*
X180938114Y-82098695D01*
X181110744Y-82214043D01*
X181302559Y-82293496D01*
X181506190Y-82334000D01*
X181713810Y-82334000D01*
X181917441Y-82293496D01*
X182109256Y-82214043D01*
X182281886Y-82098695D01*
X182428695Y-81951886D01*
X182544043Y-81779256D01*
X182623496Y-81587441D01*
X182664000Y-81383810D01*
X182664000Y-81176190D01*
X182623496Y-80972559D01*
X182544043Y-80780744D01*
X182428695Y-80608114D01*
X182281886Y-80461305D01*
X182109256Y-80345957D01*
X181917441Y-80266504D01*
X181713810Y-80226000D01*
X181506190Y-80226000D01*
X181302559Y-80266504D01*
X181110744Y-80345957D01*
X180938114Y-80461305D01*
X180791305Y-80608114D01*
X180675957Y-80780744D01*
X180596504Y-80972559D01*
X180556000Y-81176190D01*
X167424000Y-81176190D01*
X167383496Y-80972559D01*
X167304043Y-80780744D01*
X167188695Y-80608114D01*
X167041886Y-80461305D01*
X166869256Y-80345957D01*
X166677441Y-80266504D01*
X166473810Y-80226000D01*
X166266190Y-80226000D01*
X166062559Y-80266504D01*
X165870744Y-80345957D01*
X165698114Y-80461305D01*
X165551305Y-80608114D01*
X165435957Y-80780744D01*
X165375790Y-80926000D01*
X158585228Y-80926000D01*
X158585228Y-80430000D01*
X158580324Y-80380207D01*
X158565800Y-80332328D01*
X158542214Y-80288203D01*
X158510473Y-80249527D01*
X158471797Y-80217786D01*
X158427672Y-80194200D01*
X158379793Y-80179676D01*
X158330000Y-80174772D01*
X156630000Y-80174772D01*
X156580207Y-80179676D01*
X156532328Y-80194200D01*
X156488203Y-80217786D01*
X156449527Y-80249527D01*
X156417786Y-80288203D01*
X156394200Y-80332328D01*
X156379676Y-80380207D01*
X156374772Y-80430000D01*
X155828782Y-80430000D01*
X155657082Y-80279410D01*
X155448098Y-80158740D01*
X155373569Y-80127881D01*
X155188000Y-80171657D01*
X154692000Y-80171657D01*
X154506431Y-80127881D01*
X154431902Y-80158740D01*
X154222918Y-80279410D01*
X154041491Y-80438532D01*
X153894593Y-80629991D01*
X153787870Y-80846429D01*
X153415370Y-80846429D01*
X153378352Y-80757060D01*
X153257533Y-80576241D01*
X153103759Y-80422467D01*
X152922940Y-80301648D01*
X152722025Y-80218426D01*
X152508735Y-80176000D01*
X152291265Y-80176000D01*
X152077975Y-80218426D01*
X151877060Y-80301648D01*
X151696241Y-80422467D01*
X151542467Y-80576241D01*
X151421648Y-80757060D01*
X151338426Y-80957975D01*
X151296000Y-81171265D01*
X144449000Y-81171265D01*
X144449000Y-78631265D01*
X151296000Y-78631265D01*
X151296000Y-78848735D01*
X151338426Y-79062025D01*
X151421648Y-79262940D01*
X151542467Y-79443759D01*
X151696241Y-79597533D01*
X151877060Y-79718352D01*
X152077975Y-79801574D01*
X152291265Y-79844000D01*
X152508735Y-79844000D01*
X152722025Y-79801574D01*
X152922940Y-79718352D01*
X153103759Y-79597533D01*
X153257533Y-79443759D01*
X153378352Y-79262940D01*
X153415369Y-79173571D01*
X153787870Y-79173571D01*
X153894593Y-79390009D01*
X154041491Y-79581468D01*
X154222918Y-79740590D01*
X154431902Y-79861260D01*
X154506431Y-79892119D01*
X154692000Y-79848343D01*
X154692000Y-78988000D01*
X155188000Y-78988000D01*
X155188000Y-79848343D01*
X155373569Y-79892119D01*
X155448098Y-79861260D01*
X155657082Y-79740590D01*
X155838509Y-79581468D01*
X155985407Y-79390009D01*
X156092130Y-79173571D01*
X156050521Y-78988000D01*
X155188000Y-78988000D01*
X154692000Y-78988000D01*
X153829479Y-78988000D01*
X153787870Y-79173571D01*
X153415369Y-79173571D01*
X153461574Y-79062025D01*
X153504000Y-78848735D01*
X153504000Y-78631265D01*
X153461574Y-78417975D01*
X153415370Y-78306429D01*
X153787870Y-78306429D01*
X153829479Y-78492000D01*
X154692000Y-78492000D01*
X154692000Y-77631657D01*
X155188000Y-77631657D01*
X155188000Y-78492000D01*
X156050521Y-78492000D01*
X156092130Y-78306429D01*
X155985407Y-78089991D01*
X155838509Y-77898532D01*
X155828782Y-77890000D01*
X156374772Y-77890000D01*
X156374772Y-79590000D01*
X156379676Y-79639793D01*
X156394200Y-79687672D01*
X156417786Y-79731797D01*
X156449527Y-79770473D01*
X156488203Y-79802214D01*
X156532328Y-79825800D01*
X156580207Y-79840324D01*
X156630000Y-79845228D01*
X158330000Y-79845228D01*
X158379793Y-79840324D01*
X158427672Y-79825800D01*
X158471797Y-79802214D01*
X158510473Y-79770473D01*
X158542214Y-79731797D01*
X158565800Y-79687672D01*
X158580324Y-79639793D01*
X158585228Y-79590000D01*
X158585228Y-79094000D01*
X165375790Y-79094000D01*
X165435957Y-79239256D01*
X165551305Y-79411886D01*
X165698114Y-79558695D01*
X165870744Y-79674043D01*
X166062559Y-79753496D01*
X166266190Y-79794000D01*
X166473810Y-79794000D01*
X166677441Y-79753496D01*
X166869256Y-79674043D01*
X167041886Y-79558695D01*
X167188695Y-79411886D01*
X167304043Y-79239256D01*
X167383496Y-79047441D01*
X167424000Y-78843810D01*
X167424000Y-78636190D01*
X180556000Y-78636190D01*
X180556000Y-78843810D01*
X180596504Y-79047441D01*
X180675957Y-79239256D01*
X180791305Y-79411886D01*
X180938114Y-79558695D01*
X181110744Y-79674043D01*
X181302559Y-79753496D01*
X181506190Y-79794000D01*
X181713810Y-79794000D01*
X181917441Y-79753496D01*
X182109256Y-79674043D01*
X182281886Y-79558695D01*
X182428695Y-79411886D01*
X182544043Y-79239256D01*
X182623496Y-79047441D01*
X182664000Y-78843810D01*
X182664000Y-78636190D01*
X182623496Y-78432559D01*
X182544043Y-78240744D01*
X182428695Y-78068114D01*
X182281886Y-77921305D01*
X182109256Y-77805957D01*
X181917441Y-77726504D01*
X181713810Y-77686000D01*
X181506190Y-77686000D01*
X181302559Y-77726504D01*
X181110744Y-77805957D01*
X180938114Y-77921305D01*
X180791305Y-78068114D01*
X180675957Y-78240744D01*
X180596504Y-78432559D01*
X180556000Y-78636190D01*
X167424000Y-78636190D01*
X167383496Y-78432559D01*
X167304043Y-78240744D01*
X167188695Y-78068114D01*
X167041886Y-77921305D01*
X166869256Y-77805957D01*
X166677441Y-77726504D01*
X166473810Y-77686000D01*
X166266190Y-77686000D01*
X166062559Y-77726504D01*
X165870744Y-77805957D01*
X165698114Y-77921305D01*
X165551305Y-78068114D01*
X165435957Y-78240744D01*
X165375790Y-78386000D01*
X158585228Y-78386000D01*
X158585228Y-77890000D01*
X158580324Y-77840207D01*
X158565800Y-77792328D01*
X158542214Y-77748203D01*
X158510473Y-77709527D01*
X158471797Y-77677786D01*
X158427672Y-77654200D01*
X158379793Y-77639676D01*
X158330000Y-77634772D01*
X156630000Y-77634772D01*
X156580207Y-77639676D01*
X156532328Y-77654200D01*
X156488203Y-77677786D01*
X156449527Y-77709527D01*
X156417786Y-77748203D01*
X156394200Y-77792328D01*
X156379676Y-77840207D01*
X156374772Y-77890000D01*
X155828782Y-77890000D01*
X155657082Y-77739410D01*
X155448098Y-77618740D01*
X155373569Y-77587881D01*
X155188000Y-77631657D01*
X154692000Y-77631657D01*
X154506431Y-77587881D01*
X154431902Y-77618740D01*
X154222918Y-77739410D01*
X154041491Y-77898532D01*
X153894593Y-78089991D01*
X153787870Y-78306429D01*
X153415370Y-78306429D01*
X153378352Y-78217060D01*
X153257533Y-78036241D01*
X153103759Y-77882467D01*
X152922940Y-77761648D01*
X152722025Y-77678426D01*
X152508735Y-77636000D01*
X152291265Y-77636000D01*
X152077975Y-77678426D01*
X151877060Y-77761648D01*
X151696241Y-77882467D01*
X151542467Y-78036241D01*
X151421648Y-78217060D01*
X151338426Y-78417975D01*
X151296000Y-78631265D01*
X144449000Y-78631265D01*
X144449000Y-73551265D01*
X151296000Y-73551265D01*
X151296000Y-73768735D01*
X151338426Y-73982025D01*
X151421648Y-74182940D01*
X151542467Y-74363759D01*
X151696241Y-74517533D01*
X151877060Y-74638352D01*
X152077975Y-74721574D01*
X152291265Y-74764000D01*
X152508735Y-74764000D01*
X152722025Y-74721574D01*
X152922940Y-74638352D01*
X153103759Y-74517533D01*
X153257533Y-74363759D01*
X153378352Y-74182940D01*
X153415369Y-74093571D01*
X153787870Y-74093571D01*
X153894593Y-74310009D01*
X154041491Y-74501468D01*
X154222918Y-74660590D01*
X154431902Y-74781260D01*
X154506431Y-74812119D01*
X154692000Y-74768343D01*
X154692000Y-73908000D01*
X155188000Y-73908000D01*
X155188000Y-74768343D01*
X155373569Y-74812119D01*
X155448098Y-74781260D01*
X155657082Y-74660590D01*
X155838509Y-74501468D01*
X155985407Y-74310009D01*
X156092130Y-74093571D01*
X156050521Y-73908000D01*
X155188000Y-73908000D01*
X154692000Y-73908000D01*
X153829479Y-73908000D01*
X153787870Y-74093571D01*
X153415369Y-74093571D01*
X153461574Y-73982025D01*
X153504000Y-73768735D01*
X153504000Y-73551265D01*
X153461574Y-73337975D01*
X153415370Y-73226429D01*
X153787870Y-73226429D01*
X153829479Y-73412000D01*
X154692000Y-73412000D01*
X154692000Y-72551657D01*
X155188000Y-72551657D01*
X155188000Y-73412000D01*
X156050521Y-73412000D01*
X156092130Y-73226429D01*
X155985407Y-73009991D01*
X155838509Y-72818532D01*
X155828782Y-72810000D01*
X156374772Y-72810000D01*
X156374772Y-74510000D01*
X156379676Y-74559793D01*
X156394200Y-74607672D01*
X156417786Y-74651797D01*
X156449527Y-74690473D01*
X156488203Y-74722214D01*
X156532328Y-74745800D01*
X156580207Y-74760324D01*
X156630000Y-74765228D01*
X157129728Y-74765228D01*
X157130450Y-74772563D01*
X157131123Y-74779396D01*
X157137264Y-74799638D01*
X157151365Y-74846124D01*
X157184236Y-74907622D01*
X157228474Y-74961525D01*
X157241977Y-74972607D01*
X158707397Y-76438029D01*
X158718474Y-76451526D01*
X158731971Y-76462603D01*
X158731974Y-76462606D01*
X158763058Y-76488116D01*
X158772377Y-76495764D01*
X158833875Y-76528635D01*
X158880361Y-76542736D01*
X158900603Y-76548877D01*
X158907436Y-76549550D01*
X158952618Y-76554000D01*
X158952625Y-76554000D01*
X158969999Y-76555711D01*
X158987374Y-76554000D01*
X165375790Y-76554000D01*
X165435957Y-76699256D01*
X165551305Y-76871886D01*
X165698114Y-77018695D01*
X165870744Y-77134043D01*
X166062559Y-77213496D01*
X166266190Y-77254000D01*
X166473810Y-77254000D01*
X166677441Y-77213496D01*
X166869256Y-77134043D01*
X167041886Y-77018695D01*
X167188695Y-76871886D01*
X167304043Y-76699256D01*
X167383496Y-76507441D01*
X167424000Y-76303810D01*
X167424000Y-76096190D01*
X180556000Y-76096190D01*
X180556000Y-76303810D01*
X180596504Y-76507441D01*
X180675957Y-76699256D01*
X180791305Y-76871886D01*
X180938114Y-77018695D01*
X181110744Y-77134043D01*
X181302559Y-77213496D01*
X181506190Y-77254000D01*
X181713810Y-77254000D01*
X181917441Y-77213496D01*
X182109256Y-77134043D01*
X182281886Y-77018695D01*
X182428695Y-76871886D01*
X182544043Y-76699256D01*
X182623496Y-76507441D01*
X182664000Y-76303810D01*
X182664000Y-76096190D01*
X182623496Y-75892559D01*
X182544043Y-75700744D01*
X182428695Y-75528114D01*
X182281886Y-75381305D01*
X182109256Y-75265957D01*
X181917441Y-75186504D01*
X181713810Y-75146000D01*
X181506190Y-75146000D01*
X181302559Y-75186504D01*
X181110744Y-75265957D01*
X180938114Y-75381305D01*
X180791305Y-75528114D01*
X180675957Y-75700744D01*
X180596504Y-75892559D01*
X180556000Y-76096190D01*
X167424000Y-76096190D01*
X167383496Y-75892559D01*
X167304043Y-75700744D01*
X167188695Y-75528114D01*
X167041886Y-75381305D01*
X166869256Y-75265957D01*
X166677441Y-75186504D01*
X166473810Y-75146000D01*
X166266190Y-75146000D01*
X166062559Y-75186504D01*
X165870744Y-75265957D01*
X165698114Y-75381305D01*
X165551305Y-75528114D01*
X165435957Y-75700744D01*
X165375790Y-75846000D01*
X159116632Y-75846000D01*
X158035858Y-74765228D01*
X158330000Y-74765228D01*
X158379793Y-74760324D01*
X158427672Y-74745800D01*
X158471797Y-74722214D01*
X158510473Y-74690473D01*
X158542214Y-74651797D01*
X158565800Y-74607672D01*
X158580324Y-74559793D01*
X158585228Y-74510000D01*
X158585228Y-72810000D01*
X158580324Y-72760207D01*
X158565800Y-72712328D01*
X158542214Y-72668203D01*
X158510473Y-72629527D01*
X158471797Y-72597786D01*
X158427672Y-72574200D01*
X158379793Y-72559676D01*
X158330000Y-72554772D01*
X156630000Y-72554772D01*
X156580207Y-72559676D01*
X156532328Y-72574200D01*
X156488203Y-72597786D01*
X156449527Y-72629527D01*
X156417786Y-72668203D01*
X156394200Y-72712328D01*
X156379676Y-72760207D01*
X156374772Y-72810000D01*
X155828782Y-72810000D01*
X155657082Y-72659410D01*
X155448098Y-72538740D01*
X155373569Y-72507881D01*
X155188000Y-72551657D01*
X154692000Y-72551657D01*
X154506431Y-72507881D01*
X154431902Y-72538740D01*
X154222918Y-72659410D01*
X154041491Y-72818532D01*
X153894593Y-73009991D01*
X153787870Y-73226429D01*
X153415370Y-73226429D01*
X153378352Y-73137060D01*
X153257533Y-72956241D01*
X153103759Y-72802467D01*
X152922940Y-72681648D01*
X152722025Y-72598426D01*
X152508735Y-72556000D01*
X152291265Y-72556000D01*
X152077975Y-72598426D01*
X151877060Y-72681648D01*
X151696241Y-72802467D01*
X151542467Y-72956241D01*
X151421648Y-73137060D01*
X151338426Y-73337975D01*
X151296000Y-73551265D01*
X144449000Y-73551265D01*
X144449000Y-71011265D01*
X151296000Y-71011265D01*
X151296000Y-71228735D01*
X151338426Y-71442025D01*
X151421648Y-71642940D01*
X151542467Y-71823759D01*
X151696241Y-71977533D01*
X151877060Y-72098352D01*
X152077975Y-72181574D01*
X152291265Y-72224000D01*
X152508735Y-72224000D01*
X152722025Y-72181574D01*
X152922940Y-72098352D01*
X153103759Y-71977533D01*
X153257533Y-71823759D01*
X153378352Y-71642940D01*
X153415369Y-71553571D01*
X153787870Y-71553571D01*
X153894593Y-71770009D01*
X154041491Y-71961468D01*
X154222918Y-72120590D01*
X154431902Y-72241260D01*
X154506431Y-72272119D01*
X154692000Y-72228343D01*
X154692000Y-71368000D01*
X155188000Y-71368000D01*
X155188000Y-72228343D01*
X155373569Y-72272119D01*
X155448098Y-72241260D01*
X155657082Y-72120590D01*
X155838509Y-71961468D01*
X155985407Y-71770009D01*
X156092130Y-71553571D01*
X156050521Y-71368000D01*
X155188000Y-71368000D01*
X154692000Y-71368000D01*
X153829479Y-71368000D01*
X153787870Y-71553571D01*
X153415369Y-71553571D01*
X153461574Y-71442025D01*
X153504000Y-71228735D01*
X153504000Y-71011265D01*
X153461574Y-70797975D01*
X153415370Y-70686429D01*
X153787870Y-70686429D01*
X153829479Y-70872000D01*
X154692000Y-70872000D01*
X154692000Y-70011657D01*
X155188000Y-70011657D01*
X155188000Y-70872000D01*
X156050521Y-70872000D01*
X156092130Y-70686429D01*
X155985407Y-70469991D01*
X155838509Y-70278532D01*
X155657082Y-70119410D01*
X155448098Y-69998740D01*
X155373569Y-69967881D01*
X155188000Y-70011657D01*
X154692000Y-70011657D01*
X154506431Y-69967881D01*
X154431902Y-69998740D01*
X154222918Y-70119410D01*
X154041491Y-70278532D01*
X153894593Y-70469991D01*
X153787870Y-70686429D01*
X153415370Y-70686429D01*
X153378352Y-70597060D01*
X153257533Y-70416241D01*
X153103759Y-70262467D01*
X152922940Y-70141648D01*
X152722025Y-70058426D01*
X152508735Y-70016000D01*
X152291265Y-70016000D01*
X152077975Y-70058426D01*
X151877060Y-70141648D01*
X151696241Y-70262467D01*
X151542467Y-70416241D01*
X151421648Y-70597060D01*
X151338426Y-70797975D01*
X151296000Y-71011265D01*
X144449000Y-71011265D01*
X144449000Y-68471265D01*
X151296000Y-68471265D01*
X151296000Y-68688735D01*
X151338426Y-68902025D01*
X151421648Y-69102940D01*
X151542467Y-69283759D01*
X151696241Y-69437533D01*
X151877060Y-69558352D01*
X152077975Y-69641574D01*
X152291265Y-69684000D01*
X152508735Y-69684000D01*
X152722025Y-69641574D01*
X152922940Y-69558352D01*
X153103759Y-69437533D01*
X153257533Y-69283759D01*
X153378352Y-69102940D01*
X153415369Y-69013571D01*
X153787870Y-69013571D01*
X153894593Y-69230009D01*
X154041491Y-69421468D01*
X154222918Y-69580590D01*
X154431902Y-69701260D01*
X154506431Y-69732119D01*
X154692000Y-69688343D01*
X154692000Y-68828000D01*
X155188000Y-68828000D01*
X155188000Y-69688343D01*
X155373569Y-69732119D01*
X155448098Y-69701260D01*
X155657082Y-69580590D01*
X155838509Y-69421468D01*
X155985407Y-69230009D01*
X156092130Y-69013571D01*
X156050521Y-68828000D01*
X155188000Y-68828000D01*
X154692000Y-68828000D01*
X153829479Y-68828000D01*
X153787870Y-69013571D01*
X153415369Y-69013571D01*
X153461574Y-68902025D01*
X153504000Y-68688735D01*
X153504000Y-68471265D01*
X153461574Y-68257975D01*
X153415370Y-68146429D01*
X153787870Y-68146429D01*
X153829479Y-68332000D01*
X154692000Y-68332000D01*
X154692000Y-67471657D01*
X155188000Y-67471657D01*
X155188000Y-68332000D01*
X156050521Y-68332000D01*
X156092130Y-68146429D01*
X155985407Y-67929991D01*
X155838509Y-67738532D01*
X155828782Y-67730000D01*
X156374772Y-67730000D01*
X156374772Y-69430000D01*
X156379676Y-69479793D01*
X156394200Y-69527672D01*
X156417786Y-69571797D01*
X156449527Y-69610473D01*
X156488203Y-69642214D01*
X156532328Y-69665800D01*
X156580207Y-69680324D01*
X156630000Y-69685228D01*
X158084597Y-69685228D01*
X158440341Y-70040972D01*
X158427672Y-70034200D01*
X158379793Y-70019676D01*
X158330000Y-70014772D01*
X156630000Y-70014772D01*
X156580207Y-70019676D01*
X156532328Y-70034200D01*
X156488203Y-70057786D01*
X156449527Y-70089527D01*
X156417786Y-70128203D01*
X156394200Y-70172328D01*
X156379676Y-70220207D01*
X156374772Y-70270000D01*
X156374772Y-71970000D01*
X156379676Y-72019793D01*
X156394200Y-72067672D01*
X156417786Y-72111797D01*
X156449527Y-72150473D01*
X156488203Y-72182214D01*
X156532328Y-72205800D01*
X156580207Y-72220324D01*
X156630000Y-72225228D01*
X158330000Y-72225228D01*
X158379793Y-72220324D01*
X158427672Y-72205800D01*
X158471797Y-72182214D01*
X158510473Y-72150473D01*
X158542214Y-72111797D01*
X158565800Y-72067672D01*
X158580324Y-72019793D01*
X158585228Y-71970000D01*
X158585228Y-71675858D01*
X160807397Y-73898029D01*
X160818474Y-73911526D01*
X160831971Y-73922603D01*
X160831974Y-73922606D01*
X160863058Y-73948116D01*
X160872377Y-73955764D01*
X160933875Y-73988635D01*
X161000604Y-74008877D01*
X161052618Y-74014000D01*
X161052627Y-74014000D01*
X161069999Y-74015711D01*
X161087371Y-74014000D01*
X165375790Y-74014000D01*
X165435957Y-74159256D01*
X165551305Y-74331886D01*
X165698114Y-74478695D01*
X165870744Y-74594043D01*
X166062559Y-74673496D01*
X166266190Y-74714000D01*
X166473810Y-74714000D01*
X166677441Y-74673496D01*
X166869256Y-74594043D01*
X167041886Y-74478695D01*
X167188695Y-74331886D01*
X167304043Y-74159256D01*
X167383496Y-73967441D01*
X167424000Y-73763810D01*
X167424000Y-73556190D01*
X180556000Y-73556190D01*
X180556000Y-73763810D01*
X180596504Y-73967441D01*
X180675957Y-74159256D01*
X180791305Y-74331886D01*
X180938114Y-74478695D01*
X181110744Y-74594043D01*
X181302559Y-74673496D01*
X181506190Y-74714000D01*
X181713810Y-74714000D01*
X181917441Y-74673496D01*
X182109256Y-74594043D01*
X182281886Y-74478695D01*
X182428695Y-74331886D01*
X182544043Y-74159256D01*
X182623496Y-73967441D01*
X182664000Y-73763810D01*
X182664000Y-73556190D01*
X182623496Y-73352559D01*
X182544043Y-73160744D01*
X182428695Y-72988114D01*
X182281886Y-72841305D01*
X182109256Y-72725957D01*
X181917441Y-72646504D01*
X181713810Y-72606000D01*
X181506190Y-72606000D01*
X181302559Y-72646504D01*
X181110744Y-72725957D01*
X180938114Y-72841305D01*
X180791305Y-72988114D01*
X180675957Y-73160744D01*
X180596504Y-73352559D01*
X180556000Y-73556190D01*
X167424000Y-73556190D01*
X167383496Y-73352559D01*
X167304043Y-73160744D01*
X167188695Y-72988114D01*
X167041886Y-72841305D01*
X166869256Y-72725957D01*
X166677441Y-72646504D01*
X166473810Y-72606000D01*
X166266190Y-72606000D01*
X166062559Y-72646504D01*
X165870744Y-72725957D01*
X165698114Y-72841305D01*
X165551305Y-72988114D01*
X165435957Y-73160744D01*
X165375790Y-73306000D01*
X161216632Y-73306000D01*
X158792612Y-70881982D01*
X158781526Y-70868474D01*
X158727623Y-70824236D01*
X158666125Y-70791365D01*
X158599396Y-70771123D01*
X158585228Y-70769728D01*
X158585228Y-70270000D01*
X158580324Y-70220207D01*
X158565800Y-70172328D01*
X158559028Y-70159659D01*
X159757397Y-71358029D01*
X159768474Y-71371526D01*
X159781971Y-71382603D01*
X159781974Y-71382606D01*
X159813058Y-71408116D01*
X159822377Y-71415764D01*
X159883875Y-71448635D01*
X159950604Y-71468877D01*
X160002618Y-71474000D01*
X160002627Y-71474000D01*
X160019999Y-71475711D01*
X160037371Y-71474000D01*
X165375790Y-71474000D01*
X165435957Y-71619256D01*
X165551305Y-71791886D01*
X165698114Y-71938695D01*
X165870744Y-72054043D01*
X166062559Y-72133496D01*
X166266190Y-72174000D01*
X166473810Y-72174000D01*
X166677441Y-72133496D01*
X166869256Y-72054043D01*
X167041886Y-71938695D01*
X167188695Y-71791886D01*
X167304043Y-71619256D01*
X167383496Y-71427441D01*
X167424000Y-71223810D01*
X167424000Y-71016190D01*
X178016000Y-71016190D01*
X178016000Y-71223810D01*
X178056504Y-71427441D01*
X178135957Y-71619256D01*
X178251305Y-71791886D01*
X178398114Y-71938695D01*
X178570744Y-72054043D01*
X178762559Y-72133496D01*
X178966190Y-72174000D01*
X179173810Y-72174000D01*
X179377441Y-72133496D01*
X179569256Y-72054043D01*
X179741886Y-71938695D01*
X179888695Y-71791886D01*
X180004043Y-71619256D01*
X180083496Y-71427441D01*
X180124000Y-71223810D01*
X180124000Y-71016190D01*
X180556000Y-71016190D01*
X180556000Y-71223810D01*
X180596504Y-71427441D01*
X180675957Y-71619256D01*
X180791305Y-71791886D01*
X180938114Y-71938695D01*
X181110744Y-72054043D01*
X181302559Y-72133496D01*
X181506190Y-72174000D01*
X181713810Y-72174000D01*
X181917441Y-72133496D01*
X182109256Y-72054043D01*
X182281886Y-71938695D01*
X182428695Y-71791886D01*
X182544043Y-71619256D01*
X182623496Y-71427441D01*
X182664000Y-71223810D01*
X182664000Y-71016190D01*
X182623496Y-70812559D01*
X182544043Y-70620744D01*
X182428695Y-70448114D01*
X182281886Y-70301305D01*
X182109256Y-70185957D01*
X181917441Y-70106504D01*
X181713810Y-70066000D01*
X181506190Y-70066000D01*
X181302559Y-70106504D01*
X181110744Y-70185957D01*
X180938114Y-70301305D01*
X180791305Y-70448114D01*
X180675957Y-70620744D01*
X180596504Y-70812559D01*
X180556000Y-71016190D01*
X180124000Y-71016190D01*
X180083496Y-70812559D01*
X180004043Y-70620744D01*
X179888695Y-70448114D01*
X179741886Y-70301305D01*
X179569256Y-70185957D01*
X179377441Y-70106504D01*
X179173810Y-70066000D01*
X178966190Y-70066000D01*
X178762559Y-70106504D01*
X178570744Y-70185957D01*
X178398114Y-70301305D01*
X178251305Y-70448114D01*
X178135957Y-70620744D01*
X178056504Y-70812559D01*
X178016000Y-71016190D01*
X167424000Y-71016190D01*
X167383496Y-70812559D01*
X167304043Y-70620744D01*
X167188695Y-70448114D01*
X167041886Y-70301305D01*
X166869256Y-70185957D01*
X166677441Y-70106504D01*
X166473810Y-70066000D01*
X166266190Y-70066000D01*
X166062559Y-70106504D01*
X165870744Y-70185957D01*
X165698114Y-70301305D01*
X165551305Y-70448114D01*
X165435957Y-70620744D01*
X165375790Y-70766000D01*
X160166632Y-70766000D01*
X158585228Y-69184597D01*
X158585228Y-68476190D01*
X165316000Y-68476190D01*
X165316000Y-68683810D01*
X165356504Y-68887441D01*
X165435957Y-69079256D01*
X165551305Y-69251886D01*
X165698114Y-69398695D01*
X165870744Y-69514043D01*
X166062559Y-69593496D01*
X166266190Y-69634000D01*
X166473810Y-69634000D01*
X166677441Y-69593496D01*
X166869256Y-69514043D01*
X167041886Y-69398695D01*
X167188695Y-69251886D01*
X167304043Y-69079256D01*
X167383496Y-68887441D01*
X167424000Y-68683810D01*
X167424000Y-68476190D01*
X167383496Y-68272559D01*
X167304043Y-68080744D01*
X167188695Y-67908114D01*
X167041886Y-67761305D01*
X166869256Y-67645957D01*
X166677441Y-67566504D01*
X166473810Y-67526000D01*
X166266190Y-67526000D01*
X166062559Y-67566504D01*
X165870744Y-67645957D01*
X165698114Y-67761305D01*
X165551305Y-67908114D01*
X165435957Y-68080744D01*
X165356504Y-68272559D01*
X165316000Y-68476190D01*
X158585228Y-68476190D01*
X158585228Y-67730000D01*
X158580324Y-67680207D01*
X158565800Y-67632328D01*
X158542214Y-67588203D01*
X158510473Y-67549527D01*
X158471797Y-67517786D01*
X158427672Y-67494200D01*
X158379793Y-67479676D01*
X158330000Y-67474772D01*
X156630000Y-67474772D01*
X156580207Y-67479676D01*
X156532328Y-67494200D01*
X156488203Y-67517786D01*
X156449527Y-67549527D01*
X156417786Y-67588203D01*
X156394200Y-67632328D01*
X156379676Y-67680207D01*
X156374772Y-67730000D01*
X155828782Y-67730000D01*
X155657082Y-67579410D01*
X155448098Y-67458740D01*
X155373569Y-67427881D01*
X155188000Y-67471657D01*
X154692000Y-67471657D01*
X154506431Y-67427881D01*
X154431902Y-67458740D01*
X154222918Y-67579410D01*
X154041491Y-67738532D01*
X153894593Y-67929991D01*
X153787870Y-68146429D01*
X153415370Y-68146429D01*
X153378352Y-68057060D01*
X153257533Y-67876241D01*
X153103759Y-67722467D01*
X152922940Y-67601648D01*
X152722025Y-67518426D01*
X152508735Y-67476000D01*
X152291265Y-67476000D01*
X152077975Y-67518426D01*
X151877060Y-67601648D01*
X151696241Y-67722467D01*
X151542467Y-67876241D01*
X151421648Y-68057060D01*
X151338426Y-68257975D01*
X151296000Y-68471265D01*
X144449000Y-68471265D01*
X144449000Y-62650000D01*
X151294772Y-62650000D01*
X151294772Y-64350000D01*
X151299676Y-64399793D01*
X151314200Y-64447672D01*
X151337786Y-64491797D01*
X151369527Y-64530473D01*
X151408203Y-64562214D01*
X151452328Y-64585800D01*
X151500207Y-64600324D01*
X151550000Y-64605228D01*
X153250000Y-64605228D01*
X153299793Y-64600324D01*
X153347672Y-64585800D01*
X153391797Y-64562214D01*
X153430473Y-64530473D01*
X153462214Y-64491797D01*
X153485800Y-64447672D01*
X153500324Y-64399793D01*
X153505228Y-64350000D01*
X153505228Y-63957416D01*
X153797126Y-63957416D01*
X153908323Y-64171591D01*
X154059167Y-64359957D01*
X154243861Y-64515275D01*
X154455307Y-64631577D01*
X154482585Y-64642862D01*
X154667000Y-64602451D01*
X154667000Y-63773000D01*
X155213000Y-63773000D01*
X155213000Y-64602451D01*
X155397415Y-64642862D01*
X155424693Y-64631577D01*
X155636139Y-64515275D01*
X155820833Y-64359957D01*
X155971677Y-64171591D01*
X156082874Y-63957416D01*
X156045109Y-63773000D01*
X155213000Y-63773000D01*
X154667000Y-63773000D01*
X153834891Y-63773000D01*
X153797126Y-63957416D01*
X153505228Y-63957416D01*
X153505228Y-63042584D01*
X153797126Y-63042584D01*
X153834891Y-63227000D01*
X154667000Y-63227000D01*
X154667000Y-62397549D01*
X155213000Y-62397549D01*
X155213000Y-63227000D01*
X156045109Y-63227000D01*
X156082874Y-63042584D01*
X155971677Y-62828409D01*
X155828807Y-62650000D01*
X161454772Y-62650000D01*
X161454772Y-64350000D01*
X161459676Y-64399793D01*
X161474200Y-64447672D01*
X161497786Y-64491797D01*
X161529527Y-64530473D01*
X161568203Y-64562214D01*
X161612328Y-64585800D01*
X161660207Y-64600324D01*
X161710000Y-64605228D01*
X163410000Y-64605228D01*
X163459793Y-64600324D01*
X163507672Y-64585800D01*
X163551797Y-64562214D01*
X163590473Y-64530473D01*
X163622214Y-64491797D01*
X163645800Y-64447672D01*
X163660324Y-64399793D01*
X163665228Y-64350000D01*
X163665228Y-63379151D01*
X163873000Y-63379151D01*
X163873000Y-63620849D01*
X163920153Y-63857903D01*
X164012647Y-64081202D01*
X164146927Y-64282167D01*
X164317833Y-64453073D01*
X164518798Y-64587353D01*
X164742097Y-64679847D01*
X164979151Y-64727000D01*
X165220849Y-64727000D01*
X165457903Y-64679847D01*
X165681202Y-64587353D01*
X165882167Y-64453073D01*
X166053073Y-64282167D01*
X166056525Y-64277000D01*
X176208157Y-64277000D01*
X180433000Y-68501844D01*
X180433000Y-68695924D01*
X180478231Y-68923318D01*
X180566956Y-69137519D01*
X180695764Y-69330294D01*
X180859706Y-69494236D01*
X181052481Y-69623044D01*
X181266682Y-69711769D01*
X181494076Y-69757000D01*
X181725924Y-69757000D01*
X181953318Y-69711769D01*
X182167519Y-69623044D01*
X182360294Y-69494236D01*
X182524236Y-69330294D01*
X182653044Y-69137519D01*
X182741769Y-68923318D01*
X182787000Y-68695924D01*
X182787000Y-68464076D01*
X182741769Y-68236682D01*
X182653044Y-68022481D01*
X182524236Y-67829706D01*
X182360294Y-67665764D01*
X182167519Y-67536956D01*
X181953318Y-67448231D01*
X181725924Y-67403000D01*
X181531844Y-67403000D01*
X177106413Y-62977570D01*
X177082080Y-62947920D01*
X176963766Y-62850823D01*
X176828784Y-62778673D01*
X176682319Y-62734243D01*
X176568166Y-62723000D01*
X176568163Y-62723000D01*
X176530000Y-62719241D01*
X176491837Y-62723000D01*
X166056525Y-62723000D01*
X166053073Y-62717833D01*
X165882167Y-62546927D01*
X165681202Y-62412647D01*
X165457903Y-62320153D01*
X165220849Y-62273000D01*
X164979151Y-62273000D01*
X164742097Y-62320153D01*
X164518798Y-62412647D01*
X164317833Y-62546927D01*
X164146927Y-62717833D01*
X164012647Y-62918798D01*
X163920153Y-63142097D01*
X163873000Y-63379151D01*
X163665228Y-63379151D01*
X163665228Y-62650000D01*
X163660324Y-62600207D01*
X163645800Y-62552328D01*
X163622214Y-62508203D01*
X163590473Y-62469527D01*
X163551797Y-62437786D01*
X163507672Y-62414200D01*
X163459793Y-62399676D01*
X163410000Y-62394772D01*
X161710000Y-62394772D01*
X161660207Y-62399676D01*
X161612328Y-62414200D01*
X161568203Y-62437786D01*
X161529527Y-62469527D01*
X161497786Y-62508203D01*
X161474200Y-62552328D01*
X161459676Y-62600207D01*
X161454772Y-62650000D01*
X155828807Y-62650000D01*
X155820833Y-62640043D01*
X155636139Y-62484725D01*
X155424693Y-62368423D01*
X155397415Y-62357138D01*
X155213000Y-62397549D01*
X154667000Y-62397549D01*
X154482585Y-62357138D01*
X154455307Y-62368423D01*
X154243861Y-62484725D01*
X154059167Y-62640043D01*
X153908323Y-62828409D01*
X153797126Y-63042584D01*
X153505228Y-63042584D01*
X153505228Y-62650000D01*
X153500324Y-62600207D01*
X153485800Y-62552328D01*
X153462214Y-62508203D01*
X153430473Y-62469527D01*
X153391797Y-62437786D01*
X153347672Y-62414200D01*
X153299793Y-62399676D01*
X153250000Y-62394772D01*
X151550000Y-62394772D01*
X151500207Y-62399676D01*
X151452328Y-62414200D01*
X151408203Y-62437786D01*
X151369527Y-62469527D01*
X151337786Y-62508203D01*
X151314200Y-62552328D01*
X151299676Y-62600207D01*
X151294772Y-62650000D01*
X144449000Y-62650000D01*
X144449000Y-61580076D01*
X144444600Y-61535406D01*
X144434459Y-61501975D01*
X144444185Y-61402777D01*
X144500012Y-61217870D01*
X144590688Y-61047332D01*
X144712762Y-60897653D01*
X144861590Y-60774532D01*
X145031493Y-60682666D01*
X145215997Y-60625552D01*
X145321864Y-60614425D01*
X145355406Y-60624600D01*
M02*
