G04 #@! TF.GenerationSoftware,KiCad,Pcbnew,(5.1.5)-3*
G04 #@! TF.CreationDate,2020-04-04T13:54:15-07:00*
G04 #@! TF.ProjectId,ServoPower2,53657276-6f50-46f7-9765-72322e6b6963,rev?*
G04 #@! TF.SameCoordinates,Original*
G04 #@! TF.FileFunction,Copper,L2,Bot*
G04 #@! TF.FilePolarity,Positive*
%FSLAX46Y46*%
G04 Gerber Fmt 4.6, Leading zero omitted, Abs format (unit mm)*
G04 Created by KiCad (PCBNEW (5.1.5)-3) date 2020-04-04 13:54:15*
%MOMM*%
%LPD*%
G04 APERTURE LIST*
%ADD10C,1.600000*%
%ADD11R,1.700000X1.700000*%
%ADD12O,1.700000X1.700000*%
%ADD13C,3.800000*%
%ADD14R,3.800000X3.800000*%
%ADD15C,0.254000*%
G04 APERTURE END LIST*
D10*
X168910000Y-93980000D03*
X168910000Y-96520000D03*
X171450000Y-93980000D03*
X171450000Y-96520000D03*
X173990000Y-93980000D03*
X173990000Y-96520000D03*
X176530000Y-93980000D03*
X176530000Y-96520000D03*
X179070000Y-93980000D03*
X179070000Y-96520000D03*
X166370000Y-68580000D03*
X166370000Y-71120000D03*
X166370000Y-73660000D03*
X166370000Y-76200000D03*
X166370000Y-78740000D03*
X166370000Y-81280000D03*
X166370000Y-83820000D03*
X166370000Y-86360000D03*
X166370000Y-88900000D03*
X166370000Y-91440000D03*
X166370000Y-93980000D03*
X166370000Y-96520000D03*
X166370000Y-99060000D03*
X179070000Y-71120000D03*
X181610000Y-68580000D03*
X181610000Y-71120000D03*
X181610000Y-73660000D03*
X181610000Y-76200000D03*
X181610000Y-78740000D03*
X181610000Y-81280000D03*
X181610000Y-83820000D03*
X181610000Y-86360000D03*
X181610000Y-88900000D03*
X181610000Y-91440000D03*
X181610000Y-93980000D03*
X181610000Y-96520000D03*
X181610000Y-99060000D03*
X166370000Y-101600000D03*
X168910000Y-101600000D03*
X171450000Y-101600000D03*
X181610000Y-101600000D03*
X179070000Y-101600000D03*
X176530000Y-101600000D03*
X173990000Y-101600000D03*
D11*
X162560000Y-63500000D03*
D12*
X165100000Y-63500000D03*
X154940000Y-63500000D03*
D11*
X152400000Y-63500000D03*
D12*
X152400000Y-104140000D03*
X154940000Y-104140000D03*
D11*
X157480000Y-104140000D03*
D12*
X152400000Y-93980000D03*
X154940000Y-93980000D03*
D11*
X157480000Y-93980000D03*
D12*
X152400000Y-83820000D03*
X154940000Y-83820000D03*
D11*
X157480000Y-83820000D03*
D12*
X152400000Y-101600000D03*
X154940000Y-101600000D03*
D11*
X157480000Y-101600000D03*
D12*
X152400000Y-91440000D03*
X154940000Y-91440000D03*
D11*
X157480000Y-91440000D03*
D12*
X152400000Y-81280000D03*
X154940000Y-81280000D03*
D11*
X157480000Y-81280000D03*
D12*
X152400000Y-99060000D03*
X154940000Y-99060000D03*
D11*
X157480000Y-99060000D03*
D12*
X152400000Y-88900000D03*
X154940000Y-88900000D03*
D11*
X157480000Y-88900000D03*
D12*
X152400000Y-78740000D03*
X154940000Y-78740000D03*
D11*
X157480000Y-78740000D03*
D13*
X152480000Y-114300000D03*
D14*
X157480000Y-114300000D03*
D11*
X157480000Y-68580000D03*
D12*
X154940000Y-68580000D03*
X152400000Y-68580000D03*
D11*
X157480000Y-73660000D03*
D12*
X154940000Y-73660000D03*
X152400000Y-73660000D03*
X152400000Y-71120000D03*
X154940000Y-71120000D03*
D11*
X157480000Y-71120000D03*
D15*
G36*
X145355406Y-60624600D02*
G01*
X145400076Y-60629000D01*
X183529924Y-60629000D01*
X183574594Y-60624600D01*
X183608025Y-60614459D01*
X183707223Y-60624185D01*
X183892130Y-60680012D01*
X184062668Y-60770688D01*
X184212347Y-60892762D01*
X184335468Y-61041590D01*
X184427334Y-61211493D01*
X184484448Y-61395997D01*
X184495575Y-61501866D01*
X184485401Y-61535406D01*
X184481001Y-61580076D01*
X184481000Y-116854923D01*
X184485400Y-116899593D01*
X184495541Y-116933024D01*
X184485815Y-117032223D01*
X184429988Y-117217130D01*
X184339310Y-117387670D01*
X184217235Y-117537349D01*
X184068410Y-117660468D01*
X183898511Y-117752332D01*
X183714003Y-117809448D01*
X183608136Y-117820575D01*
X183574594Y-117810400D01*
X183529924Y-117806000D01*
X145400076Y-117806000D01*
X145355406Y-117810400D01*
X145321975Y-117820541D01*
X145222777Y-117810815D01*
X145037870Y-117754988D01*
X144867330Y-117664310D01*
X144717651Y-117542235D01*
X144594532Y-117393410D01*
X144502668Y-117223511D01*
X144445552Y-117039003D01*
X144434425Y-116933136D01*
X144444600Y-116899594D01*
X144449000Y-116854924D01*
X144449000Y-114087850D01*
X150326000Y-114087850D01*
X150326000Y-114512150D01*
X150408777Y-114928299D01*
X150571150Y-115320301D01*
X150806879Y-115673095D01*
X151106905Y-115973121D01*
X151459699Y-116208850D01*
X151851701Y-116371223D01*
X152267850Y-116454000D01*
X152692150Y-116454000D01*
X153108299Y-116371223D01*
X153500301Y-116208850D01*
X153513545Y-116200000D01*
X155197157Y-116200000D01*
X155204513Y-116274689D01*
X155226299Y-116346508D01*
X155261678Y-116412696D01*
X155309289Y-116470711D01*
X155367304Y-116518322D01*
X155433492Y-116553701D01*
X155505311Y-116575487D01*
X155580000Y-116582843D01*
X156511750Y-116581000D01*
X156607000Y-116485750D01*
X156607000Y-115173000D01*
X158353000Y-115173000D01*
X158353000Y-116485750D01*
X158448250Y-116581000D01*
X159380000Y-116582843D01*
X159454689Y-116575487D01*
X159526508Y-116553701D01*
X159592696Y-116518322D01*
X159650711Y-116470711D01*
X159698322Y-116412696D01*
X159733701Y-116346508D01*
X159755487Y-116274689D01*
X159762843Y-116200000D01*
X159761000Y-115268250D01*
X159665750Y-115173000D01*
X158353000Y-115173000D01*
X156607000Y-115173000D01*
X155294250Y-115173000D01*
X155199000Y-115268250D01*
X155197157Y-116200000D01*
X153513545Y-116200000D01*
X153853095Y-115973121D01*
X154153121Y-115673095D01*
X154388850Y-115320301D01*
X154551223Y-114928299D01*
X154634000Y-114512150D01*
X154634000Y-114087850D01*
X154551223Y-113671701D01*
X154388850Y-113279699D01*
X154153121Y-112926905D01*
X153853095Y-112626879D01*
X153513546Y-112400000D01*
X155197157Y-112400000D01*
X155199000Y-113331750D01*
X155294250Y-113427000D01*
X156607000Y-113427000D01*
X156607000Y-112114250D01*
X158353000Y-112114250D01*
X158353000Y-113427000D01*
X159665750Y-113427000D01*
X159761000Y-113331750D01*
X159762843Y-112400000D01*
X159755487Y-112325311D01*
X159733701Y-112253492D01*
X159698322Y-112187304D01*
X159650711Y-112129289D01*
X159592696Y-112081678D01*
X159526508Y-112046299D01*
X159454689Y-112024513D01*
X159380000Y-112017157D01*
X158448250Y-112019000D01*
X158353000Y-112114250D01*
X156607000Y-112114250D01*
X156511750Y-112019000D01*
X155580000Y-112017157D01*
X155505311Y-112024513D01*
X155433492Y-112046299D01*
X155367304Y-112081678D01*
X155309289Y-112129289D01*
X155261678Y-112187304D01*
X155226299Y-112253492D01*
X155204513Y-112325311D01*
X155197157Y-112400000D01*
X153513546Y-112400000D01*
X153500301Y-112391150D01*
X153108299Y-112228777D01*
X152692150Y-112146000D01*
X152267850Y-112146000D01*
X151851701Y-112228777D01*
X151459699Y-112391150D01*
X151106905Y-112626879D01*
X150806879Y-112926905D01*
X150571150Y-113279699D01*
X150408777Y-113671701D01*
X150326000Y-114087850D01*
X144449000Y-114087850D01*
X144449000Y-104573571D01*
X151247870Y-104573571D01*
X151354593Y-104790009D01*
X151501491Y-104981468D01*
X151682918Y-105140590D01*
X151891902Y-105261260D01*
X151966431Y-105292119D01*
X152152000Y-105248343D01*
X152152000Y-104388000D01*
X152648000Y-104388000D01*
X152648000Y-105248343D01*
X152833569Y-105292119D01*
X152908098Y-105261260D01*
X153117082Y-105140590D01*
X153298509Y-104981468D01*
X153445407Y-104790009D01*
X153552130Y-104573571D01*
X153510521Y-104388000D01*
X152648000Y-104388000D01*
X152152000Y-104388000D01*
X151289479Y-104388000D01*
X151247870Y-104573571D01*
X144449000Y-104573571D01*
X144449000Y-104031265D01*
X153836000Y-104031265D01*
X153836000Y-104248735D01*
X153878426Y-104462025D01*
X153961648Y-104662940D01*
X154082467Y-104843759D01*
X154236241Y-104997533D01*
X154417060Y-105118352D01*
X154617975Y-105201574D01*
X154831265Y-105244000D01*
X155048735Y-105244000D01*
X155262025Y-105201574D01*
X155462940Y-105118352D01*
X155643759Y-104997533D01*
X155797533Y-104843759D01*
X155918352Y-104662940D01*
X156001574Y-104462025D01*
X156044000Y-104248735D01*
X156044000Y-104031265D01*
X156001574Y-103817975D01*
X155918352Y-103617060D01*
X155797533Y-103436241D01*
X155651292Y-103290000D01*
X156374772Y-103290000D01*
X156374772Y-104990000D01*
X156379676Y-105039793D01*
X156394200Y-105087672D01*
X156417786Y-105131797D01*
X156449527Y-105170473D01*
X156488203Y-105202214D01*
X156532328Y-105225800D01*
X156580207Y-105240324D01*
X156630000Y-105245228D01*
X158330000Y-105245228D01*
X158379793Y-105240324D01*
X158427672Y-105225800D01*
X158471797Y-105202214D01*
X158510473Y-105170473D01*
X158542214Y-105131797D01*
X158565800Y-105087672D01*
X158580324Y-105039793D01*
X158585228Y-104990000D01*
X158585228Y-103290000D01*
X158580324Y-103240207D01*
X158565800Y-103192328D01*
X158542214Y-103148203D01*
X158510473Y-103109527D01*
X158471797Y-103077786D01*
X158427672Y-103054200D01*
X158379793Y-103039676D01*
X158330000Y-103034772D01*
X156630000Y-103034772D01*
X156580207Y-103039676D01*
X156532328Y-103054200D01*
X156488203Y-103077786D01*
X156449527Y-103109527D01*
X156417786Y-103148203D01*
X156394200Y-103192328D01*
X156379676Y-103240207D01*
X156374772Y-103290000D01*
X155651292Y-103290000D01*
X155643759Y-103282467D01*
X155462940Y-103161648D01*
X155262025Y-103078426D01*
X155048735Y-103036000D01*
X154831265Y-103036000D01*
X154617975Y-103078426D01*
X154417060Y-103161648D01*
X154236241Y-103282467D01*
X154082467Y-103436241D01*
X153961648Y-103617060D01*
X153878426Y-103817975D01*
X153836000Y-104031265D01*
X144449000Y-104031265D01*
X144449000Y-103706429D01*
X151247870Y-103706429D01*
X151289479Y-103892000D01*
X152152000Y-103892000D01*
X152152000Y-103031657D01*
X152648000Y-103031657D01*
X152648000Y-103892000D01*
X153510521Y-103892000D01*
X153552130Y-103706429D01*
X153445407Y-103489991D01*
X153298509Y-103298532D01*
X153117082Y-103139410D01*
X152908098Y-103018740D01*
X152833569Y-102987881D01*
X152648000Y-103031657D01*
X152152000Y-103031657D01*
X151966431Y-102987881D01*
X151891902Y-103018740D01*
X151682918Y-103139410D01*
X151501491Y-103298532D01*
X151354593Y-103489991D01*
X151247870Y-103706429D01*
X144449000Y-103706429D01*
X144449000Y-102033571D01*
X151247870Y-102033571D01*
X151354593Y-102250009D01*
X151501491Y-102441468D01*
X151682918Y-102600590D01*
X151891902Y-102721260D01*
X151966431Y-102752119D01*
X152152000Y-102708343D01*
X152152000Y-101848000D01*
X152648000Y-101848000D01*
X152648000Y-102708343D01*
X152833569Y-102752119D01*
X152908098Y-102721260D01*
X153117082Y-102600590D01*
X153298509Y-102441468D01*
X153445407Y-102250009D01*
X153552130Y-102033571D01*
X153510521Y-101848000D01*
X152648000Y-101848000D01*
X152152000Y-101848000D01*
X151289479Y-101848000D01*
X151247870Y-102033571D01*
X144449000Y-102033571D01*
X144449000Y-101491265D01*
X153836000Y-101491265D01*
X153836000Y-101708735D01*
X153878426Y-101922025D01*
X153961648Y-102122940D01*
X154082467Y-102303759D01*
X154236241Y-102457533D01*
X154417060Y-102578352D01*
X154617975Y-102661574D01*
X154831265Y-102704000D01*
X155048735Y-102704000D01*
X155262025Y-102661574D01*
X155462940Y-102578352D01*
X155643759Y-102457533D01*
X155797533Y-102303759D01*
X155918352Y-102122940D01*
X156001574Y-101922025D01*
X156044000Y-101708735D01*
X156044000Y-101491265D01*
X156001574Y-101277975D01*
X155918352Y-101077060D01*
X155797533Y-100896241D01*
X155651292Y-100750000D01*
X156374772Y-100750000D01*
X156374772Y-102450000D01*
X156379676Y-102499793D01*
X156394200Y-102547672D01*
X156417786Y-102591797D01*
X156449527Y-102630473D01*
X156488203Y-102662214D01*
X156532328Y-102685800D01*
X156580207Y-102700324D01*
X156630000Y-102705228D01*
X158330000Y-102705228D01*
X158379793Y-102700324D01*
X158427672Y-102685800D01*
X158471797Y-102662214D01*
X158510473Y-102630473D01*
X158542214Y-102591797D01*
X158565800Y-102547672D01*
X158580324Y-102499793D01*
X158585228Y-102450000D01*
X158585228Y-101496190D01*
X165316000Y-101496190D01*
X165316000Y-101703810D01*
X165356504Y-101907441D01*
X165435957Y-102099256D01*
X165551305Y-102271886D01*
X165698114Y-102418695D01*
X165870744Y-102534043D01*
X166062559Y-102613496D01*
X166266190Y-102654000D01*
X166473810Y-102654000D01*
X166677441Y-102613496D01*
X166869256Y-102534043D01*
X167041886Y-102418695D01*
X167188695Y-102271886D01*
X167304043Y-102099256D01*
X167383496Y-101907441D01*
X167424000Y-101703810D01*
X167424000Y-101496190D01*
X167856000Y-101496190D01*
X167856000Y-101703810D01*
X167896504Y-101907441D01*
X167975957Y-102099256D01*
X168091305Y-102271886D01*
X168238114Y-102418695D01*
X168410744Y-102534043D01*
X168602559Y-102613496D01*
X168806190Y-102654000D01*
X169013810Y-102654000D01*
X169217441Y-102613496D01*
X169409256Y-102534043D01*
X169581886Y-102418695D01*
X169728695Y-102271886D01*
X169844043Y-102099256D01*
X169923496Y-101907441D01*
X169964000Y-101703810D01*
X169964000Y-101496190D01*
X170396000Y-101496190D01*
X170396000Y-101703810D01*
X170436504Y-101907441D01*
X170515957Y-102099256D01*
X170631305Y-102271886D01*
X170778114Y-102418695D01*
X170950744Y-102534043D01*
X171142559Y-102613496D01*
X171346190Y-102654000D01*
X171553810Y-102654000D01*
X171757441Y-102613496D01*
X171949256Y-102534043D01*
X172121886Y-102418695D01*
X172268695Y-102271886D01*
X172384043Y-102099256D01*
X172463496Y-101907441D01*
X172504000Y-101703810D01*
X172504000Y-101496190D01*
X172936000Y-101496190D01*
X172936000Y-101703810D01*
X172976504Y-101907441D01*
X173055957Y-102099256D01*
X173171305Y-102271886D01*
X173318114Y-102418695D01*
X173490744Y-102534043D01*
X173682559Y-102613496D01*
X173886190Y-102654000D01*
X174093810Y-102654000D01*
X174297441Y-102613496D01*
X174489256Y-102534043D01*
X174661886Y-102418695D01*
X174808695Y-102271886D01*
X174924043Y-102099256D01*
X175003496Y-101907441D01*
X175044000Y-101703810D01*
X175044000Y-101496190D01*
X175476000Y-101496190D01*
X175476000Y-101703810D01*
X175516504Y-101907441D01*
X175595957Y-102099256D01*
X175711305Y-102271886D01*
X175858114Y-102418695D01*
X176030744Y-102534043D01*
X176222559Y-102613496D01*
X176426190Y-102654000D01*
X176633810Y-102654000D01*
X176837441Y-102613496D01*
X177029256Y-102534043D01*
X177201886Y-102418695D01*
X177348695Y-102271886D01*
X177464043Y-102099256D01*
X177543496Y-101907441D01*
X177584000Y-101703810D01*
X177584000Y-101496190D01*
X178016000Y-101496190D01*
X178016000Y-101703810D01*
X178056504Y-101907441D01*
X178135957Y-102099256D01*
X178251305Y-102271886D01*
X178398114Y-102418695D01*
X178570744Y-102534043D01*
X178762559Y-102613496D01*
X178966190Y-102654000D01*
X179173810Y-102654000D01*
X179377441Y-102613496D01*
X179569256Y-102534043D01*
X179741886Y-102418695D01*
X179888695Y-102271886D01*
X180004043Y-102099256D01*
X180083496Y-101907441D01*
X180124000Y-101703810D01*
X180124000Y-101496190D01*
X180556000Y-101496190D01*
X180556000Y-101703810D01*
X180596504Y-101907441D01*
X180675957Y-102099256D01*
X180791305Y-102271886D01*
X180938114Y-102418695D01*
X181110744Y-102534043D01*
X181302559Y-102613496D01*
X181506190Y-102654000D01*
X181713810Y-102654000D01*
X181917441Y-102613496D01*
X182109256Y-102534043D01*
X182281886Y-102418695D01*
X182428695Y-102271886D01*
X182544043Y-102099256D01*
X182623496Y-101907441D01*
X182664000Y-101703810D01*
X182664000Y-101496190D01*
X182623496Y-101292559D01*
X182544043Y-101100744D01*
X182428695Y-100928114D01*
X182281886Y-100781305D01*
X182109256Y-100665957D01*
X181917441Y-100586504D01*
X181713810Y-100546000D01*
X181506190Y-100546000D01*
X181302559Y-100586504D01*
X181110744Y-100665957D01*
X180938114Y-100781305D01*
X180791305Y-100928114D01*
X180675957Y-101100744D01*
X180596504Y-101292559D01*
X180556000Y-101496190D01*
X180124000Y-101496190D01*
X180083496Y-101292559D01*
X180004043Y-101100744D01*
X179888695Y-100928114D01*
X179741886Y-100781305D01*
X179569256Y-100665957D01*
X179377441Y-100586504D01*
X179173810Y-100546000D01*
X178966190Y-100546000D01*
X178762559Y-100586504D01*
X178570744Y-100665957D01*
X178398114Y-100781305D01*
X178251305Y-100928114D01*
X178135957Y-101100744D01*
X178056504Y-101292559D01*
X178016000Y-101496190D01*
X177584000Y-101496190D01*
X177543496Y-101292559D01*
X177464043Y-101100744D01*
X177348695Y-100928114D01*
X177201886Y-100781305D01*
X177029256Y-100665957D01*
X176837441Y-100586504D01*
X176633810Y-100546000D01*
X176426190Y-100546000D01*
X176222559Y-100586504D01*
X176030744Y-100665957D01*
X175858114Y-100781305D01*
X175711305Y-100928114D01*
X175595957Y-101100744D01*
X175516504Y-101292559D01*
X175476000Y-101496190D01*
X175044000Y-101496190D01*
X175003496Y-101292559D01*
X174924043Y-101100744D01*
X174808695Y-100928114D01*
X174661886Y-100781305D01*
X174489256Y-100665957D01*
X174297441Y-100586504D01*
X174093810Y-100546000D01*
X173886190Y-100546000D01*
X173682559Y-100586504D01*
X173490744Y-100665957D01*
X173318114Y-100781305D01*
X173171305Y-100928114D01*
X173055957Y-101100744D01*
X172976504Y-101292559D01*
X172936000Y-101496190D01*
X172504000Y-101496190D01*
X172463496Y-101292559D01*
X172384043Y-101100744D01*
X172268695Y-100928114D01*
X172121886Y-100781305D01*
X171949256Y-100665957D01*
X171757441Y-100586504D01*
X171553810Y-100546000D01*
X171346190Y-100546000D01*
X171142559Y-100586504D01*
X170950744Y-100665957D01*
X170778114Y-100781305D01*
X170631305Y-100928114D01*
X170515957Y-101100744D01*
X170436504Y-101292559D01*
X170396000Y-101496190D01*
X169964000Y-101496190D01*
X169923496Y-101292559D01*
X169844043Y-101100744D01*
X169728695Y-100928114D01*
X169581886Y-100781305D01*
X169409256Y-100665957D01*
X169217441Y-100586504D01*
X169013810Y-100546000D01*
X168806190Y-100546000D01*
X168602559Y-100586504D01*
X168410744Y-100665957D01*
X168238114Y-100781305D01*
X168091305Y-100928114D01*
X167975957Y-101100744D01*
X167896504Y-101292559D01*
X167856000Y-101496190D01*
X167424000Y-101496190D01*
X167383496Y-101292559D01*
X167304043Y-101100744D01*
X167188695Y-100928114D01*
X167041886Y-100781305D01*
X166869256Y-100665957D01*
X166677441Y-100586504D01*
X166473810Y-100546000D01*
X166266190Y-100546000D01*
X166062559Y-100586504D01*
X165870744Y-100665957D01*
X165698114Y-100781305D01*
X165551305Y-100928114D01*
X165435957Y-101100744D01*
X165356504Y-101292559D01*
X165316000Y-101496190D01*
X158585228Y-101496190D01*
X158585228Y-100750000D01*
X158580324Y-100700207D01*
X158565800Y-100652328D01*
X158542214Y-100608203D01*
X158510473Y-100569527D01*
X158471797Y-100537786D01*
X158427672Y-100514200D01*
X158379793Y-100499676D01*
X158330000Y-100494772D01*
X156630000Y-100494772D01*
X156580207Y-100499676D01*
X156532328Y-100514200D01*
X156488203Y-100537786D01*
X156449527Y-100569527D01*
X156417786Y-100608203D01*
X156394200Y-100652328D01*
X156379676Y-100700207D01*
X156374772Y-100750000D01*
X155651292Y-100750000D01*
X155643759Y-100742467D01*
X155462940Y-100621648D01*
X155262025Y-100538426D01*
X155048735Y-100496000D01*
X154831265Y-100496000D01*
X154617975Y-100538426D01*
X154417060Y-100621648D01*
X154236241Y-100742467D01*
X154082467Y-100896241D01*
X153961648Y-101077060D01*
X153878426Y-101277975D01*
X153836000Y-101491265D01*
X144449000Y-101491265D01*
X144449000Y-101166429D01*
X151247870Y-101166429D01*
X151289479Y-101352000D01*
X152152000Y-101352000D01*
X152152000Y-100491657D01*
X152648000Y-100491657D01*
X152648000Y-101352000D01*
X153510521Y-101352000D01*
X153552130Y-101166429D01*
X153445407Y-100949991D01*
X153298509Y-100758532D01*
X153117082Y-100599410D01*
X152908098Y-100478740D01*
X152833569Y-100447881D01*
X152648000Y-100491657D01*
X152152000Y-100491657D01*
X151966431Y-100447881D01*
X151891902Y-100478740D01*
X151682918Y-100599410D01*
X151501491Y-100758532D01*
X151354593Y-100949991D01*
X151247870Y-101166429D01*
X144449000Y-101166429D01*
X144449000Y-99493571D01*
X151247870Y-99493571D01*
X151354593Y-99710009D01*
X151501491Y-99901468D01*
X151682918Y-100060590D01*
X151891902Y-100181260D01*
X151966431Y-100212119D01*
X152152000Y-100168343D01*
X152152000Y-99308000D01*
X152648000Y-99308000D01*
X152648000Y-100168343D01*
X152833569Y-100212119D01*
X152908098Y-100181260D01*
X153117082Y-100060590D01*
X153298509Y-99901468D01*
X153445407Y-99710009D01*
X153552130Y-99493571D01*
X153510521Y-99308000D01*
X152648000Y-99308000D01*
X152152000Y-99308000D01*
X151289479Y-99308000D01*
X151247870Y-99493571D01*
X144449000Y-99493571D01*
X144449000Y-98951265D01*
X153836000Y-98951265D01*
X153836000Y-99168735D01*
X153878426Y-99382025D01*
X153961648Y-99582940D01*
X154082467Y-99763759D01*
X154236241Y-99917533D01*
X154417060Y-100038352D01*
X154617975Y-100121574D01*
X154831265Y-100164000D01*
X155048735Y-100164000D01*
X155262025Y-100121574D01*
X155462940Y-100038352D01*
X155643759Y-99917533D01*
X155797533Y-99763759D01*
X155918352Y-99582940D01*
X156001574Y-99382025D01*
X156044000Y-99168735D01*
X156044000Y-98951265D01*
X156001574Y-98737975D01*
X155918352Y-98537060D01*
X155797533Y-98356241D01*
X155651292Y-98210000D01*
X156374772Y-98210000D01*
X156374772Y-99910000D01*
X156379676Y-99959793D01*
X156394200Y-100007672D01*
X156417786Y-100051797D01*
X156449527Y-100090473D01*
X156488203Y-100122214D01*
X156532328Y-100145800D01*
X156580207Y-100160324D01*
X156630000Y-100165228D01*
X158330000Y-100165228D01*
X158379793Y-100160324D01*
X158427672Y-100145800D01*
X158471797Y-100122214D01*
X158510473Y-100090473D01*
X158542214Y-100051797D01*
X158565800Y-100007672D01*
X158580324Y-99959793D01*
X158585228Y-99910000D01*
X158585228Y-98956190D01*
X165316000Y-98956190D01*
X165316000Y-99163810D01*
X165356504Y-99367441D01*
X165435957Y-99559256D01*
X165551305Y-99731886D01*
X165698114Y-99878695D01*
X165870744Y-99994043D01*
X166062559Y-100073496D01*
X166266190Y-100114000D01*
X166473810Y-100114000D01*
X166677441Y-100073496D01*
X166869256Y-99994043D01*
X167041886Y-99878695D01*
X167188695Y-99731886D01*
X167304043Y-99559256D01*
X167383496Y-99367441D01*
X167424000Y-99163810D01*
X167424000Y-98956190D01*
X180556000Y-98956190D01*
X180556000Y-99163810D01*
X180596504Y-99367441D01*
X180675957Y-99559256D01*
X180791305Y-99731886D01*
X180938114Y-99878695D01*
X181110744Y-99994043D01*
X181302559Y-100073496D01*
X181506190Y-100114000D01*
X181713810Y-100114000D01*
X181917441Y-100073496D01*
X182109256Y-99994043D01*
X182281886Y-99878695D01*
X182428695Y-99731886D01*
X182544043Y-99559256D01*
X182623496Y-99367441D01*
X182664000Y-99163810D01*
X182664000Y-98956190D01*
X182623496Y-98752559D01*
X182544043Y-98560744D01*
X182428695Y-98388114D01*
X182281886Y-98241305D01*
X182109256Y-98125957D01*
X181917441Y-98046504D01*
X181713810Y-98006000D01*
X181506190Y-98006000D01*
X181302559Y-98046504D01*
X181110744Y-98125957D01*
X180938114Y-98241305D01*
X180791305Y-98388114D01*
X180675957Y-98560744D01*
X180596504Y-98752559D01*
X180556000Y-98956190D01*
X167424000Y-98956190D01*
X167383496Y-98752559D01*
X167304043Y-98560744D01*
X167188695Y-98388114D01*
X167041886Y-98241305D01*
X166869256Y-98125957D01*
X166677441Y-98046504D01*
X166473810Y-98006000D01*
X166266190Y-98006000D01*
X166062559Y-98046504D01*
X165870744Y-98125957D01*
X165698114Y-98241305D01*
X165551305Y-98388114D01*
X165435957Y-98560744D01*
X165356504Y-98752559D01*
X165316000Y-98956190D01*
X158585228Y-98956190D01*
X158585228Y-98210000D01*
X158580324Y-98160207D01*
X158565800Y-98112328D01*
X158542214Y-98068203D01*
X158510473Y-98029527D01*
X158471797Y-97997786D01*
X158427672Y-97974200D01*
X158379793Y-97959676D01*
X158330000Y-97954772D01*
X156630000Y-97954772D01*
X156580207Y-97959676D01*
X156532328Y-97974200D01*
X156488203Y-97997786D01*
X156449527Y-98029527D01*
X156417786Y-98068203D01*
X156394200Y-98112328D01*
X156379676Y-98160207D01*
X156374772Y-98210000D01*
X155651292Y-98210000D01*
X155643759Y-98202467D01*
X155462940Y-98081648D01*
X155262025Y-97998426D01*
X155048735Y-97956000D01*
X154831265Y-97956000D01*
X154617975Y-97998426D01*
X154417060Y-98081648D01*
X154236241Y-98202467D01*
X154082467Y-98356241D01*
X153961648Y-98537060D01*
X153878426Y-98737975D01*
X153836000Y-98951265D01*
X144449000Y-98951265D01*
X144449000Y-98626429D01*
X151247870Y-98626429D01*
X151289479Y-98812000D01*
X152152000Y-98812000D01*
X152152000Y-97951657D01*
X152648000Y-97951657D01*
X152648000Y-98812000D01*
X153510521Y-98812000D01*
X153552130Y-98626429D01*
X153445407Y-98409991D01*
X153298509Y-98218532D01*
X153117082Y-98059410D01*
X152908098Y-97938740D01*
X152833569Y-97907881D01*
X152648000Y-97951657D01*
X152152000Y-97951657D01*
X151966431Y-97907881D01*
X151891902Y-97938740D01*
X151682918Y-98059410D01*
X151501491Y-98218532D01*
X151354593Y-98409991D01*
X151247870Y-98626429D01*
X144449000Y-98626429D01*
X144449000Y-96416190D01*
X165316000Y-96416190D01*
X165316000Y-96623810D01*
X165356504Y-96827441D01*
X165435957Y-97019256D01*
X165551305Y-97191886D01*
X165698114Y-97338695D01*
X165870744Y-97454043D01*
X166062559Y-97533496D01*
X166266190Y-97574000D01*
X166473810Y-97574000D01*
X166677441Y-97533496D01*
X166869256Y-97454043D01*
X167041886Y-97338695D01*
X167188695Y-97191886D01*
X167304043Y-97019256D01*
X167383496Y-96827441D01*
X167424000Y-96623810D01*
X167424000Y-96416190D01*
X167856000Y-96416190D01*
X167856000Y-96623810D01*
X167896504Y-96827441D01*
X167975957Y-97019256D01*
X168091305Y-97191886D01*
X168238114Y-97338695D01*
X168410744Y-97454043D01*
X168602559Y-97533496D01*
X168806190Y-97574000D01*
X169013810Y-97574000D01*
X169217441Y-97533496D01*
X169409256Y-97454043D01*
X169581886Y-97338695D01*
X169728695Y-97191886D01*
X169844043Y-97019256D01*
X169923496Y-96827441D01*
X169964000Y-96623810D01*
X169964000Y-96416190D01*
X170396000Y-96416190D01*
X170396000Y-96623810D01*
X170436504Y-96827441D01*
X170515957Y-97019256D01*
X170631305Y-97191886D01*
X170778114Y-97338695D01*
X170950744Y-97454043D01*
X171142559Y-97533496D01*
X171346190Y-97574000D01*
X171553810Y-97574000D01*
X171757441Y-97533496D01*
X171949256Y-97454043D01*
X172121886Y-97338695D01*
X172268695Y-97191886D01*
X172384043Y-97019256D01*
X172463496Y-96827441D01*
X172504000Y-96623810D01*
X172504000Y-96416190D01*
X172936000Y-96416190D01*
X172936000Y-96623810D01*
X172976504Y-96827441D01*
X173055957Y-97019256D01*
X173171305Y-97191886D01*
X173318114Y-97338695D01*
X173490744Y-97454043D01*
X173682559Y-97533496D01*
X173886190Y-97574000D01*
X174093810Y-97574000D01*
X174297441Y-97533496D01*
X174489256Y-97454043D01*
X174661886Y-97338695D01*
X174808695Y-97191886D01*
X174924043Y-97019256D01*
X175003496Y-96827441D01*
X175044000Y-96623810D01*
X175044000Y-96416190D01*
X175476000Y-96416190D01*
X175476000Y-96623810D01*
X175516504Y-96827441D01*
X175595957Y-97019256D01*
X175711305Y-97191886D01*
X175858114Y-97338695D01*
X176030744Y-97454043D01*
X176222559Y-97533496D01*
X176426190Y-97574000D01*
X176633810Y-97574000D01*
X176837441Y-97533496D01*
X177029256Y-97454043D01*
X177201886Y-97338695D01*
X177348695Y-97191886D01*
X177464043Y-97019256D01*
X177543496Y-96827441D01*
X177584000Y-96623810D01*
X177584000Y-96416190D01*
X178016000Y-96416190D01*
X178016000Y-96623810D01*
X178056504Y-96827441D01*
X178135957Y-97019256D01*
X178251305Y-97191886D01*
X178398114Y-97338695D01*
X178570744Y-97454043D01*
X178762559Y-97533496D01*
X178966190Y-97574000D01*
X179173810Y-97574000D01*
X179377441Y-97533496D01*
X179569256Y-97454043D01*
X179741886Y-97338695D01*
X179888695Y-97191886D01*
X180004043Y-97019256D01*
X180083496Y-96827441D01*
X180124000Y-96623810D01*
X180124000Y-96416190D01*
X180556000Y-96416190D01*
X180556000Y-96623810D01*
X180596504Y-96827441D01*
X180675957Y-97019256D01*
X180791305Y-97191886D01*
X180938114Y-97338695D01*
X181110744Y-97454043D01*
X181302559Y-97533496D01*
X181506190Y-97574000D01*
X181713810Y-97574000D01*
X181917441Y-97533496D01*
X182109256Y-97454043D01*
X182281886Y-97338695D01*
X182428695Y-97191886D01*
X182544043Y-97019256D01*
X182623496Y-96827441D01*
X182664000Y-96623810D01*
X182664000Y-96416190D01*
X182623496Y-96212559D01*
X182544043Y-96020744D01*
X182428695Y-95848114D01*
X182281886Y-95701305D01*
X182109256Y-95585957D01*
X181917441Y-95506504D01*
X181713810Y-95466000D01*
X181506190Y-95466000D01*
X181302559Y-95506504D01*
X181110744Y-95585957D01*
X180938114Y-95701305D01*
X180791305Y-95848114D01*
X180675957Y-96020744D01*
X180596504Y-96212559D01*
X180556000Y-96416190D01*
X180124000Y-96416190D01*
X180083496Y-96212559D01*
X180004043Y-96020744D01*
X179888695Y-95848114D01*
X179741886Y-95701305D01*
X179569256Y-95585957D01*
X179377441Y-95506504D01*
X179173810Y-95466000D01*
X178966190Y-95466000D01*
X178762559Y-95506504D01*
X178570744Y-95585957D01*
X178398114Y-95701305D01*
X178251305Y-95848114D01*
X178135957Y-96020744D01*
X178056504Y-96212559D01*
X178016000Y-96416190D01*
X177584000Y-96416190D01*
X177543496Y-96212559D01*
X177464043Y-96020744D01*
X177348695Y-95848114D01*
X177201886Y-95701305D01*
X177029256Y-95585957D01*
X176837441Y-95506504D01*
X176633810Y-95466000D01*
X176426190Y-95466000D01*
X176222559Y-95506504D01*
X176030744Y-95585957D01*
X175858114Y-95701305D01*
X175711305Y-95848114D01*
X175595957Y-96020744D01*
X175516504Y-96212559D01*
X175476000Y-96416190D01*
X175044000Y-96416190D01*
X175003496Y-96212559D01*
X174924043Y-96020744D01*
X174808695Y-95848114D01*
X174661886Y-95701305D01*
X174489256Y-95585957D01*
X174297441Y-95506504D01*
X174093810Y-95466000D01*
X173886190Y-95466000D01*
X173682559Y-95506504D01*
X173490744Y-95585957D01*
X173318114Y-95701305D01*
X173171305Y-95848114D01*
X173055957Y-96020744D01*
X172976504Y-96212559D01*
X172936000Y-96416190D01*
X172504000Y-96416190D01*
X172463496Y-96212559D01*
X172384043Y-96020744D01*
X172268695Y-95848114D01*
X172121886Y-95701305D01*
X171949256Y-95585957D01*
X171757441Y-95506504D01*
X171553810Y-95466000D01*
X171346190Y-95466000D01*
X171142559Y-95506504D01*
X170950744Y-95585957D01*
X170778114Y-95701305D01*
X170631305Y-95848114D01*
X170515957Y-96020744D01*
X170436504Y-96212559D01*
X170396000Y-96416190D01*
X169964000Y-96416190D01*
X169923496Y-96212559D01*
X169844043Y-96020744D01*
X169728695Y-95848114D01*
X169581886Y-95701305D01*
X169409256Y-95585957D01*
X169217441Y-95506504D01*
X169013810Y-95466000D01*
X168806190Y-95466000D01*
X168602559Y-95506504D01*
X168410744Y-95585957D01*
X168238114Y-95701305D01*
X168091305Y-95848114D01*
X167975957Y-96020744D01*
X167896504Y-96212559D01*
X167856000Y-96416190D01*
X167424000Y-96416190D01*
X167383496Y-96212559D01*
X167304043Y-96020744D01*
X167188695Y-95848114D01*
X167041886Y-95701305D01*
X166869256Y-95585957D01*
X166677441Y-95506504D01*
X166473810Y-95466000D01*
X166266190Y-95466000D01*
X166062559Y-95506504D01*
X165870744Y-95585957D01*
X165698114Y-95701305D01*
X165551305Y-95848114D01*
X165435957Y-96020744D01*
X165356504Y-96212559D01*
X165316000Y-96416190D01*
X144449000Y-96416190D01*
X144449000Y-94413571D01*
X151247870Y-94413571D01*
X151354593Y-94630009D01*
X151501491Y-94821468D01*
X151682918Y-94980590D01*
X151891902Y-95101260D01*
X151966431Y-95132119D01*
X152152000Y-95088343D01*
X152152000Y-94228000D01*
X152648000Y-94228000D01*
X152648000Y-95088343D01*
X152833569Y-95132119D01*
X152908098Y-95101260D01*
X153117082Y-94980590D01*
X153298509Y-94821468D01*
X153445407Y-94630009D01*
X153552130Y-94413571D01*
X153510521Y-94228000D01*
X152648000Y-94228000D01*
X152152000Y-94228000D01*
X151289479Y-94228000D01*
X151247870Y-94413571D01*
X144449000Y-94413571D01*
X144449000Y-93871265D01*
X153836000Y-93871265D01*
X153836000Y-94088735D01*
X153878426Y-94302025D01*
X153961648Y-94502940D01*
X154082467Y-94683759D01*
X154236241Y-94837533D01*
X154417060Y-94958352D01*
X154617975Y-95041574D01*
X154831265Y-95084000D01*
X155048735Y-95084000D01*
X155262025Y-95041574D01*
X155462940Y-94958352D01*
X155643759Y-94837533D01*
X155797533Y-94683759D01*
X155918352Y-94502940D01*
X156001574Y-94302025D01*
X156044000Y-94088735D01*
X156044000Y-93871265D01*
X156001574Y-93657975D01*
X155918352Y-93457060D01*
X155797533Y-93276241D01*
X155651292Y-93130000D01*
X156374772Y-93130000D01*
X156374772Y-94830000D01*
X156379676Y-94879793D01*
X156394200Y-94927672D01*
X156417786Y-94971797D01*
X156449527Y-95010473D01*
X156488203Y-95042214D01*
X156532328Y-95065800D01*
X156580207Y-95080324D01*
X156630000Y-95085228D01*
X158330000Y-95085228D01*
X158379793Y-95080324D01*
X158427672Y-95065800D01*
X158471797Y-95042214D01*
X158510473Y-95010473D01*
X158542214Y-94971797D01*
X158565800Y-94927672D01*
X158580324Y-94879793D01*
X158585228Y-94830000D01*
X158585228Y-93876190D01*
X165316000Y-93876190D01*
X165316000Y-94083810D01*
X165356504Y-94287441D01*
X165435957Y-94479256D01*
X165551305Y-94651886D01*
X165698114Y-94798695D01*
X165870744Y-94914043D01*
X166062559Y-94993496D01*
X166266190Y-95034000D01*
X166473810Y-95034000D01*
X166677441Y-94993496D01*
X166869256Y-94914043D01*
X167041886Y-94798695D01*
X167188695Y-94651886D01*
X167304043Y-94479256D01*
X167383496Y-94287441D01*
X167424000Y-94083810D01*
X167424000Y-93876190D01*
X167856000Y-93876190D01*
X167856000Y-94083810D01*
X167896504Y-94287441D01*
X167975957Y-94479256D01*
X168091305Y-94651886D01*
X168238114Y-94798695D01*
X168410744Y-94914043D01*
X168602559Y-94993496D01*
X168806190Y-95034000D01*
X169013810Y-95034000D01*
X169217441Y-94993496D01*
X169409256Y-94914043D01*
X169581886Y-94798695D01*
X169728695Y-94651886D01*
X169844043Y-94479256D01*
X169923496Y-94287441D01*
X169964000Y-94083810D01*
X169964000Y-93876190D01*
X170396000Y-93876190D01*
X170396000Y-94083810D01*
X170436504Y-94287441D01*
X170515957Y-94479256D01*
X170631305Y-94651886D01*
X170778114Y-94798695D01*
X170950744Y-94914043D01*
X171142559Y-94993496D01*
X171346190Y-95034000D01*
X171553810Y-95034000D01*
X171757441Y-94993496D01*
X171949256Y-94914043D01*
X172121886Y-94798695D01*
X172268695Y-94651886D01*
X172384043Y-94479256D01*
X172463496Y-94287441D01*
X172504000Y-94083810D01*
X172504000Y-93876190D01*
X172936000Y-93876190D01*
X172936000Y-94083810D01*
X172976504Y-94287441D01*
X173055957Y-94479256D01*
X173171305Y-94651886D01*
X173318114Y-94798695D01*
X173490744Y-94914043D01*
X173682559Y-94993496D01*
X173886190Y-95034000D01*
X174093810Y-95034000D01*
X174297441Y-94993496D01*
X174489256Y-94914043D01*
X174661886Y-94798695D01*
X174808695Y-94651886D01*
X174924043Y-94479256D01*
X175003496Y-94287441D01*
X175044000Y-94083810D01*
X175044000Y-93876190D01*
X175476000Y-93876190D01*
X175476000Y-94083810D01*
X175516504Y-94287441D01*
X175595957Y-94479256D01*
X175711305Y-94651886D01*
X175858114Y-94798695D01*
X176030744Y-94914043D01*
X176222559Y-94993496D01*
X176426190Y-95034000D01*
X176633810Y-95034000D01*
X176837441Y-94993496D01*
X177029256Y-94914043D01*
X177201886Y-94798695D01*
X177348695Y-94651886D01*
X177464043Y-94479256D01*
X177543496Y-94287441D01*
X177584000Y-94083810D01*
X177584000Y-93876190D01*
X178016000Y-93876190D01*
X178016000Y-94083810D01*
X178056504Y-94287441D01*
X178135957Y-94479256D01*
X178251305Y-94651886D01*
X178398114Y-94798695D01*
X178570744Y-94914043D01*
X178762559Y-94993496D01*
X178966190Y-95034000D01*
X179173810Y-95034000D01*
X179377441Y-94993496D01*
X179569256Y-94914043D01*
X179741886Y-94798695D01*
X179888695Y-94651886D01*
X180004043Y-94479256D01*
X180083496Y-94287441D01*
X180124000Y-94083810D01*
X180124000Y-93876190D01*
X180556000Y-93876190D01*
X180556000Y-94083810D01*
X180596504Y-94287441D01*
X180675957Y-94479256D01*
X180791305Y-94651886D01*
X180938114Y-94798695D01*
X181110744Y-94914043D01*
X181302559Y-94993496D01*
X181506190Y-95034000D01*
X181713810Y-95034000D01*
X181917441Y-94993496D01*
X182109256Y-94914043D01*
X182281886Y-94798695D01*
X182428695Y-94651886D01*
X182544043Y-94479256D01*
X182623496Y-94287441D01*
X182664000Y-94083810D01*
X182664000Y-93876190D01*
X182623496Y-93672559D01*
X182544043Y-93480744D01*
X182428695Y-93308114D01*
X182281886Y-93161305D01*
X182109256Y-93045957D01*
X181917441Y-92966504D01*
X181713810Y-92926000D01*
X181506190Y-92926000D01*
X181302559Y-92966504D01*
X181110744Y-93045957D01*
X180938114Y-93161305D01*
X180791305Y-93308114D01*
X180675957Y-93480744D01*
X180596504Y-93672559D01*
X180556000Y-93876190D01*
X180124000Y-93876190D01*
X180083496Y-93672559D01*
X180004043Y-93480744D01*
X179888695Y-93308114D01*
X179741886Y-93161305D01*
X179569256Y-93045957D01*
X179377441Y-92966504D01*
X179173810Y-92926000D01*
X178966190Y-92926000D01*
X178762559Y-92966504D01*
X178570744Y-93045957D01*
X178398114Y-93161305D01*
X178251305Y-93308114D01*
X178135957Y-93480744D01*
X178056504Y-93672559D01*
X178016000Y-93876190D01*
X177584000Y-93876190D01*
X177543496Y-93672559D01*
X177464043Y-93480744D01*
X177348695Y-93308114D01*
X177201886Y-93161305D01*
X177029256Y-93045957D01*
X176837441Y-92966504D01*
X176633810Y-92926000D01*
X176426190Y-92926000D01*
X176222559Y-92966504D01*
X176030744Y-93045957D01*
X175858114Y-93161305D01*
X175711305Y-93308114D01*
X175595957Y-93480744D01*
X175516504Y-93672559D01*
X175476000Y-93876190D01*
X175044000Y-93876190D01*
X175003496Y-93672559D01*
X174924043Y-93480744D01*
X174808695Y-93308114D01*
X174661886Y-93161305D01*
X174489256Y-93045957D01*
X174297441Y-92966504D01*
X174093810Y-92926000D01*
X173886190Y-92926000D01*
X173682559Y-92966504D01*
X173490744Y-93045957D01*
X173318114Y-93161305D01*
X173171305Y-93308114D01*
X173055957Y-93480744D01*
X172976504Y-93672559D01*
X172936000Y-93876190D01*
X172504000Y-93876190D01*
X172463496Y-93672559D01*
X172384043Y-93480744D01*
X172268695Y-93308114D01*
X172121886Y-93161305D01*
X171949256Y-93045957D01*
X171757441Y-92966504D01*
X171553810Y-92926000D01*
X171346190Y-92926000D01*
X171142559Y-92966504D01*
X170950744Y-93045957D01*
X170778114Y-93161305D01*
X170631305Y-93308114D01*
X170515957Y-93480744D01*
X170436504Y-93672559D01*
X170396000Y-93876190D01*
X169964000Y-93876190D01*
X169923496Y-93672559D01*
X169844043Y-93480744D01*
X169728695Y-93308114D01*
X169581886Y-93161305D01*
X169409256Y-93045957D01*
X169217441Y-92966504D01*
X169013810Y-92926000D01*
X168806190Y-92926000D01*
X168602559Y-92966504D01*
X168410744Y-93045957D01*
X168238114Y-93161305D01*
X168091305Y-93308114D01*
X167975957Y-93480744D01*
X167896504Y-93672559D01*
X167856000Y-93876190D01*
X167424000Y-93876190D01*
X167383496Y-93672559D01*
X167304043Y-93480744D01*
X167188695Y-93308114D01*
X167041886Y-93161305D01*
X166869256Y-93045957D01*
X166677441Y-92966504D01*
X166473810Y-92926000D01*
X166266190Y-92926000D01*
X166062559Y-92966504D01*
X165870744Y-93045957D01*
X165698114Y-93161305D01*
X165551305Y-93308114D01*
X165435957Y-93480744D01*
X165356504Y-93672559D01*
X165316000Y-93876190D01*
X158585228Y-93876190D01*
X158585228Y-93130000D01*
X158580324Y-93080207D01*
X158565800Y-93032328D01*
X158542214Y-92988203D01*
X158510473Y-92949527D01*
X158471797Y-92917786D01*
X158427672Y-92894200D01*
X158379793Y-92879676D01*
X158330000Y-92874772D01*
X156630000Y-92874772D01*
X156580207Y-92879676D01*
X156532328Y-92894200D01*
X156488203Y-92917786D01*
X156449527Y-92949527D01*
X156417786Y-92988203D01*
X156394200Y-93032328D01*
X156379676Y-93080207D01*
X156374772Y-93130000D01*
X155651292Y-93130000D01*
X155643759Y-93122467D01*
X155462940Y-93001648D01*
X155262025Y-92918426D01*
X155048735Y-92876000D01*
X154831265Y-92876000D01*
X154617975Y-92918426D01*
X154417060Y-93001648D01*
X154236241Y-93122467D01*
X154082467Y-93276241D01*
X153961648Y-93457060D01*
X153878426Y-93657975D01*
X153836000Y-93871265D01*
X144449000Y-93871265D01*
X144449000Y-93546429D01*
X151247870Y-93546429D01*
X151289479Y-93732000D01*
X152152000Y-93732000D01*
X152152000Y-92871657D01*
X152648000Y-92871657D01*
X152648000Y-93732000D01*
X153510521Y-93732000D01*
X153552130Y-93546429D01*
X153445407Y-93329991D01*
X153298509Y-93138532D01*
X153117082Y-92979410D01*
X152908098Y-92858740D01*
X152833569Y-92827881D01*
X152648000Y-92871657D01*
X152152000Y-92871657D01*
X151966431Y-92827881D01*
X151891902Y-92858740D01*
X151682918Y-92979410D01*
X151501491Y-93138532D01*
X151354593Y-93329991D01*
X151247870Y-93546429D01*
X144449000Y-93546429D01*
X144449000Y-91873571D01*
X151247870Y-91873571D01*
X151354593Y-92090009D01*
X151501491Y-92281468D01*
X151682918Y-92440590D01*
X151891902Y-92561260D01*
X151966431Y-92592119D01*
X152152000Y-92548343D01*
X152152000Y-91688000D01*
X152648000Y-91688000D01*
X152648000Y-92548343D01*
X152833569Y-92592119D01*
X152908098Y-92561260D01*
X153117082Y-92440590D01*
X153298509Y-92281468D01*
X153445407Y-92090009D01*
X153552130Y-91873571D01*
X153510521Y-91688000D01*
X152648000Y-91688000D01*
X152152000Y-91688000D01*
X151289479Y-91688000D01*
X151247870Y-91873571D01*
X144449000Y-91873571D01*
X144449000Y-91331265D01*
X153836000Y-91331265D01*
X153836000Y-91548735D01*
X153878426Y-91762025D01*
X153961648Y-91962940D01*
X154082467Y-92143759D01*
X154236241Y-92297533D01*
X154417060Y-92418352D01*
X154617975Y-92501574D01*
X154831265Y-92544000D01*
X155048735Y-92544000D01*
X155262025Y-92501574D01*
X155462940Y-92418352D01*
X155643759Y-92297533D01*
X155797533Y-92143759D01*
X155918352Y-91962940D01*
X156001574Y-91762025D01*
X156044000Y-91548735D01*
X156044000Y-91331265D01*
X156001574Y-91117975D01*
X155918352Y-90917060D01*
X155797533Y-90736241D01*
X155651292Y-90590000D01*
X156374772Y-90590000D01*
X156374772Y-92290000D01*
X156379676Y-92339793D01*
X156394200Y-92387672D01*
X156417786Y-92431797D01*
X156449527Y-92470473D01*
X156488203Y-92502214D01*
X156532328Y-92525800D01*
X156580207Y-92540324D01*
X156630000Y-92545228D01*
X158330000Y-92545228D01*
X158379793Y-92540324D01*
X158427672Y-92525800D01*
X158471797Y-92502214D01*
X158510473Y-92470473D01*
X158542214Y-92431797D01*
X158565800Y-92387672D01*
X158580324Y-92339793D01*
X158585228Y-92290000D01*
X158585228Y-91336190D01*
X165316000Y-91336190D01*
X165316000Y-91543810D01*
X165356504Y-91747441D01*
X165435957Y-91939256D01*
X165551305Y-92111886D01*
X165698114Y-92258695D01*
X165870744Y-92374043D01*
X166062559Y-92453496D01*
X166266190Y-92494000D01*
X166473810Y-92494000D01*
X166677441Y-92453496D01*
X166869256Y-92374043D01*
X167041886Y-92258695D01*
X167188695Y-92111886D01*
X167304043Y-91939256D01*
X167383496Y-91747441D01*
X167424000Y-91543810D01*
X167424000Y-91336190D01*
X180556000Y-91336190D01*
X180556000Y-91543810D01*
X180596504Y-91747441D01*
X180675957Y-91939256D01*
X180791305Y-92111886D01*
X180938114Y-92258695D01*
X181110744Y-92374043D01*
X181302559Y-92453496D01*
X181506190Y-92494000D01*
X181713810Y-92494000D01*
X181917441Y-92453496D01*
X182109256Y-92374043D01*
X182281886Y-92258695D01*
X182428695Y-92111886D01*
X182544043Y-91939256D01*
X182623496Y-91747441D01*
X182664000Y-91543810D01*
X182664000Y-91336190D01*
X182623496Y-91132559D01*
X182544043Y-90940744D01*
X182428695Y-90768114D01*
X182281886Y-90621305D01*
X182109256Y-90505957D01*
X181917441Y-90426504D01*
X181713810Y-90386000D01*
X181506190Y-90386000D01*
X181302559Y-90426504D01*
X181110744Y-90505957D01*
X180938114Y-90621305D01*
X180791305Y-90768114D01*
X180675957Y-90940744D01*
X180596504Y-91132559D01*
X180556000Y-91336190D01*
X167424000Y-91336190D01*
X167383496Y-91132559D01*
X167304043Y-90940744D01*
X167188695Y-90768114D01*
X167041886Y-90621305D01*
X166869256Y-90505957D01*
X166677441Y-90426504D01*
X166473810Y-90386000D01*
X166266190Y-90386000D01*
X166062559Y-90426504D01*
X165870744Y-90505957D01*
X165698114Y-90621305D01*
X165551305Y-90768114D01*
X165435957Y-90940744D01*
X165356504Y-91132559D01*
X165316000Y-91336190D01*
X158585228Y-91336190D01*
X158585228Y-90590000D01*
X158580324Y-90540207D01*
X158565800Y-90492328D01*
X158542214Y-90448203D01*
X158510473Y-90409527D01*
X158471797Y-90377786D01*
X158427672Y-90354200D01*
X158379793Y-90339676D01*
X158330000Y-90334772D01*
X156630000Y-90334772D01*
X156580207Y-90339676D01*
X156532328Y-90354200D01*
X156488203Y-90377786D01*
X156449527Y-90409527D01*
X156417786Y-90448203D01*
X156394200Y-90492328D01*
X156379676Y-90540207D01*
X156374772Y-90590000D01*
X155651292Y-90590000D01*
X155643759Y-90582467D01*
X155462940Y-90461648D01*
X155262025Y-90378426D01*
X155048735Y-90336000D01*
X154831265Y-90336000D01*
X154617975Y-90378426D01*
X154417060Y-90461648D01*
X154236241Y-90582467D01*
X154082467Y-90736241D01*
X153961648Y-90917060D01*
X153878426Y-91117975D01*
X153836000Y-91331265D01*
X144449000Y-91331265D01*
X144449000Y-91006429D01*
X151247870Y-91006429D01*
X151289479Y-91192000D01*
X152152000Y-91192000D01*
X152152000Y-90331657D01*
X152648000Y-90331657D01*
X152648000Y-91192000D01*
X153510521Y-91192000D01*
X153552130Y-91006429D01*
X153445407Y-90789991D01*
X153298509Y-90598532D01*
X153117082Y-90439410D01*
X152908098Y-90318740D01*
X152833569Y-90287881D01*
X152648000Y-90331657D01*
X152152000Y-90331657D01*
X151966431Y-90287881D01*
X151891902Y-90318740D01*
X151682918Y-90439410D01*
X151501491Y-90598532D01*
X151354593Y-90789991D01*
X151247870Y-91006429D01*
X144449000Y-91006429D01*
X144449000Y-89333571D01*
X151247870Y-89333571D01*
X151354593Y-89550009D01*
X151501491Y-89741468D01*
X151682918Y-89900590D01*
X151891902Y-90021260D01*
X151966431Y-90052119D01*
X152152000Y-90008343D01*
X152152000Y-89148000D01*
X152648000Y-89148000D01*
X152648000Y-90008343D01*
X152833569Y-90052119D01*
X152908098Y-90021260D01*
X153117082Y-89900590D01*
X153298509Y-89741468D01*
X153445407Y-89550009D01*
X153552130Y-89333571D01*
X153510521Y-89148000D01*
X152648000Y-89148000D01*
X152152000Y-89148000D01*
X151289479Y-89148000D01*
X151247870Y-89333571D01*
X144449000Y-89333571D01*
X144449000Y-88791265D01*
X153836000Y-88791265D01*
X153836000Y-89008735D01*
X153878426Y-89222025D01*
X153961648Y-89422940D01*
X154082467Y-89603759D01*
X154236241Y-89757533D01*
X154417060Y-89878352D01*
X154617975Y-89961574D01*
X154831265Y-90004000D01*
X155048735Y-90004000D01*
X155262025Y-89961574D01*
X155462940Y-89878352D01*
X155643759Y-89757533D01*
X155797533Y-89603759D01*
X155918352Y-89422940D01*
X156001574Y-89222025D01*
X156044000Y-89008735D01*
X156044000Y-88791265D01*
X156001574Y-88577975D01*
X155918352Y-88377060D01*
X155797533Y-88196241D01*
X155651292Y-88050000D01*
X156374772Y-88050000D01*
X156374772Y-89750000D01*
X156379676Y-89799793D01*
X156394200Y-89847672D01*
X156417786Y-89891797D01*
X156449527Y-89930473D01*
X156488203Y-89962214D01*
X156532328Y-89985800D01*
X156580207Y-90000324D01*
X156630000Y-90005228D01*
X158330000Y-90005228D01*
X158379793Y-90000324D01*
X158427672Y-89985800D01*
X158471797Y-89962214D01*
X158510473Y-89930473D01*
X158542214Y-89891797D01*
X158565800Y-89847672D01*
X158580324Y-89799793D01*
X158585228Y-89750000D01*
X158585228Y-88796190D01*
X165316000Y-88796190D01*
X165316000Y-89003810D01*
X165356504Y-89207441D01*
X165435957Y-89399256D01*
X165551305Y-89571886D01*
X165698114Y-89718695D01*
X165870744Y-89834043D01*
X166062559Y-89913496D01*
X166266190Y-89954000D01*
X166473810Y-89954000D01*
X166677441Y-89913496D01*
X166869256Y-89834043D01*
X167041886Y-89718695D01*
X167188695Y-89571886D01*
X167304043Y-89399256D01*
X167383496Y-89207441D01*
X167424000Y-89003810D01*
X167424000Y-88796190D01*
X180556000Y-88796190D01*
X180556000Y-89003810D01*
X180596504Y-89207441D01*
X180675957Y-89399256D01*
X180791305Y-89571886D01*
X180938114Y-89718695D01*
X181110744Y-89834043D01*
X181302559Y-89913496D01*
X181506190Y-89954000D01*
X181713810Y-89954000D01*
X181917441Y-89913496D01*
X182109256Y-89834043D01*
X182281886Y-89718695D01*
X182428695Y-89571886D01*
X182544043Y-89399256D01*
X182623496Y-89207441D01*
X182664000Y-89003810D01*
X182664000Y-88796190D01*
X182623496Y-88592559D01*
X182544043Y-88400744D01*
X182428695Y-88228114D01*
X182281886Y-88081305D01*
X182109256Y-87965957D01*
X181917441Y-87886504D01*
X181713810Y-87846000D01*
X181506190Y-87846000D01*
X181302559Y-87886504D01*
X181110744Y-87965957D01*
X180938114Y-88081305D01*
X180791305Y-88228114D01*
X180675957Y-88400744D01*
X180596504Y-88592559D01*
X180556000Y-88796190D01*
X167424000Y-88796190D01*
X167383496Y-88592559D01*
X167304043Y-88400744D01*
X167188695Y-88228114D01*
X167041886Y-88081305D01*
X166869256Y-87965957D01*
X166677441Y-87886504D01*
X166473810Y-87846000D01*
X166266190Y-87846000D01*
X166062559Y-87886504D01*
X165870744Y-87965957D01*
X165698114Y-88081305D01*
X165551305Y-88228114D01*
X165435957Y-88400744D01*
X165356504Y-88592559D01*
X165316000Y-88796190D01*
X158585228Y-88796190D01*
X158585228Y-88050000D01*
X158580324Y-88000207D01*
X158565800Y-87952328D01*
X158542214Y-87908203D01*
X158510473Y-87869527D01*
X158471797Y-87837786D01*
X158427672Y-87814200D01*
X158379793Y-87799676D01*
X158330000Y-87794772D01*
X156630000Y-87794772D01*
X156580207Y-87799676D01*
X156532328Y-87814200D01*
X156488203Y-87837786D01*
X156449527Y-87869527D01*
X156417786Y-87908203D01*
X156394200Y-87952328D01*
X156379676Y-88000207D01*
X156374772Y-88050000D01*
X155651292Y-88050000D01*
X155643759Y-88042467D01*
X155462940Y-87921648D01*
X155262025Y-87838426D01*
X155048735Y-87796000D01*
X154831265Y-87796000D01*
X154617975Y-87838426D01*
X154417060Y-87921648D01*
X154236241Y-88042467D01*
X154082467Y-88196241D01*
X153961648Y-88377060D01*
X153878426Y-88577975D01*
X153836000Y-88791265D01*
X144449000Y-88791265D01*
X144449000Y-88466429D01*
X151247870Y-88466429D01*
X151289479Y-88652000D01*
X152152000Y-88652000D01*
X152152000Y-87791657D01*
X152648000Y-87791657D01*
X152648000Y-88652000D01*
X153510521Y-88652000D01*
X153552130Y-88466429D01*
X153445407Y-88249991D01*
X153298509Y-88058532D01*
X153117082Y-87899410D01*
X152908098Y-87778740D01*
X152833569Y-87747881D01*
X152648000Y-87791657D01*
X152152000Y-87791657D01*
X151966431Y-87747881D01*
X151891902Y-87778740D01*
X151682918Y-87899410D01*
X151501491Y-88058532D01*
X151354593Y-88249991D01*
X151247870Y-88466429D01*
X144449000Y-88466429D01*
X144449000Y-86256190D01*
X165316000Y-86256190D01*
X165316000Y-86463810D01*
X165356504Y-86667441D01*
X165435957Y-86859256D01*
X165551305Y-87031886D01*
X165698114Y-87178695D01*
X165870744Y-87294043D01*
X166062559Y-87373496D01*
X166266190Y-87414000D01*
X166473810Y-87414000D01*
X166677441Y-87373496D01*
X166869256Y-87294043D01*
X167041886Y-87178695D01*
X167188695Y-87031886D01*
X167304043Y-86859256D01*
X167383496Y-86667441D01*
X167424000Y-86463810D01*
X167424000Y-86256190D01*
X180556000Y-86256190D01*
X180556000Y-86463810D01*
X180596504Y-86667441D01*
X180675957Y-86859256D01*
X180791305Y-87031886D01*
X180938114Y-87178695D01*
X181110744Y-87294043D01*
X181302559Y-87373496D01*
X181506190Y-87414000D01*
X181713810Y-87414000D01*
X181917441Y-87373496D01*
X182109256Y-87294043D01*
X182281886Y-87178695D01*
X182428695Y-87031886D01*
X182544043Y-86859256D01*
X182623496Y-86667441D01*
X182664000Y-86463810D01*
X182664000Y-86256190D01*
X182623496Y-86052559D01*
X182544043Y-85860744D01*
X182428695Y-85688114D01*
X182281886Y-85541305D01*
X182109256Y-85425957D01*
X181917441Y-85346504D01*
X181713810Y-85306000D01*
X181506190Y-85306000D01*
X181302559Y-85346504D01*
X181110744Y-85425957D01*
X180938114Y-85541305D01*
X180791305Y-85688114D01*
X180675957Y-85860744D01*
X180596504Y-86052559D01*
X180556000Y-86256190D01*
X167424000Y-86256190D01*
X167383496Y-86052559D01*
X167304043Y-85860744D01*
X167188695Y-85688114D01*
X167041886Y-85541305D01*
X166869256Y-85425957D01*
X166677441Y-85346504D01*
X166473810Y-85306000D01*
X166266190Y-85306000D01*
X166062559Y-85346504D01*
X165870744Y-85425957D01*
X165698114Y-85541305D01*
X165551305Y-85688114D01*
X165435957Y-85860744D01*
X165356504Y-86052559D01*
X165316000Y-86256190D01*
X144449000Y-86256190D01*
X144449000Y-84253571D01*
X151247870Y-84253571D01*
X151354593Y-84470009D01*
X151501491Y-84661468D01*
X151682918Y-84820590D01*
X151891902Y-84941260D01*
X151966431Y-84972119D01*
X152152000Y-84928343D01*
X152152000Y-84068000D01*
X152648000Y-84068000D01*
X152648000Y-84928343D01*
X152833569Y-84972119D01*
X152908098Y-84941260D01*
X153117082Y-84820590D01*
X153298509Y-84661468D01*
X153445407Y-84470009D01*
X153552130Y-84253571D01*
X153510521Y-84068000D01*
X152648000Y-84068000D01*
X152152000Y-84068000D01*
X151289479Y-84068000D01*
X151247870Y-84253571D01*
X144449000Y-84253571D01*
X144449000Y-83711265D01*
X153836000Y-83711265D01*
X153836000Y-83928735D01*
X153878426Y-84142025D01*
X153961648Y-84342940D01*
X154082467Y-84523759D01*
X154236241Y-84677533D01*
X154417060Y-84798352D01*
X154617975Y-84881574D01*
X154831265Y-84924000D01*
X155048735Y-84924000D01*
X155262025Y-84881574D01*
X155462940Y-84798352D01*
X155643759Y-84677533D01*
X155797533Y-84523759D01*
X155918352Y-84342940D01*
X156001574Y-84142025D01*
X156044000Y-83928735D01*
X156044000Y-83711265D01*
X156001574Y-83497975D01*
X155918352Y-83297060D01*
X155797533Y-83116241D01*
X155651292Y-82970000D01*
X156374772Y-82970000D01*
X156374772Y-84670000D01*
X156379676Y-84719793D01*
X156394200Y-84767672D01*
X156417786Y-84811797D01*
X156449527Y-84850473D01*
X156488203Y-84882214D01*
X156532328Y-84905800D01*
X156580207Y-84920324D01*
X156630000Y-84925228D01*
X158330000Y-84925228D01*
X158379793Y-84920324D01*
X158427672Y-84905800D01*
X158471797Y-84882214D01*
X158510473Y-84850473D01*
X158542214Y-84811797D01*
X158565800Y-84767672D01*
X158580324Y-84719793D01*
X158585228Y-84670000D01*
X158585228Y-83716190D01*
X165316000Y-83716190D01*
X165316000Y-83923810D01*
X165356504Y-84127441D01*
X165435957Y-84319256D01*
X165551305Y-84491886D01*
X165698114Y-84638695D01*
X165870744Y-84754043D01*
X166062559Y-84833496D01*
X166266190Y-84874000D01*
X166473810Y-84874000D01*
X166677441Y-84833496D01*
X166869256Y-84754043D01*
X167041886Y-84638695D01*
X167188695Y-84491886D01*
X167304043Y-84319256D01*
X167383496Y-84127441D01*
X167424000Y-83923810D01*
X167424000Y-83716190D01*
X180556000Y-83716190D01*
X180556000Y-83923810D01*
X180596504Y-84127441D01*
X180675957Y-84319256D01*
X180791305Y-84491886D01*
X180938114Y-84638695D01*
X181110744Y-84754043D01*
X181302559Y-84833496D01*
X181506190Y-84874000D01*
X181713810Y-84874000D01*
X181917441Y-84833496D01*
X182109256Y-84754043D01*
X182281886Y-84638695D01*
X182428695Y-84491886D01*
X182544043Y-84319256D01*
X182623496Y-84127441D01*
X182664000Y-83923810D01*
X182664000Y-83716190D01*
X182623496Y-83512559D01*
X182544043Y-83320744D01*
X182428695Y-83148114D01*
X182281886Y-83001305D01*
X182109256Y-82885957D01*
X181917441Y-82806504D01*
X181713810Y-82766000D01*
X181506190Y-82766000D01*
X181302559Y-82806504D01*
X181110744Y-82885957D01*
X180938114Y-83001305D01*
X180791305Y-83148114D01*
X180675957Y-83320744D01*
X180596504Y-83512559D01*
X180556000Y-83716190D01*
X167424000Y-83716190D01*
X167383496Y-83512559D01*
X167304043Y-83320744D01*
X167188695Y-83148114D01*
X167041886Y-83001305D01*
X166869256Y-82885957D01*
X166677441Y-82806504D01*
X166473810Y-82766000D01*
X166266190Y-82766000D01*
X166062559Y-82806504D01*
X165870744Y-82885957D01*
X165698114Y-83001305D01*
X165551305Y-83148114D01*
X165435957Y-83320744D01*
X165356504Y-83512559D01*
X165316000Y-83716190D01*
X158585228Y-83716190D01*
X158585228Y-82970000D01*
X158580324Y-82920207D01*
X158565800Y-82872328D01*
X158542214Y-82828203D01*
X158510473Y-82789527D01*
X158471797Y-82757786D01*
X158427672Y-82734200D01*
X158379793Y-82719676D01*
X158330000Y-82714772D01*
X156630000Y-82714772D01*
X156580207Y-82719676D01*
X156532328Y-82734200D01*
X156488203Y-82757786D01*
X156449527Y-82789527D01*
X156417786Y-82828203D01*
X156394200Y-82872328D01*
X156379676Y-82920207D01*
X156374772Y-82970000D01*
X155651292Y-82970000D01*
X155643759Y-82962467D01*
X155462940Y-82841648D01*
X155262025Y-82758426D01*
X155048735Y-82716000D01*
X154831265Y-82716000D01*
X154617975Y-82758426D01*
X154417060Y-82841648D01*
X154236241Y-82962467D01*
X154082467Y-83116241D01*
X153961648Y-83297060D01*
X153878426Y-83497975D01*
X153836000Y-83711265D01*
X144449000Y-83711265D01*
X144449000Y-83386429D01*
X151247870Y-83386429D01*
X151289479Y-83572000D01*
X152152000Y-83572000D01*
X152152000Y-82711657D01*
X152648000Y-82711657D01*
X152648000Y-83572000D01*
X153510521Y-83572000D01*
X153552130Y-83386429D01*
X153445407Y-83169991D01*
X153298509Y-82978532D01*
X153117082Y-82819410D01*
X152908098Y-82698740D01*
X152833569Y-82667881D01*
X152648000Y-82711657D01*
X152152000Y-82711657D01*
X151966431Y-82667881D01*
X151891902Y-82698740D01*
X151682918Y-82819410D01*
X151501491Y-82978532D01*
X151354593Y-83169991D01*
X151247870Y-83386429D01*
X144449000Y-83386429D01*
X144449000Y-81713571D01*
X151247870Y-81713571D01*
X151354593Y-81930009D01*
X151501491Y-82121468D01*
X151682918Y-82280590D01*
X151891902Y-82401260D01*
X151966431Y-82432119D01*
X152152000Y-82388343D01*
X152152000Y-81528000D01*
X152648000Y-81528000D01*
X152648000Y-82388343D01*
X152833569Y-82432119D01*
X152908098Y-82401260D01*
X153117082Y-82280590D01*
X153298509Y-82121468D01*
X153445407Y-81930009D01*
X153552130Y-81713571D01*
X153510521Y-81528000D01*
X152648000Y-81528000D01*
X152152000Y-81528000D01*
X151289479Y-81528000D01*
X151247870Y-81713571D01*
X144449000Y-81713571D01*
X144449000Y-81171265D01*
X153836000Y-81171265D01*
X153836000Y-81388735D01*
X153878426Y-81602025D01*
X153961648Y-81802940D01*
X154082467Y-81983759D01*
X154236241Y-82137533D01*
X154417060Y-82258352D01*
X154617975Y-82341574D01*
X154831265Y-82384000D01*
X155048735Y-82384000D01*
X155262025Y-82341574D01*
X155462940Y-82258352D01*
X155643759Y-82137533D01*
X155797533Y-81983759D01*
X155918352Y-81802940D01*
X156001574Y-81602025D01*
X156044000Y-81388735D01*
X156044000Y-81171265D01*
X156001574Y-80957975D01*
X155918352Y-80757060D01*
X155797533Y-80576241D01*
X155651292Y-80430000D01*
X156374772Y-80430000D01*
X156374772Y-82130000D01*
X156379676Y-82179793D01*
X156394200Y-82227672D01*
X156417786Y-82271797D01*
X156449527Y-82310473D01*
X156488203Y-82342214D01*
X156532328Y-82365800D01*
X156580207Y-82380324D01*
X156630000Y-82385228D01*
X158330000Y-82385228D01*
X158379793Y-82380324D01*
X158427672Y-82365800D01*
X158471797Y-82342214D01*
X158510473Y-82310473D01*
X158542214Y-82271797D01*
X158565800Y-82227672D01*
X158580324Y-82179793D01*
X158585228Y-82130000D01*
X158585228Y-81176190D01*
X165316000Y-81176190D01*
X165316000Y-81383810D01*
X165356504Y-81587441D01*
X165435957Y-81779256D01*
X165551305Y-81951886D01*
X165698114Y-82098695D01*
X165870744Y-82214043D01*
X166062559Y-82293496D01*
X166266190Y-82334000D01*
X166473810Y-82334000D01*
X166677441Y-82293496D01*
X166869256Y-82214043D01*
X167041886Y-82098695D01*
X167188695Y-81951886D01*
X167304043Y-81779256D01*
X167383496Y-81587441D01*
X167424000Y-81383810D01*
X167424000Y-81176190D01*
X180556000Y-81176190D01*
X180556000Y-81383810D01*
X180596504Y-81587441D01*
X180675957Y-81779256D01*
X180791305Y-81951886D01*
X180938114Y-82098695D01*
X181110744Y-82214043D01*
X181302559Y-82293496D01*
X181506190Y-82334000D01*
X181713810Y-82334000D01*
X181917441Y-82293496D01*
X182109256Y-82214043D01*
X182281886Y-82098695D01*
X182428695Y-81951886D01*
X182544043Y-81779256D01*
X182623496Y-81587441D01*
X182664000Y-81383810D01*
X182664000Y-81176190D01*
X182623496Y-80972559D01*
X182544043Y-80780744D01*
X182428695Y-80608114D01*
X182281886Y-80461305D01*
X182109256Y-80345957D01*
X181917441Y-80266504D01*
X181713810Y-80226000D01*
X181506190Y-80226000D01*
X181302559Y-80266504D01*
X181110744Y-80345957D01*
X180938114Y-80461305D01*
X180791305Y-80608114D01*
X180675957Y-80780744D01*
X180596504Y-80972559D01*
X180556000Y-81176190D01*
X167424000Y-81176190D01*
X167383496Y-80972559D01*
X167304043Y-80780744D01*
X167188695Y-80608114D01*
X167041886Y-80461305D01*
X166869256Y-80345957D01*
X166677441Y-80266504D01*
X166473810Y-80226000D01*
X166266190Y-80226000D01*
X166062559Y-80266504D01*
X165870744Y-80345957D01*
X165698114Y-80461305D01*
X165551305Y-80608114D01*
X165435957Y-80780744D01*
X165356504Y-80972559D01*
X165316000Y-81176190D01*
X158585228Y-81176190D01*
X158585228Y-80430000D01*
X158580324Y-80380207D01*
X158565800Y-80332328D01*
X158542214Y-80288203D01*
X158510473Y-80249527D01*
X158471797Y-80217786D01*
X158427672Y-80194200D01*
X158379793Y-80179676D01*
X158330000Y-80174772D01*
X156630000Y-80174772D01*
X156580207Y-80179676D01*
X156532328Y-80194200D01*
X156488203Y-80217786D01*
X156449527Y-80249527D01*
X156417786Y-80288203D01*
X156394200Y-80332328D01*
X156379676Y-80380207D01*
X156374772Y-80430000D01*
X155651292Y-80430000D01*
X155643759Y-80422467D01*
X155462940Y-80301648D01*
X155262025Y-80218426D01*
X155048735Y-80176000D01*
X154831265Y-80176000D01*
X154617975Y-80218426D01*
X154417060Y-80301648D01*
X154236241Y-80422467D01*
X154082467Y-80576241D01*
X153961648Y-80757060D01*
X153878426Y-80957975D01*
X153836000Y-81171265D01*
X144449000Y-81171265D01*
X144449000Y-80846429D01*
X151247870Y-80846429D01*
X151289479Y-81032000D01*
X152152000Y-81032000D01*
X152152000Y-80171657D01*
X152648000Y-80171657D01*
X152648000Y-81032000D01*
X153510521Y-81032000D01*
X153552130Y-80846429D01*
X153445407Y-80629991D01*
X153298509Y-80438532D01*
X153117082Y-80279410D01*
X152908098Y-80158740D01*
X152833569Y-80127881D01*
X152648000Y-80171657D01*
X152152000Y-80171657D01*
X151966431Y-80127881D01*
X151891902Y-80158740D01*
X151682918Y-80279410D01*
X151501491Y-80438532D01*
X151354593Y-80629991D01*
X151247870Y-80846429D01*
X144449000Y-80846429D01*
X144449000Y-79173571D01*
X151247870Y-79173571D01*
X151354593Y-79390009D01*
X151501491Y-79581468D01*
X151682918Y-79740590D01*
X151891902Y-79861260D01*
X151966431Y-79892119D01*
X152152000Y-79848343D01*
X152152000Y-78988000D01*
X152648000Y-78988000D01*
X152648000Y-79848343D01*
X152833569Y-79892119D01*
X152908098Y-79861260D01*
X153117082Y-79740590D01*
X153298509Y-79581468D01*
X153445407Y-79390009D01*
X153552130Y-79173571D01*
X153510521Y-78988000D01*
X152648000Y-78988000D01*
X152152000Y-78988000D01*
X151289479Y-78988000D01*
X151247870Y-79173571D01*
X144449000Y-79173571D01*
X144449000Y-78631265D01*
X153836000Y-78631265D01*
X153836000Y-78848735D01*
X153878426Y-79062025D01*
X153961648Y-79262940D01*
X154082467Y-79443759D01*
X154236241Y-79597533D01*
X154417060Y-79718352D01*
X154617975Y-79801574D01*
X154831265Y-79844000D01*
X155048735Y-79844000D01*
X155262025Y-79801574D01*
X155462940Y-79718352D01*
X155643759Y-79597533D01*
X155797533Y-79443759D01*
X155918352Y-79262940D01*
X156001574Y-79062025D01*
X156044000Y-78848735D01*
X156044000Y-78631265D01*
X156001574Y-78417975D01*
X155918352Y-78217060D01*
X155797533Y-78036241D01*
X155651292Y-77890000D01*
X156374772Y-77890000D01*
X156374772Y-79590000D01*
X156379676Y-79639793D01*
X156394200Y-79687672D01*
X156417786Y-79731797D01*
X156449527Y-79770473D01*
X156488203Y-79802214D01*
X156532328Y-79825800D01*
X156580207Y-79840324D01*
X156630000Y-79845228D01*
X158330000Y-79845228D01*
X158379793Y-79840324D01*
X158427672Y-79825800D01*
X158471797Y-79802214D01*
X158510473Y-79770473D01*
X158542214Y-79731797D01*
X158565800Y-79687672D01*
X158580324Y-79639793D01*
X158585228Y-79590000D01*
X158585228Y-78636190D01*
X165316000Y-78636190D01*
X165316000Y-78843810D01*
X165356504Y-79047441D01*
X165435957Y-79239256D01*
X165551305Y-79411886D01*
X165698114Y-79558695D01*
X165870744Y-79674043D01*
X166062559Y-79753496D01*
X166266190Y-79794000D01*
X166473810Y-79794000D01*
X166677441Y-79753496D01*
X166869256Y-79674043D01*
X167041886Y-79558695D01*
X167188695Y-79411886D01*
X167304043Y-79239256D01*
X167383496Y-79047441D01*
X167424000Y-78843810D01*
X167424000Y-78636190D01*
X180556000Y-78636190D01*
X180556000Y-78843810D01*
X180596504Y-79047441D01*
X180675957Y-79239256D01*
X180791305Y-79411886D01*
X180938114Y-79558695D01*
X181110744Y-79674043D01*
X181302559Y-79753496D01*
X181506190Y-79794000D01*
X181713810Y-79794000D01*
X181917441Y-79753496D01*
X182109256Y-79674043D01*
X182281886Y-79558695D01*
X182428695Y-79411886D01*
X182544043Y-79239256D01*
X182623496Y-79047441D01*
X182664000Y-78843810D01*
X182664000Y-78636190D01*
X182623496Y-78432559D01*
X182544043Y-78240744D01*
X182428695Y-78068114D01*
X182281886Y-77921305D01*
X182109256Y-77805957D01*
X181917441Y-77726504D01*
X181713810Y-77686000D01*
X181506190Y-77686000D01*
X181302559Y-77726504D01*
X181110744Y-77805957D01*
X180938114Y-77921305D01*
X180791305Y-78068114D01*
X180675957Y-78240744D01*
X180596504Y-78432559D01*
X180556000Y-78636190D01*
X167424000Y-78636190D01*
X167383496Y-78432559D01*
X167304043Y-78240744D01*
X167188695Y-78068114D01*
X167041886Y-77921305D01*
X166869256Y-77805957D01*
X166677441Y-77726504D01*
X166473810Y-77686000D01*
X166266190Y-77686000D01*
X166062559Y-77726504D01*
X165870744Y-77805957D01*
X165698114Y-77921305D01*
X165551305Y-78068114D01*
X165435957Y-78240744D01*
X165356504Y-78432559D01*
X165316000Y-78636190D01*
X158585228Y-78636190D01*
X158585228Y-77890000D01*
X158580324Y-77840207D01*
X158565800Y-77792328D01*
X158542214Y-77748203D01*
X158510473Y-77709527D01*
X158471797Y-77677786D01*
X158427672Y-77654200D01*
X158379793Y-77639676D01*
X158330000Y-77634772D01*
X156630000Y-77634772D01*
X156580207Y-77639676D01*
X156532328Y-77654200D01*
X156488203Y-77677786D01*
X156449527Y-77709527D01*
X156417786Y-77748203D01*
X156394200Y-77792328D01*
X156379676Y-77840207D01*
X156374772Y-77890000D01*
X155651292Y-77890000D01*
X155643759Y-77882467D01*
X155462940Y-77761648D01*
X155262025Y-77678426D01*
X155048735Y-77636000D01*
X154831265Y-77636000D01*
X154617975Y-77678426D01*
X154417060Y-77761648D01*
X154236241Y-77882467D01*
X154082467Y-78036241D01*
X153961648Y-78217060D01*
X153878426Y-78417975D01*
X153836000Y-78631265D01*
X144449000Y-78631265D01*
X144449000Y-78306429D01*
X151247870Y-78306429D01*
X151289479Y-78492000D01*
X152152000Y-78492000D01*
X152152000Y-77631657D01*
X152648000Y-77631657D01*
X152648000Y-78492000D01*
X153510521Y-78492000D01*
X153552130Y-78306429D01*
X153445407Y-78089991D01*
X153298509Y-77898532D01*
X153117082Y-77739410D01*
X152908098Y-77618740D01*
X152833569Y-77587881D01*
X152648000Y-77631657D01*
X152152000Y-77631657D01*
X151966431Y-77587881D01*
X151891902Y-77618740D01*
X151682918Y-77739410D01*
X151501491Y-77898532D01*
X151354593Y-78089991D01*
X151247870Y-78306429D01*
X144449000Y-78306429D01*
X144449000Y-76096190D01*
X165316000Y-76096190D01*
X165316000Y-76303810D01*
X165356504Y-76507441D01*
X165435957Y-76699256D01*
X165551305Y-76871886D01*
X165698114Y-77018695D01*
X165870744Y-77134043D01*
X166062559Y-77213496D01*
X166266190Y-77254000D01*
X166473810Y-77254000D01*
X166677441Y-77213496D01*
X166869256Y-77134043D01*
X167041886Y-77018695D01*
X167188695Y-76871886D01*
X167304043Y-76699256D01*
X167383496Y-76507441D01*
X167424000Y-76303810D01*
X167424000Y-76096190D01*
X180556000Y-76096190D01*
X180556000Y-76303810D01*
X180596504Y-76507441D01*
X180675957Y-76699256D01*
X180791305Y-76871886D01*
X180938114Y-77018695D01*
X181110744Y-77134043D01*
X181302559Y-77213496D01*
X181506190Y-77254000D01*
X181713810Y-77254000D01*
X181917441Y-77213496D01*
X182109256Y-77134043D01*
X182281886Y-77018695D01*
X182428695Y-76871886D01*
X182544043Y-76699256D01*
X182623496Y-76507441D01*
X182664000Y-76303810D01*
X182664000Y-76096190D01*
X182623496Y-75892559D01*
X182544043Y-75700744D01*
X182428695Y-75528114D01*
X182281886Y-75381305D01*
X182109256Y-75265957D01*
X181917441Y-75186504D01*
X181713810Y-75146000D01*
X181506190Y-75146000D01*
X181302559Y-75186504D01*
X181110744Y-75265957D01*
X180938114Y-75381305D01*
X180791305Y-75528114D01*
X180675957Y-75700744D01*
X180596504Y-75892559D01*
X180556000Y-76096190D01*
X167424000Y-76096190D01*
X167383496Y-75892559D01*
X167304043Y-75700744D01*
X167188695Y-75528114D01*
X167041886Y-75381305D01*
X166869256Y-75265957D01*
X166677441Y-75186504D01*
X166473810Y-75146000D01*
X166266190Y-75146000D01*
X166062559Y-75186504D01*
X165870744Y-75265957D01*
X165698114Y-75381305D01*
X165551305Y-75528114D01*
X165435957Y-75700744D01*
X165356504Y-75892559D01*
X165316000Y-76096190D01*
X144449000Y-76096190D01*
X144449000Y-74093571D01*
X151247870Y-74093571D01*
X151354593Y-74310009D01*
X151501491Y-74501468D01*
X151682918Y-74660590D01*
X151891902Y-74781260D01*
X151966431Y-74812119D01*
X152152000Y-74768343D01*
X152152000Y-73908000D01*
X152648000Y-73908000D01*
X152648000Y-74768343D01*
X152833569Y-74812119D01*
X152908098Y-74781260D01*
X153117082Y-74660590D01*
X153298509Y-74501468D01*
X153445407Y-74310009D01*
X153552130Y-74093571D01*
X153510521Y-73908000D01*
X152648000Y-73908000D01*
X152152000Y-73908000D01*
X151289479Y-73908000D01*
X151247870Y-74093571D01*
X144449000Y-74093571D01*
X144449000Y-73551265D01*
X153836000Y-73551265D01*
X153836000Y-73768735D01*
X153878426Y-73982025D01*
X153961648Y-74182940D01*
X154082467Y-74363759D01*
X154236241Y-74517533D01*
X154417060Y-74638352D01*
X154617975Y-74721574D01*
X154831265Y-74764000D01*
X155048735Y-74764000D01*
X155262025Y-74721574D01*
X155462940Y-74638352D01*
X155643759Y-74517533D01*
X155797533Y-74363759D01*
X155918352Y-74182940D01*
X156001574Y-73982025D01*
X156044000Y-73768735D01*
X156044000Y-73551265D01*
X156001574Y-73337975D01*
X155918352Y-73137060D01*
X155797533Y-72956241D01*
X155651292Y-72810000D01*
X156374772Y-72810000D01*
X156374772Y-74510000D01*
X156379676Y-74559793D01*
X156394200Y-74607672D01*
X156417786Y-74651797D01*
X156449527Y-74690473D01*
X156488203Y-74722214D01*
X156532328Y-74745800D01*
X156580207Y-74760324D01*
X156630000Y-74765228D01*
X158330000Y-74765228D01*
X158379793Y-74760324D01*
X158427672Y-74745800D01*
X158471797Y-74722214D01*
X158510473Y-74690473D01*
X158542214Y-74651797D01*
X158565800Y-74607672D01*
X158580324Y-74559793D01*
X158585228Y-74510000D01*
X158585228Y-73556190D01*
X165316000Y-73556190D01*
X165316000Y-73763810D01*
X165356504Y-73967441D01*
X165435957Y-74159256D01*
X165551305Y-74331886D01*
X165698114Y-74478695D01*
X165870744Y-74594043D01*
X166062559Y-74673496D01*
X166266190Y-74714000D01*
X166473810Y-74714000D01*
X166677441Y-74673496D01*
X166869256Y-74594043D01*
X167041886Y-74478695D01*
X167188695Y-74331886D01*
X167304043Y-74159256D01*
X167383496Y-73967441D01*
X167424000Y-73763810D01*
X167424000Y-73556190D01*
X180556000Y-73556190D01*
X180556000Y-73763810D01*
X180596504Y-73967441D01*
X180675957Y-74159256D01*
X180791305Y-74331886D01*
X180938114Y-74478695D01*
X181110744Y-74594043D01*
X181302559Y-74673496D01*
X181506190Y-74714000D01*
X181713810Y-74714000D01*
X181917441Y-74673496D01*
X182109256Y-74594043D01*
X182281886Y-74478695D01*
X182428695Y-74331886D01*
X182544043Y-74159256D01*
X182623496Y-73967441D01*
X182664000Y-73763810D01*
X182664000Y-73556190D01*
X182623496Y-73352559D01*
X182544043Y-73160744D01*
X182428695Y-72988114D01*
X182281886Y-72841305D01*
X182109256Y-72725957D01*
X181917441Y-72646504D01*
X181713810Y-72606000D01*
X181506190Y-72606000D01*
X181302559Y-72646504D01*
X181110744Y-72725957D01*
X180938114Y-72841305D01*
X180791305Y-72988114D01*
X180675957Y-73160744D01*
X180596504Y-73352559D01*
X180556000Y-73556190D01*
X167424000Y-73556190D01*
X167383496Y-73352559D01*
X167304043Y-73160744D01*
X167188695Y-72988114D01*
X167041886Y-72841305D01*
X166869256Y-72725957D01*
X166677441Y-72646504D01*
X166473810Y-72606000D01*
X166266190Y-72606000D01*
X166062559Y-72646504D01*
X165870744Y-72725957D01*
X165698114Y-72841305D01*
X165551305Y-72988114D01*
X165435957Y-73160744D01*
X165356504Y-73352559D01*
X165316000Y-73556190D01*
X158585228Y-73556190D01*
X158585228Y-72810000D01*
X158580324Y-72760207D01*
X158565800Y-72712328D01*
X158542214Y-72668203D01*
X158510473Y-72629527D01*
X158471797Y-72597786D01*
X158427672Y-72574200D01*
X158379793Y-72559676D01*
X158330000Y-72554772D01*
X156630000Y-72554772D01*
X156580207Y-72559676D01*
X156532328Y-72574200D01*
X156488203Y-72597786D01*
X156449527Y-72629527D01*
X156417786Y-72668203D01*
X156394200Y-72712328D01*
X156379676Y-72760207D01*
X156374772Y-72810000D01*
X155651292Y-72810000D01*
X155643759Y-72802467D01*
X155462940Y-72681648D01*
X155262025Y-72598426D01*
X155048735Y-72556000D01*
X154831265Y-72556000D01*
X154617975Y-72598426D01*
X154417060Y-72681648D01*
X154236241Y-72802467D01*
X154082467Y-72956241D01*
X153961648Y-73137060D01*
X153878426Y-73337975D01*
X153836000Y-73551265D01*
X144449000Y-73551265D01*
X144449000Y-73226429D01*
X151247870Y-73226429D01*
X151289479Y-73412000D01*
X152152000Y-73412000D01*
X152152000Y-72551657D01*
X152648000Y-72551657D01*
X152648000Y-73412000D01*
X153510521Y-73412000D01*
X153552130Y-73226429D01*
X153445407Y-73009991D01*
X153298509Y-72818532D01*
X153117082Y-72659410D01*
X152908098Y-72538740D01*
X152833569Y-72507881D01*
X152648000Y-72551657D01*
X152152000Y-72551657D01*
X151966431Y-72507881D01*
X151891902Y-72538740D01*
X151682918Y-72659410D01*
X151501491Y-72818532D01*
X151354593Y-73009991D01*
X151247870Y-73226429D01*
X144449000Y-73226429D01*
X144449000Y-71553571D01*
X151247870Y-71553571D01*
X151354593Y-71770009D01*
X151501491Y-71961468D01*
X151682918Y-72120590D01*
X151891902Y-72241260D01*
X151966431Y-72272119D01*
X152152000Y-72228343D01*
X152152000Y-71368000D01*
X152648000Y-71368000D01*
X152648000Y-72228343D01*
X152833569Y-72272119D01*
X152908098Y-72241260D01*
X153117082Y-72120590D01*
X153298509Y-71961468D01*
X153445407Y-71770009D01*
X153552130Y-71553571D01*
X153510521Y-71368000D01*
X152648000Y-71368000D01*
X152152000Y-71368000D01*
X151289479Y-71368000D01*
X151247870Y-71553571D01*
X144449000Y-71553571D01*
X144449000Y-71011265D01*
X153836000Y-71011265D01*
X153836000Y-71228735D01*
X153878426Y-71442025D01*
X153961648Y-71642940D01*
X154082467Y-71823759D01*
X154236241Y-71977533D01*
X154417060Y-72098352D01*
X154617975Y-72181574D01*
X154831265Y-72224000D01*
X155048735Y-72224000D01*
X155262025Y-72181574D01*
X155462940Y-72098352D01*
X155643759Y-71977533D01*
X155797533Y-71823759D01*
X155918352Y-71642940D01*
X156001574Y-71442025D01*
X156044000Y-71228735D01*
X156044000Y-71011265D01*
X156001574Y-70797975D01*
X155918352Y-70597060D01*
X155797533Y-70416241D01*
X155651292Y-70270000D01*
X156374772Y-70270000D01*
X156374772Y-71970000D01*
X156379676Y-72019793D01*
X156394200Y-72067672D01*
X156417786Y-72111797D01*
X156449527Y-72150473D01*
X156488203Y-72182214D01*
X156532328Y-72205800D01*
X156580207Y-72220324D01*
X156630000Y-72225228D01*
X158330000Y-72225228D01*
X158379793Y-72220324D01*
X158427672Y-72205800D01*
X158471797Y-72182214D01*
X158510473Y-72150473D01*
X158542214Y-72111797D01*
X158565800Y-72067672D01*
X158580324Y-72019793D01*
X158585228Y-71970000D01*
X158585228Y-71016190D01*
X165316000Y-71016190D01*
X165316000Y-71223810D01*
X165356504Y-71427441D01*
X165435957Y-71619256D01*
X165551305Y-71791886D01*
X165698114Y-71938695D01*
X165870744Y-72054043D01*
X166062559Y-72133496D01*
X166266190Y-72174000D01*
X166473810Y-72174000D01*
X166677441Y-72133496D01*
X166869256Y-72054043D01*
X167041886Y-71938695D01*
X167188695Y-71791886D01*
X167304043Y-71619256D01*
X167383496Y-71427441D01*
X167424000Y-71223810D01*
X167424000Y-71016190D01*
X178016000Y-71016190D01*
X178016000Y-71223810D01*
X178056504Y-71427441D01*
X178135957Y-71619256D01*
X178251305Y-71791886D01*
X178398114Y-71938695D01*
X178570744Y-72054043D01*
X178762559Y-72133496D01*
X178966190Y-72174000D01*
X179173810Y-72174000D01*
X179377441Y-72133496D01*
X179569256Y-72054043D01*
X179579859Y-72046958D01*
X181033767Y-72046958D01*
X181128506Y-72204644D01*
X181349360Y-72277737D01*
X181580232Y-72306340D01*
X181812247Y-72289352D01*
X182036491Y-72227426D01*
X182091494Y-72204644D01*
X182186233Y-72046958D01*
X181610000Y-71470725D01*
X181033767Y-72046958D01*
X179579859Y-72046958D01*
X179741886Y-71938695D01*
X179888695Y-71791886D01*
X180004043Y-71619256D01*
X180083496Y-71427441D01*
X180124000Y-71223810D01*
X180124000Y-71090232D01*
X180423660Y-71090232D01*
X180440648Y-71322247D01*
X180502574Y-71546491D01*
X180525356Y-71601494D01*
X180683042Y-71696233D01*
X181259275Y-71120000D01*
X181960725Y-71120000D01*
X182536958Y-71696233D01*
X182694644Y-71601494D01*
X182767737Y-71380640D01*
X182796340Y-71149768D01*
X182779352Y-70917753D01*
X182717426Y-70693509D01*
X182694644Y-70638506D01*
X182536958Y-70543767D01*
X181960725Y-71120000D01*
X181259275Y-71120000D01*
X180683042Y-70543767D01*
X180525356Y-70638506D01*
X180452263Y-70859360D01*
X180423660Y-71090232D01*
X180124000Y-71090232D01*
X180124000Y-71016190D01*
X180083496Y-70812559D01*
X180004043Y-70620744D01*
X179888695Y-70448114D01*
X179741886Y-70301305D01*
X179579860Y-70193042D01*
X181033767Y-70193042D01*
X181610000Y-70769275D01*
X182186233Y-70193042D01*
X182091494Y-70035356D01*
X181870640Y-69962263D01*
X181639768Y-69933660D01*
X181407753Y-69950648D01*
X181183509Y-70012574D01*
X181128506Y-70035356D01*
X181033767Y-70193042D01*
X179579860Y-70193042D01*
X179569256Y-70185957D01*
X179377441Y-70106504D01*
X179173810Y-70066000D01*
X178966190Y-70066000D01*
X178762559Y-70106504D01*
X178570744Y-70185957D01*
X178398114Y-70301305D01*
X178251305Y-70448114D01*
X178135957Y-70620744D01*
X178056504Y-70812559D01*
X178016000Y-71016190D01*
X167424000Y-71016190D01*
X167383496Y-70812559D01*
X167304043Y-70620744D01*
X167188695Y-70448114D01*
X167041886Y-70301305D01*
X166869256Y-70185957D01*
X166677441Y-70106504D01*
X166473810Y-70066000D01*
X166266190Y-70066000D01*
X166062559Y-70106504D01*
X165870744Y-70185957D01*
X165698114Y-70301305D01*
X165551305Y-70448114D01*
X165435957Y-70620744D01*
X165356504Y-70812559D01*
X165316000Y-71016190D01*
X158585228Y-71016190D01*
X158585228Y-70270000D01*
X158580324Y-70220207D01*
X158565800Y-70172328D01*
X158542214Y-70128203D01*
X158510473Y-70089527D01*
X158471797Y-70057786D01*
X158427672Y-70034200D01*
X158379793Y-70019676D01*
X158330000Y-70014772D01*
X156630000Y-70014772D01*
X156580207Y-70019676D01*
X156532328Y-70034200D01*
X156488203Y-70057786D01*
X156449527Y-70089527D01*
X156417786Y-70128203D01*
X156394200Y-70172328D01*
X156379676Y-70220207D01*
X156374772Y-70270000D01*
X155651292Y-70270000D01*
X155643759Y-70262467D01*
X155462940Y-70141648D01*
X155262025Y-70058426D01*
X155048735Y-70016000D01*
X154831265Y-70016000D01*
X154617975Y-70058426D01*
X154417060Y-70141648D01*
X154236241Y-70262467D01*
X154082467Y-70416241D01*
X153961648Y-70597060D01*
X153878426Y-70797975D01*
X153836000Y-71011265D01*
X144449000Y-71011265D01*
X144449000Y-70686429D01*
X151247870Y-70686429D01*
X151289479Y-70872000D01*
X152152000Y-70872000D01*
X152152000Y-70011657D01*
X152648000Y-70011657D01*
X152648000Y-70872000D01*
X153510521Y-70872000D01*
X153552130Y-70686429D01*
X153445407Y-70469991D01*
X153298509Y-70278532D01*
X153117082Y-70119410D01*
X152908098Y-69998740D01*
X152833569Y-69967881D01*
X152648000Y-70011657D01*
X152152000Y-70011657D01*
X151966431Y-69967881D01*
X151891902Y-69998740D01*
X151682918Y-70119410D01*
X151501491Y-70278532D01*
X151354593Y-70469991D01*
X151247870Y-70686429D01*
X144449000Y-70686429D01*
X144449000Y-69013571D01*
X151247870Y-69013571D01*
X151354593Y-69230009D01*
X151501491Y-69421468D01*
X151682918Y-69580590D01*
X151891902Y-69701260D01*
X151966431Y-69732119D01*
X152152000Y-69688343D01*
X152152000Y-68828000D01*
X152648000Y-68828000D01*
X152648000Y-69688343D01*
X152833569Y-69732119D01*
X152908098Y-69701260D01*
X153117082Y-69580590D01*
X153298509Y-69421468D01*
X153445407Y-69230009D01*
X153552130Y-69013571D01*
X153510521Y-68828000D01*
X152648000Y-68828000D01*
X152152000Y-68828000D01*
X151289479Y-68828000D01*
X151247870Y-69013571D01*
X144449000Y-69013571D01*
X144449000Y-68471265D01*
X153836000Y-68471265D01*
X153836000Y-68688735D01*
X153878426Y-68902025D01*
X153961648Y-69102940D01*
X154082467Y-69283759D01*
X154236241Y-69437533D01*
X154417060Y-69558352D01*
X154617975Y-69641574D01*
X154831265Y-69684000D01*
X155048735Y-69684000D01*
X155262025Y-69641574D01*
X155462940Y-69558352D01*
X155643759Y-69437533D01*
X155797533Y-69283759D01*
X155918352Y-69102940D01*
X156001574Y-68902025D01*
X156044000Y-68688735D01*
X156044000Y-68471265D01*
X156001574Y-68257975D01*
X155918352Y-68057060D01*
X155797533Y-67876241D01*
X155651292Y-67730000D01*
X156374772Y-67730000D01*
X156374772Y-69430000D01*
X156379676Y-69479793D01*
X156394200Y-69527672D01*
X156417786Y-69571797D01*
X156449527Y-69610473D01*
X156488203Y-69642214D01*
X156532328Y-69665800D01*
X156580207Y-69680324D01*
X156630000Y-69685228D01*
X158330000Y-69685228D01*
X158379793Y-69680324D01*
X158427672Y-69665800D01*
X158471797Y-69642214D01*
X158510473Y-69610473D01*
X158542214Y-69571797D01*
X158565800Y-69527672D01*
X158580324Y-69479793D01*
X158585228Y-69430000D01*
X158585228Y-68476190D01*
X165316000Y-68476190D01*
X165316000Y-68683810D01*
X165356504Y-68887441D01*
X165435957Y-69079256D01*
X165551305Y-69251886D01*
X165698114Y-69398695D01*
X165870744Y-69514043D01*
X166062559Y-69593496D01*
X166266190Y-69634000D01*
X166473810Y-69634000D01*
X166677441Y-69593496D01*
X166869256Y-69514043D01*
X167041886Y-69398695D01*
X167188695Y-69251886D01*
X167304043Y-69079256D01*
X167383496Y-68887441D01*
X167424000Y-68683810D01*
X167424000Y-68476190D01*
X167421591Y-68464076D01*
X180433000Y-68464076D01*
X180433000Y-68695924D01*
X180478231Y-68923318D01*
X180566956Y-69137519D01*
X180695764Y-69330294D01*
X180859706Y-69494236D01*
X181052481Y-69623044D01*
X181266682Y-69711769D01*
X181494076Y-69757000D01*
X181725924Y-69757000D01*
X181953318Y-69711769D01*
X182167519Y-69623044D01*
X182360294Y-69494236D01*
X182524236Y-69330294D01*
X182653044Y-69137519D01*
X182741769Y-68923318D01*
X182787000Y-68695924D01*
X182787000Y-68464076D01*
X182741769Y-68236682D01*
X182653044Y-68022481D01*
X182524236Y-67829706D01*
X182360294Y-67665764D01*
X182167519Y-67536956D01*
X181953318Y-67448231D01*
X181725924Y-67403000D01*
X181494076Y-67403000D01*
X181266682Y-67448231D01*
X181052481Y-67536956D01*
X180859706Y-67665764D01*
X180695764Y-67829706D01*
X180566956Y-68022481D01*
X180478231Y-68236682D01*
X180433000Y-68464076D01*
X167421591Y-68464076D01*
X167383496Y-68272559D01*
X167304043Y-68080744D01*
X167188695Y-67908114D01*
X167041886Y-67761305D01*
X166869256Y-67645957D01*
X166677441Y-67566504D01*
X166473810Y-67526000D01*
X166266190Y-67526000D01*
X166062559Y-67566504D01*
X165870744Y-67645957D01*
X165698114Y-67761305D01*
X165551305Y-67908114D01*
X165435957Y-68080744D01*
X165356504Y-68272559D01*
X165316000Y-68476190D01*
X158585228Y-68476190D01*
X158585228Y-67730000D01*
X158580324Y-67680207D01*
X158565800Y-67632328D01*
X158542214Y-67588203D01*
X158510473Y-67549527D01*
X158471797Y-67517786D01*
X158427672Y-67494200D01*
X158379793Y-67479676D01*
X158330000Y-67474772D01*
X156630000Y-67474772D01*
X156580207Y-67479676D01*
X156532328Y-67494200D01*
X156488203Y-67517786D01*
X156449527Y-67549527D01*
X156417786Y-67588203D01*
X156394200Y-67632328D01*
X156379676Y-67680207D01*
X156374772Y-67730000D01*
X155651292Y-67730000D01*
X155643759Y-67722467D01*
X155462940Y-67601648D01*
X155262025Y-67518426D01*
X155048735Y-67476000D01*
X154831265Y-67476000D01*
X154617975Y-67518426D01*
X154417060Y-67601648D01*
X154236241Y-67722467D01*
X154082467Y-67876241D01*
X153961648Y-68057060D01*
X153878426Y-68257975D01*
X153836000Y-68471265D01*
X144449000Y-68471265D01*
X144449000Y-68146429D01*
X151247870Y-68146429D01*
X151289479Y-68332000D01*
X152152000Y-68332000D01*
X152152000Y-67471657D01*
X152648000Y-67471657D01*
X152648000Y-68332000D01*
X153510521Y-68332000D01*
X153552130Y-68146429D01*
X153445407Y-67929991D01*
X153298509Y-67738532D01*
X153117082Y-67579410D01*
X152908098Y-67458740D01*
X152833569Y-67427881D01*
X152648000Y-67471657D01*
X152152000Y-67471657D01*
X151966431Y-67427881D01*
X151891902Y-67458740D01*
X151682918Y-67579410D01*
X151501491Y-67738532D01*
X151354593Y-67929991D01*
X151247870Y-68146429D01*
X144449000Y-68146429D01*
X144449000Y-64350000D01*
X151167157Y-64350000D01*
X151174513Y-64424689D01*
X151196299Y-64496508D01*
X151231678Y-64562696D01*
X151279289Y-64620711D01*
X151337304Y-64668322D01*
X151403492Y-64703701D01*
X151475311Y-64725487D01*
X151550000Y-64732843D01*
X152031750Y-64731000D01*
X152127000Y-64635750D01*
X152127000Y-63773000D01*
X152673000Y-63773000D01*
X152673000Y-64635750D01*
X152768250Y-64731000D01*
X153250000Y-64732843D01*
X153324689Y-64725487D01*
X153396508Y-64703701D01*
X153462696Y-64668322D01*
X153520711Y-64620711D01*
X153568322Y-64562696D01*
X153603701Y-64496508D01*
X153625487Y-64424689D01*
X153632843Y-64350000D01*
X153631000Y-63868250D01*
X153535750Y-63773000D01*
X152673000Y-63773000D01*
X152127000Y-63773000D01*
X151264250Y-63773000D01*
X151169000Y-63868250D01*
X151167157Y-64350000D01*
X144449000Y-64350000D01*
X144449000Y-63391265D01*
X153836000Y-63391265D01*
X153836000Y-63608735D01*
X153878426Y-63822025D01*
X153961648Y-64022940D01*
X154082467Y-64203759D01*
X154236241Y-64357533D01*
X154417060Y-64478352D01*
X154617975Y-64561574D01*
X154831265Y-64604000D01*
X155048735Y-64604000D01*
X155262025Y-64561574D01*
X155462940Y-64478352D01*
X155643759Y-64357533D01*
X155651292Y-64350000D01*
X161327157Y-64350000D01*
X161334513Y-64424689D01*
X161356299Y-64496508D01*
X161391678Y-64562696D01*
X161439289Y-64620711D01*
X161497304Y-64668322D01*
X161563492Y-64703701D01*
X161635311Y-64725487D01*
X161710000Y-64732843D01*
X162216750Y-64731000D01*
X162312000Y-64635750D01*
X162312000Y-63748000D01*
X162808000Y-63748000D01*
X162808000Y-64635750D01*
X162903250Y-64731000D01*
X163410000Y-64732843D01*
X163484689Y-64725487D01*
X163556508Y-64703701D01*
X163622696Y-64668322D01*
X163680711Y-64620711D01*
X163728322Y-64562696D01*
X163763701Y-64496508D01*
X163785487Y-64424689D01*
X163792843Y-64350000D01*
X163791000Y-63843250D01*
X163695750Y-63748000D01*
X162808000Y-63748000D01*
X162312000Y-63748000D01*
X161424250Y-63748000D01*
X161329000Y-63843250D01*
X161327157Y-64350000D01*
X155651292Y-64350000D01*
X155797533Y-64203759D01*
X155918352Y-64022940D01*
X156001574Y-63822025D01*
X156044000Y-63608735D01*
X156044000Y-63391265D01*
X156041591Y-63379151D01*
X163873000Y-63379151D01*
X163873000Y-63620849D01*
X163920153Y-63857903D01*
X164012647Y-64081202D01*
X164146927Y-64282167D01*
X164317833Y-64453073D01*
X164518798Y-64587353D01*
X164742097Y-64679847D01*
X164979151Y-64727000D01*
X165220849Y-64727000D01*
X165457903Y-64679847D01*
X165681202Y-64587353D01*
X165882167Y-64453073D01*
X166053073Y-64282167D01*
X166187353Y-64081202D01*
X166279847Y-63857903D01*
X166327000Y-63620849D01*
X166327000Y-63379151D01*
X166279847Y-63142097D01*
X166187353Y-62918798D01*
X166053073Y-62717833D01*
X165882167Y-62546927D01*
X165681202Y-62412647D01*
X165457903Y-62320153D01*
X165220849Y-62273000D01*
X164979151Y-62273000D01*
X164742097Y-62320153D01*
X164518798Y-62412647D01*
X164317833Y-62546927D01*
X164146927Y-62717833D01*
X164012647Y-62918798D01*
X163920153Y-63142097D01*
X163873000Y-63379151D01*
X156041591Y-63379151D01*
X156001574Y-63177975D01*
X155918352Y-62977060D01*
X155797533Y-62796241D01*
X155651292Y-62650000D01*
X161327157Y-62650000D01*
X161329000Y-63156750D01*
X161424250Y-63252000D01*
X162312000Y-63252000D01*
X162312000Y-62364250D01*
X162808000Y-62364250D01*
X162808000Y-63252000D01*
X163695750Y-63252000D01*
X163791000Y-63156750D01*
X163792843Y-62650000D01*
X163785487Y-62575311D01*
X163763701Y-62503492D01*
X163728322Y-62437304D01*
X163680711Y-62379289D01*
X163622696Y-62331678D01*
X163556508Y-62296299D01*
X163484689Y-62274513D01*
X163410000Y-62267157D01*
X162903250Y-62269000D01*
X162808000Y-62364250D01*
X162312000Y-62364250D01*
X162216750Y-62269000D01*
X161710000Y-62267157D01*
X161635311Y-62274513D01*
X161563492Y-62296299D01*
X161497304Y-62331678D01*
X161439289Y-62379289D01*
X161391678Y-62437304D01*
X161356299Y-62503492D01*
X161334513Y-62575311D01*
X161327157Y-62650000D01*
X155651292Y-62650000D01*
X155643759Y-62642467D01*
X155462940Y-62521648D01*
X155262025Y-62438426D01*
X155048735Y-62396000D01*
X154831265Y-62396000D01*
X154617975Y-62438426D01*
X154417060Y-62521648D01*
X154236241Y-62642467D01*
X154082467Y-62796241D01*
X153961648Y-62977060D01*
X153878426Y-63177975D01*
X153836000Y-63391265D01*
X144449000Y-63391265D01*
X144449000Y-62650000D01*
X151167157Y-62650000D01*
X151169000Y-63131750D01*
X151264250Y-63227000D01*
X152127000Y-63227000D01*
X152127000Y-62364250D01*
X152673000Y-62364250D01*
X152673000Y-63227000D01*
X153535750Y-63227000D01*
X153631000Y-63131750D01*
X153632843Y-62650000D01*
X153625487Y-62575311D01*
X153603701Y-62503492D01*
X153568322Y-62437304D01*
X153520711Y-62379289D01*
X153462696Y-62331678D01*
X153396508Y-62296299D01*
X153324689Y-62274513D01*
X153250000Y-62267157D01*
X152768250Y-62269000D01*
X152673000Y-62364250D01*
X152127000Y-62364250D01*
X152031750Y-62269000D01*
X151550000Y-62267157D01*
X151475311Y-62274513D01*
X151403492Y-62296299D01*
X151337304Y-62331678D01*
X151279289Y-62379289D01*
X151231678Y-62437304D01*
X151196299Y-62503492D01*
X151174513Y-62575311D01*
X151167157Y-62650000D01*
X144449000Y-62650000D01*
X144449000Y-61580076D01*
X144444600Y-61535406D01*
X144434459Y-61501975D01*
X144444185Y-61402777D01*
X144500012Y-61217870D01*
X144590688Y-61047332D01*
X144712762Y-60897653D01*
X144861590Y-60774532D01*
X145031493Y-60682666D01*
X145215997Y-60625552D01*
X145321864Y-60614425D01*
X145355406Y-60624600D01*
G37*
X145355406Y-60624600D02*
X145400076Y-60629000D01*
X183529924Y-60629000D01*
X183574594Y-60624600D01*
X183608025Y-60614459D01*
X183707223Y-60624185D01*
X183892130Y-60680012D01*
X184062668Y-60770688D01*
X184212347Y-60892762D01*
X184335468Y-61041590D01*
X184427334Y-61211493D01*
X184484448Y-61395997D01*
X184495575Y-61501866D01*
X184485401Y-61535406D01*
X184481001Y-61580076D01*
X184481000Y-116854923D01*
X184485400Y-116899593D01*
X184495541Y-116933024D01*
X184485815Y-117032223D01*
X184429988Y-117217130D01*
X184339310Y-117387670D01*
X184217235Y-117537349D01*
X184068410Y-117660468D01*
X183898511Y-117752332D01*
X183714003Y-117809448D01*
X183608136Y-117820575D01*
X183574594Y-117810400D01*
X183529924Y-117806000D01*
X145400076Y-117806000D01*
X145355406Y-117810400D01*
X145321975Y-117820541D01*
X145222777Y-117810815D01*
X145037870Y-117754988D01*
X144867330Y-117664310D01*
X144717651Y-117542235D01*
X144594532Y-117393410D01*
X144502668Y-117223511D01*
X144445552Y-117039003D01*
X144434425Y-116933136D01*
X144444600Y-116899594D01*
X144449000Y-116854924D01*
X144449000Y-114087850D01*
X150326000Y-114087850D01*
X150326000Y-114512150D01*
X150408777Y-114928299D01*
X150571150Y-115320301D01*
X150806879Y-115673095D01*
X151106905Y-115973121D01*
X151459699Y-116208850D01*
X151851701Y-116371223D01*
X152267850Y-116454000D01*
X152692150Y-116454000D01*
X153108299Y-116371223D01*
X153500301Y-116208850D01*
X153513545Y-116200000D01*
X155197157Y-116200000D01*
X155204513Y-116274689D01*
X155226299Y-116346508D01*
X155261678Y-116412696D01*
X155309289Y-116470711D01*
X155367304Y-116518322D01*
X155433492Y-116553701D01*
X155505311Y-116575487D01*
X155580000Y-116582843D01*
X156511750Y-116581000D01*
X156607000Y-116485750D01*
X156607000Y-115173000D01*
X158353000Y-115173000D01*
X158353000Y-116485750D01*
X158448250Y-116581000D01*
X159380000Y-116582843D01*
X159454689Y-116575487D01*
X159526508Y-116553701D01*
X159592696Y-116518322D01*
X159650711Y-116470711D01*
X159698322Y-116412696D01*
X159733701Y-116346508D01*
X159755487Y-116274689D01*
X159762843Y-116200000D01*
X159761000Y-115268250D01*
X159665750Y-115173000D01*
X158353000Y-115173000D01*
X156607000Y-115173000D01*
X155294250Y-115173000D01*
X155199000Y-115268250D01*
X155197157Y-116200000D01*
X153513545Y-116200000D01*
X153853095Y-115973121D01*
X154153121Y-115673095D01*
X154388850Y-115320301D01*
X154551223Y-114928299D01*
X154634000Y-114512150D01*
X154634000Y-114087850D01*
X154551223Y-113671701D01*
X154388850Y-113279699D01*
X154153121Y-112926905D01*
X153853095Y-112626879D01*
X153513546Y-112400000D01*
X155197157Y-112400000D01*
X155199000Y-113331750D01*
X155294250Y-113427000D01*
X156607000Y-113427000D01*
X156607000Y-112114250D01*
X158353000Y-112114250D01*
X158353000Y-113427000D01*
X159665750Y-113427000D01*
X159761000Y-113331750D01*
X159762843Y-112400000D01*
X159755487Y-112325311D01*
X159733701Y-112253492D01*
X159698322Y-112187304D01*
X159650711Y-112129289D01*
X159592696Y-112081678D01*
X159526508Y-112046299D01*
X159454689Y-112024513D01*
X159380000Y-112017157D01*
X158448250Y-112019000D01*
X158353000Y-112114250D01*
X156607000Y-112114250D01*
X156511750Y-112019000D01*
X155580000Y-112017157D01*
X155505311Y-112024513D01*
X155433492Y-112046299D01*
X155367304Y-112081678D01*
X155309289Y-112129289D01*
X155261678Y-112187304D01*
X155226299Y-112253492D01*
X155204513Y-112325311D01*
X155197157Y-112400000D01*
X153513546Y-112400000D01*
X153500301Y-112391150D01*
X153108299Y-112228777D01*
X152692150Y-112146000D01*
X152267850Y-112146000D01*
X151851701Y-112228777D01*
X151459699Y-112391150D01*
X151106905Y-112626879D01*
X150806879Y-112926905D01*
X150571150Y-113279699D01*
X150408777Y-113671701D01*
X150326000Y-114087850D01*
X144449000Y-114087850D01*
X144449000Y-104573571D01*
X151247870Y-104573571D01*
X151354593Y-104790009D01*
X151501491Y-104981468D01*
X151682918Y-105140590D01*
X151891902Y-105261260D01*
X151966431Y-105292119D01*
X152152000Y-105248343D01*
X152152000Y-104388000D01*
X152648000Y-104388000D01*
X152648000Y-105248343D01*
X152833569Y-105292119D01*
X152908098Y-105261260D01*
X153117082Y-105140590D01*
X153298509Y-104981468D01*
X153445407Y-104790009D01*
X153552130Y-104573571D01*
X153510521Y-104388000D01*
X152648000Y-104388000D01*
X152152000Y-104388000D01*
X151289479Y-104388000D01*
X151247870Y-104573571D01*
X144449000Y-104573571D01*
X144449000Y-104031265D01*
X153836000Y-104031265D01*
X153836000Y-104248735D01*
X153878426Y-104462025D01*
X153961648Y-104662940D01*
X154082467Y-104843759D01*
X154236241Y-104997533D01*
X154417060Y-105118352D01*
X154617975Y-105201574D01*
X154831265Y-105244000D01*
X155048735Y-105244000D01*
X155262025Y-105201574D01*
X155462940Y-105118352D01*
X155643759Y-104997533D01*
X155797533Y-104843759D01*
X155918352Y-104662940D01*
X156001574Y-104462025D01*
X156044000Y-104248735D01*
X156044000Y-104031265D01*
X156001574Y-103817975D01*
X155918352Y-103617060D01*
X155797533Y-103436241D01*
X155651292Y-103290000D01*
X156374772Y-103290000D01*
X156374772Y-104990000D01*
X156379676Y-105039793D01*
X156394200Y-105087672D01*
X156417786Y-105131797D01*
X156449527Y-105170473D01*
X156488203Y-105202214D01*
X156532328Y-105225800D01*
X156580207Y-105240324D01*
X156630000Y-105245228D01*
X158330000Y-105245228D01*
X158379793Y-105240324D01*
X158427672Y-105225800D01*
X158471797Y-105202214D01*
X158510473Y-105170473D01*
X158542214Y-105131797D01*
X158565800Y-105087672D01*
X158580324Y-105039793D01*
X158585228Y-104990000D01*
X158585228Y-103290000D01*
X158580324Y-103240207D01*
X158565800Y-103192328D01*
X158542214Y-103148203D01*
X158510473Y-103109527D01*
X158471797Y-103077786D01*
X158427672Y-103054200D01*
X158379793Y-103039676D01*
X158330000Y-103034772D01*
X156630000Y-103034772D01*
X156580207Y-103039676D01*
X156532328Y-103054200D01*
X156488203Y-103077786D01*
X156449527Y-103109527D01*
X156417786Y-103148203D01*
X156394200Y-103192328D01*
X156379676Y-103240207D01*
X156374772Y-103290000D01*
X155651292Y-103290000D01*
X155643759Y-103282467D01*
X155462940Y-103161648D01*
X155262025Y-103078426D01*
X155048735Y-103036000D01*
X154831265Y-103036000D01*
X154617975Y-103078426D01*
X154417060Y-103161648D01*
X154236241Y-103282467D01*
X154082467Y-103436241D01*
X153961648Y-103617060D01*
X153878426Y-103817975D01*
X153836000Y-104031265D01*
X144449000Y-104031265D01*
X144449000Y-103706429D01*
X151247870Y-103706429D01*
X151289479Y-103892000D01*
X152152000Y-103892000D01*
X152152000Y-103031657D01*
X152648000Y-103031657D01*
X152648000Y-103892000D01*
X153510521Y-103892000D01*
X153552130Y-103706429D01*
X153445407Y-103489991D01*
X153298509Y-103298532D01*
X153117082Y-103139410D01*
X152908098Y-103018740D01*
X152833569Y-102987881D01*
X152648000Y-103031657D01*
X152152000Y-103031657D01*
X151966431Y-102987881D01*
X151891902Y-103018740D01*
X151682918Y-103139410D01*
X151501491Y-103298532D01*
X151354593Y-103489991D01*
X151247870Y-103706429D01*
X144449000Y-103706429D01*
X144449000Y-102033571D01*
X151247870Y-102033571D01*
X151354593Y-102250009D01*
X151501491Y-102441468D01*
X151682918Y-102600590D01*
X151891902Y-102721260D01*
X151966431Y-102752119D01*
X152152000Y-102708343D01*
X152152000Y-101848000D01*
X152648000Y-101848000D01*
X152648000Y-102708343D01*
X152833569Y-102752119D01*
X152908098Y-102721260D01*
X153117082Y-102600590D01*
X153298509Y-102441468D01*
X153445407Y-102250009D01*
X153552130Y-102033571D01*
X153510521Y-101848000D01*
X152648000Y-101848000D01*
X152152000Y-101848000D01*
X151289479Y-101848000D01*
X151247870Y-102033571D01*
X144449000Y-102033571D01*
X144449000Y-101491265D01*
X153836000Y-101491265D01*
X153836000Y-101708735D01*
X153878426Y-101922025D01*
X153961648Y-102122940D01*
X154082467Y-102303759D01*
X154236241Y-102457533D01*
X154417060Y-102578352D01*
X154617975Y-102661574D01*
X154831265Y-102704000D01*
X155048735Y-102704000D01*
X155262025Y-102661574D01*
X155462940Y-102578352D01*
X155643759Y-102457533D01*
X155797533Y-102303759D01*
X155918352Y-102122940D01*
X156001574Y-101922025D01*
X156044000Y-101708735D01*
X156044000Y-101491265D01*
X156001574Y-101277975D01*
X155918352Y-101077060D01*
X155797533Y-100896241D01*
X155651292Y-100750000D01*
X156374772Y-100750000D01*
X156374772Y-102450000D01*
X156379676Y-102499793D01*
X156394200Y-102547672D01*
X156417786Y-102591797D01*
X156449527Y-102630473D01*
X156488203Y-102662214D01*
X156532328Y-102685800D01*
X156580207Y-102700324D01*
X156630000Y-102705228D01*
X158330000Y-102705228D01*
X158379793Y-102700324D01*
X158427672Y-102685800D01*
X158471797Y-102662214D01*
X158510473Y-102630473D01*
X158542214Y-102591797D01*
X158565800Y-102547672D01*
X158580324Y-102499793D01*
X158585228Y-102450000D01*
X158585228Y-101496190D01*
X165316000Y-101496190D01*
X165316000Y-101703810D01*
X165356504Y-101907441D01*
X165435957Y-102099256D01*
X165551305Y-102271886D01*
X165698114Y-102418695D01*
X165870744Y-102534043D01*
X166062559Y-102613496D01*
X166266190Y-102654000D01*
X166473810Y-102654000D01*
X166677441Y-102613496D01*
X166869256Y-102534043D01*
X167041886Y-102418695D01*
X167188695Y-102271886D01*
X167304043Y-102099256D01*
X167383496Y-101907441D01*
X167424000Y-101703810D01*
X167424000Y-101496190D01*
X167856000Y-101496190D01*
X167856000Y-101703810D01*
X167896504Y-101907441D01*
X167975957Y-102099256D01*
X168091305Y-102271886D01*
X168238114Y-102418695D01*
X168410744Y-102534043D01*
X168602559Y-102613496D01*
X168806190Y-102654000D01*
X169013810Y-102654000D01*
X169217441Y-102613496D01*
X169409256Y-102534043D01*
X169581886Y-102418695D01*
X169728695Y-102271886D01*
X169844043Y-102099256D01*
X169923496Y-101907441D01*
X169964000Y-101703810D01*
X169964000Y-101496190D01*
X170396000Y-101496190D01*
X170396000Y-101703810D01*
X170436504Y-101907441D01*
X170515957Y-102099256D01*
X170631305Y-102271886D01*
X170778114Y-102418695D01*
X170950744Y-102534043D01*
X171142559Y-102613496D01*
X171346190Y-102654000D01*
X171553810Y-102654000D01*
X171757441Y-102613496D01*
X171949256Y-102534043D01*
X172121886Y-102418695D01*
X172268695Y-102271886D01*
X172384043Y-102099256D01*
X172463496Y-101907441D01*
X172504000Y-101703810D01*
X172504000Y-101496190D01*
X172936000Y-101496190D01*
X172936000Y-101703810D01*
X172976504Y-101907441D01*
X173055957Y-102099256D01*
X173171305Y-102271886D01*
X173318114Y-102418695D01*
X173490744Y-102534043D01*
X173682559Y-102613496D01*
X173886190Y-102654000D01*
X174093810Y-102654000D01*
X174297441Y-102613496D01*
X174489256Y-102534043D01*
X174661886Y-102418695D01*
X174808695Y-102271886D01*
X174924043Y-102099256D01*
X175003496Y-101907441D01*
X175044000Y-101703810D01*
X175044000Y-101496190D01*
X175476000Y-101496190D01*
X175476000Y-101703810D01*
X175516504Y-101907441D01*
X175595957Y-102099256D01*
X175711305Y-102271886D01*
X175858114Y-102418695D01*
X176030744Y-102534043D01*
X176222559Y-102613496D01*
X176426190Y-102654000D01*
X176633810Y-102654000D01*
X176837441Y-102613496D01*
X177029256Y-102534043D01*
X177201886Y-102418695D01*
X177348695Y-102271886D01*
X177464043Y-102099256D01*
X177543496Y-101907441D01*
X177584000Y-101703810D01*
X177584000Y-101496190D01*
X178016000Y-101496190D01*
X178016000Y-101703810D01*
X178056504Y-101907441D01*
X178135957Y-102099256D01*
X178251305Y-102271886D01*
X178398114Y-102418695D01*
X178570744Y-102534043D01*
X178762559Y-102613496D01*
X178966190Y-102654000D01*
X179173810Y-102654000D01*
X179377441Y-102613496D01*
X179569256Y-102534043D01*
X179741886Y-102418695D01*
X179888695Y-102271886D01*
X180004043Y-102099256D01*
X180083496Y-101907441D01*
X180124000Y-101703810D01*
X180124000Y-101496190D01*
X180556000Y-101496190D01*
X180556000Y-101703810D01*
X180596504Y-101907441D01*
X180675957Y-102099256D01*
X180791305Y-102271886D01*
X180938114Y-102418695D01*
X181110744Y-102534043D01*
X181302559Y-102613496D01*
X181506190Y-102654000D01*
X181713810Y-102654000D01*
X181917441Y-102613496D01*
X182109256Y-102534043D01*
X182281886Y-102418695D01*
X182428695Y-102271886D01*
X182544043Y-102099256D01*
X182623496Y-101907441D01*
X182664000Y-101703810D01*
X182664000Y-101496190D01*
X182623496Y-101292559D01*
X182544043Y-101100744D01*
X182428695Y-100928114D01*
X182281886Y-100781305D01*
X182109256Y-100665957D01*
X181917441Y-100586504D01*
X181713810Y-100546000D01*
X181506190Y-100546000D01*
X181302559Y-100586504D01*
X181110744Y-100665957D01*
X180938114Y-100781305D01*
X180791305Y-100928114D01*
X180675957Y-101100744D01*
X180596504Y-101292559D01*
X180556000Y-101496190D01*
X180124000Y-101496190D01*
X180083496Y-101292559D01*
X180004043Y-101100744D01*
X179888695Y-100928114D01*
X179741886Y-100781305D01*
X179569256Y-100665957D01*
X179377441Y-100586504D01*
X179173810Y-100546000D01*
X178966190Y-100546000D01*
X178762559Y-100586504D01*
X178570744Y-100665957D01*
X178398114Y-100781305D01*
X178251305Y-100928114D01*
X178135957Y-101100744D01*
X178056504Y-101292559D01*
X178016000Y-101496190D01*
X177584000Y-101496190D01*
X177543496Y-101292559D01*
X177464043Y-101100744D01*
X177348695Y-100928114D01*
X177201886Y-100781305D01*
X177029256Y-100665957D01*
X176837441Y-100586504D01*
X176633810Y-100546000D01*
X176426190Y-100546000D01*
X176222559Y-100586504D01*
X176030744Y-100665957D01*
X175858114Y-100781305D01*
X175711305Y-100928114D01*
X175595957Y-101100744D01*
X175516504Y-101292559D01*
X175476000Y-101496190D01*
X175044000Y-101496190D01*
X175003496Y-101292559D01*
X174924043Y-101100744D01*
X174808695Y-100928114D01*
X174661886Y-100781305D01*
X174489256Y-100665957D01*
X174297441Y-100586504D01*
X174093810Y-100546000D01*
X173886190Y-100546000D01*
X173682559Y-100586504D01*
X173490744Y-100665957D01*
X173318114Y-100781305D01*
X173171305Y-100928114D01*
X173055957Y-101100744D01*
X172976504Y-101292559D01*
X172936000Y-101496190D01*
X172504000Y-101496190D01*
X172463496Y-101292559D01*
X172384043Y-101100744D01*
X172268695Y-100928114D01*
X172121886Y-100781305D01*
X171949256Y-100665957D01*
X171757441Y-100586504D01*
X171553810Y-100546000D01*
X171346190Y-100546000D01*
X171142559Y-100586504D01*
X170950744Y-100665957D01*
X170778114Y-100781305D01*
X170631305Y-100928114D01*
X170515957Y-101100744D01*
X170436504Y-101292559D01*
X170396000Y-101496190D01*
X169964000Y-101496190D01*
X169923496Y-101292559D01*
X169844043Y-101100744D01*
X169728695Y-100928114D01*
X169581886Y-100781305D01*
X169409256Y-100665957D01*
X169217441Y-100586504D01*
X169013810Y-100546000D01*
X168806190Y-100546000D01*
X168602559Y-100586504D01*
X168410744Y-100665957D01*
X168238114Y-100781305D01*
X168091305Y-100928114D01*
X167975957Y-101100744D01*
X167896504Y-101292559D01*
X167856000Y-101496190D01*
X167424000Y-101496190D01*
X167383496Y-101292559D01*
X167304043Y-101100744D01*
X167188695Y-100928114D01*
X167041886Y-100781305D01*
X166869256Y-100665957D01*
X166677441Y-100586504D01*
X166473810Y-100546000D01*
X166266190Y-100546000D01*
X166062559Y-100586504D01*
X165870744Y-100665957D01*
X165698114Y-100781305D01*
X165551305Y-100928114D01*
X165435957Y-101100744D01*
X165356504Y-101292559D01*
X165316000Y-101496190D01*
X158585228Y-101496190D01*
X158585228Y-100750000D01*
X158580324Y-100700207D01*
X158565800Y-100652328D01*
X158542214Y-100608203D01*
X158510473Y-100569527D01*
X158471797Y-100537786D01*
X158427672Y-100514200D01*
X158379793Y-100499676D01*
X158330000Y-100494772D01*
X156630000Y-100494772D01*
X156580207Y-100499676D01*
X156532328Y-100514200D01*
X156488203Y-100537786D01*
X156449527Y-100569527D01*
X156417786Y-100608203D01*
X156394200Y-100652328D01*
X156379676Y-100700207D01*
X156374772Y-100750000D01*
X155651292Y-100750000D01*
X155643759Y-100742467D01*
X155462940Y-100621648D01*
X155262025Y-100538426D01*
X155048735Y-100496000D01*
X154831265Y-100496000D01*
X154617975Y-100538426D01*
X154417060Y-100621648D01*
X154236241Y-100742467D01*
X154082467Y-100896241D01*
X153961648Y-101077060D01*
X153878426Y-101277975D01*
X153836000Y-101491265D01*
X144449000Y-101491265D01*
X144449000Y-101166429D01*
X151247870Y-101166429D01*
X151289479Y-101352000D01*
X152152000Y-101352000D01*
X152152000Y-100491657D01*
X152648000Y-100491657D01*
X152648000Y-101352000D01*
X153510521Y-101352000D01*
X153552130Y-101166429D01*
X153445407Y-100949991D01*
X153298509Y-100758532D01*
X153117082Y-100599410D01*
X152908098Y-100478740D01*
X152833569Y-100447881D01*
X152648000Y-100491657D01*
X152152000Y-100491657D01*
X151966431Y-100447881D01*
X151891902Y-100478740D01*
X151682918Y-100599410D01*
X151501491Y-100758532D01*
X151354593Y-100949991D01*
X151247870Y-101166429D01*
X144449000Y-101166429D01*
X144449000Y-99493571D01*
X151247870Y-99493571D01*
X151354593Y-99710009D01*
X151501491Y-99901468D01*
X151682918Y-100060590D01*
X151891902Y-100181260D01*
X151966431Y-100212119D01*
X152152000Y-100168343D01*
X152152000Y-99308000D01*
X152648000Y-99308000D01*
X152648000Y-100168343D01*
X152833569Y-100212119D01*
X152908098Y-100181260D01*
X153117082Y-100060590D01*
X153298509Y-99901468D01*
X153445407Y-99710009D01*
X153552130Y-99493571D01*
X153510521Y-99308000D01*
X152648000Y-99308000D01*
X152152000Y-99308000D01*
X151289479Y-99308000D01*
X151247870Y-99493571D01*
X144449000Y-99493571D01*
X144449000Y-98951265D01*
X153836000Y-98951265D01*
X153836000Y-99168735D01*
X153878426Y-99382025D01*
X153961648Y-99582940D01*
X154082467Y-99763759D01*
X154236241Y-99917533D01*
X154417060Y-100038352D01*
X154617975Y-100121574D01*
X154831265Y-100164000D01*
X155048735Y-100164000D01*
X155262025Y-100121574D01*
X155462940Y-100038352D01*
X155643759Y-99917533D01*
X155797533Y-99763759D01*
X155918352Y-99582940D01*
X156001574Y-99382025D01*
X156044000Y-99168735D01*
X156044000Y-98951265D01*
X156001574Y-98737975D01*
X155918352Y-98537060D01*
X155797533Y-98356241D01*
X155651292Y-98210000D01*
X156374772Y-98210000D01*
X156374772Y-99910000D01*
X156379676Y-99959793D01*
X156394200Y-100007672D01*
X156417786Y-100051797D01*
X156449527Y-100090473D01*
X156488203Y-100122214D01*
X156532328Y-100145800D01*
X156580207Y-100160324D01*
X156630000Y-100165228D01*
X158330000Y-100165228D01*
X158379793Y-100160324D01*
X158427672Y-100145800D01*
X158471797Y-100122214D01*
X158510473Y-100090473D01*
X158542214Y-100051797D01*
X158565800Y-100007672D01*
X158580324Y-99959793D01*
X158585228Y-99910000D01*
X158585228Y-98956190D01*
X165316000Y-98956190D01*
X165316000Y-99163810D01*
X165356504Y-99367441D01*
X165435957Y-99559256D01*
X165551305Y-99731886D01*
X165698114Y-99878695D01*
X165870744Y-99994043D01*
X166062559Y-100073496D01*
X166266190Y-100114000D01*
X166473810Y-100114000D01*
X166677441Y-100073496D01*
X166869256Y-99994043D01*
X167041886Y-99878695D01*
X167188695Y-99731886D01*
X167304043Y-99559256D01*
X167383496Y-99367441D01*
X167424000Y-99163810D01*
X167424000Y-98956190D01*
X180556000Y-98956190D01*
X180556000Y-99163810D01*
X180596504Y-99367441D01*
X180675957Y-99559256D01*
X180791305Y-99731886D01*
X180938114Y-99878695D01*
X181110744Y-99994043D01*
X181302559Y-100073496D01*
X181506190Y-100114000D01*
X181713810Y-100114000D01*
X181917441Y-100073496D01*
X182109256Y-99994043D01*
X182281886Y-99878695D01*
X182428695Y-99731886D01*
X182544043Y-99559256D01*
X182623496Y-99367441D01*
X182664000Y-99163810D01*
X182664000Y-98956190D01*
X182623496Y-98752559D01*
X182544043Y-98560744D01*
X182428695Y-98388114D01*
X182281886Y-98241305D01*
X182109256Y-98125957D01*
X181917441Y-98046504D01*
X181713810Y-98006000D01*
X181506190Y-98006000D01*
X181302559Y-98046504D01*
X181110744Y-98125957D01*
X180938114Y-98241305D01*
X180791305Y-98388114D01*
X180675957Y-98560744D01*
X180596504Y-98752559D01*
X180556000Y-98956190D01*
X167424000Y-98956190D01*
X167383496Y-98752559D01*
X167304043Y-98560744D01*
X167188695Y-98388114D01*
X167041886Y-98241305D01*
X166869256Y-98125957D01*
X166677441Y-98046504D01*
X166473810Y-98006000D01*
X166266190Y-98006000D01*
X166062559Y-98046504D01*
X165870744Y-98125957D01*
X165698114Y-98241305D01*
X165551305Y-98388114D01*
X165435957Y-98560744D01*
X165356504Y-98752559D01*
X165316000Y-98956190D01*
X158585228Y-98956190D01*
X158585228Y-98210000D01*
X158580324Y-98160207D01*
X158565800Y-98112328D01*
X158542214Y-98068203D01*
X158510473Y-98029527D01*
X158471797Y-97997786D01*
X158427672Y-97974200D01*
X158379793Y-97959676D01*
X158330000Y-97954772D01*
X156630000Y-97954772D01*
X156580207Y-97959676D01*
X156532328Y-97974200D01*
X156488203Y-97997786D01*
X156449527Y-98029527D01*
X156417786Y-98068203D01*
X156394200Y-98112328D01*
X156379676Y-98160207D01*
X156374772Y-98210000D01*
X155651292Y-98210000D01*
X155643759Y-98202467D01*
X155462940Y-98081648D01*
X155262025Y-97998426D01*
X155048735Y-97956000D01*
X154831265Y-97956000D01*
X154617975Y-97998426D01*
X154417060Y-98081648D01*
X154236241Y-98202467D01*
X154082467Y-98356241D01*
X153961648Y-98537060D01*
X153878426Y-98737975D01*
X153836000Y-98951265D01*
X144449000Y-98951265D01*
X144449000Y-98626429D01*
X151247870Y-98626429D01*
X151289479Y-98812000D01*
X152152000Y-98812000D01*
X152152000Y-97951657D01*
X152648000Y-97951657D01*
X152648000Y-98812000D01*
X153510521Y-98812000D01*
X153552130Y-98626429D01*
X153445407Y-98409991D01*
X153298509Y-98218532D01*
X153117082Y-98059410D01*
X152908098Y-97938740D01*
X152833569Y-97907881D01*
X152648000Y-97951657D01*
X152152000Y-97951657D01*
X151966431Y-97907881D01*
X151891902Y-97938740D01*
X151682918Y-98059410D01*
X151501491Y-98218532D01*
X151354593Y-98409991D01*
X151247870Y-98626429D01*
X144449000Y-98626429D01*
X144449000Y-96416190D01*
X165316000Y-96416190D01*
X165316000Y-96623810D01*
X165356504Y-96827441D01*
X165435957Y-97019256D01*
X165551305Y-97191886D01*
X165698114Y-97338695D01*
X165870744Y-97454043D01*
X166062559Y-97533496D01*
X166266190Y-97574000D01*
X166473810Y-97574000D01*
X166677441Y-97533496D01*
X166869256Y-97454043D01*
X167041886Y-97338695D01*
X167188695Y-97191886D01*
X167304043Y-97019256D01*
X167383496Y-96827441D01*
X167424000Y-96623810D01*
X167424000Y-96416190D01*
X167856000Y-96416190D01*
X167856000Y-96623810D01*
X167896504Y-96827441D01*
X167975957Y-97019256D01*
X168091305Y-97191886D01*
X168238114Y-97338695D01*
X168410744Y-97454043D01*
X168602559Y-97533496D01*
X168806190Y-97574000D01*
X169013810Y-97574000D01*
X169217441Y-97533496D01*
X169409256Y-97454043D01*
X169581886Y-97338695D01*
X169728695Y-97191886D01*
X169844043Y-97019256D01*
X169923496Y-96827441D01*
X169964000Y-96623810D01*
X169964000Y-96416190D01*
X170396000Y-96416190D01*
X170396000Y-96623810D01*
X170436504Y-96827441D01*
X170515957Y-97019256D01*
X170631305Y-97191886D01*
X170778114Y-97338695D01*
X170950744Y-97454043D01*
X171142559Y-97533496D01*
X171346190Y-97574000D01*
X171553810Y-97574000D01*
X171757441Y-97533496D01*
X171949256Y-97454043D01*
X172121886Y-97338695D01*
X172268695Y-97191886D01*
X172384043Y-97019256D01*
X172463496Y-96827441D01*
X172504000Y-96623810D01*
X172504000Y-96416190D01*
X172936000Y-96416190D01*
X172936000Y-96623810D01*
X172976504Y-96827441D01*
X173055957Y-97019256D01*
X173171305Y-97191886D01*
X173318114Y-97338695D01*
X173490744Y-97454043D01*
X173682559Y-97533496D01*
X173886190Y-97574000D01*
X174093810Y-97574000D01*
X174297441Y-97533496D01*
X174489256Y-97454043D01*
X174661886Y-97338695D01*
X174808695Y-97191886D01*
X174924043Y-97019256D01*
X175003496Y-96827441D01*
X175044000Y-96623810D01*
X175044000Y-96416190D01*
X175476000Y-96416190D01*
X175476000Y-96623810D01*
X175516504Y-96827441D01*
X175595957Y-97019256D01*
X175711305Y-97191886D01*
X175858114Y-97338695D01*
X176030744Y-97454043D01*
X176222559Y-97533496D01*
X176426190Y-97574000D01*
X176633810Y-97574000D01*
X176837441Y-97533496D01*
X177029256Y-97454043D01*
X177201886Y-97338695D01*
X177348695Y-97191886D01*
X177464043Y-97019256D01*
X177543496Y-96827441D01*
X177584000Y-96623810D01*
X177584000Y-96416190D01*
X178016000Y-96416190D01*
X178016000Y-96623810D01*
X178056504Y-96827441D01*
X178135957Y-97019256D01*
X178251305Y-97191886D01*
X178398114Y-97338695D01*
X178570744Y-97454043D01*
X178762559Y-97533496D01*
X178966190Y-97574000D01*
X179173810Y-97574000D01*
X179377441Y-97533496D01*
X179569256Y-97454043D01*
X179741886Y-97338695D01*
X179888695Y-97191886D01*
X180004043Y-97019256D01*
X180083496Y-96827441D01*
X180124000Y-96623810D01*
X180124000Y-96416190D01*
X180556000Y-96416190D01*
X180556000Y-96623810D01*
X180596504Y-96827441D01*
X180675957Y-97019256D01*
X180791305Y-97191886D01*
X180938114Y-97338695D01*
X181110744Y-97454043D01*
X181302559Y-97533496D01*
X181506190Y-97574000D01*
X181713810Y-97574000D01*
X181917441Y-97533496D01*
X182109256Y-97454043D01*
X182281886Y-97338695D01*
X182428695Y-97191886D01*
X182544043Y-97019256D01*
X182623496Y-96827441D01*
X182664000Y-96623810D01*
X182664000Y-96416190D01*
X182623496Y-96212559D01*
X182544043Y-96020744D01*
X182428695Y-95848114D01*
X182281886Y-95701305D01*
X182109256Y-95585957D01*
X181917441Y-95506504D01*
X181713810Y-95466000D01*
X181506190Y-95466000D01*
X181302559Y-95506504D01*
X181110744Y-95585957D01*
X180938114Y-95701305D01*
X180791305Y-95848114D01*
X180675957Y-96020744D01*
X180596504Y-96212559D01*
X180556000Y-96416190D01*
X180124000Y-96416190D01*
X180083496Y-96212559D01*
X180004043Y-96020744D01*
X179888695Y-95848114D01*
X179741886Y-95701305D01*
X179569256Y-95585957D01*
X179377441Y-95506504D01*
X179173810Y-95466000D01*
X178966190Y-95466000D01*
X178762559Y-95506504D01*
X178570744Y-95585957D01*
X178398114Y-95701305D01*
X178251305Y-95848114D01*
X178135957Y-96020744D01*
X178056504Y-96212559D01*
X178016000Y-96416190D01*
X177584000Y-96416190D01*
X177543496Y-96212559D01*
X177464043Y-96020744D01*
X177348695Y-95848114D01*
X177201886Y-95701305D01*
X177029256Y-95585957D01*
X176837441Y-95506504D01*
X176633810Y-95466000D01*
X176426190Y-95466000D01*
X176222559Y-95506504D01*
X176030744Y-95585957D01*
X175858114Y-95701305D01*
X175711305Y-95848114D01*
X175595957Y-96020744D01*
X175516504Y-96212559D01*
X175476000Y-96416190D01*
X175044000Y-96416190D01*
X175003496Y-96212559D01*
X174924043Y-96020744D01*
X174808695Y-95848114D01*
X174661886Y-95701305D01*
X174489256Y-95585957D01*
X174297441Y-95506504D01*
X174093810Y-95466000D01*
X173886190Y-95466000D01*
X173682559Y-95506504D01*
X173490744Y-95585957D01*
X173318114Y-95701305D01*
X173171305Y-95848114D01*
X173055957Y-96020744D01*
X172976504Y-96212559D01*
X172936000Y-96416190D01*
X172504000Y-96416190D01*
X172463496Y-96212559D01*
X172384043Y-96020744D01*
X172268695Y-95848114D01*
X172121886Y-95701305D01*
X171949256Y-95585957D01*
X171757441Y-95506504D01*
X171553810Y-95466000D01*
X171346190Y-95466000D01*
X171142559Y-95506504D01*
X170950744Y-95585957D01*
X170778114Y-95701305D01*
X170631305Y-95848114D01*
X170515957Y-96020744D01*
X170436504Y-96212559D01*
X170396000Y-96416190D01*
X169964000Y-96416190D01*
X169923496Y-96212559D01*
X169844043Y-96020744D01*
X169728695Y-95848114D01*
X169581886Y-95701305D01*
X169409256Y-95585957D01*
X169217441Y-95506504D01*
X169013810Y-95466000D01*
X168806190Y-95466000D01*
X168602559Y-95506504D01*
X168410744Y-95585957D01*
X168238114Y-95701305D01*
X168091305Y-95848114D01*
X167975957Y-96020744D01*
X167896504Y-96212559D01*
X167856000Y-96416190D01*
X167424000Y-96416190D01*
X167383496Y-96212559D01*
X167304043Y-96020744D01*
X167188695Y-95848114D01*
X167041886Y-95701305D01*
X166869256Y-95585957D01*
X166677441Y-95506504D01*
X166473810Y-95466000D01*
X166266190Y-95466000D01*
X166062559Y-95506504D01*
X165870744Y-95585957D01*
X165698114Y-95701305D01*
X165551305Y-95848114D01*
X165435957Y-96020744D01*
X165356504Y-96212559D01*
X165316000Y-96416190D01*
X144449000Y-96416190D01*
X144449000Y-94413571D01*
X151247870Y-94413571D01*
X151354593Y-94630009D01*
X151501491Y-94821468D01*
X151682918Y-94980590D01*
X151891902Y-95101260D01*
X151966431Y-95132119D01*
X152152000Y-95088343D01*
X152152000Y-94228000D01*
X152648000Y-94228000D01*
X152648000Y-95088343D01*
X152833569Y-95132119D01*
X152908098Y-95101260D01*
X153117082Y-94980590D01*
X153298509Y-94821468D01*
X153445407Y-94630009D01*
X153552130Y-94413571D01*
X153510521Y-94228000D01*
X152648000Y-94228000D01*
X152152000Y-94228000D01*
X151289479Y-94228000D01*
X151247870Y-94413571D01*
X144449000Y-94413571D01*
X144449000Y-93871265D01*
X153836000Y-93871265D01*
X153836000Y-94088735D01*
X153878426Y-94302025D01*
X153961648Y-94502940D01*
X154082467Y-94683759D01*
X154236241Y-94837533D01*
X154417060Y-94958352D01*
X154617975Y-95041574D01*
X154831265Y-95084000D01*
X155048735Y-95084000D01*
X155262025Y-95041574D01*
X155462940Y-94958352D01*
X155643759Y-94837533D01*
X155797533Y-94683759D01*
X155918352Y-94502940D01*
X156001574Y-94302025D01*
X156044000Y-94088735D01*
X156044000Y-93871265D01*
X156001574Y-93657975D01*
X155918352Y-93457060D01*
X155797533Y-93276241D01*
X155651292Y-93130000D01*
X156374772Y-93130000D01*
X156374772Y-94830000D01*
X156379676Y-94879793D01*
X156394200Y-94927672D01*
X156417786Y-94971797D01*
X156449527Y-95010473D01*
X156488203Y-95042214D01*
X156532328Y-95065800D01*
X156580207Y-95080324D01*
X156630000Y-95085228D01*
X158330000Y-95085228D01*
X158379793Y-95080324D01*
X158427672Y-95065800D01*
X158471797Y-95042214D01*
X158510473Y-95010473D01*
X158542214Y-94971797D01*
X158565800Y-94927672D01*
X158580324Y-94879793D01*
X158585228Y-94830000D01*
X158585228Y-93876190D01*
X165316000Y-93876190D01*
X165316000Y-94083810D01*
X165356504Y-94287441D01*
X165435957Y-94479256D01*
X165551305Y-94651886D01*
X165698114Y-94798695D01*
X165870744Y-94914043D01*
X166062559Y-94993496D01*
X166266190Y-95034000D01*
X166473810Y-95034000D01*
X166677441Y-94993496D01*
X166869256Y-94914043D01*
X167041886Y-94798695D01*
X167188695Y-94651886D01*
X167304043Y-94479256D01*
X167383496Y-94287441D01*
X167424000Y-94083810D01*
X167424000Y-93876190D01*
X167856000Y-93876190D01*
X167856000Y-94083810D01*
X167896504Y-94287441D01*
X167975957Y-94479256D01*
X168091305Y-94651886D01*
X168238114Y-94798695D01*
X168410744Y-94914043D01*
X168602559Y-94993496D01*
X168806190Y-95034000D01*
X169013810Y-95034000D01*
X169217441Y-94993496D01*
X169409256Y-94914043D01*
X169581886Y-94798695D01*
X169728695Y-94651886D01*
X169844043Y-94479256D01*
X169923496Y-94287441D01*
X169964000Y-94083810D01*
X169964000Y-93876190D01*
X170396000Y-93876190D01*
X170396000Y-94083810D01*
X170436504Y-94287441D01*
X170515957Y-94479256D01*
X170631305Y-94651886D01*
X170778114Y-94798695D01*
X170950744Y-94914043D01*
X171142559Y-94993496D01*
X171346190Y-95034000D01*
X171553810Y-95034000D01*
X171757441Y-94993496D01*
X171949256Y-94914043D01*
X172121886Y-94798695D01*
X172268695Y-94651886D01*
X172384043Y-94479256D01*
X172463496Y-94287441D01*
X172504000Y-94083810D01*
X172504000Y-93876190D01*
X172936000Y-93876190D01*
X172936000Y-94083810D01*
X172976504Y-94287441D01*
X173055957Y-94479256D01*
X173171305Y-94651886D01*
X173318114Y-94798695D01*
X173490744Y-94914043D01*
X173682559Y-94993496D01*
X173886190Y-95034000D01*
X174093810Y-95034000D01*
X174297441Y-94993496D01*
X174489256Y-94914043D01*
X174661886Y-94798695D01*
X174808695Y-94651886D01*
X174924043Y-94479256D01*
X175003496Y-94287441D01*
X175044000Y-94083810D01*
X175044000Y-93876190D01*
X175476000Y-93876190D01*
X175476000Y-94083810D01*
X175516504Y-94287441D01*
X175595957Y-94479256D01*
X175711305Y-94651886D01*
X175858114Y-94798695D01*
X176030744Y-94914043D01*
X176222559Y-94993496D01*
X176426190Y-95034000D01*
X176633810Y-95034000D01*
X176837441Y-94993496D01*
X177029256Y-94914043D01*
X177201886Y-94798695D01*
X177348695Y-94651886D01*
X177464043Y-94479256D01*
X177543496Y-94287441D01*
X177584000Y-94083810D01*
X177584000Y-93876190D01*
X178016000Y-93876190D01*
X178016000Y-94083810D01*
X178056504Y-94287441D01*
X178135957Y-94479256D01*
X178251305Y-94651886D01*
X178398114Y-94798695D01*
X178570744Y-94914043D01*
X178762559Y-94993496D01*
X178966190Y-95034000D01*
X179173810Y-95034000D01*
X179377441Y-94993496D01*
X179569256Y-94914043D01*
X179741886Y-94798695D01*
X179888695Y-94651886D01*
X180004043Y-94479256D01*
X180083496Y-94287441D01*
X180124000Y-94083810D01*
X180124000Y-93876190D01*
X180556000Y-93876190D01*
X180556000Y-94083810D01*
X180596504Y-94287441D01*
X180675957Y-94479256D01*
X180791305Y-94651886D01*
X180938114Y-94798695D01*
X181110744Y-94914043D01*
X181302559Y-94993496D01*
X181506190Y-95034000D01*
X181713810Y-95034000D01*
X181917441Y-94993496D01*
X182109256Y-94914043D01*
X182281886Y-94798695D01*
X182428695Y-94651886D01*
X182544043Y-94479256D01*
X182623496Y-94287441D01*
X182664000Y-94083810D01*
X182664000Y-93876190D01*
X182623496Y-93672559D01*
X182544043Y-93480744D01*
X182428695Y-93308114D01*
X182281886Y-93161305D01*
X182109256Y-93045957D01*
X181917441Y-92966504D01*
X181713810Y-92926000D01*
X181506190Y-92926000D01*
X181302559Y-92966504D01*
X181110744Y-93045957D01*
X180938114Y-93161305D01*
X180791305Y-93308114D01*
X180675957Y-93480744D01*
X180596504Y-93672559D01*
X180556000Y-93876190D01*
X180124000Y-93876190D01*
X180083496Y-93672559D01*
X180004043Y-93480744D01*
X179888695Y-93308114D01*
X179741886Y-93161305D01*
X179569256Y-93045957D01*
X179377441Y-92966504D01*
X179173810Y-92926000D01*
X178966190Y-92926000D01*
X178762559Y-92966504D01*
X178570744Y-93045957D01*
X178398114Y-93161305D01*
X178251305Y-93308114D01*
X178135957Y-93480744D01*
X178056504Y-93672559D01*
X178016000Y-93876190D01*
X177584000Y-93876190D01*
X177543496Y-93672559D01*
X177464043Y-93480744D01*
X177348695Y-93308114D01*
X177201886Y-93161305D01*
X177029256Y-93045957D01*
X176837441Y-92966504D01*
X176633810Y-92926000D01*
X176426190Y-92926000D01*
X176222559Y-92966504D01*
X176030744Y-93045957D01*
X175858114Y-93161305D01*
X175711305Y-93308114D01*
X175595957Y-93480744D01*
X175516504Y-93672559D01*
X175476000Y-93876190D01*
X175044000Y-93876190D01*
X175003496Y-93672559D01*
X174924043Y-93480744D01*
X174808695Y-93308114D01*
X174661886Y-93161305D01*
X174489256Y-93045957D01*
X174297441Y-92966504D01*
X174093810Y-92926000D01*
X173886190Y-92926000D01*
X173682559Y-92966504D01*
X173490744Y-93045957D01*
X173318114Y-93161305D01*
X173171305Y-93308114D01*
X173055957Y-93480744D01*
X172976504Y-93672559D01*
X172936000Y-93876190D01*
X172504000Y-93876190D01*
X172463496Y-93672559D01*
X172384043Y-93480744D01*
X172268695Y-93308114D01*
X172121886Y-93161305D01*
X171949256Y-93045957D01*
X171757441Y-92966504D01*
X171553810Y-92926000D01*
X171346190Y-92926000D01*
X171142559Y-92966504D01*
X170950744Y-93045957D01*
X170778114Y-93161305D01*
X170631305Y-93308114D01*
X170515957Y-93480744D01*
X170436504Y-93672559D01*
X170396000Y-93876190D01*
X169964000Y-93876190D01*
X169923496Y-93672559D01*
X169844043Y-93480744D01*
X169728695Y-93308114D01*
X169581886Y-93161305D01*
X169409256Y-93045957D01*
X169217441Y-92966504D01*
X169013810Y-92926000D01*
X168806190Y-92926000D01*
X168602559Y-92966504D01*
X168410744Y-93045957D01*
X168238114Y-93161305D01*
X168091305Y-93308114D01*
X167975957Y-93480744D01*
X167896504Y-93672559D01*
X167856000Y-93876190D01*
X167424000Y-93876190D01*
X167383496Y-93672559D01*
X167304043Y-93480744D01*
X167188695Y-93308114D01*
X167041886Y-93161305D01*
X166869256Y-93045957D01*
X166677441Y-92966504D01*
X166473810Y-92926000D01*
X166266190Y-92926000D01*
X166062559Y-92966504D01*
X165870744Y-93045957D01*
X165698114Y-93161305D01*
X165551305Y-93308114D01*
X165435957Y-93480744D01*
X165356504Y-93672559D01*
X165316000Y-93876190D01*
X158585228Y-93876190D01*
X158585228Y-93130000D01*
X158580324Y-93080207D01*
X158565800Y-93032328D01*
X158542214Y-92988203D01*
X158510473Y-92949527D01*
X158471797Y-92917786D01*
X158427672Y-92894200D01*
X158379793Y-92879676D01*
X158330000Y-92874772D01*
X156630000Y-92874772D01*
X156580207Y-92879676D01*
X156532328Y-92894200D01*
X156488203Y-92917786D01*
X156449527Y-92949527D01*
X156417786Y-92988203D01*
X156394200Y-93032328D01*
X156379676Y-93080207D01*
X156374772Y-93130000D01*
X155651292Y-93130000D01*
X155643759Y-93122467D01*
X155462940Y-93001648D01*
X155262025Y-92918426D01*
X155048735Y-92876000D01*
X154831265Y-92876000D01*
X154617975Y-92918426D01*
X154417060Y-93001648D01*
X154236241Y-93122467D01*
X154082467Y-93276241D01*
X153961648Y-93457060D01*
X153878426Y-93657975D01*
X153836000Y-93871265D01*
X144449000Y-93871265D01*
X144449000Y-93546429D01*
X151247870Y-93546429D01*
X151289479Y-93732000D01*
X152152000Y-93732000D01*
X152152000Y-92871657D01*
X152648000Y-92871657D01*
X152648000Y-93732000D01*
X153510521Y-93732000D01*
X153552130Y-93546429D01*
X153445407Y-93329991D01*
X153298509Y-93138532D01*
X153117082Y-92979410D01*
X152908098Y-92858740D01*
X152833569Y-92827881D01*
X152648000Y-92871657D01*
X152152000Y-92871657D01*
X151966431Y-92827881D01*
X151891902Y-92858740D01*
X151682918Y-92979410D01*
X151501491Y-93138532D01*
X151354593Y-93329991D01*
X151247870Y-93546429D01*
X144449000Y-93546429D01*
X144449000Y-91873571D01*
X151247870Y-91873571D01*
X151354593Y-92090009D01*
X151501491Y-92281468D01*
X151682918Y-92440590D01*
X151891902Y-92561260D01*
X151966431Y-92592119D01*
X152152000Y-92548343D01*
X152152000Y-91688000D01*
X152648000Y-91688000D01*
X152648000Y-92548343D01*
X152833569Y-92592119D01*
X152908098Y-92561260D01*
X153117082Y-92440590D01*
X153298509Y-92281468D01*
X153445407Y-92090009D01*
X153552130Y-91873571D01*
X153510521Y-91688000D01*
X152648000Y-91688000D01*
X152152000Y-91688000D01*
X151289479Y-91688000D01*
X151247870Y-91873571D01*
X144449000Y-91873571D01*
X144449000Y-91331265D01*
X153836000Y-91331265D01*
X153836000Y-91548735D01*
X153878426Y-91762025D01*
X153961648Y-91962940D01*
X154082467Y-92143759D01*
X154236241Y-92297533D01*
X154417060Y-92418352D01*
X154617975Y-92501574D01*
X154831265Y-92544000D01*
X155048735Y-92544000D01*
X155262025Y-92501574D01*
X155462940Y-92418352D01*
X155643759Y-92297533D01*
X155797533Y-92143759D01*
X155918352Y-91962940D01*
X156001574Y-91762025D01*
X156044000Y-91548735D01*
X156044000Y-91331265D01*
X156001574Y-91117975D01*
X155918352Y-90917060D01*
X155797533Y-90736241D01*
X155651292Y-90590000D01*
X156374772Y-90590000D01*
X156374772Y-92290000D01*
X156379676Y-92339793D01*
X156394200Y-92387672D01*
X156417786Y-92431797D01*
X156449527Y-92470473D01*
X156488203Y-92502214D01*
X156532328Y-92525800D01*
X156580207Y-92540324D01*
X156630000Y-92545228D01*
X158330000Y-92545228D01*
X158379793Y-92540324D01*
X158427672Y-92525800D01*
X158471797Y-92502214D01*
X158510473Y-92470473D01*
X158542214Y-92431797D01*
X158565800Y-92387672D01*
X158580324Y-92339793D01*
X158585228Y-92290000D01*
X158585228Y-91336190D01*
X165316000Y-91336190D01*
X165316000Y-91543810D01*
X165356504Y-91747441D01*
X165435957Y-91939256D01*
X165551305Y-92111886D01*
X165698114Y-92258695D01*
X165870744Y-92374043D01*
X166062559Y-92453496D01*
X166266190Y-92494000D01*
X166473810Y-92494000D01*
X166677441Y-92453496D01*
X166869256Y-92374043D01*
X167041886Y-92258695D01*
X167188695Y-92111886D01*
X167304043Y-91939256D01*
X167383496Y-91747441D01*
X167424000Y-91543810D01*
X167424000Y-91336190D01*
X180556000Y-91336190D01*
X180556000Y-91543810D01*
X180596504Y-91747441D01*
X180675957Y-91939256D01*
X180791305Y-92111886D01*
X180938114Y-92258695D01*
X181110744Y-92374043D01*
X181302559Y-92453496D01*
X181506190Y-92494000D01*
X181713810Y-92494000D01*
X181917441Y-92453496D01*
X182109256Y-92374043D01*
X182281886Y-92258695D01*
X182428695Y-92111886D01*
X182544043Y-91939256D01*
X182623496Y-91747441D01*
X182664000Y-91543810D01*
X182664000Y-91336190D01*
X182623496Y-91132559D01*
X182544043Y-90940744D01*
X182428695Y-90768114D01*
X182281886Y-90621305D01*
X182109256Y-90505957D01*
X181917441Y-90426504D01*
X181713810Y-90386000D01*
X181506190Y-90386000D01*
X181302559Y-90426504D01*
X181110744Y-90505957D01*
X180938114Y-90621305D01*
X180791305Y-90768114D01*
X180675957Y-90940744D01*
X180596504Y-91132559D01*
X180556000Y-91336190D01*
X167424000Y-91336190D01*
X167383496Y-91132559D01*
X167304043Y-90940744D01*
X167188695Y-90768114D01*
X167041886Y-90621305D01*
X166869256Y-90505957D01*
X166677441Y-90426504D01*
X166473810Y-90386000D01*
X166266190Y-90386000D01*
X166062559Y-90426504D01*
X165870744Y-90505957D01*
X165698114Y-90621305D01*
X165551305Y-90768114D01*
X165435957Y-90940744D01*
X165356504Y-91132559D01*
X165316000Y-91336190D01*
X158585228Y-91336190D01*
X158585228Y-90590000D01*
X158580324Y-90540207D01*
X158565800Y-90492328D01*
X158542214Y-90448203D01*
X158510473Y-90409527D01*
X158471797Y-90377786D01*
X158427672Y-90354200D01*
X158379793Y-90339676D01*
X158330000Y-90334772D01*
X156630000Y-90334772D01*
X156580207Y-90339676D01*
X156532328Y-90354200D01*
X156488203Y-90377786D01*
X156449527Y-90409527D01*
X156417786Y-90448203D01*
X156394200Y-90492328D01*
X156379676Y-90540207D01*
X156374772Y-90590000D01*
X155651292Y-90590000D01*
X155643759Y-90582467D01*
X155462940Y-90461648D01*
X155262025Y-90378426D01*
X155048735Y-90336000D01*
X154831265Y-90336000D01*
X154617975Y-90378426D01*
X154417060Y-90461648D01*
X154236241Y-90582467D01*
X154082467Y-90736241D01*
X153961648Y-90917060D01*
X153878426Y-91117975D01*
X153836000Y-91331265D01*
X144449000Y-91331265D01*
X144449000Y-91006429D01*
X151247870Y-91006429D01*
X151289479Y-91192000D01*
X152152000Y-91192000D01*
X152152000Y-90331657D01*
X152648000Y-90331657D01*
X152648000Y-91192000D01*
X153510521Y-91192000D01*
X153552130Y-91006429D01*
X153445407Y-90789991D01*
X153298509Y-90598532D01*
X153117082Y-90439410D01*
X152908098Y-90318740D01*
X152833569Y-90287881D01*
X152648000Y-90331657D01*
X152152000Y-90331657D01*
X151966431Y-90287881D01*
X151891902Y-90318740D01*
X151682918Y-90439410D01*
X151501491Y-90598532D01*
X151354593Y-90789991D01*
X151247870Y-91006429D01*
X144449000Y-91006429D01*
X144449000Y-89333571D01*
X151247870Y-89333571D01*
X151354593Y-89550009D01*
X151501491Y-89741468D01*
X151682918Y-89900590D01*
X151891902Y-90021260D01*
X151966431Y-90052119D01*
X152152000Y-90008343D01*
X152152000Y-89148000D01*
X152648000Y-89148000D01*
X152648000Y-90008343D01*
X152833569Y-90052119D01*
X152908098Y-90021260D01*
X153117082Y-89900590D01*
X153298509Y-89741468D01*
X153445407Y-89550009D01*
X153552130Y-89333571D01*
X153510521Y-89148000D01*
X152648000Y-89148000D01*
X152152000Y-89148000D01*
X151289479Y-89148000D01*
X151247870Y-89333571D01*
X144449000Y-89333571D01*
X144449000Y-88791265D01*
X153836000Y-88791265D01*
X153836000Y-89008735D01*
X153878426Y-89222025D01*
X153961648Y-89422940D01*
X154082467Y-89603759D01*
X154236241Y-89757533D01*
X154417060Y-89878352D01*
X154617975Y-89961574D01*
X154831265Y-90004000D01*
X155048735Y-90004000D01*
X155262025Y-89961574D01*
X155462940Y-89878352D01*
X155643759Y-89757533D01*
X155797533Y-89603759D01*
X155918352Y-89422940D01*
X156001574Y-89222025D01*
X156044000Y-89008735D01*
X156044000Y-88791265D01*
X156001574Y-88577975D01*
X155918352Y-88377060D01*
X155797533Y-88196241D01*
X155651292Y-88050000D01*
X156374772Y-88050000D01*
X156374772Y-89750000D01*
X156379676Y-89799793D01*
X156394200Y-89847672D01*
X156417786Y-89891797D01*
X156449527Y-89930473D01*
X156488203Y-89962214D01*
X156532328Y-89985800D01*
X156580207Y-90000324D01*
X156630000Y-90005228D01*
X158330000Y-90005228D01*
X158379793Y-90000324D01*
X158427672Y-89985800D01*
X158471797Y-89962214D01*
X158510473Y-89930473D01*
X158542214Y-89891797D01*
X158565800Y-89847672D01*
X158580324Y-89799793D01*
X158585228Y-89750000D01*
X158585228Y-88796190D01*
X165316000Y-88796190D01*
X165316000Y-89003810D01*
X165356504Y-89207441D01*
X165435957Y-89399256D01*
X165551305Y-89571886D01*
X165698114Y-89718695D01*
X165870744Y-89834043D01*
X166062559Y-89913496D01*
X166266190Y-89954000D01*
X166473810Y-89954000D01*
X166677441Y-89913496D01*
X166869256Y-89834043D01*
X167041886Y-89718695D01*
X167188695Y-89571886D01*
X167304043Y-89399256D01*
X167383496Y-89207441D01*
X167424000Y-89003810D01*
X167424000Y-88796190D01*
X180556000Y-88796190D01*
X180556000Y-89003810D01*
X180596504Y-89207441D01*
X180675957Y-89399256D01*
X180791305Y-89571886D01*
X180938114Y-89718695D01*
X181110744Y-89834043D01*
X181302559Y-89913496D01*
X181506190Y-89954000D01*
X181713810Y-89954000D01*
X181917441Y-89913496D01*
X182109256Y-89834043D01*
X182281886Y-89718695D01*
X182428695Y-89571886D01*
X182544043Y-89399256D01*
X182623496Y-89207441D01*
X182664000Y-89003810D01*
X182664000Y-88796190D01*
X182623496Y-88592559D01*
X182544043Y-88400744D01*
X182428695Y-88228114D01*
X182281886Y-88081305D01*
X182109256Y-87965957D01*
X181917441Y-87886504D01*
X181713810Y-87846000D01*
X181506190Y-87846000D01*
X181302559Y-87886504D01*
X181110744Y-87965957D01*
X180938114Y-88081305D01*
X180791305Y-88228114D01*
X180675957Y-88400744D01*
X180596504Y-88592559D01*
X180556000Y-88796190D01*
X167424000Y-88796190D01*
X167383496Y-88592559D01*
X167304043Y-88400744D01*
X167188695Y-88228114D01*
X167041886Y-88081305D01*
X166869256Y-87965957D01*
X166677441Y-87886504D01*
X166473810Y-87846000D01*
X166266190Y-87846000D01*
X166062559Y-87886504D01*
X165870744Y-87965957D01*
X165698114Y-88081305D01*
X165551305Y-88228114D01*
X165435957Y-88400744D01*
X165356504Y-88592559D01*
X165316000Y-88796190D01*
X158585228Y-88796190D01*
X158585228Y-88050000D01*
X158580324Y-88000207D01*
X158565800Y-87952328D01*
X158542214Y-87908203D01*
X158510473Y-87869527D01*
X158471797Y-87837786D01*
X158427672Y-87814200D01*
X158379793Y-87799676D01*
X158330000Y-87794772D01*
X156630000Y-87794772D01*
X156580207Y-87799676D01*
X156532328Y-87814200D01*
X156488203Y-87837786D01*
X156449527Y-87869527D01*
X156417786Y-87908203D01*
X156394200Y-87952328D01*
X156379676Y-88000207D01*
X156374772Y-88050000D01*
X155651292Y-88050000D01*
X155643759Y-88042467D01*
X155462940Y-87921648D01*
X155262025Y-87838426D01*
X155048735Y-87796000D01*
X154831265Y-87796000D01*
X154617975Y-87838426D01*
X154417060Y-87921648D01*
X154236241Y-88042467D01*
X154082467Y-88196241D01*
X153961648Y-88377060D01*
X153878426Y-88577975D01*
X153836000Y-88791265D01*
X144449000Y-88791265D01*
X144449000Y-88466429D01*
X151247870Y-88466429D01*
X151289479Y-88652000D01*
X152152000Y-88652000D01*
X152152000Y-87791657D01*
X152648000Y-87791657D01*
X152648000Y-88652000D01*
X153510521Y-88652000D01*
X153552130Y-88466429D01*
X153445407Y-88249991D01*
X153298509Y-88058532D01*
X153117082Y-87899410D01*
X152908098Y-87778740D01*
X152833569Y-87747881D01*
X152648000Y-87791657D01*
X152152000Y-87791657D01*
X151966431Y-87747881D01*
X151891902Y-87778740D01*
X151682918Y-87899410D01*
X151501491Y-88058532D01*
X151354593Y-88249991D01*
X151247870Y-88466429D01*
X144449000Y-88466429D01*
X144449000Y-86256190D01*
X165316000Y-86256190D01*
X165316000Y-86463810D01*
X165356504Y-86667441D01*
X165435957Y-86859256D01*
X165551305Y-87031886D01*
X165698114Y-87178695D01*
X165870744Y-87294043D01*
X166062559Y-87373496D01*
X166266190Y-87414000D01*
X166473810Y-87414000D01*
X166677441Y-87373496D01*
X166869256Y-87294043D01*
X167041886Y-87178695D01*
X167188695Y-87031886D01*
X167304043Y-86859256D01*
X167383496Y-86667441D01*
X167424000Y-86463810D01*
X167424000Y-86256190D01*
X180556000Y-86256190D01*
X180556000Y-86463810D01*
X180596504Y-86667441D01*
X180675957Y-86859256D01*
X180791305Y-87031886D01*
X180938114Y-87178695D01*
X181110744Y-87294043D01*
X181302559Y-87373496D01*
X181506190Y-87414000D01*
X181713810Y-87414000D01*
X181917441Y-87373496D01*
X182109256Y-87294043D01*
X182281886Y-87178695D01*
X182428695Y-87031886D01*
X182544043Y-86859256D01*
X182623496Y-86667441D01*
X182664000Y-86463810D01*
X182664000Y-86256190D01*
X182623496Y-86052559D01*
X182544043Y-85860744D01*
X182428695Y-85688114D01*
X182281886Y-85541305D01*
X182109256Y-85425957D01*
X181917441Y-85346504D01*
X181713810Y-85306000D01*
X181506190Y-85306000D01*
X181302559Y-85346504D01*
X181110744Y-85425957D01*
X180938114Y-85541305D01*
X180791305Y-85688114D01*
X180675957Y-85860744D01*
X180596504Y-86052559D01*
X180556000Y-86256190D01*
X167424000Y-86256190D01*
X167383496Y-86052559D01*
X167304043Y-85860744D01*
X167188695Y-85688114D01*
X167041886Y-85541305D01*
X166869256Y-85425957D01*
X166677441Y-85346504D01*
X166473810Y-85306000D01*
X166266190Y-85306000D01*
X166062559Y-85346504D01*
X165870744Y-85425957D01*
X165698114Y-85541305D01*
X165551305Y-85688114D01*
X165435957Y-85860744D01*
X165356504Y-86052559D01*
X165316000Y-86256190D01*
X144449000Y-86256190D01*
X144449000Y-84253571D01*
X151247870Y-84253571D01*
X151354593Y-84470009D01*
X151501491Y-84661468D01*
X151682918Y-84820590D01*
X151891902Y-84941260D01*
X151966431Y-84972119D01*
X152152000Y-84928343D01*
X152152000Y-84068000D01*
X152648000Y-84068000D01*
X152648000Y-84928343D01*
X152833569Y-84972119D01*
X152908098Y-84941260D01*
X153117082Y-84820590D01*
X153298509Y-84661468D01*
X153445407Y-84470009D01*
X153552130Y-84253571D01*
X153510521Y-84068000D01*
X152648000Y-84068000D01*
X152152000Y-84068000D01*
X151289479Y-84068000D01*
X151247870Y-84253571D01*
X144449000Y-84253571D01*
X144449000Y-83711265D01*
X153836000Y-83711265D01*
X153836000Y-83928735D01*
X153878426Y-84142025D01*
X153961648Y-84342940D01*
X154082467Y-84523759D01*
X154236241Y-84677533D01*
X154417060Y-84798352D01*
X154617975Y-84881574D01*
X154831265Y-84924000D01*
X155048735Y-84924000D01*
X155262025Y-84881574D01*
X155462940Y-84798352D01*
X155643759Y-84677533D01*
X155797533Y-84523759D01*
X155918352Y-84342940D01*
X156001574Y-84142025D01*
X156044000Y-83928735D01*
X156044000Y-83711265D01*
X156001574Y-83497975D01*
X155918352Y-83297060D01*
X155797533Y-83116241D01*
X155651292Y-82970000D01*
X156374772Y-82970000D01*
X156374772Y-84670000D01*
X156379676Y-84719793D01*
X156394200Y-84767672D01*
X156417786Y-84811797D01*
X156449527Y-84850473D01*
X156488203Y-84882214D01*
X156532328Y-84905800D01*
X156580207Y-84920324D01*
X156630000Y-84925228D01*
X158330000Y-84925228D01*
X158379793Y-84920324D01*
X158427672Y-84905800D01*
X158471797Y-84882214D01*
X158510473Y-84850473D01*
X158542214Y-84811797D01*
X158565800Y-84767672D01*
X158580324Y-84719793D01*
X158585228Y-84670000D01*
X158585228Y-83716190D01*
X165316000Y-83716190D01*
X165316000Y-83923810D01*
X165356504Y-84127441D01*
X165435957Y-84319256D01*
X165551305Y-84491886D01*
X165698114Y-84638695D01*
X165870744Y-84754043D01*
X166062559Y-84833496D01*
X166266190Y-84874000D01*
X166473810Y-84874000D01*
X166677441Y-84833496D01*
X166869256Y-84754043D01*
X167041886Y-84638695D01*
X167188695Y-84491886D01*
X167304043Y-84319256D01*
X167383496Y-84127441D01*
X167424000Y-83923810D01*
X167424000Y-83716190D01*
X180556000Y-83716190D01*
X180556000Y-83923810D01*
X180596504Y-84127441D01*
X180675957Y-84319256D01*
X180791305Y-84491886D01*
X180938114Y-84638695D01*
X181110744Y-84754043D01*
X181302559Y-84833496D01*
X181506190Y-84874000D01*
X181713810Y-84874000D01*
X181917441Y-84833496D01*
X182109256Y-84754043D01*
X182281886Y-84638695D01*
X182428695Y-84491886D01*
X182544043Y-84319256D01*
X182623496Y-84127441D01*
X182664000Y-83923810D01*
X182664000Y-83716190D01*
X182623496Y-83512559D01*
X182544043Y-83320744D01*
X182428695Y-83148114D01*
X182281886Y-83001305D01*
X182109256Y-82885957D01*
X181917441Y-82806504D01*
X181713810Y-82766000D01*
X181506190Y-82766000D01*
X181302559Y-82806504D01*
X181110744Y-82885957D01*
X180938114Y-83001305D01*
X180791305Y-83148114D01*
X180675957Y-83320744D01*
X180596504Y-83512559D01*
X180556000Y-83716190D01*
X167424000Y-83716190D01*
X167383496Y-83512559D01*
X167304043Y-83320744D01*
X167188695Y-83148114D01*
X167041886Y-83001305D01*
X166869256Y-82885957D01*
X166677441Y-82806504D01*
X166473810Y-82766000D01*
X166266190Y-82766000D01*
X166062559Y-82806504D01*
X165870744Y-82885957D01*
X165698114Y-83001305D01*
X165551305Y-83148114D01*
X165435957Y-83320744D01*
X165356504Y-83512559D01*
X165316000Y-83716190D01*
X158585228Y-83716190D01*
X158585228Y-82970000D01*
X158580324Y-82920207D01*
X158565800Y-82872328D01*
X158542214Y-82828203D01*
X158510473Y-82789527D01*
X158471797Y-82757786D01*
X158427672Y-82734200D01*
X158379793Y-82719676D01*
X158330000Y-82714772D01*
X156630000Y-82714772D01*
X156580207Y-82719676D01*
X156532328Y-82734200D01*
X156488203Y-82757786D01*
X156449527Y-82789527D01*
X156417786Y-82828203D01*
X156394200Y-82872328D01*
X156379676Y-82920207D01*
X156374772Y-82970000D01*
X155651292Y-82970000D01*
X155643759Y-82962467D01*
X155462940Y-82841648D01*
X155262025Y-82758426D01*
X155048735Y-82716000D01*
X154831265Y-82716000D01*
X154617975Y-82758426D01*
X154417060Y-82841648D01*
X154236241Y-82962467D01*
X154082467Y-83116241D01*
X153961648Y-83297060D01*
X153878426Y-83497975D01*
X153836000Y-83711265D01*
X144449000Y-83711265D01*
X144449000Y-83386429D01*
X151247870Y-83386429D01*
X151289479Y-83572000D01*
X152152000Y-83572000D01*
X152152000Y-82711657D01*
X152648000Y-82711657D01*
X152648000Y-83572000D01*
X153510521Y-83572000D01*
X153552130Y-83386429D01*
X153445407Y-83169991D01*
X153298509Y-82978532D01*
X153117082Y-82819410D01*
X152908098Y-82698740D01*
X152833569Y-82667881D01*
X152648000Y-82711657D01*
X152152000Y-82711657D01*
X151966431Y-82667881D01*
X151891902Y-82698740D01*
X151682918Y-82819410D01*
X151501491Y-82978532D01*
X151354593Y-83169991D01*
X151247870Y-83386429D01*
X144449000Y-83386429D01*
X144449000Y-81713571D01*
X151247870Y-81713571D01*
X151354593Y-81930009D01*
X151501491Y-82121468D01*
X151682918Y-82280590D01*
X151891902Y-82401260D01*
X151966431Y-82432119D01*
X152152000Y-82388343D01*
X152152000Y-81528000D01*
X152648000Y-81528000D01*
X152648000Y-82388343D01*
X152833569Y-82432119D01*
X152908098Y-82401260D01*
X153117082Y-82280590D01*
X153298509Y-82121468D01*
X153445407Y-81930009D01*
X153552130Y-81713571D01*
X153510521Y-81528000D01*
X152648000Y-81528000D01*
X152152000Y-81528000D01*
X151289479Y-81528000D01*
X151247870Y-81713571D01*
X144449000Y-81713571D01*
X144449000Y-81171265D01*
X153836000Y-81171265D01*
X153836000Y-81388735D01*
X153878426Y-81602025D01*
X153961648Y-81802940D01*
X154082467Y-81983759D01*
X154236241Y-82137533D01*
X154417060Y-82258352D01*
X154617975Y-82341574D01*
X154831265Y-82384000D01*
X155048735Y-82384000D01*
X155262025Y-82341574D01*
X155462940Y-82258352D01*
X155643759Y-82137533D01*
X155797533Y-81983759D01*
X155918352Y-81802940D01*
X156001574Y-81602025D01*
X156044000Y-81388735D01*
X156044000Y-81171265D01*
X156001574Y-80957975D01*
X155918352Y-80757060D01*
X155797533Y-80576241D01*
X155651292Y-80430000D01*
X156374772Y-80430000D01*
X156374772Y-82130000D01*
X156379676Y-82179793D01*
X156394200Y-82227672D01*
X156417786Y-82271797D01*
X156449527Y-82310473D01*
X156488203Y-82342214D01*
X156532328Y-82365800D01*
X156580207Y-82380324D01*
X156630000Y-82385228D01*
X158330000Y-82385228D01*
X158379793Y-82380324D01*
X158427672Y-82365800D01*
X158471797Y-82342214D01*
X158510473Y-82310473D01*
X158542214Y-82271797D01*
X158565800Y-82227672D01*
X158580324Y-82179793D01*
X158585228Y-82130000D01*
X158585228Y-81176190D01*
X165316000Y-81176190D01*
X165316000Y-81383810D01*
X165356504Y-81587441D01*
X165435957Y-81779256D01*
X165551305Y-81951886D01*
X165698114Y-82098695D01*
X165870744Y-82214043D01*
X166062559Y-82293496D01*
X166266190Y-82334000D01*
X166473810Y-82334000D01*
X166677441Y-82293496D01*
X166869256Y-82214043D01*
X167041886Y-82098695D01*
X167188695Y-81951886D01*
X167304043Y-81779256D01*
X167383496Y-81587441D01*
X167424000Y-81383810D01*
X167424000Y-81176190D01*
X180556000Y-81176190D01*
X180556000Y-81383810D01*
X180596504Y-81587441D01*
X180675957Y-81779256D01*
X180791305Y-81951886D01*
X180938114Y-82098695D01*
X181110744Y-82214043D01*
X181302559Y-82293496D01*
X181506190Y-82334000D01*
X181713810Y-82334000D01*
X181917441Y-82293496D01*
X182109256Y-82214043D01*
X182281886Y-82098695D01*
X182428695Y-81951886D01*
X182544043Y-81779256D01*
X182623496Y-81587441D01*
X182664000Y-81383810D01*
X182664000Y-81176190D01*
X182623496Y-80972559D01*
X182544043Y-80780744D01*
X182428695Y-80608114D01*
X182281886Y-80461305D01*
X182109256Y-80345957D01*
X181917441Y-80266504D01*
X181713810Y-80226000D01*
X181506190Y-80226000D01*
X181302559Y-80266504D01*
X181110744Y-80345957D01*
X180938114Y-80461305D01*
X180791305Y-80608114D01*
X180675957Y-80780744D01*
X180596504Y-80972559D01*
X180556000Y-81176190D01*
X167424000Y-81176190D01*
X167383496Y-80972559D01*
X167304043Y-80780744D01*
X167188695Y-80608114D01*
X167041886Y-80461305D01*
X166869256Y-80345957D01*
X166677441Y-80266504D01*
X166473810Y-80226000D01*
X166266190Y-80226000D01*
X166062559Y-80266504D01*
X165870744Y-80345957D01*
X165698114Y-80461305D01*
X165551305Y-80608114D01*
X165435957Y-80780744D01*
X165356504Y-80972559D01*
X165316000Y-81176190D01*
X158585228Y-81176190D01*
X158585228Y-80430000D01*
X158580324Y-80380207D01*
X158565800Y-80332328D01*
X158542214Y-80288203D01*
X158510473Y-80249527D01*
X158471797Y-80217786D01*
X158427672Y-80194200D01*
X158379793Y-80179676D01*
X158330000Y-80174772D01*
X156630000Y-80174772D01*
X156580207Y-80179676D01*
X156532328Y-80194200D01*
X156488203Y-80217786D01*
X156449527Y-80249527D01*
X156417786Y-80288203D01*
X156394200Y-80332328D01*
X156379676Y-80380207D01*
X156374772Y-80430000D01*
X155651292Y-80430000D01*
X155643759Y-80422467D01*
X155462940Y-80301648D01*
X155262025Y-80218426D01*
X155048735Y-80176000D01*
X154831265Y-80176000D01*
X154617975Y-80218426D01*
X154417060Y-80301648D01*
X154236241Y-80422467D01*
X154082467Y-80576241D01*
X153961648Y-80757060D01*
X153878426Y-80957975D01*
X153836000Y-81171265D01*
X144449000Y-81171265D01*
X144449000Y-80846429D01*
X151247870Y-80846429D01*
X151289479Y-81032000D01*
X152152000Y-81032000D01*
X152152000Y-80171657D01*
X152648000Y-80171657D01*
X152648000Y-81032000D01*
X153510521Y-81032000D01*
X153552130Y-80846429D01*
X153445407Y-80629991D01*
X153298509Y-80438532D01*
X153117082Y-80279410D01*
X152908098Y-80158740D01*
X152833569Y-80127881D01*
X152648000Y-80171657D01*
X152152000Y-80171657D01*
X151966431Y-80127881D01*
X151891902Y-80158740D01*
X151682918Y-80279410D01*
X151501491Y-80438532D01*
X151354593Y-80629991D01*
X151247870Y-80846429D01*
X144449000Y-80846429D01*
X144449000Y-79173571D01*
X151247870Y-79173571D01*
X151354593Y-79390009D01*
X151501491Y-79581468D01*
X151682918Y-79740590D01*
X151891902Y-79861260D01*
X151966431Y-79892119D01*
X152152000Y-79848343D01*
X152152000Y-78988000D01*
X152648000Y-78988000D01*
X152648000Y-79848343D01*
X152833569Y-79892119D01*
X152908098Y-79861260D01*
X153117082Y-79740590D01*
X153298509Y-79581468D01*
X153445407Y-79390009D01*
X153552130Y-79173571D01*
X153510521Y-78988000D01*
X152648000Y-78988000D01*
X152152000Y-78988000D01*
X151289479Y-78988000D01*
X151247870Y-79173571D01*
X144449000Y-79173571D01*
X144449000Y-78631265D01*
X153836000Y-78631265D01*
X153836000Y-78848735D01*
X153878426Y-79062025D01*
X153961648Y-79262940D01*
X154082467Y-79443759D01*
X154236241Y-79597533D01*
X154417060Y-79718352D01*
X154617975Y-79801574D01*
X154831265Y-79844000D01*
X155048735Y-79844000D01*
X155262025Y-79801574D01*
X155462940Y-79718352D01*
X155643759Y-79597533D01*
X155797533Y-79443759D01*
X155918352Y-79262940D01*
X156001574Y-79062025D01*
X156044000Y-78848735D01*
X156044000Y-78631265D01*
X156001574Y-78417975D01*
X155918352Y-78217060D01*
X155797533Y-78036241D01*
X155651292Y-77890000D01*
X156374772Y-77890000D01*
X156374772Y-79590000D01*
X156379676Y-79639793D01*
X156394200Y-79687672D01*
X156417786Y-79731797D01*
X156449527Y-79770473D01*
X156488203Y-79802214D01*
X156532328Y-79825800D01*
X156580207Y-79840324D01*
X156630000Y-79845228D01*
X158330000Y-79845228D01*
X158379793Y-79840324D01*
X158427672Y-79825800D01*
X158471797Y-79802214D01*
X158510473Y-79770473D01*
X158542214Y-79731797D01*
X158565800Y-79687672D01*
X158580324Y-79639793D01*
X158585228Y-79590000D01*
X158585228Y-78636190D01*
X165316000Y-78636190D01*
X165316000Y-78843810D01*
X165356504Y-79047441D01*
X165435957Y-79239256D01*
X165551305Y-79411886D01*
X165698114Y-79558695D01*
X165870744Y-79674043D01*
X166062559Y-79753496D01*
X166266190Y-79794000D01*
X166473810Y-79794000D01*
X166677441Y-79753496D01*
X166869256Y-79674043D01*
X167041886Y-79558695D01*
X167188695Y-79411886D01*
X167304043Y-79239256D01*
X167383496Y-79047441D01*
X167424000Y-78843810D01*
X167424000Y-78636190D01*
X180556000Y-78636190D01*
X180556000Y-78843810D01*
X180596504Y-79047441D01*
X180675957Y-79239256D01*
X180791305Y-79411886D01*
X180938114Y-79558695D01*
X181110744Y-79674043D01*
X181302559Y-79753496D01*
X181506190Y-79794000D01*
X181713810Y-79794000D01*
X181917441Y-79753496D01*
X182109256Y-79674043D01*
X182281886Y-79558695D01*
X182428695Y-79411886D01*
X182544043Y-79239256D01*
X182623496Y-79047441D01*
X182664000Y-78843810D01*
X182664000Y-78636190D01*
X182623496Y-78432559D01*
X182544043Y-78240744D01*
X182428695Y-78068114D01*
X182281886Y-77921305D01*
X182109256Y-77805957D01*
X181917441Y-77726504D01*
X181713810Y-77686000D01*
X181506190Y-77686000D01*
X181302559Y-77726504D01*
X181110744Y-77805957D01*
X180938114Y-77921305D01*
X180791305Y-78068114D01*
X180675957Y-78240744D01*
X180596504Y-78432559D01*
X180556000Y-78636190D01*
X167424000Y-78636190D01*
X167383496Y-78432559D01*
X167304043Y-78240744D01*
X167188695Y-78068114D01*
X167041886Y-77921305D01*
X166869256Y-77805957D01*
X166677441Y-77726504D01*
X166473810Y-77686000D01*
X166266190Y-77686000D01*
X166062559Y-77726504D01*
X165870744Y-77805957D01*
X165698114Y-77921305D01*
X165551305Y-78068114D01*
X165435957Y-78240744D01*
X165356504Y-78432559D01*
X165316000Y-78636190D01*
X158585228Y-78636190D01*
X158585228Y-77890000D01*
X158580324Y-77840207D01*
X158565800Y-77792328D01*
X158542214Y-77748203D01*
X158510473Y-77709527D01*
X158471797Y-77677786D01*
X158427672Y-77654200D01*
X158379793Y-77639676D01*
X158330000Y-77634772D01*
X156630000Y-77634772D01*
X156580207Y-77639676D01*
X156532328Y-77654200D01*
X156488203Y-77677786D01*
X156449527Y-77709527D01*
X156417786Y-77748203D01*
X156394200Y-77792328D01*
X156379676Y-77840207D01*
X156374772Y-77890000D01*
X155651292Y-77890000D01*
X155643759Y-77882467D01*
X155462940Y-77761648D01*
X155262025Y-77678426D01*
X155048735Y-77636000D01*
X154831265Y-77636000D01*
X154617975Y-77678426D01*
X154417060Y-77761648D01*
X154236241Y-77882467D01*
X154082467Y-78036241D01*
X153961648Y-78217060D01*
X153878426Y-78417975D01*
X153836000Y-78631265D01*
X144449000Y-78631265D01*
X144449000Y-78306429D01*
X151247870Y-78306429D01*
X151289479Y-78492000D01*
X152152000Y-78492000D01*
X152152000Y-77631657D01*
X152648000Y-77631657D01*
X152648000Y-78492000D01*
X153510521Y-78492000D01*
X153552130Y-78306429D01*
X153445407Y-78089991D01*
X153298509Y-77898532D01*
X153117082Y-77739410D01*
X152908098Y-77618740D01*
X152833569Y-77587881D01*
X152648000Y-77631657D01*
X152152000Y-77631657D01*
X151966431Y-77587881D01*
X151891902Y-77618740D01*
X151682918Y-77739410D01*
X151501491Y-77898532D01*
X151354593Y-78089991D01*
X151247870Y-78306429D01*
X144449000Y-78306429D01*
X144449000Y-76096190D01*
X165316000Y-76096190D01*
X165316000Y-76303810D01*
X165356504Y-76507441D01*
X165435957Y-76699256D01*
X165551305Y-76871886D01*
X165698114Y-77018695D01*
X165870744Y-77134043D01*
X166062559Y-77213496D01*
X166266190Y-77254000D01*
X166473810Y-77254000D01*
X166677441Y-77213496D01*
X166869256Y-77134043D01*
X167041886Y-77018695D01*
X167188695Y-76871886D01*
X167304043Y-76699256D01*
X167383496Y-76507441D01*
X167424000Y-76303810D01*
X167424000Y-76096190D01*
X180556000Y-76096190D01*
X180556000Y-76303810D01*
X180596504Y-76507441D01*
X180675957Y-76699256D01*
X180791305Y-76871886D01*
X180938114Y-77018695D01*
X181110744Y-77134043D01*
X181302559Y-77213496D01*
X181506190Y-77254000D01*
X181713810Y-77254000D01*
X181917441Y-77213496D01*
X182109256Y-77134043D01*
X182281886Y-77018695D01*
X182428695Y-76871886D01*
X182544043Y-76699256D01*
X182623496Y-76507441D01*
X182664000Y-76303810D01*
X182664000Y-76096190D01*
X182623496Y-75892559D01*
X182544043Y-75700744D01*
X182428695Y-75528114D01*
X182281886Y-75381305D01*
X182109256Y-75265957D01*
X181917441Y-75186504D01*
X181713810Y-75146000D01*
X181506190Y-75146000D01*
X181302559Y-75186504D01*
X181110744Y-75265957D01*
X180938114Y-75381305D01*
X180791305Y-75528114D01*
X180675957Y-75700744D01*
X180596504Y-75892559D01*
X180556000Y-76096190D01*
X167424000Y-76096190D01*
X167383496Y-75892559D01*
X167304043Y-75700744D01*
X167188695Y-75528114D01*
X167041886Y-75381305D01*
X166869256Y-75265957D01*
X166677441Y-75186504D01*
X166473810Y-75146000D01*
X166266190Y-75146000D01*
X166062559Y-75186504D01*
X165870744Y-75265957D01*
X165698114Y-75381305D01*
X165551305Y-75528114D01*
X165435957Y-75700744D01*
X165356504Y-75892559D01*
X165316000Y-76096190D01*
X144449000Y-76096190D01*
X144449000Y-74093571D01*
X151247870Y-74093571D01*
X151354593Y-74310009D01*
X151501491Y-74501468D01*
X151682918Y-74660590D01*
X151891902Y-74781260D01*
X151966431Y-74812119D01*
X152152000Y-74768343D01*
X152152000Y-73908000D01*
X152648000Y-73908000D01*
X152648000Y-74768343D01*
X152833569Y-74812119D01*
X152908098Y-74781260D01*
X153117082Y-74660590D01*
X153298509Y-74501468D01*
X153445407Y-74310009D01*
X153552130Y-74093571D01*
X153510521Y-73908000D01*
X152648000Y-73908000D01*
X152152000Y-73908000D01*
X151289479Y-73908000D01*
X151247870Y-74093571D01*
X144449000Y-74093571D01*
X144449000Y-73551265D01*
X153836000Y-73551265D01*
X153836000Y-73768735D01*
X153878426Y-73982025D01*
X153961648Y-74182940D01*
X154082467Y-74363759D01*
X154236241Y-74517533D01*
X154417060Y-74638352D01*
X154617975Y-74721574D01*
X154831265Y-74764000D01*
X155048735Y-74764000D01*
X155262025Y-74721574D01*
X155462940Y-74638352D01*
X155643759Y-74517533D01*
X155797533Y-74363759D01*
X155918352Y-74182940D01*
X156001574Y-73982025D01*
X156044000Y-73768735D01*
X156044000Y-73551265D01*
X156001574Y-73337975D01*
X155918352Y-73137060D01*
X155797533Y-72956241D01*
X155651292Y-72810000D01*
X156374772Y-72810000D01*
X156374772Y-74510000D01*
X156379676Y-74559793D01*
X156394200Y-74607672D01*
X156417786Y-74651797D01*
X156449527Y-74690473D01*
X156488203Y-74722214D01*
X156532328Y-74745800D01*
X156580207Y-74760324D01*
X156630000Y-74765228D01*
X158330000Y-74765228D01*
X158379793Y-74760324D01*
X158427672Y-74745800D01*
X158471797Y-74722214D01*
X158510473Y-74690473D01*
X158542214Y-74651797D01*
X158565800Y-74607672D01*
X158580324Y-74559793D01*
X158585228Y-74510000D01*
X158585228Y-73556190D01*
X165316000Y-73556190D01*
X165316000Y-73763810D01*
X165356504Y-73967441D01*
X165435957Y-74159256D01*
X165551305Y-74331886D01*
X165698114Y-74478695D01*
X165870744Y-74594043D01*
X166062559Y-74673496D01*
X166266190Y-74714000D01*
X166473810Y-74714000D01*
X166677441Y-74673496D01*
X166869256Y-74594043D01*
X167041886Y-74478695D01*
X167188695Y-74331886D01*
X167304043Y-74159256D01*
X167383496Y-73967441D01*
X167424000Y-73763810D01*
X167424000Y-73556190D01*
X180556000Y-73556190D01*
X180556000Y-73763810D01*
X180596504Y-73967441D01*
X180675957Y-74159256D01*
X180791305Y-74331886D01*
X180938114Y-74478695D01*
X181110744Y-74594043D01*
X181302559Y-74673496D01*
X181506190Y-74714000D01*
X181713810Y-74714000D01*
X181917441Y-74673496D01*
X182109256Y-74594043D01*
X182281886Y-74478695D01*
X182428695Y-74331886D01*
X182544043Y-74159256D01*
X182623496Y-73967441D01*
X182664000Y-73763810D01*
X182664000Y-73556190D01*
X182623496Y-73352559D01*
X182544043Y-73160744D01*
X182428695Y-72988114D01*
X182281886Y-72841305D01*
X182109256Y-72725957D01*
X181917441Y-72646504D01*
X181713810Y-72606000D01*
X181506190Y-72606000D01*
X181302559Y-72646504D01*
X181110744Y-72725957D01*
X180938114Y-72841305D01*
X180791305Y-72988114D01*
X180675957Y-73160744D01*
X180596504Y-73352559D01*
X180556000Y-73556190D01*
X167424000Y-73556190D01*
X167383496Y-73352559D01*
X167304043Y-73160744D01*
X167188695Y-72988114D01*
X167041886Y-72841305D01*
X166869256Y-72725957D01*
X166677441Y-72646504D01*
X166473810Y-72606000D01*
X166266190Y-72606000D01*
X166062559Y-72646504D01*
X165870744Y-72725957D01*
X165698114Y-72841305D01*
X165551305Y-72988114D01*
X165435957Y-73160744D01*
X165356504Y-73352559D01*
X165316000Y-73556190D01*
X158585228Y-73556190D01*
X158585228Y-72810000D01*
X158580324Y-72760207D01*
X158565800Y-72712328D01*
X158542214Y-72668203D01*
X158510473Y-72629527D01*
X158471797Y-72597786D01*
X158427672Y-72574200D01*
X158379793Y-72559676D01*
X158330000Y-72554772D01*
X156630000Y-72554772D01*
X156580207Y-72559676D01*
X156532328Y-72574200D01*
X156488203Y-72597786D01*
X156449527Y-72629527D01*
X156417786Y-72668203D01*
X156394200Y-72712328D01*
X156379676Y-72760207D01*
X156374772Y-72810000D01*
X155651292Y-72810000D01*
X155643759Y-72802467D01*
X155462940Y-72681648D01*
X155262025Y-72598426D01*
X155048735Y-72556000D01*
X154831265Y-72556000D01*
X154617975Y-72598426D01*
X154417060Y-72681648D01*
X154236241Y-72802467D01*
X154082467Y-72956241D01*
X153961648Y-73137060D01*
X153878426Y-73337975D01*
X153836000Y-73551265D01*
X144449000Y-73551265D01*
X144449000Y-73226429D01*
X151247870Y-73226429D01*
X151289479Y-73412000D01*
X152152000Y-73412000D01*
X152152000Y-72551657D01*
X152648000Y-72551657D01*
X152648000Y-73412000D01*
X153510521Y-73412000D01*
X153552130Y-73226429D01*
X153445407Y-73009991D01*
X153298509Y-72818532D01*
X153117082Y-72659410D01*
X152908098Y-72538740D01*
X152833569Y-72507881D01*
X152648000Y-72551657D01*
X152152000Y-72551657D01*
X151966431Y-72507881D01*
X151891902Y-72538740D01*
X151682918Y-72659410D01*
X151501491Y-72818532D01*
X151354593Y-73009991D01*
X151247870Y-73226429D01*
X144449000Y-73226429D01*
X144449000Y-71553571D01*
X151247870Y-71553571D01*
X151354593Y-71770009D01*
X151501491Y-71961468D01*
X151682918Y-72120590D01*
X151891902Y-72241260D01*
X151966431Y-72272119D01*
X152152000Y-72228343D01*
X152152000Y-71368000D01*
X152648000Y-71368000D01*
X152648000Y-72228343D01*
X152833569Y-72272119D01*
X152908098Y-72241260D01*
X153117082Y-72120590D01*
X153298509Y-71961468D01*
X153445407Y-71770009D01*
X153552130Y-71553571D01*
X153510521Y-71368000D01*
X152648000Y-71368000D01*
X152152000Y-71368000D01*
X151289479Y-71368000D01*
X151247870Y-71553571D01*
X144449000Y-71553571D01*
X144449000Y-71011265D01*
X153836000Y-71011265D01*
X153836000Y-71228735D01*
X153878426Y-71442025D01*
X153961648Y-71642940D01*
X154082467Y-71823759D01*
X154236241Y-71977533D01*
X154417060Y-72098352D01*
X154617975Y-72181574D01*
X154831265Y-72224000D01*
X155048735Y-72224000D01*
X155262025Y-72181574D01*
X155462940Y-72098352D01*
X155643759Y-71977533D01*
X155797533Y-71823759D01*
X155918352Y-71642940D01*
X156001574Y-71442025D01*
X156044000Y-71228735D01*
X156044000Y-71011265D01*
X156001574Y-70797975D01*
X155918352Y-70597060D01*
X155797533Y-70416241D01*
X155651292Y-70270000D01*
X156374772Y-70270000D01*
X156374772Y-71970000D01*
X156379676Y-72019793D01*
X156394200Y-72067672D01*
X156417786Y-72111797D01*
X156449527Y-72150473D01*
X156488203Y-72182214D01*
X156532328Y-72205800D01*
X156580207Y-72220324D01*
X156630000Y-72225228D01*
X158330000Y-72225228D01*
X158379793Y-72220324D01*
X158427672Y-72205800D01*
X158471797Y-72182214D01*
X158510473Y-72150473D01*
X158542214Y-72111797D01*
X158565800Y-72067672D01*
X158580324Y-72019793D01*
X158585228Y-71970000D01*
X158585228Y-71016190D01*
X165316000Y-71016190D01*
X165316000Y-71223810D01*
X165356504Y-71427441D01*
X165435957Y-71619256D01*
X165551305Y-71791886D01*
X165698114Y-71938695D01*
X165870744Y-72054043D01*
X166062559Y-72133496D01*
X166266190Y-72174000D01*
X166473810Y-72174000D01*
X166677441Y-72133496D01*
X166869256Y-72054043D01*
X167041886Y-71938695D01*
X167188695Y-71791886D01*
X167304043Y-71619256D01*
X167383496Y-71427441D01*
X167424000Y-71223810D01*
X167424000Y-71016190D01*
X178016000Y-71016190D01*
X178016000Y-71223810D01*
X178056504Y-71427441D01*
X178135957Y-71619256D01*
X178251305Y-71791886D01*
X178398114Y-71938695D01*
X178570744Y-72054043D01*
X178762559Y-72133496D01*
X178966190Y-72174000D01*
X179173810Y-72174000D01*
X179377441Y-72133496D01*
X179569256Y-72054043D01*
X179579859Y-72046958D01*
X181033767Y-72046958D01*
X181128506Y-72204644D01*
X181349360Y-72277737D01*
X181580232Y-72306340D01*
X181812247Y-72289352D01*
X182036491Y-72227426D01*
X182091494Y-72204644D01*
X182186233Y-72046958D01*
X181610000Y-71470725D01*
X181033767Y-72046958D01*
X179579859Y-72046958D01*
X179741886Y-71938695D01*
X179888695Y-71791886D01*
X180004043Y-71619256D01*
X180083496Y-71427441D01*
X180124000Y-71223810D01*
X180124000Y-71090232D01*
X180423660Y-71090232D01*
X180440648Y-71322247D01*
X180502574Y-71546491D01*
X180525356Y-71601494D01*
X180683042Y-71696233D01*
X181259275Y-71120000D01*
X181960725Y-71120000D01*
X182536958Y-71696233D01*
X182694644Y-71601494D01*
X182767737Y-71380640D01*
X182796340Y-71149768D01*
X182779352Y-70917753D01*
X182717426Y-70693509D01*
X182694644Y-70638506D01*
X182536958Y-70543767D01*
X181960725Y-71120000D01*
X181259275Y-71120000D01*
X180683042Y-70543767D01*
X180525356Y-70638506D01*
X180452263Y-70859360D01*
X180423660Y-71090232D01*
X180124000Y-71090232D01*
X180124000Y-71016190D01*
X180083496Y-70812559D01*
X180004043Y-70620744D01*
X179888695Y-70448114D01*
X179741886Y-70301305D01*
X179579860Y-70193042D01*
X181033767Y-70193042D01*
X181610000Y-70769275D01*
X182186233Y-70193042D01*
X182091494Y-70035356D01*
X181870640Y-69962263D01*
X181639768Y-69933660D01*
X181407753Y-69950648D01*
X181183509Y-70012574D01*
X181128506Y-70035356D01*
X181033767Y-70193042D01*
X179579860Y-70193042D01*
X179569256Y-70185957D01*
X179377441Y-70106504D01*
X179173810Y-70066000D01*
X178966190Y-70066000D01*
X178762559Y-70106504D01*
X178570744Y-70185957D01*
X178398114Y-70301305D01*
X178251305Y-70448114D01*
X178135957Y-70620744D01*
X178056504Y-70812559D01*
X178016000Y-71016190D01*
X167424000Y-71016190D01*
X167383496Y-70812559D01*
X167304043Y-70620744D01*
X167188695Y-70448114D01*
X167041886Y-70301305D01*
X166869256Y-70185957D01*
X166677441Y-70106504D01*
X166473810Y-70066000D01*
X166266190Y-70066000D01*
X166062559Y-70106504D01*
X165870744Y-70185957D01*
X165698114Y-70301305D01*
X165551305Y-70448114D01*
X165435957Y-70620744D01*
X165356504Y-70812559D01*
X165316000Y-71016190D01*
X158585228Y-71016190D01*
X158585228Y-70270000D01*
X158580324Y-70220207D01*
X158565800Y-70172328D01*
X158542214Y-70128203D01*
X158510473Y-70089527D01*
X158471797Y-70057786D01*
X158427672Y-70034200D01*
X158379793Y-70019676D01*
X158330000Y-70014772D01*
X156630000Y-70014772D01*
X156580207Y-70019676D01*
X156532328Y-70034200D01*
X156488203Y-70057786D01*
X156449527Y-70089527D01*
X156417786Y-70128203D01*
X156394200Y-70172328D01*
X156379676Y-70220207D01*
X156374772Y-70270000D01*
X155651292Y-70270000D01*
X155643759Y-70262467D01*
X155462940Y-70141648D01*
X155262025Y-70058426D01*
X155048735Y-70016000D01*
X154831265Y-70016000D01*
X154617975Y-70058426D01*
X154417060Y-70141648D01*
X154236241Y-70262467D01*
X154082467Y-70416241D01*
X153961648Y-70597060D01*
X153878426Y-70797975D01*
X153836000Y-71011265D01*
X144449000Y-71011265D01*
X144449000Y-70686429D01*
X151247870Y-70686429D01*
X151289479Y-70872000D01*
X152152000Y-70872000D01*
X152152000Y-70011657D01*
X152648000Y-70011657D01*
X152648000Y-70872000D01*
X153510521Y-70872000D01*
X153552130Y-70686429D01*
X153445407Y-70469991D01*
X153298509Y-70278532D01*
X153117082Y-70119410D01*
X152908098Y-69998740D01*
X152833569Y-69967881D01*
X152648000Y-70011657D01*
X152152000Y-70011657D01*
X151966431Y-69967881D01*
X151891902Y-69998740D01*
X151682918Y-70119410D01*
X151501491Y-70278532D01*
X151354593Y-70469991D01*
X151247870Y-70686429D01*
X144449000Y-70686429D01*
X144449000Y-69013571D01*
X151247870Y-69013571D01*
X151354593Y-69230009D01*
X151501491Y-69421468D01*
X151682918Y-69580590D01*
X151891902Y-69701260D01*
X151966431Y-69732119D01*
X152152000Y-69688343D01*
X152152000Y-68828000D01*
X152648000Y-68828000D01*
X152648000Y-69688343D01*
X152833569Y-69732119D01*
X152908098Y-69701260D01*
X153117082Y-69580590D01*
X153298509Y-69421468D01*
X153445407Y-69230009D01*
X153552130Y-69013571D01*
X153510521Y-68828000D01*
X152648000Y-68828000D01*
X152152000Y-68828000D01*
X151289479Y-68828000D01*
X151247870Y-69013571D01*
X144449000Y-69013571D01*
X144449000Y-68471265D01*
X153836000Y-68471265D01*
X153836000Y-68688735D01*
X153878426Y-68902025D01*
X153961648Y-69102940D01*
X154082467Y-69283759D01*
X154236241Y-69437533D01*
X154417060Y-69558352D01*
X154617975Y-69641574D01*
X154831265Y-69684000D01*
X155048735Y-69684000D01*
X155262025Y-69641574D01*
X155462940Y-69558352D01*
X155643759Y-69437533D01*
X155797533Y-69283759D01*
X155918352Y-69102940D01*
X156001574Y-68902025D01*
X156044000Y-68688735D01*
X156044000Y-68471265D01*
X156001574Y-68257975D01*
X155918352Y-68057060D01*
X155797533Y-67876241D01*
X155651292Y-67730000D01*
X156374772Y-67730000D01*
X156374772Y-69430000D01*
X156379676Y-69479793D01*
X156394200Y-69527672D01*
X156417786Y-69571797D01*
X156449527Y-69610473D01*
X156488203Y-69642214D01*
X156532328Y-69665800D01*
X156580207Y-69680324D01*
X156630000Y-69685228D01*
X158330000Y-69685228D01*
X158379793Y-69680324D01*
X158427672Y-69665800D01*
X158471797Y-69642214D01*
X158510473Y-69610473D01*
X158542214Y-69571797D01*
X158565800Y-69527672D01*
X158580324Y-69479793D01*
X158585228Y-69430000D01*
X158585228Y-68476190D01*
X165316000Y-68476190D01*
X165316000Y-68683810D01*
X165356504Y-68887441D01*
X165435957Y-69079256D01*
X165551305Y-69251886D01*
X165698114Y-69398695D01*
X165870744Y-69514043D01*
X166062559Y-69593496D01*
X166266190Y-69634000D01*
X166473810Y-69634000D01*
X166677441Y-69593496D01*
X166869256Y-69514043D01*
X167041886Y-69398695D01*
X167188695Y-69251886D01*
X167304043Y-69079256D01*
X167383496Y-68887441D01*
X167424000Y-68683810D01*
X167424000Y-68476190D01*
X167421591Y-68464076D01*
X180433000Y-68464076D01*
X180433000Y-68695924D01*
X180478231Y-68923318D01*
X180566956Y-69137519D01*
X180695764Y-69330294D01*
X180859706Y-69494236D01*
X181052481Y-69623044D01*
X181266682Y-69711769D01*
X181494076Y-69757000D01*
X181725924Y-69757000D01*
X181953318Y-69711769D01*
X182167519Y-69623044D01*
X182360294Y-69494236D01*
X182524236Y-69330294D01*
X182653044Y-69137519D01*
X182741769Y-68923318D01*
X182787000Y-68695924D01*
X182787000Y-68464076D01*
X182741769Y-68236682D01*
X182653044Y-68022481D01*
X182524236Y-67829706D01*
X182360294Y-67665764D01*
X182167519Y-67536956D01*
X181953318Y-67448231D01*
X181725924Y-67403000D01*
X181494076Y-67403000D01*
X181266682Y-67448231D01*
X181052481Y-67536956D01*
X180859706Y-67665764D01*
X180695764Y-67829706D01*
X180566956Y-68022481D01*
X180478231Y-68236682D01*
X180433000Y-68464076D01*
X167421591Y-68464076D01*
X167383496Y-68272559D01*
X167304043Y-68080744D01*
X167188695Y-67908114D01*
X167041886Y-67761305D01*
X166869256Y-67645957D01*
X166677441Y-67566504D01*
X166473810Y-67526000D01*
X166266190Y-67526000D01*
X166062559Y-67566504D01*
X165870744Y-67645957D01*
X165698114Y-67761305D01*
X165551305Y-67908114D01*
X165435957Y-68080744D01*
X165356504Y-68272559D01*
X165316000Y-68476190D01*
X158585228Y-68476190D01*
X158585228Y-67730000D01*
X158580324Y-67680207D01*
X158565800Y-67632328D01*
X158542214Y-67588203D01*
X158510473Y-67549527D01*
X158471797Y-67517786D01*
X158427672Y-67494200D01*
X158379793Y-67479676D01*
X158330000Y-67474772D01*
X156630000Y-67474772D01*
X156580207Y-67479676D01*
X156532328Y-67494200D01*
X156488203Y-67517786D01*
X156449527Y-67549527D01*
X156417786Y-67588203D01*
X156394200Y-67632328D01*
X156379676Y-67680207D01*
X156374772Y-67730000D01*
X155651292Y-67730000D01*
X155643759Y-67722467D01*
X155462940Y-67601648D01*
X155262025Y-67518426D01*
X155048735Y-67476000D01*
X154831265Y-67476000D01*
X154617975Y-67518426D01*
X154417060Y-67601648D01*
X154236241Y-67722467D01*
X154082467Y-67876241D01*
X153961648Y-68057060D01*
X153878426Y-68257975D01*
X153836000Y-68471265D01*
X144449000Y-68471265D01*
X144449000Y-68146429D01*
X151247870Y-68146429D01*
X151289479Y-68332000D01*
X152152000Y-68332000D01*
X152152000Y-67471657D01*
X152648000Y-67471657D01*
X152648000Y-68332000D01*
X153510521Y-68332000D01*
X153552130Y-68146429D01*
X153445407Y-67929991D01*
X153298509Y-67738532D01*
X153117082Y-67579410D01*
X152908098Y-67458740D01*
X152833569Y-67427881D01*
X152648000Y-67471657D01*
X152152000Y-67471657D01*
X151966431Y-67427881D01*
X151891902Y-67458740D01*
X151682918Y-67579410D01*
X151501491Y-67738532D01*
X151354593Y-67929991D01*
X151247870Y-68146429D01*
X144449000Y-68146429D01*
X144449000Y-64350000D01*
X151167157Y-64350000D01*
X151174513Y-64424689D01*
X151196299Y-64496508D01*
X151231678Y-64562696D01*
X151279289Y-64620711D01*
X151337304Y-64668322D01*
X151403492Y-64703701D01*
X151475311Y-64725487D01*
X151550000Y-64732843D01*
X152031750Y-64731000D01*
X152127000Y-64635750D01*
X152127000Y-63773000D01*
X152673000Y-63773000D01*
X152673000Y-64635750D01*
X152768250Y-64731000D01*
X153250000Y-64732843D01*
X153324689Y-64725487D01*
X153396508Y-64703701D01*
X153462696Y-64668322D01*
X153520711Y-64620711D01*
X153568322Y-64562696D01*
X153603701Y-64496508D01*
X153625487Y-64424689D01*
X153632843Y-64350000D01*
X153631000Y-63868250D01*
X153535750Y-63773000D01*
X152673000Y-63773000D01*
X152127000Y-63773000D01*
X151264250Y-63773000D01*
X151169000Y-63868250D01*
X151167157Y-64350000D01*
X144449000Y-64350000D01*
X144449000Y-63391265D01*
X153836000Y-63391265D01*
X153836000Y-63608735D01*
X153878426Y-63822025D01*
X153961648Y-64022940D01*
X154082467Y-64203759D01*
X154236241Y-64357533D01*
X154417060Y-64478352D01*
X154617975Y-64561574D01*
X154831265Y-64604000D01*
X155048735Y-64604000D01*
X155262025Y-64561574D01*
X155462940Y-64478352D01*
X155643759Y-64357533D01*
X155651292Y-64350000D01*
X161327157Y-64350000D01*
X161334513Y-64424689D01*
X161356299Y-64496508D01*
X161391678Y-64562696D01*
X161439289Y-64620711D01*
X161497304Y-64668322D01*
X161563492Y-64703701D01*
X161635311Y-64725487D01*
X161710000Y-64732843D01*
X162216750Y-64731000D01*
X162312000Y-64635750D01*
X162312000Y-63748000D01*
X162808000Y-63748000D01*
X162808000Y-64635750D01*
X162903250Y-64731000D01*
X163410000Y-64732843D01*
X163484689Y-64725487D01*
X163556508Y-64703701D01*
X163622696Y-64668322D01*
X163680711Y-64620711D01*
X163728322Y-64562696D01*
X163763701Y-64496508D01*
X163785487Y-64424689D01*
X163792843Y-64350000D01*
X163791000Y-63843250D01*
X163695750Y-63748000D01*
X162808000Y-63748000D01*
X162312000Y-63748000D01*
X161424250Y-63748000D01*
X161329000Y-63843250D01*
X161327157Y-64350000D01*
X155651292Y-64350000D01*
X155797533Y-64203759D01*
X155918352Y-64022940D01*
X156001574Y-63822025D01*
X156044000Y-63608735D01*
X156044000Y-63391265D01*
X156041591Y-63379151D01*
X163873000Y-63379151D01*
X163873000Y-63620849D01*
X163920153Y-63857903D01*
X164012647Y-64081202D01*
X164146927Y-64282167D01*
X164317833Y-64453073D01*
X164518798Y-64587353D01*
X164742097Y-64679847D01*
X164979151Y-64727000D01*
X165220849Y-64727000D01*
X165457903Y-64679847D01*
X165681202Y-64587353D01*
X165882167Y-64453073D01*
X166053073Y-64282167D01*
X166187353Y-64081202D01*
X166279847Y-63857903D01*
X166327000Y-63620849D01*
X166327000Y-63379151D01*
X166279847Y-63142097D01*
X166187353Y-62918798D01*
X166053073Y-62717833D01*
X165882167Y-62546927D01*
X165681202Y-62412647D01*
X165457903Y-62320153D01*
X165220849Y-62273000D01*
X164979151Y-62273000D01*
X164742097Y-62320153D01*
X164518798Y-62412647D01*
X164317833Y-62546927D01*
X164146927Y-62717833D01*
X164012647Y-62918798D01*
X163920153Y-63142097D01*
X163873000Y-63379151D01*
X156041591Y-63379151D01*
X156001574Y-63177975D01*
X155918352Y-62977060D01*
X155797533Y-62796241D01*
X155651292Y-62650000D01*
X161327157Y-62650000D01*
X161329000Y-63156750D01*
X161424250Y-63252000D01*
X162312000Y-63252000D01*
X162312000Y-62364250D01*
X162808000Y-62364250D01*
X162808000Y-63252000D01*
X163695750Y-63252000D01*
X163791000Y-63156750D01*
X163792843Y-62650000D01*
X163785487Y-62575311D01*
X163763701Y-62503492D01*
X163728322Y-62437304D01*
X163680711Y-62379289D01*
X163622696Y-62331678D01*
X163556508Y-62296299D01*
X163484689Y-62274513D01*
X163410000Y-62267157D01*
X162903250Y-62269000D01*
X162808000Y-62364250D01*
X162312000Y-62364250D01*
X162216750Y-62269000D01*
X161710000Y-62267157D01*
X161635311Y-62274513D01*
X161563492Y-62296299D01*
X161497304Y-62331678D01*
X161439289Y-62379289D01*
X161391678Y-62437304D01*
X161356299Y-62503492D01*
X161334513Y-62575311D01*
X161327157Y-62650000D01*
X155651292Y-62650000D01*
X155643759Y-62642467D01*
X155462940Y-62521648D01*
X155262025Y-62438426D01*
X155048735Y-62396000D01*
X154831265Y-62396000D01*
X154617975Y-62438426D01*
X154417060Y-62521648D01*
X154236241Y-62642467D01*
X154082467Y-62796241D01*
X153961648Y-62977060D01*
X153878426Y-63177975D01*
X153836000Y-63391265D01*
X144449000Y-63391265D01*
X144449000Y-62650000D01*
X151167157Y-62650000D01*
X151169000Y-63131750D01*
X151264250Y-63227000D01*
X152127000Y-63227000D01*
X152127000Y-62364250D01*
X152673000Y-62364250D01*
X152673000Y-63227000D01*
X153535750Y-63227000D01*
X153631000Y-63131750D01*
X153632843Y-62650000D01*
X153625487Y-62575311D01*
X153603701Y-62503492D01*
X153568322Y-62437304D01*
X153520711Y-62379289D01*
X153462696Y-62331678D01*
X153396508Y-62296299D01*
X153324689Y-62274513D01*
X153250000Y-62267157D01*
X152768250Y-62269000D01*
X152673000Y-62364250D01*
X152127000Y-62364250D01*
X152031750Y-62269000D01*
X151550000Y-62267157D01*
X151475311Y-62274513D01*
X151403492Y-62296299D01*
X151337304Y-62331678D01*
X151279289Y-62379289D01*
X151231678Y-62437304D01*
X151196299Y-62503492D01*
X151174513Y-62575311D01*
X151167157Y-62650000D01*
X144449000Y-62650000D01*
X144449000Y-61580076D01*
X144444600Y-61535406D01*
X144434459Y-61501975D01*
X144444185Y-61402777D01*
X144500012Y-61217870D01*
X144590688Y-61047332D01*
X144712762Y-60897653D01*
X144861590Y-60774532D01*
X145031493Y-60682666D01*
X145215997Y-60625552D01*
X145321864Y-60614425D01*
X145355406Y-60624600D01*
M02*
