G04 #@! TF.GenerationSoftware,KiCad,Pcbnew,(5.1.4-0-10_14)*
G04 #@! TF.CreationDate,2020-04-05T14:04:58-07:00*
G04 #@! TF.ProjectId,ServoPower2,53657276-6f50-46f7-9765-72322e6b6963,rev?*
G04 #@! TF.SameCoordinates,Original*
G04 #@! TF.FileFunction,Copper,L2,Bot*
G04 #@! TF.FilePolarity,Positive*
%FSLAX46Y46*%
G04 Gerber Fmt 4.6, Leading zero omitted, Abs format (unit mm)*
G04 Created by KiCad (PCBNEW (5.1.4-0-10_14)) date 2020-04-05 14:04:58*
%MOMM*%
%LPD*%
G04 APERTURE LIST*
%ADD10C,1.600000*%
%ADD11C,0.100000*%
%ADD12C,6.000000*%
%ADD13R,1.700000X1.700000*%
%ADD14O,1.700000X1.700000*%
%ADD15C,0.254000*%
G04 APERTURE END LIST*
D10*
X167640000Y-93980000D03*
X167640000Y-96520000D03*
X170180000Y-93980000D03*
X170180000Y-96520000D03*
X172720000Y-93980000D03*
X172720000Y-96520000D03*
X175260000Y-93980000D03*
X175260000Y-96520000D03*
X177800000Y-93980000D03*
X177800000Y-96520000D03*
X165100000Y-68580000D03*
X165100000Y-71120000D03*
X165100000Y-73660000D03*
X165100000Y-76200000D03*
X165100000Y-78740000D03*
X165100000Y-81280000D03*
X165100000Y-83820000D03*
X165100000Y-86360000D03*
X165100000Y-88900000D03*
X165100000Y-91440000D03*
X165100000Y-93980000D03*
X165100000Y-96520000D03*
X165100000Y-99060000D03*
X177800000Y-71120000D03*
X180340000Y-68580000D03*
X180340000Y-71120000D03*
X180340000Y-73660000D03*
X180340000Y-76200000D03*
X180340000Y-78740000D03*
X180340000Y-81280000D03*
X180340000Y-83820000D03*
X180340000Y-86360000D03*
X180340000Y-88900000D03*
X180340000Y-91440000D03*
X180340000Y-93980000D03*
X180340000Y-96520000D03*
X180340000Y-99060000D03*
X165100000Y-101600000D03*
X167640000Y-101600000D03*
X170180000Y-101600000D03*
X180340000Y-101600000D03*
X177800000Y-101600000D03*
X175260000Y-101600000D03*
X172720000Y-101600000D03*
D11*
G36*
X163572026Y-108767223D02*
G01*
X163717635Y-108788822D01*
X163860427Y-108824589D01*
X163999025Y-108874181D01*
X164132095Y-108937118D01*
X164258355Y-109012796D01*
X164376590Y-109100484D01*
X164485660Y-109199340D01*
X164584516Y-109308410D01*
X164672204Y-109426645D01*
X164747882Y-109552905D01*
X164810819Y-109685975D01*
X164860411Y-109824573D01*
X164896178Y-109967365D01*
X164917777Y-110112974D01*
X164925000Y-110260000D01*
X164925000Y-113260000D01*
X164917777Y-113407026D01*
X164896178Y-113552635D01*
X164860411Y-113695427D01*
X164810819Y-113834025D01*
X164747882Y-113967095D01*
X164672204Y-114093355D01*
X164584516Y-114211590D01*
X164485660Y-114320660D01*
X164376590Y-114419516D01*
X164258355Y-114507204D01*
X164132095Y-114582882D01*
X163999025Y-114645819D01*
X163860427Y-114695411D01*
X163717635Y-114731178D01*
X163572026Y-114752777D01*
X163425000Y-114760000D01*
X160425000Y-114760000D01*
X160277974Y-114752777D01*
X160132365Y-114731178D01*
X159989573Y-114695411D01*
X159850975Y-114645819D01*
X159717905Y-114582882D01*
X159591645Y-114507204D01*
X159473410Y-114419516D01*
X159364340Y-114320660D01*
X159265484Y-114211590D01*
X159177796Y-114093355D01*
X159102118Y-113967095D01*
X159039181Y-113834025D01*
X158989589Y-113695427D01*
X158953822Y-113552635D01*
X158932223Y-113407026D01*
X158925000Y-113260000D01*
X158925000Y-110260000D01*
X158932223Y-110112974D01*
X158953822Y-109967365D01*
X158989589Y-109824573D01*
X159039181Y-109685975D01*
X159102118Y-109552905D01*
X159177796Y-109426645D01*
X159265484Y-109308410D01*
X159364340Y-109199340D01*
X159473410Y-109100484D01*
X159591645Y-109012796D01*
X159717905Y-108937118D01*
X159850975Y-108874181D01*
X159989573Y-108824589D01*
X160132365Y-108788822D01*
X160277974Y-108767223D01*
X160425000Y-108760000D01*
X163425000Y-108760000D01*
X163572026Y-108767223D01*
X163572026Y-108767223D01*
G37*
D12*
X161925000Y-111760000D03*
X154725000Y-111760000D03*
D13*
X162560000Y-63500000D03*
D14*
X165100000Y-63500000D03*
X154940000Y-63500000D03*
D13*
X152400000Y-63500000D03*
D14*
X152400000Y-104140000D03*
X154940000Y-104140000D03*
D13*
X157480000Y-104140000D03*
D14*
X152400000Y-93980000D03*
X154940000Y-93980000D03*
D13*
X157480000Y-93980000D03*
D14*
X152400000Y-83820000D03*
X154940000Y-83820000D03*
D13*
X157480000Y-83820000D03*
D14*
X152400000Y-101600000D03*
X154940000Y-101600000D03*
D13*
X157480000Y-101600000D03*
D14*
X152400000Y-91440000D03*
X154940000Y-91440000D03*
D13*
X157480000Y-91440000D03*
D14*
X152400000Y-81280000D03*
X154940000Y-81280000D03*
D13*
X157480000Y-81280000D03*
D14*
X152400000Y-99060000D03*
X154940000Y-99060000D03*
D13*
X157480000Y-99060000D03*
D14*
X152400000Y-88900000D03*
X154940000Y-88900000D03*
D13*
X157480000Y-88900000D03*
D14*
X152400000Y-78740000D03*
X154940000Y-78740000D03*
D13*
X157480000Y-78740000D03*
X157480000Y-68580000D03*
D14*
X154940000Y-68580000D03*
X152400000Y-68580000D03*
D13*
X157480000Y-73660000D03*
D14*
X154940000Y-73660000D03*
X152400000Y-73660000D03*
X152400000Y-71120000D03*
X154940000Y-71120000D03*
D13*
X157480000Y-71120000D03*
D15*
G36*
X145355406Y-60624600D02*
G01*
X145400076Y-60629000D01*
X183529924Y-60629000D01*
X183574594Y-60624600D01*
X183608025Y-60614459D01*
X183707223Y-60624185D01*
X183892130Y-60680012D01*
X184062668Y-60770688D01*
X184212347Y-60892762D01*
X184335468Y-61041590D01*
X184427334Y-61211493D01*
X184484448Y-61395997D01*
X184495575Y-61501866D01*
X184485401Y-61535406D01*
X184481001Y-61580076D01*
X184481000Y-116854923D01*
X184485400Y-116899593D01*
X184495541Y-116933024D01*
X184485815Y-117032223D01*
X184429988Y-117217130D01*
X184339310Y-117387670D01*
X184217235Y-117537349D01*
X184068410Y-117660468D01*
X183898511Y-117752332D01*
X183714003Y-117809448D01*
X183608136Y-117820575D01*
X183574594Y-117810400D01*
X183529924Y-117806000D01*
X145400076Y-117806000D01*
X145355406Y-117810400D01*
X145321975Y-117820541D01*
X145222777Y-117810815D01*
X145037870Y-117754988D01*
X144867330Y-117664310D01*
X144717651Y-117542235D01*
X144594532Y-117393410D01*
X144502668Y-117223511D01*
X144445552Y-117039003D01*
X144434425Y-116933136D01*
X144444600Y-116899594D01*
X144449000Y-116854924D01*
X144449000Y-111439509D01*
X151471000Y-111439509D01*
X151471000Y-112080491D01*
X151596049Y-112709157D01*
X151841342Y-113301347D01*
X152197453Y-113834304D01*
X152650696Y-114287547D01*
X153183653Y-114643658D01*
X153775843Y-114888951D01*
X154404509Y-115014000D01*
X155045491Y-115014000D01*
X155674157Y-114888951D01*
X155985472Y-114760000D01*
X158294966Y-114760000D01*
X158307072Y-114882914D01*
X158342924Y-115001104D01*
X158401146Y-115110028D01*
X158479499Y-115205501D01*
X158574972Y-115283854D01*
X158683896Y-115342076D01*
X158802086Y-115377928D01*
X158925000Y-115390034D01*
X160895250Y-115387000D01*
X161052000Y-115230250D01*
X161052000Y-112633000D01*
X162798000Y-112633000D01*
X162798000Y-115230250D01*
X162954750Y-115387000D01*
X164925000Y-115390034D01*
X165047914Y-115377928D01*
X165166104Y-115342076D01*
X165275028Y-115283854D01*
X165370501Y-115205501D01*
X165448854Y-115110028D01*
X165507076Y-115001104D01*
X165542928Y-114882914D01*
X165555034Y-114760000D01*
X165552000Y-112789750D01*
X165395250Y-112633000D01*
X162798000Y-112633000D01*
X161052000Y-112633000D01*
X158454750Y-112633000D01*
X158298000Y-112789750D01*
X158294966Y-114760000D01*
X155985472Y-114760000D01*
X156266347Y-114643658D01*
X156799304Y-114287547D01*
X157252547Y-113834304D01*
X157608658Y-113301347D01*
X157853951Y-112709157D01*
X157979000Y-112080491D01*
X157979000Y-111439509D01*
X157853951Y-110810843D01*
X157608658Y-110218653D01*
X157252547Y-109685696D01*
X156799304Y-109232453D01*
X156266347Y-108876342D01*
X155985473Y-108760000D01*
X158294966Y-108760000D01*
X158298000Y-110730250D01*
X158454750Y-110887000D01*
X161052000Y-110887000D01*
X161052000Y-108289750D01*
X162798000Y-108289750D01*
X162798000Y-110887000D01*
X165395250Y-110887000D01*
X165552000Y-110730250D01*
X165555034Y-108760000D01*
X165542928Y-108637086D01*
X165507076Y-108518896D01*
X165448854Y-108409972D01*
X165370501Y-108314499D01*
X165275028Y-108236146D01*
X165166104Y-108177924D01*
X165047914Y-108142072D01*
X164925000Y-108129966D01*
X162954750Y-108133000D01*
X162798000Y-108289750D01*
X161052000Y-108289750D01*
X160895250Y-108133000D01*
X158925000Y-108129966D01*
X158802086Y-108142072D01*
X158683896Y-108177924D01*
X158574972Y-108236146D01*
X158479499Y-108314499D01*
X158401146Y-108409972D01*
X158342924Y-108518896D01*
X158307072Y-108637086D01*
X158294966Y-108760000D01*
X155985473Y-108760000D01*
X155674157Y-108631049D01*
X155045491Y-108506000D01*
X154404509Y-108506000D01*
X153775843Y-108631049D01*
X153183653Y-108876342D01*
X152650696Y-109232453D01*
X152197453Y-109685696D01*
X151841342Y-110218653D01*
X151596049Y-110810843D01*
X151471000Y-111439509D01*
X144449000Y-111439509D01*
X144449000Y-104573571D01*
X151247870Y-104573571D01*
X151354593Y-104790009D01*
X151501491Y-104981468D01*
X151682918Y-105140590D01*
X151891902Y-105261260D01*
X151966431Y-105292119D01*
X152152000Y-105248343D01*
X152152000Y-104388000D01*
X152648000Y-104388000D01*
X152648000Y-105248343D01*
X152833569Y-105292119D01*
X152908098Y-105261260D01*
X153117082Y-105140590D01*
X153298509Y-104981468D01*
X153445407Y-104790009D01*
X153552130Y-104573571D01*
X153510521Y-104388000D01*
X152648000Y-104388000D01*
X152152000Y-104388000D01*
X151289479Y-104388000D01*
X151247870Y-104573571D01*
X144449000Y-104573571D01*
X144449000Y-104140000D01*
X153830659Y-104140000D01*
X153851975Y-104356422D01*
X153915103Y-104564526D01*
X154017617Y-104756317D01*
X154155577Y-104924423D01*
X154323683Y-105062383D01*
X154515474Y-105164897D01*
X154723578Y-105228025D01*
X154885773Y-105244000D01*
X154994227Y-105244000D01*
X155156422Y-105228025D01*
X155364526Y-105164897D01*
X155556317Y-105062383D01*
X155724423Y-104924423D01*
X155862383Y-104756317D01*
X155964897Y-104564526D01*
X156028025Y-104356422D01*
X156049341Y-104140000D01*
X156028025Y-103923578D01*
X155964897Y-103715474D01*
X155862383Y-103523683D01*
X155724423Y-103355577D01*
X155644517Y-103290000D01*
X156374772Y-103290000D01*
X156374772Y-104990000D01*
X156379676Y-105039793D01*
X156394200Y-105087672D01*
X156417786Y-105131797D01*
X156449527Y-105170473D01*
X156488203Y-105202214D01*
X156532328Y-105225800D01*
X156580207Y-105240324D01*
X156630000Y-105245228D01*
X158330000Y-105245228D01*
X158379793Y-105240324D01*
X158427672Y-105225800D01*
X158471797Y-105202214D01*
X158510473Y-105170473D01*
X158542214Y-105131797D01*
X158565800Y-105087672D01*
X158580324Y-105039793D01*
X158585228Y-104990000D01*
X158585228Y-103290000D01*
X158580324Y-103240207D01*
X158565800Y-103192328D01*
X158542214Y-103148203D01*
X158510473Y-103109527D01*
X158471797Y-103077786D01*
X158427672Y-103054200D01*
X158379793Y-103039676D01*
X158330000Y-103034772D01*
X156630000Y-103034772D01*
X156580207Y-103039676D01*
X156532328Y-103054200D01*
X156488203Y-103077786D01*
X156449527Y-103109527D01*
X156417786Y-103148203D01*
X156394200Y-103192328D01*
X156379676Y-103240207D01*
X156374772Y-103290000D01*
X155644517Y-103290000D01*
X155556317Y-103217617D01*
X155364526Y-103115103D01*
X155156422Y-103051975D01*
X154994227Y-103036000D01*
X154885773Y-103036000D01*
X154723578Y-103051975D01*
X154515474Y-103115103D01*
X154323683Y-103217617D01*
X154155577Y-103355577D01*
X154017617Y-103523683D01*
X153915103Y-103715474D01*
X153851975Y-103923578D01*
X153830659Y-104140000D01*
X144449000Y-104140000D01*
X144449000Y-103706429D01*
X151247870Y-103706429D01*
X151289479Y-103892000D01*
X152152000Y-103892000D01*
X152152000Y-103031657D01*
X152648000Y-103031657D01*
X152648000Y-103892000D01*
X153510521Y-103892000D01*
X153552130Y-103706429D01*
X153445407Y-103489991D01*
X153298509Y-103298532D01*
X153117082Y-103139410D01*
X152908098Y-103018740D01*
X152833569Y-102987881D01*
X152648000Y-103031657D01*
X152152000Y-103031657D01*
X151966431Y-102987881D01*
X151891902Y-103018740D01*
X151682918Y-103139410D01*
X151501491Y-103298532D01*
X151354593Y-103489991D01*
X151247870Y-103706429D01*
X144449000Y-103706429D01*
X144449000Y-102033571D01*
X151247870Y-102033571D01*
X151354593Y-102250009D01*
X151501491Y-102441468D01*
X151682918Y-102600590D01*
X151891902Y-102721260D01*
X151966431Y-102752119D01*
X152152000Y-102708343D01*
X152152000Y-101848000D01*
X152648000Y-101848000D01*
X152648000Y-102708343D01*
X152833569Y-102752119D01*
X152908098Y-102721260D01*
X153117082Y-102600590D01*
X153298509Y-102441468D01*
X153445407Y-102250009D01*
X153552130Y-102033571D01*
X153510521Y-101848000D01*
X152648000Y-101848000D01*
X152152000Y-101848000D01*
X151289479Y-101848000D01*
X151247870Y-102033571D01*
X144449000Y-102033571D01*
X144449000Y-101600000D01*
X153830659Y-101600000D01*
X153851975Y-101816422D01*
X153915103Y-102024526D01*
X154017617Y-102216317D01*
X154155577Y-102384423D01*
X154323683Y-102522383D01*
X154515474Y-102624897D01*
X154723578Y-102688025D01*
X154885773Y-102704000D01*
X154994227Y-102704000D01*
X155156422Y-102688025D01*
X155364526Y-102624897D01*
X155556317Y-102522383D01*
X155724423Y-102384423D01*
X155862383Y-102216317D01*
X155964897Y-102024526D01*
X156028025Y-101816422D01*
X156049341Y-101600000D01*
X156028025Y-101383578D01*
X155964897Y-101175474D01*
X155862383Y-100983683D01*
X155724423Y-100815577D01*
X155644517Y-100750000D01*
X156374772Y-100750000D01*
X156374772Y-102450000D01*
X156379676Y-102499793D01*
X156394200Y-102547672D01*
X156417786Y-102591797D01*
X156449527Y-102630473D01*
X156488203Y-102662214D01*
X156532328Y-102685800D01*
X156580207Y-102700324D01*
X156630000Y-102705228D01*
X158330000Y-102705228D01*
X158379793Y-102700324D01*
X158427672Y-102685800D01*
X158471797Y-102662214D01*
X158510473Y-102630473D01*
X158542214Y-102591797D01*
X158565800Y-102547672D01*
X158580324Y-102499793D01*
X158585228Y-102450000D01*
X158585228Y-101496190D01*
X164046000Y-101496190D01*
X164046000Y-101703810D01*
X164086504Y-101907441D01*
X164165957Y-102099256D01*
X164281305Y-102271886D01*
X164428114Y-102418695D01*
X164600744Y-102534043D01*
X164792559Y-102613496D01*
X164996190Y-102654000D01*
X165203810Y-102654000D01*
X165407441Y-102613496D01*
X165599256Y-102534043D01*
X165771886Y-102418695D01*
X165918695Y-102271886D01*
X166034043Y-102099256D01*
X166113496Y-101907441D01*
X166154000Y-101703810D01*
X166154000Y-101496190D01*
X166586000Y-101496190D01*
X166586000Y-101703810D01*
X166626504Y-101907441D01*
X166705957Y-102099256D01*
X166821305Y-102271886D01*
X166968114Y-102418695D01*
X167140744Y-102534043D01*
X167332559Y-102613496D01*
X167536190Y-102654000D01*
X167743810Y-102654000D01*
X167947441Y-102613496D01*
X168139256Y-102534043D01*
X168311886Y-102418695D01*
X168458695Y-102271886D01*
X168574043Y-102099256D01*
X168653496Y-101907441D01*
X168694000Y-101703810D01*
X168694000Y-101496190D01*
X169126000Y-101496190D01*
X169126000Y-101703810D01*
X169166504Y-101907441D01*
X169245957Y-102099256D01*
X169361305Y-102271886D01*
X169508114Y-102418695D01*
X169680744Y-102534043D01*
X169872559Y-102613496D01*
X170076190Y-102654000D01*
X170283810Y-102654000D01*
X170487441Y-102613496D01*
X170679256Y-102534043D01*
X170689859Y-102526958D01*
X172143767Y-102526958D01*
X172238506Y-102684644D01*
X172459360Y-102757737D01*
X172690232Y-102786340D01*
X172922247Y-102769352D01*
X173146491Y-102707426D01*
X173201494Y-102684644D01*
X173296233Y-102526958D01*
X172720000Y-101950725D01*
X172143767Y-102526958D01*
X170689859Y-102526958D01*
X170851886Y-102418695D01*
X170998695Y-102271886D01*
X171114043Y-102099256D01*
X171193496Y-101907441D01*
X171234000Y-101703810D01*
X171234000Y-101570232D01*
X171533660Y-101570232D01*
X171550648Y-101802247D01*
X171612574Y-102026491D01*
X171635356Y-102081494D01*
X171793042Y-102176233D01*
X172369275Y-101600000D01*
X173070725Y-101600000D01*
X173646958Y-102176233D01*
X173804644Y-102081494D01*
X173877737Y-101860640D01*
X173906340Y-101629768D01*
X173896560Y-101496190D01*
X174206000Y-101496190D01*
X174206000Y-101703810D01*
X174246504Y-101907441D01*
X174325957Y-102099256D01*
X174441305Y-102271886D01*
X174588114Y-102418695D01*
X174760744Y-102534043D01*
X174952559Y-102613496D01*
X175156190Y-102654000D01*
X175363810Y-102654000D01*
X175567441Y-102613496D01*
X175759256Y-102534043D01*
X175931886Y-102418695D01*
X176078695Y-102271886D01*
X176194043Y-102099256D01*
X176273496Y-101907441D01*
X176314000Y-101703810D01*
X176314000Y-101496190D01*
X176746000Y-101496190D01*
X176746000Y-101703810D01*
X176786504Y-101907441D01*
X176865957Y-102099256D01*
X176981305Y-102271886D01*
X177128114Y-102418695D01*
X177300744Y-102534043D01*
X177492559Y-102613496D01*
X177696190Y-102654000D01*
X177903810Y-102654000D01*
X178107441Y-102613496D01*
X178299256Y-102534043D01*
X178471886Y-102418695D01*
X178618695Y-102271886D01*
X178734043Y-102099256D01*
X178813496Y-101907441D01*
X178854000Y-101703810D01*
X178854000Y-101496190D01*
X179286000Y-101496190D01*
X179286000Y-101703810D01*
X179326504Y-101907441D01*
X179405957Y-102099256D01*
X179521305Y-102271886D01*
X179668114Y-102418695D01*
X179840744Y-102534043D01*
X180032559Y-102613496D01*
X180236190Y-102654000D01*
X180443810Y-102654000D01*
X180647441Y-102613496D01*
X180839256Y-102534043D01*
X181011886Y-102418695D01*
X181158695Y-102271886D01*
X181274043Y-102099256D01*
X181353496Y-101907441D01*
X181394000Y-101703810D01*
X181394000Y-101496190D01*
X181353496Y-101292559D01*
X181274043Y-101100744D01*
X181158695Y-100928114D01*
X181011886Y-100781305D01*
X180839256Y-100665957D01*
X180647441Y-100586504D01*
X180443810Y-100546000D01*
X180236190Y-100546000D01*
X180032559Y-100586504D01*
X179840744Y-100665957D01*
X179668114Y-100781305D01*
X179521305Y-100928114D01*
X179405957Y-101100744D01*
X179326504Y-101292559D01*
X179286000Y-101496190D01*
X178854000Y-101496190D01*
X178813496Y-101292559D01*
X178734043Y-101100744D01*
X178618695Y-100928114D01*
X178471886Y-100781305D01*
X178299256Y-100665957D01*
X178107441Y-100586504D01*
X177903810Y-100546000D01*
X177696190Y-100546000D01*
X177492559Y-100586504D01*
X177300744Y-100665957D01*
X177128114Y-100781305D01*
X176981305Y-100928114D01*
X176865957Y-101100744D01*
X176786504Y-101292559D01*
X176746000Y-101496190D01*
X176314000Y-101496190D01*
X176273496Y-101292559D01*
X176194043Y-101100744D01*
X176078695Y-100928114D01*
X175931886Y-100781305D01*
X175759256Y-100665957D01*
X175567441Y-100586504D01*
X175363810Y-100546000D01*
X175156190Y-100546000D01*
X174952559Y-100586504D01*
X174760744Y-100665957D01*
X174588114Y-100781305D01*
X174441305Y-100928114D01*
X174325957Y-101100744D01*
X174246504Y-101292559D01*
X174206000Y-101496190D01*
X173896560Y-101496190D01*
X173889352Y-101397753D01*
X173827426Y-101173509D01*
X173804644Y-101118506D01*
X173646958Y-101023767D01*
X173070725Y-101600000D01*
X172369275Y-101600000D01*
X171793042Y-101023767D01*
X171635356Y-101118506D01*
X171562263Y-101339360D01*
X171533660Y-101570232D01*
X171234000Y-101570232D01*
X171234000Y-101496190D01*
X171193496Y-101292559D01*
X171114043Y-101100744D01*
X170998695Y-100928114D01*
X170851886Y-100781305D01*
X170689860Y-100673042D01*
X172143767Y-100673042D01*
X172720000Y-101249275D01*
X173296233Y-100673042D01*
X173201494Y-100515356D01*
X172980640Y-100442263D01*
X172749768Y-100413660D01*
X172517753Y-100430648D01*
X172293509Y-100492574D01*
X172238506Y-100515356D01*
X172143767Y-100673042D01*
X170689860Y-100673042D01*
X170679256Y-100665957D01*
X170487441Y-100586504D01*
X170283810Y-100546000D01*
X170076190Y-100546000D01*
X169872559Y-100586504D01*
X169680744Y-100665957D01*
X169508114Y-100781305D01*
X169361305Y-100928114D01*
X169245957Y-101100744D01*
X169166504Y-101292559D01*
X169126000Y-101496190D01*
X168694000Y-101496190D01*
X168653496Y-101292559D01*
X168574043Y-101100744D01*
X168458695Y-100928114D01*
X168311886Y-100781305D01*
X168139256Y-100665957D01*
X167947441Y-100586504D01*
X167743810Y-100546000D01*
X167536190Y-100546000D01*
X167332559Y-100586504D01*
X167140744Y-100665957D01*
X166968114Y-100781305D01*
X166821305Y-100928114D01*
X166705957Y-101100744D01*
X166626504Y-101292559D01*
X166586000Y-101496190D01*
X166154000Y-101496190D01*
X166113496Y-101292559D01*
X166034043Y-101100744D01*
X165918695Y-100928114D01*
X165771886Y-100781305D01*
X165599256Y-100665957D01*
X165407441Y-100586504D01*
X165203810Y-100546000D01*
X164996190Y-100546000D01*
X164792559Y-100586504D01*
X164600744Y-100665957D01*
X164428114Y-100781305D01*
X164281305Y-100928114D01*
X164165957Y-101100744D01*
X164086504Y-101292559D01*
X164046000Y-101496190D01*
X158585228Y-101496190D01*
X158585228Y-100750000D01*
X158580324Y-100700207D01*
X158565800Y-100652328D01*
X158542214Y-100608203D01*
X158510473Y-100569527D01*
X158471797Y-100537786D01*
X158427672Y-100514200D01*
X158379793Y-100499676D01*
X158330000Y-100494772D01*
X156630000Y-100494772D01*
X156580207Y-100499676D01*
X156532328Y-100514200D01*
X156488203Y-100537786D01*
X156449527Y-100569527D01*
X156417786Y-100608203D01*
X156394200Y-100652328D01*
X156379676Y-100700207D01*
X156374772Y-100750000D01*
X155644517Y-100750000D01*
X155556317Y-100677617D01*
X155364526Y-100575103D01*
X155156422Y-100511975D01*
X154994227Y-100496000D01*
X154885773Y-100496000D01*
X154723578Y-100511975D01*
X154515474Y-100575103D01*
X154323683Y-100677617D01*
X154155577Y-100815577D01*
X154017617Y-100983683D01*
X153915103Y-101175474D01*
X153851975Y-101383578D01*
X153830659Y-101600000D01*
X144449000Y-101600000D01*
X144449000Y-101166429D01*
X151247870Y-101166429D01*
X151289479Y-101352000D01*
X152152000Y-101352000D01*
X152152000Y-100491657D01*
X152648000Y-100491657D01*
X152648000Y-101352000D01*
X153510521Y-101352000D01*
X153552130Y-101166429D01*
X153445407Y-100949991D01*
X153298509Y-100758532D01*
X153117082Y-100599410D01*
X152908098Y-100478740D01*
X152833569Y-100447881D01*
X152648000Y-100491657D01*
X152152000Y-100491657D01*
X151966431Y-100447881D01*
X151891902Y-100478740D01*
X151682918Y-100599410D01*
X151501491Y-100758532D01*
X151354593Y-100949991D01*
X151247870Y-101166429D01*
X144449000Y-101166429D01*
X144449000Y-99493571D01*
X151247870Y-99493571D01*
X151354593Y-99710009D01*
X151501491Y-99901468D01*
X151682918Y-100060590D01*
X151891902Y-100181260D01*
X151966431Y-100212119D01*
X152152000Y-100168343D01*
X152152000Y-99308000D01*
X152648000Y-99308000D01*
X152648000Y-100168343D01*
X152833569Y-100212119D01*
X152908098Y-100181260D01*
X153117082Y-100060590D01*
X153298509Y-99901468D01*
X153445407Y-99710009D01*
X153552130Y-99493571D01*
X153510521Y-99308000D01*
X152648000Y-99308000D01*
X152152000Y-99308000D01*
X151289479Y-99308000D01*
X151247870Y-99493571D01*
X144449000Y-99493571D01*
X144449000Y-99060000D01*
X153830659Y-99060000D01*
X153851975Y-99276422D01*
X153915103Y-99484526D01*
X154017617Y-99676317D01*
X154155577Y-99844423D01*
X154323683Y-99982383D01*
X154515474Y-100084897D01*
X154723578Y-100148025D01*
X154885773Y-100164000D01*
X154994227Y-100164000D01*
X155156422Y-100148025D01*
X155364526Y-100084897D01*
X155556317Y-99982383D01*
X155724423Y-99844423D01*
X155862383Y-99676317D01*
X155964897Y-99484526D01*
X156028025Y-99276422D01*
X156049341Y-99060000D01*
X156028025Y-98843578D01*
X155964897Y-98635474D01*
X155862383Y-98443683D01*
X155724423Y-98275577D01*
X155644517Y-98210000D01*
X156374772Y-98210000D01*
X156374772Y-99910000D01*
X156379676Y-99959793D01*
X156394200Y-100007672D01*
X156417786Y-100051797D01*
X156449527Y-100090473D01*
X156488203Y-100122214D01*
X156532328Y-100145800D01*
X156580207Y-100160324D01*
X156630000Y-100165228D01*
X158330000Y-100165228D01*
X158379793Y-100160324D01*
X158427672Y-100145800D01*
X158471797Y-100122214D01*
X158510473Y-100090473D01*
X158542214Y-100051797D01*
X158565800Y-100007672D01*
X158580324Y-99959793D01*
X158585228Y-99910000D01*
X158585228Y-98956190D01*
X164046000Y-98956190D01*
X164046000Y-99163810D01*
X164086504Y-99367441D01*
X164165957Y-99559256D01*
X164281305Y-99731886D01*
X164428114Y-99878695D01*
X164600744Y-99994043D01*
X164792559Y-100073496D01*
X164996190Y-100114000D01*
X165203810Y-100114000D01*
X165407441Y-100073496D01*
X165599256Y-99994043D01*
X165771886Y-99878695D01*
X165918695Y-99731886D01*
X166034043Y-99559256D01*
X166113496Y-99367441D01*
X166154000Y-99163810D01*
X166154000Y-98956190D01*
X179286000Y-98956190D01*
X179286000Y-99163810D01*
X179326504Y-99367441D01*
X179405957Y-99559256D01*
X179521305Y-99731886D01*
X179668114Y-99878695D01*
X179840744Y-99994043D01*
X180032559Y-100073496D01*
X180236190Y-100114000D01*
X180443810Y-100114000D01*
X180647441Y-100073496D01*
X180839256Y-99994043D01*
X181011886Y-99878695D01*
X181158695Y-99731886D01*
X181274043Y-99559256D01*
X181353496Y-99367441D01*
X181394000Y-99163810D01*
X181394000Y-98956190D01*
X181353496Y-98752559D01*
X181274043Y-98560744D01*
X181158695Y-98388114D01*
X181011886Y-98241305D01*
X180839256Y-98125957D01*
X180647441Y-98046504D01*
X180443810Y-98006000D01*
X180236190Y-98006000D01*
X180032559Y-98046504D01*
X179840744Y-98125957D01*
X179668114Y-98241305D01*
X179521305Y-98388114D01*
X179405957Y-98560744D01*
X179326504Y-98752559D01*
X179286000Y-98956190D01*
X166154000Y-98956190D01*
X166113496Y-98752559D01*
X166034043Y-98560744D01*
X165918695Y-98388114D01*
X165771886Y-98241305D01*
X165599256Y-98125957D01*
X165407441Y-98046504D01*
X165203810Y-98006000D01*
X164996190Y-98006000D01*
X164792559Y-98046504D01*
X164600744Y-98125957D01*
X164428114Y-98241305D01*
X164281305Y-98388114D01*
X164165957Y-98560744D01*
X164086504Y-98752559D01*
X164046000Y-98956190D01*
X158585228Y-98956190D01*
X158585228Y-98210000D01*
X158580324Y-98160207D01*
X158565800Y-98112328D01*
X158542214Y-98068203D01*
X158510473Y-98029527D01*
X158471797Y-97997786D01*
X158427672Y-97974200D01*
X158379793Y-97959676D01*
X158330000Y-97954772D01*
X156630000Y-97954772D01*
X156580207Y-97959676D01*
X156532328Y-97974200D01*
X156488203Y-97997786D01*
X156449527Y-98029527D01*
X156417786Y-98068203D01*
X156394200Y-98112328D01*
X156379676Y-98160207D01*
X156374772Y-98210000D01*
X155644517Y-98210000D01*
X155556317Y-98137617D01*
X155364526Y-98035103D01*
X155156422Y-97971975D01*
X154994227Y-97956000D01*
X154885773Y-97956000D01*
X154723578Y-97971975D01*
X154515474Y-98035103D01*
X154323683Y-98137617D01*
X154155577Y-98275577D01*
X154017617Y-98443683D01*
X153915103Y-98635474D01*
X153851975Y-98843578D01*
X153830659Y-99060000D01*
X144449000Y-99060000D01*
X144449000Y-98626429D01*
X151247870Y-98626429D01*
X151289479Y-98812000D01*
X152152000Y-98812000D01*
X152152000Y-97951657D01*
X152648000Y-97951657D01*
X152648000Y-98812000D01*
X153510521Y-98812000D01*
X153552130Y-98626429D01*
X153445407Y-98409991D01*
X153298509Y-98218532D01*
X153117082Y-98059410D01*
X152908098Y-97938740D01*
X152833569Y-97907881D01*
X152648000Y-97951657D01*
X152152000Y-97951657D01*
X151966431Y-97907881D01*
X151891902Y-97938740D01*
X151682918Y-98059410D01*
X151501491Y-98218532D01*
X151354593Y-98409991D01*
X151247870Y-98626429D01*
X144449000Y-98626429D01*
X144449000Y-96416190D01*
X164046000Y-96416190D01*
X164046000Y-96623810D01*
X164086504Y-96827441D01*
X164165957Y-97019256D01*
X164281305Y-97191886D01*
X164428114Y-97338695D01*
X164600744Y-97454043D01*
X164792559Y-97533496D01*
X164996190Y-97574000D01*
X165203810Y-97574000D01*
X165407441Y-97533496D01*
X165599256Y-97454043D01*
X165771886Y-97338695D01*
X165918695Y-97191886D01*
X166034043Y-97019256D01*
X166113496Y-96827441D01*
X166154000Y-96623810D01*
X166154000Y-96416190D01*
X166586000Y-96416190D01*
X166586000Y-96623810D01*
X166626504Y-96827441D01*
X166705957Y-97019256D01*
X166821305Y-97191886D01*
X166968114Y-97338695D01*
X167140744Y-97454043D01*
X167332559Y-97533496D01*
X167536190Y-97574000D01*
X167743810Y-97574000D01*
X167947441Y-97533496D01*
X168139256Y-97454043D01*
X168311886Y-97338695D01*
X168458695Y-97191886D01*
X168574043Y-97019256D01*
X168653496Y-96827441D01*
X168694000Y-96623810D01*
X168694000Y-96416190D01*
X169126000Y-96416190D01*
X169126000Y-96623810D01*
X169166504Y-96827441D01*
X169245957Y-97019256D01*
X169361305Y-97191886D01*
X169508114Y-97338695D01*
X169680744Y-97454043D01*
X169872559Y-97533496D01*
X170076190Y-97574000D01*
X170283810Y-97574000D01*
X170487441Y-97533496D01*
X170679256Y-97454043D01*
X170851886Y-97338695D01*
X170998695Y-97191886D01*
X171114043Y-97019256D01*
X171193496Y-96827441D01*
X171234000Y-96623810D01*
X171234000Y-96416190D01*
X171666000Y-96416190D01*
X171666000Y-96623810D01*
X171706504Y-96827441D01*
X171785957Y-97019256D01*
X171901305Y-97191886D01*
X172048114Y-97338695D01*
X172220744Y-97454043D01*
X172412559Y-97533496D01*
X172616190Y-97574000D01*
X172823810Y-97574000D01*
X173027441Y-97533496D01*
X173219256Y-97454043D01*
X173391886Y-97338695D01*
X173538695Y-97191886D01*
X173654043Y-97019256D01*
X173733496Y-96827441D01*
X173774000Y-96623810D01*
X173774000Y-96416190D01*
X174206000Y-96416190D01*
X174206000Y-96623810D01*
X174246504Y-96827441D01*
X174325957Y-97019256D01*
X174441305Y-97191886D01*
X174588114Y-97338695D01*
X174760744Y-97454043D01*
X174952559Y-97533496D01*
X175156190Y-97574000D01*
X175363810Y-97574000D01*
X175567441Y-97533496D01*
X175759256Y-97454043D01*
X175931886Y-97338695D01*
X176078695Y-97191886D01*
X176194043Y-97019256D01*
X176273496Y-96827441D01*
X176314000Y-96623810D01*
X176314000Y-96416190D01*
X176746000Y-96416190D01*
X176746000Y-96623810D01*
X176786504Y-96827441D01*
X176865957Y-97019256D01*
X176981305Y-97191886D01*
X177128114Y-97338695D01*
X177300744Y-97454043D01*
X177492559Y-97533496D01*
X177696190Y-97574000D01*
X177903810Y-97574000D01*
X178107441Y-97533496D01*
X178299256Y-97454043D01*
X178471886Y-97338695D01*
X178618695Y-97191886D01*
X178734043Y-97019256D01*
X178813496Y-96827441D01*
X178854000Y-96623810D01*
X178854000Y-96416190D01*
X179286000Y-96416190D01*
X179286000Y-96623810D01*
X179326504Y-96827441D01*
X179405957Y-97019256D01*
X179521305Y-97191886D01*
X179668114Y-97338695D01*
X179840744Y-97454043D01*
X180032559Y-97533496D01*
X180236190Y-97574000D01*
X180443810Y-97574000D01*
X180647441Y-97533496D01*
X180839256Y-97454043D01*
X181011886Y-97338695D01*
X181158695Y-97191886D01*
X181274043Y-97019256D01*
X181353496Y-96827441D01*
X181394000Y-96623810D01*
X181394000Y-96416190D01*
X181353496Y-96212559D01*
X181274043Y-96020744D01*
X181158695Y-95848114D01*
X181011886Y-95701305D01*
X180839256Y-95585957D01*
X180647441Y-95506504D01*
X180443810Y-95466000D01*
X180236190Y-95466000D01*
X180032559Y-95506504D01*
X179840744Y-95585957D01*
X179668114Y-95701305D01*
X179521305Y-95848114D01*
X179405957Y-96020744D01*
X179326504Y-96212559D01*
X179286000Y-96416190D01*
X178854000Y-96416190D01*
X178813496Y-96212559D01*
X178734043Y-96020744D01*
X178618695Y-95848114D01*
X178471886Y-95701305D01*
X178299256Y-95585957D01*
X178107441Y-95506504D01*
X177903810Y-95466000D01*
X177696190Y-95466000D01*
X177492559Y-95506504D01*
X177300744Y-95585957D01*
X177128114Y-95701305D01*
X176981305Y-95848114D01*
X176865957Y-96020744D01*
X176786504Y-96212559D01*
X176746000Y-96416190D01*
X176314000Y-96416190D01*
X176273496Y-96212559D01*
X176194043Y-96020744D01*
X176078695Y-95848114D01*
X175931886Y-95701305D01*
X175759256Y-95585957D01*
X175567441Y-95506504D01*
X175363810Y-95466000D01*
X175156190Y-95466000D01*
X174952559Y-95506504D01*
X174760744Y-95585957D01*
X174588114Y-95701305D01*
X174441305Y-95848114D01*
X174325957Y-96020744D01*
X174246504Y-96212559D01*
X174206000Y-96416190D01*
X173774000Y-96416190D01*
X173733496Y-96212559D01*
X173654043Y-96020744D01*
X173538695Y-95848114D01*
X173391886Y-95701305D01*
X173219256Y-95585957D01*
X173027441Y-95506504D01*
X172823810Y-95466000D01*
X172616190Y-95466000D01*
X172412559Y-95506504D01*
X172220744Y-95585957D01*
X172048114Y-95701305D01*
X171901305Y-95848114D01*
X171785957Y-96020744D01*
X171706504Y-96212559D01*
X171666000Y-96416190D01*
X171234000Y-96416190D01*
X171193496Y-96212559D01*
X171114043Y-96020744D01*
X170998695Y-95848114D01*
X170851886Y-95701305D01*
X170679256Y-95585957D01*
X170487441Y-95506504D01*
X170283810Y-95466000D01*
X170076190Y-95466000D01*
X169872559Y-95506504D01*
X169680744Y-95585957D01*
X169508114Y-95701305D01*
X169361305Y-95848114D01*
X169245957Y-96020744D01*
X169166504Y-96212559D01*
X169126000Y-96416190D01*
X168694000Y-96416190D01*
X168653496Y-96212559D01*
X168574043Y-96020744D01*
X168458695Y-95848114D01*
X168311886Y-95701305D01*
X168139256Y-95585957D01*
X167947441Y-95506504D01*
X167743810Y-95466000D01*
X167536190Y-95466000D01*
X167332559Y-95506504D01*
X167140744Y-95585957D01*
X166968114Y-95701305D01*
X166821305Y-95848114D01*
X166705957Y-96020744D01*
X166626504Y-96212559D01*
X166586000Y-96416190D01*
X166154000Y-96416190D01*
X166113496Y-96212559D01*
X166034043Y-96020744D01*
X165918695Y-95848114D01*
X165771886Y-95701305D01*
X165599256Y-95585957D01*
X165407441Y-95506504D01*
X165203810Y-95466000D01*
X164996190Y-95466000D01*
X164792559Y-95506504D01*
X164600744Y-95585957D01*
X164428114Y-95701305D01*
X164281305Y-95848114D01*
X164165957Y-96020744D01*
X164086504Y-96212559D01*
X164046000Y-96416190D01*
X144449000Y-96416190D01*
X144449000Y-94413571D01*
X151247870Y-94413571D01*
X151354593Y-94630009D01*
X151501491Y-94821468D01*
X151682918Y-94980590D01*
X151891902Y-95101260D01*
X151966431Y-95132119D01*
X152152000Y-95088343D01*
X152152000Y-94228000D01*
X152648000Y-94228000D01*
X152648000Y-95088343D01*
X152833569Y-95132119D01*
X152908098Y-95101260D01*
X153117082Y-94980590D01*
X153298509Y-94821468D01*
X153445407Y-94630009D01*
X153552130Y-94413571D01*
X153510521Y-94228000D01*
X152648000Y-94228000D01*
X152152000Y-94228000D01*
X151289479Y-94228000D01*
X151247870Y-94413571D01*
X144449000Y-94413571D01*
X144449000Y-93980000D01*
X153830659Y-93980000D01*
X153851975Y-94196422D01*
X153915103Y-94404526D01*
X154017617Y-94596317D01*
X154155577Y-94764423D01*
X154323683Y-94902383D01*
X154515474Y-95004897D01*
X154723578Y-95068025D01*
X154885773Y-95084000D01*
X154994227Y-95084000D01*
X155156422Y-95068025D01*
X155364526Y-95004897D01*
X155556317Y-94902383D01*
X155724423Y-94764423D01*
X155862383Y-94596317D01*
X155964897Y-94404526D01*
X156028025Y-94196422D01*
X156049341Y-93980000D01*
X156028025Y-93763578D01*
X155964897Y-93555474D01*
X155862383Y-93363683D01*
X155724423Y-93195577D01*
X155644517Y-93130000D01*
X156374772Y-93130000D01*
X156374772Y-94830000D01*
X156379676Y-94879793D01*
X156394200Y-94927672D01*
X156417786Y-94971797D01*
X156449527Y-95010473D01*
X156488203Y-95042214D01*
X156532328Y-95065800D01*
X156580207Y-95080324D01*
X156630000Y-95085228D01*
X158330000Y-95085228D01*
X158379793Y-95080324D01*
X158427672Y-95065800D01*
X158471797Y-95042214D01*
X158510473Y-95010473D01*
X158542214Y-94971797D01*
X158565800Y-94927672D01*
X158580324Y-94879793D01*
X158585228Y-94830000D01*
X158585228Y-93876190D01*
X164046000Y-93876190D01*
X164046000Y-94083810D01*
X164086504Y-94287441D01*
X164165957Y-94479256D01*
X164281305Y-94651886D01*
X164428114Y-94798695D01*
X164600744Y-94914043D01*
X164792559Y-94993496D01*
X164996190Y-95034000D01*
X165203810Y-95034000D01*
X165407441Y-94993496D01*
X165599256Y-94914043D01*
X165771886Y-94798695D01*
X165918695Y-94651886D01*
X166034043Y-94479256D01*
X166113496Y-94287441D01*
X166154000Y-94083810D01*
X166154000Y-93876190D01*
X166586000Y-93876190D01*
X166586000Y-94083810D01*
X166626504Y-94287441D01*
X166705957Y-94479256D01*
X166821305Y-94651886D01*
X166968114Y-94798695D01*
X167140744Y-94914043D01*
X167332559Y-94993496D01*
X167536190Y-95034000D01*
X167743810Y-95034000D01*
X167947441Y-94993496D01*
X168139256Y-94914043D01*
X168311886Y-94798695D01*
X168458695Y-94651886D01*
X168574043Y-94479256D01*
X168653496Y-94287441D01*
X168694000Y-94083810D01*
X168694000Y-93876190D01*
X169126000Y-93876190D01*
X169126000Y-94083810D01*
X169166504Y-94287441D01*
X169245957Y-94479256D01*
X169361305Y-94651886D01*
X169508114Y-94798695D01*
X169680744Y-94914043D01*
X169872559Y-94993496D01*
X170076190Y-95034000D01*
X170283810Y-95034000D01*
X170487441Y-94993496D01*
X170679256Y-94914043D01*
X170851886Y-94798695D01*
X170998695Y-94651886D01*
X171114043Y-94479256D01*
X171193496Y-94287441D01*
X171234000Y-94083810D01*
X171234000Y-93876190D01*
X171666000Y-93876190D01*
X171666000Y-94083810D01*
X171706504Y-94287441D01*
X171785957Y-94479256D01*
X171901305Y-94651886D01*
X172048114Y-94798695D01*
X172220744Y-94914043D01*
X172412559Y-94993496D01*
X172616190Y-95034000D01*
X172823810Y-95034000D01*
X173027441Y-94993496D01*
X173219256Y-94914043D01*
X173391886Y-94798695D01*
X173538695Y-94651886D01*
X173654043Y-94479256D01*
X173733496Y-94287441D01*
X173774000Y-94083810D01*
X173774000Y-93876190D01*
X174206000Y-93876190D01*
X174206000Y-94083810D01*
X174246504Y-94287441D01*
X174325957Y-94479256D01*
X174441305Y-94651886D01*
X174588114Y-94798695D01*
X174760744Y-94914043D01*
X174952559Y-94993496D01*
X175156190Y-95034000D01*
X175363810Y-95034000D01*
X175567441Y-94993496D01*
X175759256Y-94914043D01*
X175931886Y-94798695D01*
X176078695Y-94651886D01*
X176194043Y-94479256D01*
X176273496Y-94287441D01*
X176314000Y-94083810D01*
X176314000Y-93876190D01*
X176746000Y-93876190D01*
X176746000Y-94083810D01*
X176786504Y-94287441D01*
X176865957Y-94479256D01*
X176981305Y-94651886D01*
X177128114Y-94798695D01*
X177300744Y-94914043D01*
X177492559Y-94993496D01*
X177696190Y-95034000D01*
X177903810Y-95034000D01*
X178107441Y-94993496D01*
X178299256Y-94914043D01*
X178471886Y-94798695D01*
X178618695Y-94651886D01*
X178734043Y-94479256D01*
X178813496Y-94287441D01*
X178854000Y-94083810D01*
X178854000Y-93876190D01*
X179286000Y-93876190D01*
X179286000Y-94083810D01*
X179326504Y-94287441D01*
X179405957Y-94479256D01*
X179521305Y-94651886D01*
X179668114Y-94798695D01*
X179840744Y-94914043D01*
X180032559Y-94993496D01*
X180236190Y-95034000D01*
X180443810Y-95034000D01*
X180647441Y-94993496D01*
X180839256Y-94914043D01*
X181011886Y-94798695D01*
X181158695Y-94651886D01*
X181274043Y-94479256D01*
X181353496Y-94287441D01*
X181394000Y-94083810D01*
X181394000Y-93876190D01*
X181353496Y-93672559D01*
X181274043Y-93480744D01*
X181158695Y-93308114D01*
X181011886Y-93161305D01*
X180839256Y-93045957D01*
X180647441Y-92966504D01*
X180443810Y-92926000D01*
X180236190Y-92926000D01*
X180032559Y-92966504D01*
X179840744Y-93045957D01*
X179668114Y-93161305D01*
X179521305Y-93308114D01*
X179405957Y-93480744D01*
X179326504Y-93672559D01*
X179286000Y-93876190D01*
X178854000Y-93876190D01*
X178813496Y-93672559D01*
X178734043Y-93480744D01*
X178618695Y-93308114D01*
X178471886Y-93161305D01*
X178299256Y-93045957D01*
X178107441Y-92966504D01*
X177903810Y-92926000D01*
X177696190Y-92926000D01*
X177492559Y-92966504D01*
X177300744Y-93045957D01*
X177128114Y-93161305D01*
X176981305Y-93308114D01*
X176865957Y-93480744D01*
X176786504Y-93672559D01*
X176746000Y-93876190D01*
X176314000Y-93876190D01*
X176273496Y-93672559D01*
X176194043Y-93480744D01*
X176078695Y-93308114D01*
X175931886Y-93161305D01*
X175759256Y-93045957D01*
X175567441Y-92966504D01*
X175363810Y-92926000D01*
X175156190Y-92926000D01*
X174952559Y-92966504D01*
X174760744Y-93045957D01*
X174588114Y-93161305D01*
X174441305Y-93308114D01*
X174325957Y-93480744D01*
X174246504Y-93672559D01*
X174206000Y-93876190D01*
X173774000Y-93876190D01*
X173733496Y-93672559D01*
X173654043Y-93480744D01*
X173538695Y-93308114D01*
X173391886Y-93161305D01*
X173219256Y-93045957D01*
X173027441Y-92966504D01*
X172823810Y-92926000D01*
X172616190Y-92926000D01*
X172412559Y-92966504D01*
X172220744Y-93045957D01*
X172048114Y-93161305D01*
X171901305Y-93308114D01*
X171785957Y-93480744D01*
X171706504Y-93672559D01*
X171666000Y-93876190D01*
X171234000Y-93876190D01*
X171193496Y-93672559D01*
X171114043Y-93480744D01*
X170998695Y-93308114D01*
X170851886Y-93161305D01*
X170679256Y-93045957D01*
X170487441Y-92966504D01*
X170283810Y-92926000D01*
X170076190Y-92926000D01*
X169872559Y-92966504D01*
X169680744Y-93045957D01*
X169508114Y-93161305D01*
X169361305Y-93308114D01*
X169245957Y-93480744D01*
X169166504Y-93672559D01*
X169126000Y-93876190D01*
X168694000Y-93876190D01*
X168653496Y-93672559D01*
X168574043Y-93480744D01*
X168458695Y-93308114D01*
X168311886Y-93161305D01*
X168139256Y-93045957D01*
X167947441Y-92966504D01*
X167743810Y-92926000D01*
X167536190Y-92926000D01*
X167332559Y-92966504D01*
X167140744Y-93045957D01*
X166968114Y-93161305D01*
X166821305Y-93308114D01*
X166705957Y-93480744D01*
X166626504Y-93672559D01*
X166586000Y-93876190D01*
X166154000Y-93876190D01*
X166113496Y-93672559D01*
X166034043Y-93480744D01*
X165918695Y-93308114D01*
X165771886Y-93161305D01*
X165599256Y-93045957D01*
X165407441Y-92966504D01*
X165203810Y-92926000D01*
X164996190Y-92926000D01*
X164792559Y-92966504D01*
X164600744Y-93045957D01*
X164428114Y-93161305D01*
X164281305Y-93308114D01*
X164165957Y-93480744D01*
X164086504Y-93672559D01*
X164046000Y-93876190D01*
X158585228Y-93876190D01*
X158585228Y-93130000D01*
X158580324Y-93080207D01*
X158565800Y-93032328D01*
X158542214Y-92988203D01*
X158510473Y-92949527D01*
X158471797Y-92917786D01*
X158427672Y-92894200D01*
X158379793Y-92879676D01*
X158330000Y-92874772D01*
X156630000Y-92874772D01*
X156580207Y-92879676D01*
X156532328Y-92894200D01*
X156488203Y-92917786D01*
X156449527Y-92949527D01*
X156417786Y-92988203D01*
X156394200Y-93032328D01*
X156379676Y-93080207D01*
X156374772Y-93130000D01*
X155644517Y-93130000D01*
X155556317Y-93057617D01*
X155364526Y-92955103D01*
X155156422Y-92891975D01*
X154994227Y-92876000D01*
X154885773Y-92876000D01*
X154723578Y-92891975D01*
X154515474Y-92955103D01*
X154323683Y-93057617D01*
X154155577Y-93195577D01*
X154017617Y-93363683D01*
X153915103Y-93555474D01*
X153851975Y-93763578D01*
X153830659Y-93980000D01*
X144449000Y-93980000D01*
X144449000Y-93546429D01*
X151247870Y-93546429D01*
X151289479Y-93732000D01*
X152152000Y-93732000D01*
X152152000Y-92871657D01*
X152648000Y-92871657D01*
X152648000Y-93732000D01*
X153510521Y-93732000D01*
X153552130Y-93546429D01*
X153445407Y-93329991D01*
X153298509Y-93138532D01*
X153117082Y-92979410D01*
X152908098Y-92858740D01*
X152833569Y-92827881D01*
X152648000Y-92871657D01*
X152152000Y-92871657D01*
X151966431Y-92827881D01*
X151891902Y-92858740D01*
X151682918Y-92979410D01*
X151501491Y-93138532D01*
X151354593Y-93329991D01*
X151247870Y-93546429D01*
X144449000Y-93546429D01*
X144449000Y-91873571D01*
X151247870Y-91873571D01*
X151354593Y-92090009D01*
X151501491Y-92281468D01*
X151682918Y-92440590D01*
X151891902Y-92561260D01*
X151966431Y-92592119D01*
X152152000Y-92548343D01*
X152152000Y-91688000D01*
X152648000Y-91688000D01*
X152648000Y-92548343D01*
X152833569Y-92592119D01*
X152908098Y-92561260D01*
X153117082Y-92440590D01*
X153298509Y-92281468D01*
X153445407Y-92090009D01*
X153552130Y-91873571D01*
X153510521Y-91688000D01*
X152648000Y-91688000D01*
X152152000Y-91688000D01*
X151289479Y-91688000D01*
X151247870Y-91873571D01*
X144449000Y-91873571D01*
X144449000Y-91440000D01*
X153830659Y-91440000D01*
X153851975Y-91656422D01*
X153915103Y-91864526D01*
X154017617Y-92056317D01*
X154155577Y-92224423D01*
X154323683Y-92362383D01*
X154515474Y-92464897D01*
X154723578Y-92528025D01*
X154885773Y-92544000D01*
X154994227Y-92544000D01*
X155156422Y-92528025D01*
X155364526Y-92464897D01*
X155556317Y-92362383D01*
X155724423Y-92224423D01*
X155862383Y-92056317D01*
X155964897Y-91864526D01*
X156028025Y-91656422D01*
X156049341Y-91440000D01*
X156028025Y-91223578D01*
X155964897Y-91015474D01*
X155862383Y-90823683D01*
X155724423Y-90655577D01*
X155644517Y-90590000D01*
X156374772Y-90590000D01*
X156374772Y-92290000D01*
X156379676Y-92339793D01*
X156394200Y-92387672D01*
X156417786Y-92431797D01*
X156449527Y-92470473D01*
X156488203Y-92502214D01*
X156532328Y-92525800D01*
X156580207Y-92540324D01*
X156630000Y-92545228D01*
X158330000Y-92545228D01*
X158379793Y-92540324D01*
X158427672Y-92525800D01*
X158471797Y-92502214D01*
X158510473Y-92470473D01*
X158542214Y-92431797D01*
X158565800Y-92387672D01*
X158580324Y-92339793D01*
X158585228Y-92290000D01*
X158585228Y-91336190D01*
X164046000Y-91336190D01*
X164046000Y-91543810D01*
X164086504Y-91747441D01*
X164165957Y-91939256D01*
X164281305Y-92111886D01*
X164428114Y-92258695D01*
X164600744Y-92374043D01*
X164792559Y-92453496D01*
X164996190Y-92494000D01*
X165203810Y-92494000D01*
X165407441Y-92453496D01*
X165599256Y-92374043D01*
X165771886Y-92258695D01*
X165918695Y-92111886D01*
X166034043Y-91939256D01*
X166113496Y-91747441D01*
X166154000Y-91543810D01*
X166154000Y-91336190D01*
X179286000Y-91336190D01*
X179286000Y-91543810D01*
X179326504Y-91747441D01*
X179405957Y-91939256D01*
X179521305Y-92111886D01*
X179668114Y-92258695D01*
X179840744Y-92374043D01*
X180032559Y-92453496D01*
X180236190Y-92494000D01*
X180443810Y-92494000D01*
X180647441Y-92453496D01*
X180839256Y-92374043D01*
X181011886Y-92258695D01*
X181158695Y-92111886D01*
X181274043Y-91939256D01*
X181353496Y-91747441D01*
X181394000Y-91543810D01*
X181394000Y-91336190D01*
X181353496Y-91132559D01*
X181274043Y-90940744D01*
X181158695Y-90768114D01*
X181011886Y-90621305D01*
X180839256Y-90505957D01*
X180647441Y-90426504D01*
X180443810Y-90386000D01*
X180236190Y-90386000D01*
X180032559Y-90426504D01*
X179840744Y-90505957D01*
X179668114Y-90621305D01*
X179521305Y-90768114D01*
X179405957Y-90940744D01*
X179326504Y-91132559D01*
X179286000Y-91336190D01*
X166154000Y-91336190D01*
X166113496Y-91132559D01*
X166034043Y-90940744D01*
X165918695Y-90768114D01*
X165771886Y-90621305D01*
X165599256Y-90505957D01*
X165407441Y-90426504D01*
X165203810Y-90386000D01*
X164996190Y-90386000D01*
X164792559Y-90426504D01*
X164600744Y-90505957D01*
X164428114Y-90621305D01*
X164281305Y-90768114D01*
X164165957Y-90940744D01*
X164086504Y-91132559D01*
X164046000Y-91336190D01*
X158585228Y-91336190D01*
X158585228Y-90590000D01*
X158580324Y-90540207D01*
X158565800Y-90492328D01*
X158542214Y-90448203D01*
X158510473Y-90409527D01*
X158471797Y-90377786D01*
X158427672Y-90354200D01*
X158379793Y-90339676D01*
X158330000Y-90334772D01*
X156630000Y-90334772D01*
X156580207Y-90339676D01*
X156532328Y-90354200D01*
X156488203Y-90377786D01*
X156449527Y-90409527D01*
X156417786Y-90448203D01*
X156394200Y-90492328D01*
X156379676Y-90540207D01*
X156374772Y-90590000D01*
X155644517Y-90590000D01*
X155556317Y-90517617D01*
X155364526Y-90415103D01*
X155156422Y-90351975D01*
X154994227Y-90336000D01*
X154885773Y-90336000D01*
X154723578Y-90351975D01*
X154515474Y-90415103D01*
X154323683Y-90517617D01*
X154155577Y-90655577D01*
X154017617Y-90823683D01*
X153915103Y-91015474D01*
X153851975Y-91223578D01*
X153830659Y-91440000D01*
X144449000Y-91440000D01*
X144449000Y-91006429D01*
X151247870Y-91006429D01*
X151289479Y-91192000D01*
X152152000Y-91192000D01*
X152152000Y-90331657D01*
X152648000Y-90331657D01*
X152648000Y-91192000D01*
X153510521Y-91192000D01*
X153552130Y-91006429D01*
X153445407Y-90789991D01*
X153298509Y-90598532D01*
X153117082Y-90439410D01*
X152908098Y-90318740D01*
X152833569Y-90287881D01*
X152648000Y-90331657D01*
X152152000Y-90331657D01*
X151966431Y-90287881D01*
X151891902Y-90318740D01*
X151682918Y-90439410D01*
X151501491Y-90598532D01*
X151354593Y-90789991D01*
X151247870Y-91006429D01*
X144449000Y-91006429D01*
X144449000Y-89333571D01*
X151247870Y-89333571D01*
X151354593Y-89550009D01*
X151501491Y-89741468D01*
X151682918Y-89900590D01*
X151891902Y-90021260D01*
X151966431Y-90052119D01*
X152152000Y-90008343D01*
X152152000Y-89148000D01*
X152648000Y-89148000D01*
X152648000Y-90008343D01*
X152833569Y-90052119D01*
X152908098Y-90021260D01*
X153117082Y-89900590D01*
X153298509Y-89741468D01*
X153445407Y-89550009D01*
X153552130Y-89333571D01*
X153510521Y-89148000D01*
X152648000Y-89148000D01*
X152152000Y-89148000D01*
X151289479Y-89148000D01*
X151247870Y-89333571D01*
X144449000Y-89333571D01*
X144449000Y-88900000D01*
X153830659Y-88900000D01*
X153851975Y-89116422D01*
X153915103Y-89324526D01*
X154017617Y-89516317D01*
X154155577Y-89684423D01*
X154323683Y-89822383D01*
X154515474Y-89924897D01*
X154723578Y-89988025D01*
X154885773Y-90004000D01*
X154994227Y-90004000D01*
X155156422Y-89988025D01*
X155364526Y-89924897D01*
X155556317Y-89822383D01*
X155724423Y-89684423D01*
X155862383Y-89516317D01*
X155964897Y-89324526D01*
X156028025Y-89116422D01*
X156049341Y-88900000D01*
X156028025Y-88683578D01*
X155964897Y-88475474D01*
X155862383Y-88283683D01*
X155724423Y-88115577D01*
X155644517Y-88050000D01*
X156374772Y-88050000D01*
X156374772Y-89750000D01*
X156379676Y-89799793D01*
X156394200Y-89847672D01*
X156417786Y-89891797D01*
X156449527Y-89930473D01*
X156488203Y-89962214D01*
X156532328Y-89985800D01*
X156580207Y-90000324D01*
X156630000Y-90005228D01*
X158330000Y-90005228D01*
X158379793Y-90000324D01*
X158427672Y-89985800D01*
X158471797Y-89962214D01*
X158510473Y-89930473D01*
X158542214Y-89891797D01*
X158565800Y-89847672D01*
X158580324Y-89799793D01*
X158585228Y-89750000D01*
X158585228Y-88796190D01*
X164046000Y-88796190D01*
X164046000Y-89003810D01*
X164086504Y-89207441D01*
X164165957Y-89399256D01*
X164281305Y-89571886D01*
X164428114Y-89718695D01*
X164600744Y-89834043D01*
X164792559Y-89913496D01*
X164996190Y-89954000D01*
X165203810Y-89954000D01*
X165407441Y-89913496D01*
X165599256Y-89834043D01*
X165771886Y-89718695D01*
X165918695Y-89571886D01*
X166034043Y-89399256D01*
X166113496Y-89207441D01*
X166154000Y-89003810D01*
X166154000Y-88796190D01*
X179286000Y-88796190D01*
X179286000Y-89003810D01*
X179326504Y-89207441D01*
X179405957Y-89399256D01*
X179521305Y-89571886D01*
X179668114Y-89718695D01*
X179840744Y-89834043D01*
X180032559Y-89913496D01*
X180236190Y-89954000D01*
X180443810Y-89954000D01*
X180647441Y-89913496D01*
X180839256Y-89834043D01*
X181011886Y-89718695D01*
X181158695Y-89571886D01*
X181274043Y-89399256D01*
X181353496Y-89207441D01*
X181394000Y-89003810D01*
X181394000Y-88796190D01*
X181353496Y-88592559D01*
X181274043Y-88400744D01*
X181158695Y-88228114D01*
X181011886Y-88081305D01*
X180839256Y-87965957D01*
X180647441Y-87886504D01*
X180443810Y-87846000D01*
X180236190Y-87846000D01*
X180032559Y-87886504D01*
X179840744Y-87965957D01*
X179668114Y-88081305D01*
X179521305Y-88228114D01*
X179405957Y-88400744D01*
X179326504Y-88592559D01*
X179286000Y-88796190D01*
X166154000Y-88796190D01*
X166113496Y-88592559D01*
X166034043Y-88400744D01*
X165918695Y-88228114D01*
X165771886Y-88081305D01*
X165599256Y-87965957D01*
X165407441Y-87886504D01*
X165203810Y-87846000D01*
X164996190Y-87846000D01*
X164792559Y-87886504D01*
X164600744Y-87965957D01*
X164428114Y-88081305D01*
X164281305Y-88228114D01*
X164165957Y-88400744D01*
X164086504Y-88592559D01*
X164046000Y-88796190D01*
X158585228Y-88796190D01*
X158585228Y-88050000D01*
X158580324Y-88000207D01*
X158565800Y-87952328D01*
X158542214Y-87908203D01*
X158510473Y-87869527D01*
X158471797Y-87837786D01*
X158427672Y-87814200D01*
X158379793Y-87799676D01*
X158330000Y-87794772D01*
X156630000Y-87794772D01*
X156580207Y-87799676D01*
X156532328Y-87814200D01*
X156488203Y-87837786D01*
X156449527Y-87869527D01*
X156417786Y-87908203D01*
X156394200Y-87952328D01*
X156379676Y-88000207D01*
X156374772Y-88050000D01*
X155644517Y-88050000D01*
X155556317Y-87977617D01*
X155364526Y-87875103D01*
X155156422Y-87811975D01*
X154994227Y-87796000D01*
X154885773Y-87796000D01*
X154723578Y-87811975D01*
X154515474Y-87875103D01*
X154323683Y-87977617D01*
X154155577Y-88115577D01*
X154017617Y-88283683D01*
X153915103Y-88475474D01*
X153851975Y-88683578D01*
X153830659Y-88900000D01*
X144449000Y-88900000D01*
X144449000Y-88466429D01*
X151247870Y-88466429D01*
X151289479Y-88652000D01*
X152152000Y-88652000D01*
X152152000Y-87791657D01*
X152648000Y-87791657D01*
X152648000Y-88652000D01*
X153510521Y-88652000D01*
X153552130Y-88466429D01*
X153445407Y-88249991D01*
X153298509Y-88058532D01*
X153117082Y-87899410D01*
X152908098Y-87778740D01*
X152833569Y-87747881D01*
X152648000Y-87791657D01*
X152152000Y-87791657D01*
X151966431Y-87747881D01*
X151891902Y-87778740D01*
X151682918Y-87899410D01*
X151501491Y-88058532D01*
X151354593Y-88249991D01*
X151247870Y-88466429D01*
X144449000Y-88466429D01*
X144449000Y-86256190D01*
X164046000Y-86256190D01*
X164046000Y-86463810D01*
X164086504Y-86667441D01*
X164165957Y-86859256D01*
X164281305Y-87031886D01*
X164428114Y-87178695D01*
X164600744Y-87294043D01*
X164792559Y-87373496D01*
X164996190Y-87414000D01*
X165203810Y-87414000D01*
X165407441Y-87373496D01*
X165599256Y-87294043D01*
X165771886Y-87178695D01*
X165918695Y-87031886D01*
X166034043Y-86859256D01*
X166113496Y-86667441D01*
X166154000Y-86463810D01*
X166154000Y-86256190D01*
X179286000Y-86256190D01*
X179286000Y-86463810D01*
X179326504Y-86667441D01*
X179405957Y-86859256D01*
X179521305Y-87031886D01*
X179668114Y-87178695D01*
X179840744Y-87294043D01*
X180032559Y-87373496D01*
X180236190Y-87414000D01*
X180443810Y-87414000D01*
X180647441Y-87373496D01*
X180839256Y-87294043D01*
X181011886Y-87178695D01*
X181158695Y-87031886D01*
X181274043Y-86859256D01*
X181353496Y-86667441D01*
X181394000Y-86463810D01*
X181394000Y-86256190D01*
X181353496Y-86052559D01*
X181274043Y-85860744D01*
X181158695Y-85688114D01*
X181011886Y-85541305D01*
X180839256Y-85425957D01*
X180647441Y-85346504D01*
X180443810Y-85306000D01*
X180236190Y-85306000D01*
X180032559Y-85346504D01*
X179840744Y-85425957D01*
X179668114Y-85541305D01*
X179521305Y-85688114D01*
X179405957Y-85860744D01*
X179326504Y-86052559D01*
X179286000Y-86256190D01*
X166154000Y-86256190D01*
X166113496Y-86052559D01*
X166034043Y-85860744D01*
X165918695Y-85688114D01*
X165771886Y-85541305D01*
X165599256Y-85425957D01*
X165407441Y-85346504D01*
X165203810Y-85306000D01*
X164996190Y-85306000D01*
X164792559Y-85346504D01*
X164600744Y-85425957D01*
X164428114Y-85541305D01*
X164281305Y-85688114D01*
X164165957Y-85860744D01*
X164086504Y-86052559D01*
X164046000Y-86256190D01*
X144449000Y-86256190D01*
X144449000Y-84253571D01*
X151247870Y-84253571D01*
X151354593Y-84470009D01*
X151501491Y-84661468D01*
X151682918Y-84820590D01*
X151891902Y-84941260D01*
X151966431Y-84972119D01*
X152152000Y-84928343D01*
X152152000Y-84068000D01*
X152648000Y-84068000D01*
X152648000Y-84928343D01*
X152833569Y-84972119D01*
X152908098Y-84941260D01*
X153117082Y-84820590D01*
X153298509Y-84661468D01*
X153445407Y-84470009D01*
X153552130Y-84253571D01*
X153510521Y-84068000D01*
X152648000Y-84068000D01*
X152152000Y-84068000D01*
X151289479Y-84068000D01*
X151247870Y-84253571D01*
X144449000Y-84253571D01*
X144449000Y-83820000D01*
X153830659Y-83820000D01*
X153851975Y-84036422D01*
X153915103Y-84244526D01*
X154017617Y-84436317D01*
X154155577Y-84604423D01*
X154323683Y-84742383D01*
X154515474Y-84844897D01*
X154723578Y-84908025D01*
X154885773Y-84924000D01*
X154994227Y-84924000D01*
X155156422Y-84908025D01*
X155364526Y-84844897D01*
X155556317Y-84742383D01*
X155724423Y-84604423D01*
X155862383Y-84436317D01*
X155964897Y-84244526D01*
X156028025Y-84036422D01*
X156049341Y-83820000D01*
X156028025Y-83603578D01*
X155964897Y-83395474D01*
X155862383Y-83203683D01*
X155724423Y-83035577D01*
X155644517Y-82970000D01*
X156374772Y-82970000D01*
X156374772Y-84670000D01*
X156379676Y-84719793D01*
X156394200Y-84767672D01*
X156417786Y-84811797D01*
X156449527Y-84850473D01*
X156488203Y-84882214D01*
X156532328Y-84905800D01*
X156580207Y-84920324D01*
X156630000Y-84925228D01*
X158330000Y-84925228D01*
X158379793Y-84920324D01*
X158427672Y-84905800D01*
X158471797Y-84882214D01*
X158510473Y-84850473D01*
X158542214Y-84811797D01*
X158565800Y-84767672D01*
X158580324Y-84719793D01*
X158585228Y-84670000D01*
X158585228Y-83716190D01*
X164046000Y-83716190D01*
X164046000Y-83923810D01*
X164086504Y-84127441D01*
X164165957Y-84319256D01*
X164281305Y-84491886D01*
X164428114Y-84638695D01*
X164600744Y-84754043D01*
X164792559Y-84833496D01*
X164996190Y-84874000D01*
X165203810Y-84874000D01*
X165407441Y-84833496D01*
X165599256Y-84754043D01*
X165771886Y-84638695D01*
X165918695Y-84491886D01*
X166034043Y-84319256D01*
X166113496Y-84127441D01*
X166154000Y-83923810D01*
X166154000Y-83716190D01*
X179286000Y-83716190D01*
X179286000Y-83923810D01*
X179326504Y-84127441D01*
X179405957Y-84319256D01*
X179521305Y-84491886D01*
X179668114Y-84638695D01*
X179840744Y-84754043D01*
X180032559Y-84833496D01*
X180236190Y-84874000D01*
X180443810Y-84874000D01*
X180647441Y-84833496D01*
X180839256Y-84754043D01*
X181011886Y-84638695D01*
X181158695Y-84491886D01*
X181274043Y-84319256D01*
X181353496Y-84127441D01*
X181394000Y-83923810D01*
X181394000Y-83716190D01*
X181353496Y-83512559D01*
X181274043Y-83320744D01*
X181158695Y-83148114D01*
X181011886Y-83001305D01*
X180839256Y-82885957D01*
X180647441Y-82806504D01*
X180443810Y-82766000D01*
X180236190Y-82766000D01*
X180032559Y-82806504D01*
X179840744Y-82885957D01*
X179668114Y-83001305D01*
X179521305Y-83148114D01*
X179405957Y-83320744D01*
X179326504Y-83512559D01*
X179286000Y-83716190D01*
X166154000Y-83716190D01*
X166113496Y-83512559D01*
X166034043Y-83320744D01*
X165918695Y-83148114D01*
X165771886Y-83001305D01*
X165599256Y-82885957D01*
X165407441Y-82806504D01*
X165203810Y-82766000D01*
X164996190Y-82766000D01*
X164792559Y-82806504D01*
X164600744Y-82885957D01*
X164428114Y-83001305D01*
X164281305Y-83148114D01*
X164165957Y-83320744D01*
X164086504Y-83512559D01*
X164046000Y-83716190D01*
X158585228Y-83716190D01*
X158585228Y-82970000D01*
X158580324Y-82920207D01*
X158565800Y-82872328D01*
X158542214Y-82828203D01*
X158510473Y-82789527D01*
X158471797Y-82757786D01*
X158427672Y-82734200D01*
X158379793Y-82719676D01*
X158330000Y-82714772D01*
X156630000Y-82714772D01*
X156580207Y-82719676D01*
X156532328Y-82734200D01*
X156488203Y-82757786D01*
X156449527Y-82789527D01*
X156417786Y-82828203D01*
X156394200Y-82872328D01*
X156379676Y-82920207D01*
X156374772Y-82970000D01*
X155644517Y-82970000D01*
X155556317Y-82897617D01*
X155364526Y-82795103D01*
X155156422Y-82731975D01*
X154994227Y-82716000D01*
X154885773Y-82716000D01*
X154723578Y-82731975D01*
X154515474Y-82795103D01*
X154323683Y-82897617D01*
X154155577Y-83035577D01*
X154017617Y-83203683D01*
X153915103Y-83395474D01*
X153851975Y-83603578D01*
X153830659Y-83820000D01*
X144449000Y-83820000D01*
X144449000Y-83386429D01*
X151247870Y-83386429D01*
X151289479Y-83572000D01*
X152152000Y-83572000D01*
X152152000Y-82711657D01*
X152648000Y-82711657D01*
X152648000Y-83572000D01*
X153510521Y-83572000D01*
X153552130Y-83386429D01*
X153445407Y-83169991D01*
X153298509Y-82978532D01*
X153117082Y-82819410D01*
X152908098Y-82698740D01*
X152833569Y-82667881D01*
X152648000Y-82711657D01*
X152152000Y-82711657D01*
X151966431Y-82667881D01*
X151891902Y-82698740D01*
X151682918Y-82819410D01*
X151501491Y-82978532D01*
X151354593Y-83169991D01*
X151247870Y-83386429D01*
X144449000Y-83386429D01*
X144449000Y-81713571D01*
X151247870Y-81713571D01*
X151354593Y-81930009D01*
X151501491Y-82121468D01*
X151682918Y-82280590D01*
X151891902Y-82401260D01*
X151966431Y-82432119D01*
X152152000Y-82388343D01*
X152152000Y-81528000D01*
X152648000Y-81528000D01*
X152648000Y-82388343D01*
X152833569Y-82432119D01*
X152908098Y-82401260D01*
X153117082Y-82280590D01*
X153298509Y-82121468D01*
X153445407Y-81930009D01*
X153552130Y-81713571D01*
X153510521Y-81528000D01*
X152648000Y-81528000D01*
X152152000Y-81528000D01*
X151289479Y-81528000D01*
X151247870Y-81713571D01*
X144449000Y-81713571D01*
X144449000Y-81280000D01*
X153830659Y-81280000D01*
X153851975Y-81496422D01*
X153915103Y-81704526D01*
X154017617Y-81896317D01*
X154155577Y-82064423D01*
X154323683Y-82202383D01*
X154515474Y-82304897D01*
X154723578Y-82368025D01*
X154885773Y-82384000D01*
X154994227Y-82384000D01*
X155156422Y-82368025D01*
X155364526Y-82304897D01*
X155556317Y-82202383D01*
X155724423Y-82064423D01*
X155862383Y-81896317D01*
X155964897Y-81704526D01*
X156028025Y-81496422D01*
X156049341Y-81280000D01*
X156028025Y-81063578D01*
X155964897Y-80855474D01*
X155862383Y-80663683D01*
X155724423Y-80495577D01*
X155644517Y-80430000D01*
X156374772Y-80430000D01*
X156374772Y-82130000D01*
X156379676Y-82179793D01*
X156394200Y-82227672D01*
X156417786Y-82271797D01*
X156449527Y-82310473D01*
X156488203Y-82342214D01*
X156532328Y-82365800D01*
X156580207Y-82380324D01*
X156630000Y-82385228D01*
X158330000Y-82385228D01*
X158379793Y-82380324D01*
X158427672Y-82365800D01*
X158471797Y-82342214D01*
X158510473Y-82310473D01*
X158542214Y-82271797D01*
X158565800Y-82227672D01*
X158580324Y-82179793D01*
X158585228Y-82130000D01*
X158585228Y-81176190D01*
X164046000Y-81176190D01*
X164046000Y-81383810D01*
X164086504Y-81587441D01*
X164165957Y-81779256D01*
X164281305Y-81951886D01*
X164428114Y-82098695D01*
X164600744Y-82214043D01*
X164792559Y-82293496D01*
X164996190Y-82334000D01*
X165203810Y-82334000D01*
X165407441Y-82293496D01*
X165599256Y-82214043D01*
X165771886Y-82098695D01*
X165918695Y-81951886D01*
X166034043Y-81779256D01*
X166113496Y-81587441D01*
X166154000Y-81383810D01*
X166154000Y-81176190D01*
X179286000Y-81176190D01*
X179286000Y-81383810D01*
X179326504Y-81587441D01*
X179405957Y-81779256D01*
X179521305Y-81951886D01*
X179668114Y-82098695D01*
X179840744Y-82214043D01*
X180032559Y-82293496D01*
X180236190Y-82334000D01*
X180443810Y-82334000D01*
X180647441Y-82293496D01*
X180839256Y-82214043D01*
X181011886Y-82098695D01*
X181158695Y-81951886D01*
X181274043Y-81779256D01*
X181353496Y-81587441D01*
X181394000Y-81383810D01*
X181394000Y-81176190D01*
X181353496Y-80972559D01*
X181274043Y-80780744D01*
X181158695Y-80608114D01*
X181011886Y-80461305D01*
X180839256Y-80345957D01*
X180647441Y-80266504D01*
X180443810Y-80226000D01*
X180236190Y-80226000D01*
X180032559Y-80266504D01*
X179840744Y-80345957D01*
X179668114Y-80461305D01*
X179521305Y-80608114D01*
X179405957Y-80780744D01*
X179326504Y-80972559D01*
X179286000Y-81176190D01*
X166154000Y-81176190D01*
X166113496Y-80972559D01*
X166034043Y-80780744D01*
X165918695Y-80608114D01*
X165771886Y-80461305D01*
X165599256Y-80345957D01*
X165407441Y-80266504D01*
X165203810Y-80226000D01*
X164996190Y-80226000D01*
X164792559Y-80266504D01*
X164600744Y-80345957D01*
X164428114Y-80461305D01*
X164281305Y-80608114D01*
X164165957Y-80780744D01*
X164086504Y-80972559D01*
X164046000Y-81176190D01*
X158585228Y-81176190D01*
X158585228Y-80430000D01*
X158580324Y-80380207D01*
X158565800Y-80332328D01*
X158542214Y-80288203D01*
X158510473Y-80249527D01*
X158471797Y-80217786D01*
X158427672Y-80194200D01*
X158379793Y-80179676D01*
X158330000Y-80174772D01*
X156630000Y-80174772D01*
X156580207Y-80179676D01*
X156532328Y-80194200D01*
X156488203Y-80217786D01*
X156449527Y-80249527D01*
X156417786Y-80288203D01*
X156394200Y-80332328D01*
X156379676Y-80380207D01*
X156374772Y-80430000D01*
X155644517Y-80430000D01*
X155556317Y-80357617D01*
X155364526Y-80255103D01*
X155156422Y-80191975D01*
X154994227Y-80176000D01*
X154885773Y-80176000D01*
X154723578Y-80191975D01*
X154515474Y-80255103D01*
X154323683Y-80357617D01*
X154155577Y-80495577D01*
X154017617Y-80663683D01*
X153915103Y-80855474D01*
X153851975Y-81063578D01*
X153830659Y-81280000D01*
X144449000Y-81280000D01*
X144449000Y-80846429D01*
X151247870Y-80846429D01*
X151289479Y-81032000D01*
X152152000Y-81032000D01*
X152152000Y-80171657D01*
X152648000Y-80171657D01*
X152648000Y-81032000D01*
X153510521Y-81032000D01*
X153552130Y-80846429D01*
X153445407Y-80629991D01*
X153298509Y-80438532D01*
X153117082Y-80279410D01*
X152908098Y-80158740D01*
X152833569Y-80127881D01*
X152648000Y-80171657D01*
X152152000Y-80171657D01*
X151966431Y-80127881D01*
X151891902Y-80158740D01*
X151682918Y-80279410D01*
X151501491Y-80438532D01*
X151354593Y-80629991D01*
X151247870Y-80846429D01*
X144449000Y-80846429D01*
X144449000Y-79173571D01*
X151247870Y-79173571D01*
X151354593Y-79390009D01*
X151501491Y-79581468D01*
X151682918Y-79740590D01*
X151891902Y-79861260D01*
X151966431Y-79892119D01*
X152152000Y-79848343D01*
X152152000Y-78988000D01*
X152648000Y-78988000D01*
X152648000Y-79848343D01*
X152833569Y-79892119D01*
X152908098Y-79861260D01*
X153117082Y-79740590D01*
X153298509Y-79581468D01*
X153445407Y-79390009D01*
X153552130Y-79173571D01*
X153510521Y-78988000D01*
X152648000Y-78988000D01*
X152152000Y-78988000D01*
X151289479Y-78988000D01*
X151247870Y-79173571D01*
X144449000Y-79173571D01*
X144449000Y-78740000D01*
X153830659Y-78740000D01*
X153851975Y-78956422D01*
X153915103Y-79164526D01*
X154017617Y-79356317D01*
X154155577Y-79524423D01*
X154323683Y-79662383D01*
X154515474Y-79764897D01*
X154723578Y-79828025D01*
X154885773Y-79844000D01*
X154994227Y-79844000D01*
X155156422Y-79828025D01*
X155364526Y-79764897D01*
X155556317Y-79662383D01*
X155724423Y-79524423D01*
X155862383Y-79356317D01*
X155964897Y-79164526D01*
X156028025Y-78956422D01*
X156049341Y-78740000D01*
X156028025Y-78523578D01*
X155964897Y-78315474D01*
X155862383Y-78123683D01*
X155724423Y-77955577D01*
X155644517Y-77890000D01*
X156374772Y-77890000D01*
X156374772Y-79590000D01*
X156379676Y-79639793D01*
X156394200Y-79687672D01*
X156417786Y-79731797D01*
X156449527Y-79770473D01*
X156488203Y-79802214D01*
X156532328Y-79825800D01*
X156580207Y-79840324D01*
X156630000Y-79845228D01*
X158330000Y-79845228D01*
X158379793Y-79840324D01*
X158427672Y-79825800D01*
X158471797Y-79802214D01*
X158510473Y-79770473D01*
X158542214Y-79731797D01*
X158565800Y-79687672D01*
X158580324Y-79639793D01*
X158585228Y-79590000D01*
X158585228Y-78636190D01*
X164046000Y-78636190D01*
X164046000Y-78843810D01*
X164086504Y-79047441D01*
X164165957Y-79239256D01*
X164281305Y-79411886D01*
X164428114Y-79558695D01*
X164600744Y-79674043D01*
X164792559Y-79753496D01*
X164996190Y-79794000D01*
X165203810Y-79794000D01*
X165407441Y-79753496D01*
X165599256Y-79674043D01*
X165771886Y-79558695D01*
X165918695Y-79411886D01*
X166034043Y-79239256D01*
X166113496Y-79047441D01*
X166154000Y-78843810D01*
X166154000Y-78636190D01*
X179286000Y-78636190D01*
X179286000Y-78843810D01*
X179326504Y-79047441D01*
X179405957Y-79239256D01*
X179521305Y-79411886D01*
X179668114Y-79558695D01*
X179840744Y-79674043D01*
X180032559Y-79753496D01*
X180236190Y-79794000D01*
X180443810Y-79794000D01*
X180647441Y-79753496D01*
X180839256Y-79674043D01*
X181011886Y-79558695D01*
X181158695Y-79411886D01*
X181274043Y-79239256D01*
X181353496Y-79047441D01*
X181394000Y-78843810D01*
X181394000Y-78636190D01*
X181353496Y-78432559D01*
X181274043Y-78240744D01*
X181158695Y-78068114D01*
X181011886Y-77921305D01*
X180839256Y-77805957D01*
X180647441Y-77726504D01*
X180443810Y-77686000D01*
X180236190Y-77686000D01*
X180032559Y-77726504D01*
X179840744Y-77805957D01*
X179668114Y-77921305D01*
X179521305Y-78068114D01*
X179405957Y-78240744D01*
X179326504Y-78432559D01*
X179286000Y-78636190D01*
X166154000Y-78636190D01*
X166113496Y-78432559D01*
X166034043Y-78240744D01*
X165918695Y-78068114D01*
X165771886Y-77921305D01*
X165599256Y-77805957D01*
X165407441Y-77726504D01*
X165203810Y-77686000D01*
X164996190Y-77686000D01*
X164792559Y-77726504D01*
X164600744Y-77805957D01*
X164428114Y-77921305D01*
X164281305Y-78068114D01*
X164165957Y-78240744D01*
X164086504Y-78432559D01*
X164046000Y-78636190D01*
X158585228Y-78636190D01*
X158585228Y-77890000D01*
X158580324Y-77840207D01*
X158565800Y-77792328D01*
X158542214Y-77748203D01*
X158510473Y-77709527D01*
X158471797Y-77677786D01*
X158427672Y-77654200D01*
X158379793Y-77639676D01*
X158330000Y-77634772D01*
X156630000Y-77634772D01*
X156580207Y-77639676D01*
X156532328Y-77654200D01*
X156488203Y-77677786D01*
X156449527Y-77709527D01*
X156417786Y-77748203D01*
X156394200Y-77792328D01*
X156379676Y-77840207D01*
X156374772Y-77890000D01*
X155644517Y-77890000D01*
X155556317Y-77817617D01*
X155364526Y-77715103D01*
X155156422Y-77651975D01*
X154994227Y-77636000D01*
X154885773Y-77636000D01*
X154723578Y-77651975D01*
X154515474Y-77715103D01*
X154323683Y-77817617D01*
X154155577Y-77955577D01*
X154017617Y-78123683D01*
X153915103Y-78315474D01*
X153851975Y-78523578D01*
X153830659Y-78740000D01*
X144449000Y-78740000D01*
X144449000Y-78306429D01*
X151247870Y-78306429D01*
X151289479Y-78492000D01*
X152152000Y-78492000D01*
X152152000Y-77631657D01*
X152648000Y-77631657D01*
X152648000Y-78492000D01*
X153510521Y-78492000D01*
X153552130Y-78306429D01*
X153445407Y-78089991D01*
X153298509Y-77898532D01*
X153117082Y-77739410D01*
X152908098Y-77618740D01*
X152833569Y-77587881D01*
X152648000Y-77631657D01*
X152152000Y-77631657D01*
X151966431Y-77587881D01*
X151891902Y-77618740D01*
X151682918Y-77739410D01*
X151501491Y-77898532D01*
X151354593Y-78089991D01*
X151247870Y-78306429D01*
X144449000Y-78306429D01*
X144449000Y-76096190D01*
X164046000Y-76096190D01*
X164046000Y-76303810D01*
X164086504Y-76507441D01*
X164165957Y-76699256D01*
X164281305Y-76871886D01*
X164428114Y-77018695D01*
X164600744Y-77134043D01*
X164792559Y-77213496D01*
X164996190Y-77254000D01*
X165203810Y-77254000D01*
X165407441Y-77213496D01*
X165599256Y-77134043D01*
X165771886Y-77018695D01*
X165918695Y-76871886D01*
X166034043Y-76699256D01*
X166113496Y-76507441D01*
X166154000Y-76303810D01*
X166154000Y-76096190D01*
X179286000Y-76096190D01*
X179286000Y-76303810D01*
X179326504Y-76507441D01*
X179405957Y-76699256D01*
X179521305Y-76871886D01*
X179668114Y-77018695D01*
X179840744Y-77134043D01*
X180032559Y-77213496D01*
X180236190Y-77254000D01*
X180443810Y-77254000D01*
X180647441Y-77213496D01*
X180839256Y-77134043D01*
X181011886Y-77018695D01*
X181158695Y-76871886D01*
X181274043Y-76699256D01*
X181353496Y-76507441D01*
X181394000Y-76303810D01*
X181394000Y-76096190D01*
X181353496Y-75892559D01*
X181274043Y-75700744D01*
X181158695Y-75528114D01*
X181011886Y-75381305D01*
X180839256Y-75265957D01*
X180647441Y-75186504D01*
X180443810Y-75146000D01*
X180236190Y-75146000D01*
X180032559Y-75186504D01*
X179840744Y-75265957D01*
X179668114Y-75381305D01*
X179521305Y-75528114D01*
X179405957Y-75700744D01*
X179326504Y-75892559D01*
X179286000Y-76096190D01*
X166154000Y-76096190D01*
X166113496Y-75892559D01*
X166034043Y-75700744D01*
X165918695Y-75528114D01*
X165771886Y-75381305D01*
X165599256Y-75265957D01*
X165407441Y-75186504D01*
X165203810Y-75146000D01*
X164996190Y-75146000D01*
X164792559Y-75186504D01*
X164600744Y-75265957D01*
X164428114Y-75381305D01*
X164281305Y-75528114D01*
X164165957Y-75700744D01*
X164086504Y-75892559D01*
X164046000Y-76096190D01*
X144449000Y-76096190D01*
X144449000Y-74093571D01*
X151247870Y-74093571D01*
X151354593Y-74310009D01*
X151501491Y-74501468D01*
X151682918Y-74660590D01*
X151891902Y-74781260D01*
X151966431Y-74812119D01*
X152152000Y-74768343D01*
X152152000Y-73908000D01*
X152648000Y-73908000D01*
X152648000Y-74768343D01*
X152833569Y-74812119D01*
X152908098Y-74781260D01*
X153117082Y-74660590D01*
X153298509Y-74501468D01*
X153445407Y-74310009D01*
X153552130Y-74093571D01*
X153510521Y-73908000D01*
X152648000Y-73908000D01*
X152152000Y-73908000D01*
X151289479Y-73908000D01*
X151247870Y-74093571D01*
X144449000Y-74093571D01*
X144449000Y-73660000D01*
X153830659Y-73660000D01*
X153851975Y-73876422D01*
X153915103Y-74084526D01*
X154017617Y-74276317D01*
X154155577Y-74444423D01*
X154323683Y-74582383D01*
X154515474Y-74684897D01*
X154723578Y-74748025D01*
X154885773Y-74764000D01*
X154994227Y-74764000D01*
X155156422Y-74748025D01*
X155364526Y-74684897D01*
X155556317Y-74582383D01*
X155724423Y-74444423D01*
X155862383Y-74276317D01*
X155964897Y-74084526D01*
X156028025Y-73876422D01*
X156049341Y-73660000D01*
X156028025Y-73443578D01*
X155964897Y-73235474D01*
X155862383Y-73043683D01*
X155724423Y-72875577D01*
X155644517Y-72810000D01*
X156374772Y-72810000D01*
X156374772Y-74510000D01*
X156379676Y-74559793D01*
X156394200Y-74607672D01*
X156417786Y-74651797D01*
X156449527Y-74690473D01*
X156488203Y-74722214D01*
X156532328Y-74745800D01*
X156580207Y-74760324D01*
X156630000Y-74765228D01*
X158330000Y-74765228D01*
X158379793Y-74760324D01*
X158427672Y-74745800D01*
X158471797Y-74722214D01*
X158510473Y-74690473D01*
X158542214Y-74651797D01*
X158565800Y-74607672D01*
X158580324Y-74559793D01*
X158585228Y-74510000D01*
X158585228Y-73556190D01*
X164046000Y-73556190D01*
X164046000Y-73763810D01*
X164086504Y-73967441D01*
X164165957Y-74159256D01*
X164281305Y-74331886D01*
X164428114Y-74478695D01*
X164600744Y-74594043D01*
X164792559Y-74673496D01*
X164996190Y-74714000D01*
X165203810Y-74714000D01*
X165407441Y-74673496D01*
X165599256Y-74594043D01*
X165771886Y-74478695D01*
X165918695Y-74331886D01*
X166034043Y-74159256D01*
X166113496Y-73967441D01*
X166154000Y-73763810D01*
X166154000Y-73556190D01*
X179286000Y-73556190D01*
X179286000Y-73763810D01*
X179326504Y-73967441D01*
X179405957Y-74159256D01*
X179521305Y-74331886D01*
X179668114Y-74478695D01*
X179840744Y-74594043D01*
X180032559Y-74673496D01*
X180236190Y-74714000D01*
X180443810Y-74714000D01*
X180647441Y-74673496D01*
X180839256Y-74594043D01*
X181011886Y-74478695D01*
X181158695Y-74331886D01*
X181274043Y-74159256D01*
X181353496Y-73967441D01*
X181394000Y-73763810D01*
X181394000Y-73556190D01*
X181353496Y-73352559D01*
X181274043Y-73160744D01*
X181158695Y-72988114D01*
X181011886Y-72841305D01*
X180839256Y-72725957D01*
X180647441Y-72646504D01*
X180443810Y-72606000D01*
X180236190Y-72606000D01*
X180032559Y-72646504D01*
X179840744Y-72725957D01*
X179668114Y-72841305D01*
X179521305Y-72988114D01*
X179405957Y-73160744D01*
X179326504Y-73352559D01*
X179286000Y-73556190D01*
X166154000Y-73556190D01*
X166113496Y-73352559D01*
X166034043Y-73160744D01*
X165918695Y-72988114D01*
X165771886Y-72841305D01*
X165599256Y-72725957D01*
X165407441Y-72646504D01*
X165203810Y-72606000D01*
X164996190Y-72606000D01*
X164792559Y-72646504D01*
X164600744Y-72725957D01*
X164428114Y-72841305D01*
X164281305Y-72988114D01*
X164165957Y-73160744D01*
X164086504Y-73352559D01*
X164046000Y-73556190D01*
X158585228Y-73556190D01*
X158585228Y-72810000D01*
X158580324Y-72760207D01*
X158565800Y-72712328D01*
X158542214Y-72668203D01*
X158510473Y-72629527D01*
X158471797Y-72597786D01*
X158427672Y-72574200D01*
X158379793Y-72559676D01*
X158330000Y-72554772D01*
X156630000Y-72554772D01*
X156580207Y-72559676D01*
X156532328Y-72574200D01*
X156488203Y-72597786D01*
X156449527Y-72629527D01*
X156417786Y-72668203D01*
X156394200Y-72712328D01*
X156379676Y-72760207D01*
X156374772Y-72810000D01*
X155644517Y-72810000D01*
X155556317Y-72737617D01*
X155364526Y-72635103D01*
X155156422Y-72571975D01*
X154994227Y-72556000D01*
X154885773Y-72556000D01*
X154723578Y-72571975D01*
X154515474Y-72635103D01*
X154323683Y-72737617D01*
X154155577Y-72875577D01*
X154017617Y-73043683D01*
X153915103Y-73235474D01*
X153851975Y-73443578D01*
X153830659Y-73660000D01*
X144449000Y-73660000D01*
X144449000Y-73226429D01*
X151247870Y-73226429D01*
X151289479Y-73412000D01*
X152152000Y-73412000D01*
X152152000Y-72551657D01*
X152648000Y-72551657D01*
X152648000Y-73412000D01*
X153510521Y-73412000D01*
X153552130Y-73226429D01*
X153445407Y-73009991D01*
X153298509Y-72818532D01*
X153117082Y-72659410D01*
X152908098Y-72538740D01*
X152833569Y-72507881D01*
X152648000Y-72551657D01*
X152152000Y-72551657D01*
X151966431Y-72507881D01*
X151891902Y-72538740D01*
X151682918Y-72659410D01*
X151501491Y-72818532D01*
X151354593Y-73009991D01*
X151247870Y-73226429D01*
X144449000Y-73226429D01*
X144449000Y-71553571D01*
X151247870Y-71553571D01*
X151354593Y-71770009D01*
X151501491Y-71961468D01*
X151682918Y-72120590D01*
X151891902Y-72241260D01*
X151966431Y-72272119D01*
X152152000Y-72228343D01*
X152152000Y-71368000D01*
X152648000Y-71368000D01*
X152648000Y-72228343D01*
X152833569Y-72272119D01*
X152908098Y-72241260D01*
X153117082Y-72120590D01*
X153298509Y-71961468D01*
X153445407Y-71770009D01*
X153552130Y-71553571D01*
X153510521Y-71368000D01*
X152648000Y-71368000D01*
X152152000Y-71368000D01*
X151289479Y-71368000D01*
X151247870Y-71553571D01*
X144449000Y-71553571D01*
X144449000Y-71120000D01*
X153830659Y-71120000D01*
X153851975Y-71336422D01*
X153915103Y-71544526D01*
X154017617Y-71736317D01*
X154155577Y-71904423D01*
X154323683Y-72042383D01*
X154515474Y-72144897D01*
X154723578Y-72208025D01*
X154885773Y-72224000D01*
X154994227Y-72224000D01*
X155156422Y-72208025D01*
X155364526Y-72144897D01*
X155556317Y-72042383D01*
X155724423Y-71904423D01*
X155862383Y-71736317D01*
X155964897Y-71544526D01*
X156028025Y-71336422D01*
X156049341Y-71120000D01*
X156028025Y-70903578D01*
X155964897Y-70695474D01*
X155862383Y-70503683D01*
X155724423Y-70335577D01*
X155644517Y-70270000D01*
X156374772Y-70270000D01*
X156374772Y-71970000D01*
X156379676Y-72019793D01*
X156394200Y-72067672D01*
X156417786Y-72111797D01*
X156449527Y-72150473D01*
X156488203Y-72182214D01*
X156532328Y-72205800D01*
X156580207Y-72220324D01*
X156630000Y-72225228D01*
X158330000Y-72225228D01*
X158379793Y-72220324D01*
X158427672Y-72205800D01*
X158471797Y-72182214D01*
X158510473Y-72150473D01*
X158542214Y-72111797D01*
X158565800Y-72067672D01*
X158580324Y-72019793D01*
X158585228Y-71970000D01*
X158585228Y-71016190D01*
X164046000Y-71016190D01*
X164046000Y-71223810D01*
X164086504Y-71427441D01*
X164165957Y-71619256D01*
X164281305Y-71791886D01*
X164428114Y-71938695D01*
X164600744Y-72054043D01*
X164792559Y-72133496D01*
X164996190Y-72174000D01*
X165203810Y-72174000D01*
X165407441Y-72133496D01*
X165599256Y-72054043D01*
X165771886Y-71938695D01*
X165918695Y-71791886D01*
X166034043Y-71619256D01*
X166113496Y-71427441D01*
X166154000Y-71223810D01*
X166154000Y-71016190D01*
X176746000Y-71016190D01*
X176746000Y-71223810D01*
X176786504Y-71427441D01*
X176865957Y-71619256D01*
X176981305Y-71791886D01*
X177128114Y-71938695D01*
X177300744Y-72054043D01*
X177492559Y-72133496D01*
X177696190Y-72174000D01*
X177903810Y-72174000D01*
X178107441Y-72133496D01*
X178299256Y-72054043D01*
X178309859Y-72046958D01*
X179763767Y-72046958D01*
X179858506Y-72204644D01*
X180079360Y-72277737D01*
X180310232Y-72306340D01*
X180542247Y-72289352D01*
X180766491Y-72227426D01*
X180821494Y-72204644D01*
X180916233Y-72046958D01*
X180340000Y-71470725D01*
X179763767Y-72046958D01*
X178309859Y-72046958D01*
X178471886Y-71938695D01*
X178618695Y-71791886D01*
X178734043Y-71619256D01*
X178813496Y-71427441D01*
X178854000Y-71223810D01*
X178854000Y-71090232D01*
X179153660Y-71090232D01*
X179170648Y-71322247D01*
X179232574Y-71546491D01*
X179255356Y-71601494D01*
X179413042Y-71696233D01*
X179989275Y-71120000D01*
X180690725Y-71120000D01*
X181266958Y-71696233D01*
X181424644Y-71601494D01*
X181497737Y-71380640D01*
X181526340Y-71149768D01*
X181509352Y-70917753D01*
X181447426Y-70693509D01*
X181424644Y-70638506D01*
X181266958Y-70543767D01*
X180690725Y-71120000D01*
X179989275Y-71120000D01*
X179413042Y-70543767D01*
X179255356Y-70638506D01*
X179182263Y-70859360D01*
X179153660Y-71090232D01*
X178854000Y-71090232D01*
X178854000Y-71016190D01*
X178813496Y-70812559D01*
X178734043Y-70620744D01*
X178618695Y-70448114D01*
X178471886Y-70301305D01*
X178309860Y-70193042D01*
X179763767Y-70193042D01*
X180340000Y-70769275D01*
X180916233Y-70193042D01*
X180821494Y-70035356D01*
X180600640Y-69962263D01*
X180369768Y-69933660D01*
X180137753Y-69950648D01*
X179913509Y-70012574D01*
X179858506Y-70035356D01*
X179763767Y-70193042D01*
X178309860Y-70193042D01*
X178299256Y-70185957D01*
X178107441Y-70106504D01*
X177903810Y-70066000D01*
X177696190Y-70066000D01*
X177492559Y-70106504D01*
X177300744Y-70185957D01*
X177128114Y-70301305D01*
X176981305Y-70448114D01*
X176865957Y-70620744D01*
X176786504Y-70812559D01*
X176746000Y-71016190D01*
X166154000Y-71016190D01*
X166113496Y-70812559D01*
X166034043Y-70620744D01*
X165918695Y-70448114D01*
X165771886Y-70301305D01*
X165599256Y-70185957D01*
X165407441Y-70106504D01*
X165203810Y-70066000D01*
X164996190Y-70066000D01*
X164792559Y-70106504D01*
X164600744Y-70185957D01*
X164428114Y-70301305D01*
X164281305Y-70448114D01*
X164165957Y-70620744D01*
X164086504Y-70812559D01*
X164046000Y-71016190D01*
X158585228Y-71016190D01*
X158585228Y-70270000D01*
X158580324Y-70220207D01*
X158565800Y-70172328D01*
X158542214Y-70128203D01*
X158510473Y-70089527D01*
X158471797Y-70057786D01*
X158427672Y-70034200D01*
X158379793Y-70019676D01*
X158330000Y-70014772D01*
X156630000Y-70014772D01*
X156580207Y-70019676D01*
X156532328Y-70034200D01*
X156488203Y-70057786D01*
X156449527Y-70089527D01*
X156417786Y-70128203D01*
X156394200Y-70172328D01*
X156379676Y-70220207D01*
X156374772Y-70270000D01*
X155644517Y-70270000D01*
X155556317Y-70197617D01*
X155364526Y-70095103D01*
X155156422Y-70031975D01*
X154994227Y-70016000D01*
X154885773Y-70016000D01*
X154723578Y-70031975D01*
X154515474Y-70095103D01*
X154323683Y-70197617D01*
X154155577Y-70335577D01*
X154017617Y-70503683D01*
X153915103Y-70695474D01*
X153851975Y-70903578D01*
X153830659Y-71120000D01*
X144449000Y-71120000D01*
X144449000Y-70686429D01*
X151247870Y-70686429D01*
X151289479Y-70872000D01*
X152152000Y-70872000D01*
X152152000Y-70011657D01*
X152648000Y-70011657D01*
X152648000Y-70872000D01*
X153510521Y-70872000D01*
X153552130Y-70686429D01*
X153445407Y-70469991D01*
X153298509Y-70278532D01*
X153117082Y-70119410D01*
X152908098Y-69998740D01*
X152833569Y-69967881D01*
X152648000Y-70011657D01*
X152152000Y-70011657D01*
X151966431Y-69967881D01*
X151891902Y-69998740D01*
X151682918Y-70119410D01*
X151501491Y-70278532D01*
X151354593Y-70469991D01*
X151247870Y-70686429D01*
X144449000Y-70686429D01*
X144449000Y-69013571D01*
X151247870Y-69013571D01*
X151354593Y-69230009D01*
X151501491Y-69421468D01*
X151682918Y-69580590D01*
X151891902Y-69701260D01*
X151966431Y-69732119D01*
X152152000Y-69688343D01*
X152152000Y-68828000D01*
X152648000Y-68828000D01*
X152648000Y-69688343D01*
X152833569Y-69732119D01*
X152908098Y-69701260D01*
X153117082Y-69580590D01*
X153298509Y-69421468D01*
X153445407Y-69230009D01*
X153552130Y-69013571D01*
X153510521Y-68828000D01*
X152648000Y-68828000D01*
X152152000Y-68828000D01*
X151289479Y-68828000D01*
X151247870Y-69013571D01*
X144449000Y-69013571D01*
X144449000Y-68580000D01*
X153830659Y-68580000D01*
X153851975Y-68796422D01*
X153915103Y-69004526D01*
X154017617Y-69196317D01*
X154155577Y-69364423D01*
X154323683Y-69502383D01*
X154515474Y-69604897D01*
X154723578Y-69668025D01*
X154885773Y-69684000D01*
X154994227Y-69684000D01*
X155156422Y-69668025D01*
X155364526Y-69604897D01*
X155556317Y-69502383D01*
X155724423Y-69364423D01*
X155862383Y-69196317D01*
X155964897Y-69004526D01*
X156028025Y-68796422D01*
X156049341Y-68580000D01*
X156028025Y-68363578D01*
X155964897Y-68155474D01*
X155862383Y-67963683D01*
X155724423Y-67795577D01*
X155644517Y-67730000D01*
X156374772Y-67730000D01*
X156374772Y-69430000D01*
X156379676Y-69479793D01*
X156394200Y-69527672D01*
X156417786Y-69571797D01*
X156449527Y-69610473D01*
X156488203Y-69642214D01*
X156532328Y-69665800D01*
X156580207Y-69680324D01*
X156630000Y-69685228D01*
X158330000Y-69685228D01*
X158379793Y-69680324D01*
X158427672Y-69665800D01*
X158471797Y-69642214D01*
X158510473Y-69610473D01*
X158542214Y-69571797D01*
X158565800Y-69527672D01*
X158572083Y-69506958D01*
X164523767Y-69506958D01*
X164618506Y-69664644D01*
X164839360Y-69737737D01*
X165070232Y-69766340D01*
X165302247Y-69749352D01*
X165526491Y-69687426D01*
X165581494Y-69664644D01*
X165676233Y-69506958D01*
X165100000Y-68930725D01*
X164523767Y-69506958D01*
X158572083Y-69506958D01*
X158580324Y-69479793D01*
X158585228Y-69430000D01*
X158585228Y-68550232D01*
X163913660Y-68550232D01*
X163930648Y-68782247D01*
X163992574Y-69006491D01*
X164015356Y-69061494D01*
X164173042Y-69156233D01*
X164749275Y-68580000D01*
X165450725Y-68580000D01*
X166026958Y-69156233D01*
X166184644Y-69061494D01*
X166257737Y-68840640D01*
X166286340Y-68609768D01*
X166275673Y-68464076D01*
X179163000Y-68464076D01*
X179163000Y-68695924D01*
X179208231Y-68923318D01*
X179296956Y-69137519D01*
X179425764Y-69330294D01*
X179589706Y-69494236D01*
X179782481Y-69623044D01*
X179996682Y-69711769D01*
X180224076Y-69757000D01*
X180455924Y-69757000D01*
X180683318Y-69711769D01*
X180897519Y-69623044D01*
X181090294Y-69494236D01*
X181254236Y-69330294D01*
X181383044Y-69137519D01*
X181471769Y-68923318D01*
X181517000Y-68695924D01*
X181517000Y-68464076D01*
X181471769Y-68236682D01*
X181383044Y-68022481D01*
X181254236Y-67829706D01*
X181090294Y-67665764D01*
X180897519Y-67536956D01*
X180683318Y-67448231D01*
X180455924Y-67403000D01*
X180224076Y-67403000D01*
X179996682Y-67448231D01*
X179782481Y-67536956D01*
X179589706Y-67665764D01*
X179425764Y-67829706D01*
X179296956Y-68022481D01*
X179208231Y-68236682D01*
X179163000Y-68464076D01*
X166275673Y-68464076D01*
X166269352Y-68377753D01*
X166207426Y-68153509D01*
X166184644Y-68098506D01*
X166026958Y-68003767D01*
X165450725Y-68580000D01*
X164749275Y-68580000D01*
X164173042Y-68003767D01*
X164015356Y-68098506D01*
X163942263Y-68319360D01*
X163913660Y-68550232D01*
X158585228Y-68550232D01*
X158585228Y-67730000D01*
X158580324Y-67680207D01*
X158572084Y-67653042D01*
X164523767Y-67653042D01*
X165100000Y-68229275D01*
X165676233Y-67653042D01*
X165581494Y-67495356D01*
X165360640Y-67422263D01*
X165129768Y-67393660D01*
X164897753Y-67410648D01*
X164673509Y-67472574D01*
X164618506Y-67495356D01*
X164523767Y-67653042D01*
X158572084Y-67653042D01*
X158565800Y-67632328D01*
X158542214Y-67588203D01*
X158510473Y-67549527D01*
X158471797Y-67517786D01*
X158427672Y-67494200D01*
X158379793Y-67479676D01*
X158330000Y-67474772D01*
X156630000Y-67474772D01*
X156580207Y-67479676D01*
X156532328Y-67494200D01*
X156488203Y-67517786D01*
X156449527Y-67549527D01*
X156417786Y-67588203D01*
X156394200Y-67632328D01*
X156379676Y-67680207D01*
X156374772Y-67730000D01*
X155644517Y-67730000D01*
X155556317Y-67657617D01*
X155364526Y-67555103D01*
X155156422Y-67491975D01*
X154994227Y-67476000D01*
X154885773Y-67476000D01*
X154723578Y-67491975D01*
X154515474Y-67555103D01*
X154323683Y-67657617D01*
X154155577Y-67795577D01*
X154017617Y-67963683D01*
X153915103Y-68155474D01*
X153851975Y-68363578D01*
X153830659Y-68580000D01*
X144449000Y-68580000D01*
X144449000Y-68146429D01*
X151247870Y-68146429D01*
X151289479Y-68332000D01*
X152152000Y-68332000D01*
X152152000Y-67471657D01*
X152648000Y-67471657D01*
X152648000Y-68332000D01*
X153510521Y-68332000D01*
X153552130Y-68146429D01*
X153445407Y-67929991D01*
X153298509Y-67738532D01*
X153117082Y-67579410D01*
X152908098Y-67458740D01*
X152833569Y-67427881D01*
X152648000Y-67471657D01*
X152152000Y-67471657D01*
X151966431Y-67427881D01*
X151891902Y-67458740D01*
X151682918Y-67579410D01*
X151501491Y-67738532D01*
X151354593Y-67929991D01*
X151247870Y-68146429D01*
X144449000Y-68146429D01*
X144449000Y-64350000D01*
X151167157Y-64350000D01*
X151174513Y-64424689D01*
X151196299Y-64496508D01*
X151231678Y-64562696D01*
X151279289Y-64620711D01*
X151337304Y-64668322D01*
X151403492Y-64703701D01*
X151475311Y-64725487D01*
X151550000Y-64732843D01*
X152031750Y-64731000D01*
X152127000Y-64635750D01*
X152127000Y-63773000D01*
X152673000Y-63773000D01*
X152673000Y-64635750D01*
X152768250Y-64731000D01*
X153250000Y-64732843D01*
X153324689Y-64725487D01*
X153396508Y-64703701D01*
X153462696Y-64668322D01*
X153520711Y-64620711D01*
X153568322Y-64562696D01*
X153603701Y-64496508D01*
X153625487Y-64424689D01*
X153632843Y-64350000D01*
X153631000Y-63868250D01*
X153535750Y-63773000D01*
X152673000Y-63773000D01*
X152127000Y-63773000D01*
X151264250Y-63773000D01*
X151169000Y-63868250D01*
X151167157Y-64350000D01*
X144449000Y-64350000D01*
X144449000Y-63500000D01*
X153830659Y-63500000D01*
X153851975Y-63716422D01*
X153915103Y-63924526D01*
X154017617Y-64116317D01*
X154155577Y-64284423D01*
X154323683Y-64422383D01*
X154515474Y-64524897D01*
X154723578Y-64588025D01*
X154885773Y-64604000D01*
X154994227Y-64604000D01*
X155156422Y-64588025D01*
X155364526Y-64524897D01*
X155556317Y-64422383D01*
X155644516Y-64350000D01*
X161327157Y-64350000D01*
X161334513Y-64424689D01*
X161356299Y-64496508D01*
X161391678Y-64562696D01*
X161439289Y-64620711D01*
X161497304Y-64668322D01*
X161563492Y-64703701D01*
X161635311Y-64725487D01*
X161710000Y-64732843D01*
X162216750Y-64731000D01*
X162312000Y-64635750D01*
X162312000Y-63748000D01*
X162808000Y-63748000D01*
X162808000Y-64635750D01*
X162903250Y-64731000D01*
X163410000Y-64732843D01*
X163484689Y-64725487D01*
X163556508Y-64703701D01*
X163622696Y-64668322D01*
X163680711Y-64620711D01*
X163728322Y-64562696D01*
X163763701Y-64496508D01*
X163785487Y-64424689D01*
X163792843Y-64350000D01*
X163791000Y-63843250D01*
X163695750Y-63748000D01*
X162808000Y-63748000D01*
X162312000Y-63748000D01*
X161424250Y-63748000D01*
X161329000Y-63843250D01*
X161327157Y-64350000D01*
X155644516Y-64350000D01*
X155724423Y-64284423D01*
X155862383Y-64116317D01*
X155964897Y-63924526D01*
X156028025Y-63716422D01*
X156049341Y-63500000D01*
X163867064Y-63500000D01*
X163890755Y-63740534D01*
X163960916Y-63971824D01*
X164074851Y-64184983D01*
X164228183Y-64371817D01*
X164415017Y-64525149D01*
X164628176Y-64639084D01*
X164859466Y-64709245D01*
X165039732Y-64727000D01*
X165160268Y-64727000D01*
X165340534Y-64709245D01*
X165571824Y-64639084D01*
X165784983Y-64525149D01*
X165971817Y-64371817D01*
X166125149Y-64184983D01*
X166239084Y-63971824D01*
X166309245Y-63740534D01*
X166332936Y-63500000D01*
X166309245Y-63259466D01*
X166239084Y-63028176D01*
X166125149Y-62815017D01*
X165971817Y-62628183D01*
X165784983Y-62474851D01*
X165571824Y-62360916D01*
X165340534Y-62290755D01*
X165160268Y-62273000D01*
X165039732Y-62273000D01*
X164859466Y-62290755D01*
X164628176Y-62360916D01*
X164415017Y-62474851D01*
X164228183Y-62628183D01*
X164074851Y-62815017D01*
X163960916Y-63028176D01*
X163890755Y-63259466D01*
X163867064Y-63500000D01*
X156049341Y-63500000D01*
X156028025Y-63283578D01*
X155964897Y-63075474D01*
X155862383Y-62883683D01*
X155724423Y-62715577D01*
X155644517Y-62650000D01*
X161327157Y-62650000D01*
X161329000Y-63156750D01*
X161424250Y-63252000D01*
X162312000Y-63252000D01*
X162312000Y-62364250D01*
X162808000Y-62364250D01*
X162808000Y-63252000D01*
X163695750Y-63252000D01*
X163791000Y-63156750D01*
X163792843Y-62650000D01*
X163785487Y-62575311D01*
X163763701Y-62503492D01*
X163728322Y-62437304D01*
X163680711Y-62379289D01*
X163622696Y-62331678D01*
X163556508Y-62296299D01*
X163484689Y-62274513D01*
X163410000Y-62267157D01*
X162903250Y-62269000D01*
X162808000Y-62364250D01*
X162312000Y-62364250D01*
X162216750Y-62269000D01*
X161710000Y-62267157D01*
X161635311Y-62274513D01*
X161563492Y-62296299D01*
X161497304Y-62331678D01*
X161439289Y-62379289D01*
X161391678Y-62437304D01*
X161356299Y-62503492D01*
X161334513Y-62575311D01*
X161327157Y-62650000D01*
X155644517Y-62650000D01*
X155556317Y-62577617D01*
X155364526Y-62475103D01*
X155156422Y-62411975D01*
X154994227Y-62396000D01*
X154885773Y-62396000D01*
X154723578Y-62411975D01*
X154515474Y-62475103D01*
X154323683Y-62577617D01*
X154155577Y-62715577D01*
X154017617Y-62883683D01*
X153915103Y-63075474D01*
X153851975Y-63283578D01*
X153830659Y-63500000D01*
X144449000Y-63500000D01*
X144449000Y-62650000D01*
X151167157Y-62650000D01*
X151169000Y-63131750D01*
X151264250Y-63227000D01*
X152127000Y-63227000D01*
X152127000Y-62364250D01*
X152673000Y-62364250D01*
X152673000Y-63227000D01*
X153535750Y-63227000D01*
X153631000Y-63131750D01*
X153632843Y-62650000D01*
X153625487Y-62575311D01*
X153603701Y-62503492D01*
X153568322Y-62437304D01*
X153520711Y-62379289D01*
X153462696Y-62331678D01*
X153396508Y-62296299D01*
X153324689Y-62274513D01*
X153250000Y-62267157D01*
X152768250Y-62269000D01*
X152673000Y-62364250D01*
X152127000Y-62364250D01*
X152031750Y-62269000D01*
X151550000Y-62267157D01*
X151475311Y-62274513D01*
X151403492Y-62296299D01*
X151337304Y-62331678D01*
X151279289Y-62379289D01*
X151231678Y-62437304D01*
X151196299Y-62503492D01*
X151174513Y-62575311D01*
X151167157Y-62650000D01*
X144449000Y-62650000D01*
X144449000Y-61580076D01*
X144444600Y-61535406D01*
X144434459Y-61501975D01*
X144444185Y-61402777D01*
X144500012Y-61217870D01*
X144590688Y-61047332D01*
X144712762Y-60897653D01*
X144861590Y-60774532D01*
X145031493Y-60682666D01*
X145215997Y-60625552D01*
X145321864Y-60614425D01*
X145355406Y-60624600D01*
X145355406Y-60624600D01*
G37*
X145355406Y-60624600D02*
X145400076Y-60629000D01*
X183529924Y-60629000D01*
X183574594Y-60624600D01*
X183608025Y-60614459D01*
X183707223Y-60624185D01*
X183892130Y-60680012D01*
X184062668Y-60770688D01*
X184212347Y-60892762D01*
X184335468Y-61041590D01*
X184427334Y-61211493D01*
X184484448Y-61395997D01*
X184495575Y-61501866D01*
X184485401Y-61535406D01*
X184481001Y-61580076D01*
X184481000Y-116854923D01*
X184485400Y-116899593D01*
X184495541Y-116933024D01*
X184485815Y-117032223D01*
X184429988Y-117217130D01*
X184339310Y-117387670D01*
X184217235Y-117537349D01*
X184068410Y-117660468D01*
X183898511Y-117752332D01*
X183714003Y-117809448D01*
X183608136Y-117820575D01*
X183574594Y-117810400D01*
X183529924Y-117806000D01*
X145400076Y-117806000D01*
X145355406Y-117810400D01*
X145321975Y-117820541D01*
X145222777Y-117810815D01*
X145037870Y-117754988D01*
X144867330Y-117664310D01*
X144717651Y-117542235D01*
X144594532Y-117393410D01*
X144502668Y-117223511D01*
X144445552Y-117039003D01*
X144434425Y-116933136D01*
X144444600Y-116899594D01*
X144449000Y-116854924D01*
X144449000Y-111439509D01*
X151471000Y-111439509D01*
X151471000Y-112080491D01*
X151596049Y-112709157D01*
X151841342Y-113301347D01*
X152197453Y-113834304D01*
X152650696Y-114287547D01*
X153183653Y-114643658D01*
X153775843Y-114888951D01*
X154404509Y-115014000D01*
X155045491Y-115014000D01*
X155674157Y-114888951D01*
X155985472Y-114760000D01*
X158294966Y-114760000D01*
X158307072Y-114882914D01*
X158342924Y-115001104D01*
X158401146Y-115110028D01*
X158479499Y-115205501D01*
X158574972Y-115283854D01*
X158683896Y-115342076D01*
X158802086Y-115377928D01*
X158925000Y-115390034D01*
X160895250Y-115387000D01*
X161052000Y-115230250D01*
X161052000Y-112633000D01*
X162798000Y-112633000D01*
X162798000Y-115230250D01*
X162954750Y-115387000D01*
X164925000Y-115390034D01*
X165047914Y-115377928D01*
X165166104Y-115342076D01*
X165275028Y-115283854D01*
X165370501Y-115205501D01*
X165448854Y-115110028D01*
X165507076Y-115001104D01*
X165542928Y-114882914D01*
X165555034Y-114760000D01*
X165552000Y-112789750D01*
X165395250Y-112633000D01*
X162798000Y-112633000D01*
X161052000Y-112633000D01*
X158454750Y-112633000D01*
X158298000Y-112789750D01*
X158294966Y-114760000D01*
X155985472Y-114760000D01*
X156266347Y-114643658D01*
X156799304Y-114287547D01*
X157252547Y-113834304D01*
X157608658Y-113301347D01*
X157853951Y-112709157D01*
X157979000Y-112080491D01*
X157979000Y-111439509D01*
X157853951Y-110810843D01*
X157608658Y-110218653D01*
X157252547Y-109685696D01*
X156799304Y-109232453D01*
X156266347Y-108876342D01*
X155985473Y-108760000D01*
X158294966Y-108760000D01*
X158298000Y-110730250D01*
X158454750Y-110887000D01*
X161052000Y-110887000D01*
X161052000Y-108289750D01*
X162798000Y-108289750D01*
X162798000Y-110887000D01*
X165395250Y-110887000D01*
X165552000Y-110730250D01*
X165555034Y-108760000D01*
X165542928Y-108637086D01*
X165507076Y-108518896D01*
X165448854Y-108409972D01*
X165370501Y-108314499D01*
X165275028Y-108236146D01*
X165166104Y-108177924D01*
X165047914Y-108142072D01*
X164925000Y-108129966D01*
X162954750Y-108133000D01*
X162798000Y-108289750D01*
X161052000Y-108289750D01*
X160895250Y-108133000D01*
X158925000Y-108129966D01*
X158802086Y-108142072D01*
X158683896Y-108177924D01*
X158574972Y-108236146D01*
X158479499Y-108314499D01*
X158401146Y-108409972D01*
X158342924Y-108518896D01*
X158307072Y-108637086D01*
X158294966Y-108760000D01*
X155985473Y-108760000D01*
X155674157Y-108631049D01*
X155045491Y-108506000D01*
X154404509Y-108506000D01*
X153775843Y-108631049D01*
X153183653Y-108876342D01*
X152650696Y-109232453D01*
X152197453Y-109685696D01*
X151841342Y-110218653D01*
X151596049Y-110810843D01*
X151471000Y-111439509D01*
X144449000Y-111439509D01*
X144449000Y-104573571D01*
X151247870Y-104573571D01*
X151354593Y-104790009D01*
X151501491Y-104981468D01*
X151682918Y-105140590D01*
X151891902Y-105261260D01*
X151966431Y-105292119D01*
X152152000Y-105248343D01*
X152152000Y-104388000D01*
X152648000Y-104388000D01*
X152648000Y-105248343D01*
X152833569Y-105292119D01*
X152908098Y-105261260D01*
X153117082Y-105140590D01*
X153298509Y-104981468D01*
X153445407Y-104790009D01*
X153552130Y-104573571D01*
X153510521Y-104388000D01*
X152648000Y-104388000D01*
X152152000Y-104388000D01*
X151289479Y-104388000D01*
X151247870Y-104573571D01*
X144449000Y-104573571D01*
X144449000Y-104140000D01*
X153830659Y-104140000D01*
X153851975Y-104356422D01*
X153915103Y-104564526D01*
X154017617Y-104756317D01*
X154155577Y-104924423D01*
X154323683Y-105062383D01*
X154515474Y-105164897D01*
X154723578Y-105228025D01*
X154885773Y-105244000D01*
X154994227Y-105244000D01*
X155156422Y-105228025D01*
X155364526Y-105164897D01*
X155556317Y-105062383D01*
X155724423Y-104924423D01*
X155862383Y-104756317D01*
X155964897Y-104564526D01*
X156028025Y-104356422D01*
X156049341Y-104140000D01*
X156028025Y-103923578D01*
X155964897Y-103715474D01*
X155862383Y-103523683D01*
X155724423Y-103355577D01*
X155644517Y-103290000D01*
X156374772Y-103290000D01*
X156374772Y-104990000D01*
X156379676Y-105039793D01*
X156394200Y-105087672D01*
X156417786Y-105131797D01*
X156449527Y-105170473D01*
X156488203Y-105202214D01*
X156532328Y-105225800D01*
X156580207Y-105240324D01*
X156630000Y-105245228D01*
X158330000Y-105245228D01*
X158379793Y-105240324D01*
X158427672Y-105225800D01*
X158471797Y-105202214D01*
X158510473Y-105170473D01*
X158542214Y-105131797D01*
X158565800Y-105087672D01*
X158580324Y-105039793D01*
X158585228Y-104990000D01*
X158585228Y-103290000D01*
X158580324Y-103240207D01*
X158565800Y-103192328D01*
X158542214Y-103148203D01*
X158510473Y-103109527D01*
X158471797Y-103077786D01*
X158427672Y-103054200D01*
X158379793Y-103039676D01*
X158330000Y-103034772D01*
X156630000Y-103034772D01*
X156580207Y-103039676D01*
X156532328Y-103054200D01*
X156488203Y-103077786D01*
X156449527Y-103109527D01*
X156417786Y-103148203D01*
X156394200Y-103192328D01*
X156379676Y-103240207D01*
X156374772Y-103290000D01*
X155644517Y-103290000D01*
X155556317Y-103217617D01*
X155364526Y-103115103D01*
X155156422Y-103051975D01*
X154994227Y-103036000D01*
X154885773Y-103036000D01*
X154723578Y-103051975D01*
X154515474Y-103115103D01*
X154323683Y-103217617D01*
X154155577Y-103355577D01*
X154017617Y-103523683D01*
X153915103Y-103715474D01*
X153851975Y-103923578D01*
X153830659Y-104140000D01*
X144449000Y-104140000D01*
X144449000Y-103706429D01*
X151247870Y-103706429D01*
X151289479Y-103892000D01*
X152152000Y-103892000D01*
X152152000Y-103031657D01*
X152648000Y-103031657D01*
X152648000Y-103892000D01*
X153510521Y-103892000D01*
X153552130Y-103706429D01*
X153445407Y-103489991D01*
X153298509Y-103298532D01*
X153117082Y-103139410D01*
X152908098Y-103018740D01*
X152833569Y-102987881D01*
X152648000Y-103031657D01*
X152152000Y-103031657D01*
X151966431Y-102987881D01*
X151891902Y-103018740D01*
X151682918Y-103139410D01*
X151501491Y-103298532D01*
X151354593Y-103489991D01*
X151247870Y-103706429D01*
X144449000Y-103706429D01*
X144449000Y-102033571D01*
X151247870Y-102033571D01*
X151354593Y-102250009D01*
X151501491Y-102441468D01*
X151682918Y-102600590D01*
X151891902Y-102721260D01*
X151966431Y-102752119D01*
X152152000Y-102708343D01*
X152152000Y-101848000D01*
X152648000Y-101848000D01*
X152648000Y-102708343D01*
X152833569Y-102752119D01*
X152908098Y-102721260D01*
X153117082Y-102600590D01*
X153298509Y-102441468D01*
X153445407Y-102250009D01*
X153552130Y-102033571D01*
X153510521Y-101848000D01*
X152648000Y-101848000D01*
X152152000Y-101848000D01*
X151289479Y-101848000D01*
X151247870Y-102033571D01*
X144449000Y-102033571D01*
X144449000Y-101600000D01*
X153830659Y-101600000D01*
X153851975Y-101816422D01*
X153915103Y-102024526D01*
X154017617Y-102216317D01*
X154155577Y-102384423D01*
X154323683Y-102522383D01*
X154515474Y-102624897D01*
X154723578Y-102688025D01*
X154885773Y-102704000D01*
X154994227Y-102704000D01*
X155156422Y-102688025D01*
X155364526Y-102624897D01*
X155556317Y-102522383D01*
X155724423Y-102384423D01*
X155862383Y-102216317D01*
X155964897Y-102024526D01*
X156028025Y-101816422D01*
X156049341Y-101600000D01*
X156028025Y-101383578D01*
X155964897Y-101175474D01*
X155862383Y-100983683D01*
X155724423Y-100815577D01*
X155644517Y-100750000D01*
X156374772Y-100750000D01*
X156374772Y-102450000D01*
X156379676Y-102499793D01*
X156394200Y-102547672D01*
X156417786Y-102591797D01*
X156449527Y-102630473D01*
X156488203Y-102662214D01*
X156532328Y-102685800D01*
X156580207Y-102700324D01*
X156630000Y-102705228D01*
X158330000Y-102705228D01*
X158379793Y-102700324D01*
X158427672Y-102685800D01*
X158471797Y-102662214D01*
X158510473Y-102630473D01*
X158542214Y-102591797D01*
X158565800Y-102547672D01*
X158580324Y-102499793D01*
X158585228Y-102450000D01*
X158585228Y-101496190D01*
X164046000Y-101496190D01*
X164046000Y-101703810D01*
X164086504Y-101907441D01*
X164165957Y-102099256D01*
X164281305Y-102271886D01*
X164428114Y-102418695D01*
X164600744Y-102534043D01*
X164792559Y-102613496D01*
X164996190Y-102654000D01*
X165203810Y-102654000D01*
X165407441Y-102613496D01*
X165599256Y-102534043D01*
X165771886Y-102418695D01*
X165918695Y-102271886D01*
X166034043Y-102099256D01*
X166113496Y-101907441D01*
X166154000Y-101703810D01*
X166154000Y-101496190D01*
X166586000Y-101496190D01*
X166586000Y-101703810D01*
X166626504Y-101907441D01*
X166705957Y-102099256D01*
X166821305Y-102271886D01*
X166968114Y-102418695D01*
X167140744Y-102534043D01*
X167332559Y-102613496D01*
X167536190Y-102654000D01*
X167743810Y-102654000D01*
X167947441Y-102613496D01*
X168139256Y-102534043D01*
X168311886Y-102418695D01*
X168458695Y-102271886D01*
X168574043Y-102099256D01*
X168653496Y-101907441D01*
X168694000Y-101703810D01*
X168694000Y-101496190D01*
X169126000Y-101496190D01*
X169126000Y-101703810D01*
X169166504Y-101907441D01*
X169245957Y-102099256D01*
X169361305Y-102271886D01*
X169508114Y-102418695D01*
X169680744Y-102534043D01*
X169872559Y-102613496D01*
X170076190Y-102654000D01*
X170283810Y-102654000D01*
X170487441Y-102613496D01*
X170679256Y-102534043D01*
X170689859Y-102526958D01*
X172143767Y-102526958D01*
X172238506Y-102684644D01*
X172459360Y-102757737D01*
X172690232Y-102786340D01*
X172922247Y-102769352D01*
X173146491Y-102707426D01*
X173201494Y-102684644D01*
X173296233Y-102526958D01*
X172720000Y-101950725D01*
X172143767Y-102526958D01*
X170689859Y-102526958D01*
X170851886Y-102418695D01*
X170998695Y-102271886D01*
X171114043Y-102099256D01*
X171193496Y-101907441D01*
X171234000Y-101703810D01*
X171234000Y-101570232D01*
X171533660Y-101570232D01*
X171550648Y-101802247D01*
X171612574Y-102026491D01*
X171635356Y-102081494D01*
X171793042Y-102176233D01*
X172369275Y-101600000D01*
X173070725Y-101600000D01*
X173646958Y-102176233D01*
X173804644Y-102081494D01*
X173877737Y-101860640D01*
X173906340Y-101629768D01*
X173896560Y-101496190D01*
X174206000Y-101496190D01*
X174206000Y-101703810D01*
X174246504Y-101907441D01*
X174325957Y-102099256D01*
X174441305Y-102271886D01*
X174588114Y-102418695D01*
X174760744Y-102534043D01*
X174952559Y-102613496D01*
X175156190Y-102654000D01*
X175363810Y-102654000D01*
X175567441Y-102613496D01*
X175759256Y-102534043D01*
X175931886Y-102418695D01*
X176078695Y-102271886D01*
X176194043Y-102099256D01*
X176273496Y-101907441D01*
X176314000Y-101703810D01*
X176314000Y-101496190D01*
X176746000Y-101496190D01*
X176746000Y-101703810D01*
X176786504Y-101907441D01*
X176865957Y-102099256D01*
X176981305Y-102271886D01*
X177128114Y-102418695D01*
X177300744Y-102534043D01*
X177492559Y-102613496D01*
X177696190Y-102654000D01*
X177903810Y-102654000D01*
X178107441Y-102613496D01*
X178299256Y-102534043D01*
X178471886Y-102418695D01*
X178618695Y-102271886D01*
X178734043Y-102099256D01*
X178813496Y-101907441D01*
X178854000Y-101703810D01*
X178854000Y-101496190D01*
X179286000Y-101496190D01*
X179286000Y-101703810D01*
X179326504Y-101907441D01*
X179405957Y-102099256D01*
X179521305Y-102271886D01*
X179668114Y-102418695D01*
X179840744Y-102534043D01*
X180032559Y-102613496D01*
X180236190Y-102654000D01*
X180443810Y-102654000D01*
X180647441Y-102613496D01*
X180839256Y-102534043D01*
X181011886Y-102418695D01*
X181158695Y-102271886D01*
X181274043Y-102099256D01*
X181353496Y-101907441D01*
X181394000Y-101703810D01*
X181394000Y-101496190D01*
X181353496Y-101292559D01*
X181274043Y-101100744D01*
X181158695Y-100928114D01*
X181011886Y-100781305D01*
X180839256Y-100665957D01*
X180647441Y-100586504D01*
X180443810Y-100546000D01*
X180236190Y-100546000D01*
X180032559Y-100586504D01*
X179840744Y-100665957D01*
X179668114Y-100781305D01*
X179521305Y-100928114D01*
X179405957Y-101100744D01*
X179326504Y-101292559D01*
X179286000Y-101496190D01*
X178854000Y-101496190D01*
X178813496Y-101292559D01*
X178734043Y-101100744D01*
X178618695Y-100928114D01*
X178471886Y-100781305D01*
X178299256Y-100665957D01*
X178107441Y-100586504D01*
X177903810Y-100546000D01*
X177696190Y-100546000D01*
X177492559Y-100586504D01*
X177300744Y-100665957D01*
X177128114Y-100781305D01*
X176981305Y-100928114D01*
X176865957Y-101100744D01*
X176786504Y-101292559D01*
X176746000Y-101496190D01*
X176314000Y-101496190D01*
X176273496Y-101292559D01*
X176194043Y-101100744D01*
X176078695Y-100928114D01*
X175931886Y-100781305D01*
X175759256Y-100665957D01*
X175567441Y-100586504D01*
X175363810Y-100546000D01*
X175156190Y-100546000D01*
X174952559Y-100586504D01*
X174760744Y-100665957D01*
X174588114Y-100781305D01*
X174441305Y-100928114D01*
X174325957Y-101100744D01*
X174246504Y-101292559D01*
X174206000Y-101496190D01*
X173896560Y-101496190D01*
X173889352Y-101397753D01*
X173827426Y-101173509D01*
X173804644Y-101118506D01*
X173646958Y-101023767D01*
X173070725Y-101600000D01*
X172369275Y-101600000D01*
X171793042Y-101023767D01*
X171635356Y-101118506D01*
X171562263Y-101339360D01*
X171533660Y-101570232D01*
X171234000Y-101570232D01*
X171234000Y-101496190D01*
X171193496Y-101292559D01*
X171114043Y-101100744D01*
X170998695Y-100928114D01*
X170851886Y-100781305D01*
X170689860Y-100673042D01*
X172143767Y-100673042D01*
X172720000Y-101249275D01*
X173296233Y-100673042D01*
X173201494Y-100515356D01*
X172980640Y-100442263D01*
X172749768Y-100413660D01*
X172517753Y-100430648D01*
X172293509Y-100492574D01*
X172238506Y-100515356D01*
X172143767Y-100673042D01*
X170689860Y-100673042D01*
X170679256Y-100665957D01*
X170487441Y-100586504D01*
X170283810Y-100546000D01*
X170076190Y-100546000D01*
X169872559Y-100586504D01*
X169680744Y-100665957D01*
X169508114Y-100781305D01*
X169361305Y-100928114D01*
X169245957Y-101100744D01*
X169166504Y-101292559D01*
X169126000Y-101496190D01*
X168694000Y-101496190D01*
X168653496Y-101292559D01*
X168574043Y-101100744D01*
X168458695Y-100928114D01*
X168311886Y-100781305D01*
X168139256Y-100665957D01*
X167947441Y-100586504D01*
X167743810Y-100546000D01*
X167536190Y-100546000D01*
X167332559Y-100586504D01*
X167140744Y-100665957D01*
X166968114Y-100781305D01*
X166821305Y-100928114D01*
X166705957Y-101100744D01*
X166626504Y-101292559D01*
X166586000Y-101496190D01*
X166154000Y-101496190D01*
X166113496Y-101292559D01*
X166034043Y-101100744D01*
X165918695Y-100928114D01*
X165771886Y-100781305D01*
X165599256Y-100665957D01*
X165407441Y-100586504D01*
X165203810Y-100546000D01*
X164996190Y-100546000D01*
X164792559Y-100586504D01*
X164600744Y-100665957D01*
X164428114Y-100781305D01*
X164281305Y-100928114D01*
X164165957Y-101100744D01*
X164086504Y-101292559D01*
X164046000Y-101496190D01*
X158585228Y-101496190D01*
X158585228Y-100750000D01*
X158580324Y-100700207D01*
X158565800Y-100652328D01*
X158542214Y-100608203D01*
X158510473Y-100569527D01*
X158471797Y-100537786D01*
X158427672Y-100514200D01*
X158379793Y-100499676D01*
X158330000Y-100494772D01*
X156630000Y-100494772D01*
X156580207Y-100499676D01*
X156532328Y-100514200D01*
X156488203Y-100537786D01*
X156449527Y-100569527D01*
X156417786Y-100608203D01*
X156394200Y-100652328D01*
X156379676Y-100700207D01*
X156374772Y-100750000D01*
X155644517Y-100750000D01*
X155556317Y-100677617D01*
X155364526Y-100575103D01*
X155156422Y-100511975D01*
X154994227Y-100496000D01*
X154885773Y-100496000D01*
X154723578Y-100511975D01*
X154515474Y-100575103D01*
X154323683Y-100677617D01*
X154155577Y-100815577D01*
X154017617Y-100983683D01*
X153915103Y-101175474D01*
X153851975Y-101383578D01*
X153830659Y-101600000D01*
X144449000Y-101600000D01*
X144449000Y-101166429D01*
X151247870Y-101166429D01*
X151289479Y-101352000D01*
X152152000Y-101352000D01*
X152152000Y-100491657D01*
X152648000Y-100491657D01*
X152648000Y-101352000D01*
X153510521Y-101352000D01*
X153552130Y-101166429D01*
X153445407Y-100949991D01*
X153298509Y-100758532D01*
X153117082Y-100599410D01*
X152908098Y-100478740D01*
X152833569Y-100447881D01*
X152648000Y-100491657D01*
X152152000Y-100491657D01*
X151966431Y-100447881D01*
X151891902Y-100478740D01*
X151682918Y-100599410D01*
X151501491Y-100758532D01*
X151354593Y-100949991D01*
X151247870Y-101166429D01*
X144449000Y-101166429D01*
X144449000Y-99493571D01*
X151247870Y-99493571D01*
X151354593Y-99710009D01*
X151501491Y-99901468D01*
X151682918Y-100060590D01*
X151891902Y-100181260D01*
X151966431Y-100212119D01*
X152152000Y-100168343D01*
X152152000Y-99308000D01*
X152648000Y-99308000D01*
X152648000Y-100168343D01*
X152833569Y-100212119D01*
X152908098Y-100181260D01*
X153117082Y-100060590D01*
X153298509Y-99901468D01*
X153445407Y-99710009D01*
X153552130Y-99493571D01*
X153510521Y-99308000D01*
X152648000Y-99308000D01*
X152152000Y-99308000D01*
X151289479Y-99308000D01*
X151247870Y-99493571D01*
X144449000Y-99493571D01*
X144449000Y-99060000D01*
X153830659Y-99060000D01*
X153851975Y-99276422D01*
X153915103Y-99484526D01*
X154017617Y-99676317D01*
X154155577Y-99844423D01*
X154323683Y-99982383D01*
X154515474Y-100084897D01*
X154723578Y-100148025D01*
X154885773Y-100164000D01*
X154994227Y-100164000D01*
X155156422Y-100148025D01*
X155364526Y-100084897D01*
X155556317Y-99982383D01*
X155724423Y-99844423D01*
X155862383Y-99676317D01*
X155964897Y-99484526D01*
X156028025Y-99276422D01*
X156049341Y-99060000D01*
X156028025Y-98843578D01*
X155964897Y-98635474D01*
X155862383Y-98443683D01*
X155724423Y-98275577D01*
X155644517Y-98210000D01*
X156374772Y-98210000D01*
X156374772Y-99910000D01*
X156379676Y-99959793D01*
X156394200Y-100007672D01*
X156417786Y-100051797D01*
X156449527Y-100090473D01*
X156488203Y-100122214D01*
X156532328Y-100145800D01*
X156580207Y-100160324D01*
X156630000Y-100165228D01*
X158330000Y-100165228D01*
X158379793Y-100160324D01*
X158427672Y-100145800D01*
X158471797Y-100122214D01*
X158510473Y-100090473D01*
X158542214Y-100051797D01*
X158565800Y-100007672D01*
X158580324Y-99959793D01*
X158585228Y-99910000D01*
X158585228Y-98956190D01*
X164046000Y-98956190D01*
X164046000Y-99163810D01*
X164086504Y-99367441D01*
X164165957Y-99559256D01*
X164281305Y-99731886D01*
X164428114Y-99878695D01*
X164600744Y-99994043D01*
X164792559Y-100073496D01*
X164996190Y-100114000D01*
X165203810Y-100114000D01*
X165407441Y-100073496D01*
X165599256Y-99994043D01*
X165771886Y-99878695D01*
X165918695Y-99731886D01*
X166034043Y-99559256D01*
X166113496Y-99367441D01*
X166154000Y-99163810D01*
X166154000Y-98956190D01*
X179286000Y-98956190D01*
X179286000Y-99163810D01*
X179326504Y-99367441D01*
X179405957Y-99559256D01*
X179521305Y-99731886D01*
X179668114Y-99878695D01*
X179840744Y-99994043D01*
X180032559Y-100073496D01*
X180236190Y-100114000D01*
X180443810Y-100114000D01*
X180647441Y-100073496D01*
X180839256Y-99994043D01*
X181011886Y-99878695D01*
X181158695Y-99731886D01*
X181274043Y-99559256D01*
X181353496Y-99367441D01*
X181394000Y-99163810D01*
X181394000Y-98956190D01*
X181353496Y-98752559D01*
X181274043Y-98560744D01*
X181158695Y-98388114D01*
X181011886Y-98241305D01*
X180839256Y-98125957D01*
X180647441Y-98046504D01*
X180443810Y-98006000D01*
X180236190Y-98006000D01*
X180032559Y-98046504D01*
X179840744Y-98125957D01*
X179668114Y-98241305D01*
X179521305Y-98388114D01*
X179405957Y-98560744D01*
X179326504Y-98752559D01*
X179286000Y-98956190D01*
X166154000Y-98956190D01*
X166113496Y-98752559D01*
X166034043Y-98560744D01*
X165918695Y-98388114D01*
X165771886Y-98241305D01*
X165599256Y-98125957D01*
X165407441Y-98046504D01*
X165203810Y-98006000D01*
X164996190Y-98006000D01*
X164792559Y-98046504D01*
X164600744Y-98125957D01*
X164428114Y-98241305D01*
X164281305Y-98388114D01*
X164165957Y-98560744D01*
X164086504Y-98752559D01*
X164046000Y-98956190D01*
X158585228Y-98956190D01*
X158585228Y-98210000D01*
X158580324Y-98160207D01*
X158565800Y-98112328D01*
X158542214Y-98068203D01*
X158510473Y-98029527D01*
X158471797Y-97997786D01*
X158427672Y-97974200D01*
X158379793Y-97959676D01*
X158330000Y-97954772D01*
X156630000Y-97954772D01*
X156580207Y-97959676D01*
X156532328Y-97974200D01*
X156488203Y-97997786D01*
X156449527Y-98029527D01*
X156417786Y-98068203D01*
X156394200Y-98112328D01*
X156379676Y-98160207D01*
X156374772Y-98210000D01*
X155644517Y-98210000D01*
X155556317Y-98137617D01*
X155364526Y-98035103D01*
X155156422Y-97971975D01*
X154994227Y-97956000D01*
X154885773Y-97956000D01*
X154723578Y-97971975D01*
X154515474Y-98035103D01*
X154323683Y-98137617D01*
X154155577Y-98275577D01*
X154017617Y-98443683D01*
X153915103Y-98635474D01*
X153851975Y-98843578D01*
X153830659Y-99060000D01*
X144449000Y-99060000D01*
X144449000Y-98626429D01*
X151247870Y-98626429D01*
X151289479Y-98812000D01*
X152152000Y-98812000D01*
X152152000Y-97951657D01*
X152648000Y-97951657D01*
X152648000Y-98812000D01*
X153510521Y-98812000D01*
X153552130Y-98626429D01*
X153445407Y-98409991D01*
X153298509Y-98218532D01*
X153117082Y-98059410D01*
X152908098Y-97938740D01*
X152833569Y-97907881D01*
X152648000Y-97951657D01*
X152152000Y-97951657D01*
X151966431Y-97907881D01*
X151891902Y-97938740D01*
X151682918Y-98059410D01*
X151501491Y-98218532D01*
X151354593Y-98409991D01*
X151247870Y-98626429D01*
X144449000Y-98626429D01*
X144449000Y-96416190D01*
X164046000Y-96416190D01*
X164046000Y-96623810D01*
X164086504Y-96827441D01*
X164165957Y-97019256D01*
X164281305Y-97191886D01*
X164428114Y-97338695D01*
X164600744Y-97454043D01*
X164792559Y-97533496D01*
X164996190Y-97574000D01*
X165203810Y-97574000D01*
X165407441Y-97533496D01*
X165599256Y-97454043D01*
X165771886Y-97338695D01*
X165918695Y-97191886D01*
X166034043Y-97019256D01*
X166113496Y-96827441D01*
X166154000Y-96623810D01*
X166154000Y-96416190D01*
X166586000Y-96416190D01*
X166586000Y-96623810D01*
X166626504Y-96827441D01*
X166705957Y-97019256D01*
X166821305Y-97191886D01*
X166968114Y-97338695D01*
X167140744Y-97454043D01*
X167332559Y-97533496D01*
X167536190Y-97574000D01*
X167743810Y-97574000D01*
X167947441Y-97533496D01*
X168139256Y-97454043D01*
X168311886Y-97338695D01*
X168458695Y-97191886D01*
X168574043Y-97019256D01*
X168653496Y-96827441D01*
X168694000Y-96623810D01*
X168694000Y-96416190D01*
X169126000Y-96416190D01*
X169126000Y-96623810D01*
X169166504Y-96827441D01*
X169245957Y-97019256D01*
X169361305Y-97191886D01*
X169508114Y-97338695D01*
X169680744Y-97454043D01*
X169872559Y-97533496D01*
X170076190Y-97574000D01*
X170283810Y-97574000D01*
X170487441Y-97533496D01*
X170679256Y-97454043D01*
X170851886Y-97338695D01*
X170998695Y-97191886D01*
X171114043Y-97019256D01*
X171193496Y-96827441D01*
X171234000Y-96623810D01*
X171234000Y-96416190D01*
X171666000Y-96416190D01*
X171666000Y-96623810D01*
X171706504Y-96827441D01*
X171785957Y-97019256D01*
X171901305Y-97191886D01*
X172048114Y-97338695D01*
X172220744Y-97454043D01*
X172412559Y-97533496D01*
X172616190Y-97574000D01*
X172823810Y-97574000D01*
X173027441Y-97533496D01*
X173219256Y-97454043D01*
X173391886Y-97338695D01*
X173538695Y-97191886D01*
X173654043Y-97019256D01*
X173733496Y-96827441D01*
X173774000Y-96623810D01*
X173774000Y-96416190D01*
X174206000Y-96416190D01*
X174206000Y-96623810D01*
X174246504Y-96827441D01*
X174325957Y-97019256D01*
X174441305Y-97191886D01*
X174588114Y-97338695D01*
X174760744Y-97454043D01*
X174952559Y-97533496D01*
X175156190Y-97574000D01*
X175363810Y-97574000D01*
X175567441Y-97533496D01*
X175759256Y-97454043D01*
X175931886Y-97338695D01*
X176078695Y-97191886D01*
X176194043Y-97019256D01*
X176273496Y-96827441D01*
X176314000Y-96623810D01*
X176314000Y-96416190D01*
X176746000Y-96416190D01*
X176746000Y-96623810D01*
X176786504Y-96827441D01*
X176865957Y-97019256D01*
X176981305Y-97191886D01*
X177128114Y-97338695D01*
X177300744Y-97454043D01*
X177492559Y-97533496D01*
X177696190Y-97574000D01*
X177903810Y-97574000D01*
X178107441Y-97533496D01*
X178299256Y-97454043D01*
X178471886Y-97338695D01*
X178618695Y-97191886D01*
X178734043Y-97019256D01*
X178813496Y-96827441D01*
X178854000Y-96623810D01*
X178854000Y-96416190D01*
X179286000Y-96416190D01*
X179286000Y-96623810D01*
X179326504Y-96827441D01*
X179405957Y-97019256D01*
X179521305Y-97191886D01*
X179668114Y-97338695D01*
X179840744Y-97454043D01*
X180032559Y-97533496D01*
X180236190Y-97574000D01*
X180443810Y-97574000D01*
X180647441Y-97533496D01*
X180839256Y-97454043D01*
X181011886Y-97338695D01*
X181158695Y-97191886D01*
X181274043Y-97019256D01*
X181353496Y-96827441D01*
X181394000Y-96623810D01*
X181394000Y-96416190D01*
X181353496Y-96212559D01*
X181274043Y-96020744D01*
X181158695Y-95848114D01*
X181011886Y-95701305D01*
X180839256Y-95585957D01*
X180647441Y-95506504D01*
X180443810Y-95466000D01*
X180236190Y-95466000D01*
X180032559Y-95506504D01*
X179840744Y-95585957D01*
X179668114Y-95701305D01*
X179521305Y-95848114D01*
X179405957Y-96020744D01*
X179326504Y-96212559D01*
X179286000Y-96416190D01*
X178854000Y-96416190D01*
X178813496Y-96212559D01*
X178734043Y-96020744D01*
X178618695Y-95848114D01*
X178471886Y-95701305D01*
X178299256Y-95585957D01*
X178107441Y-95506504D01*
X177903810Y-95466000D01*
X177696190Y-95466000D01*
X177492559Y-95506504D01*
X177300744Y-95585957D01*
X177128114Y-95701305D01*
X176981305Y-95848114D01*
X176865957Y-96020744D01*
X176786504Y-96212559D01*
X176746000Y-96416190D01*
X176314000Y-96416190D01*
X176273496Y-96212559D01*
X176194043Y-96020744D01*
X176078695Y-95848114D01*
X175931886Y-95701305D01*
X175759256Y-95585957D01*
X175567441Y-95506504D01*
X175363810Y-95466000D01*
X175156190Y-95466000D01*
X174952559Y-95506504D01*
X174760744Y-95585957D01*
X174588114Y-95701305D01*
X174441305Y-95848114D01*
X174325957Y-96020744D01*
X174246504Y-96212559D01*
X174206000Y-96416190D01*
X173774000Y-96416190D01*
X173733496Y-96212559D01*
X173654043Y-96020744D01*
X173538695Y-95848114D01*
X173391886Y-95701305D01*
X173219256Y-95585957D01*
X173027441Y-95506504D01*
X172823810Y-95466000D01*
X172616190Y-95466000D01*
X172412559Y-95506504D01*
X172220744Y-95585957D01*
X172048114Y-95701305D01*
X171901305Y-95848114D01*
X171785957Y-96020744D01*
X171706504Y-96212559D01*
X171666000Y-96416190D01*
X171234000Y-96416190D01*
X171193496Y-96212559D01*
X171114043Y-96020744D01*
X170998695Y-95848114D01*
X170851886Y-95701305D01*
X170679256Y-95585957D01*
X170487441Y-95506504D01*
X170283810Y-95466000D01*
X170076190Y-95466000D01*
X169872559Y-95506504D01*
X169680744Y-95585957D01*
X169508114Y-95701305D01*
X169361305Y-95848114D01*
X169245957Y-96020744D01*
X169166504Y-96212559D01*
X169126000Y-96416190D01*
X168694000Y-96416190D01*
X168653496Y-96212559D01*
X168574043Y-96020744D01*
X168458695Y-95848114D01*
X168311886Y-95701305D01*
X168139256Y-95585957D01*
X167947441Y-95506504D01*
X167743810Y-95466000D01*
X167536190Y-95466000D01*
X167332559Y-95506504D01*
X167140744Y-95585957D01*
X166968114Y-95701305D01*
X166821305Y-95848114D01*
X166705957Y-96020744D01*
X166626504Y-96212559D01*
X166586000Y-96416190D01*
X166154000Y-96416190D01*
X166113496Y-96212559D01*
X166034043Y-96020744D01*
X165918695Y-95848114D01*
X165771886Y-95701305D01*
X165599256Y-95585957D01*
X165407441Y-95506504D01*
X165203810Y-95466000D01*
X164996190Y-95466000D01*
X164792559Y-95506504D01*
X164600744Y-95585957D01*
X164428114Y-95701305D01*
X164281305Y-95848114D01*
X164165957Y-96020744D01*
X164086504Y-96212559D01*
X164046000Y-96416190D01*
X144449000Y-96416190D01*
X144449000Y-94413571D01*
X151247870Y-94413571D01*
X151354593Y-94630009D01*
X151501491Y-94821468D01*
X151682918Y-94980590D01*
X151891902Y-95101260D01*
X151966431Y-95132119D01*
X152152000Y-95088343D01*
X152152000Y-94228000D01*
X152648000Y-94228000D01*
X152648000Y-95088343D01*
X152833569Y-95132119D01*
X152908098Y-95101260D01*
X153117082Y-94980590D01*
X153298509Y-94821468D01*
X153445407Y-94630009D01*
X153552130Y-94413571D01*
X153510521Y-94228000D01*
X152648000Y-94228000D01*
X152152000Y-94228000D01*
X151289479Y-94228000D01*
X151247870Y-94413571D01*
X144449000Y-94413571D01*
X144449000Y-93980000D01*
X153830659Y-93980000D01*
X153851975Y-94196422D01*
X153915103Y-94404526D01*
X154017617Y-94596317D01*
X154155577Y-94764423D01*
X154323683Y-94902383D01*
X154515474Y-95004897D01*
X154723578Y-95068025D01*
X154885773Y-95084000D01*
X154994227Y-95084000D01*
X155156422Y-95068025D01*
X155364526Y-95004897D01*
X155556317Y-94902383D01*
X155724423Y-94764423D01*
X155862383Y-94596317D01*
X155964897Y-94404526D01*
X156028025Y-94196422D01*
X156049341Y-93980000D01*
X156028025Y-93763578D01*
X155964897Y-93555474D01*
X155862383Y-93363683D01*
X155724423Y-93195577D01*
X155644517Y-93130000D01*
X156374772Y-93130000D01*
X156374772Y-94830000D01*
X156379676Y-94879793D01*
X156394200Y-94927672D01*
X156417786Y-94971797D01*
X156449527Y-95010473D01*
X156488203Y-95042214D01*
X156532328Y-95065800D01*
X156580207Y-95080324D01*
X156630000Y-95085228D01*
X158330000Y-95085228D01*
X158379793Y-95080324D01*
X158427672Y-95065800D01*
X158471797Y-95042214D01*
X158510473Y-95010473D01*
X158542214Y-94971797D01*
X158565800Y-94927672D01*
X158580324Y-94879793D01*
X158585228Y-94830000D01*
X158585228Y-93876190D01*
X164046000Y-93876190D01*
X164046000Y-94083810D01*
X164086504Y-94287441D01*
X164165957Y-94479256D01*
X164281305Y-94651886D01*
X164428114Y-94798695D01*
X164600744Y-94914043D01*
X164792559Y-94993496D01*
X164996190Y-95034000D01*
X165203810Y-95034000D01*
X165407441Y-94993496D01*
X165599256Y-94914043D01*
X165771886Y-94798695D01*
X165918695Y-94651886D01*
X166034043Y-94479256D01*
X166113496Y-94287441D01*
X166154000Y-94083810D01*
X166154000Y-93876190D01*
X166586000Y-93876190D01*
X166586000Y-94083810D01*
X166626504Y-94287441D01*
X166705957Y-94479256D01*
X166821305Y-94651886D01*
X166968114Y-94798695D01*
X167140744Y-94914043D01*
X167332559Y-94993496D01*
X167536190Y-95034000D01*
X167743810Y-95034000D01*
X167947441Y-94993496D01*
X168139256Y-94914043D01*
X168311886Y-94798695D01*
X168458695Y-94651886D01*
X168574043Y-94479256D01*
X168653496Y-94287441D01*
X168694000Y-94083810D01*
X168694000Y-93876190D01*
X169126000Y-93876190D01*
X169126000Y-94083810D01*
X169166504Y-94287441D01*
X169245957Y-94479256D01*
X169361305Y-94651886D01*
X169508114Y-94798695D01*
X169680744Y-94914043D01*
X169872559Y-94993496D01*
X170076190Y-95034000D01*
X170283810Y-95034000D01*
X170487441Y-94993496D01*
X170679256Y-94914043D01*
X170851886Y-94798695D01*
X170998695Y-94651886D01*
X171114043Y-94479256D01*
X171193496Y-94287441D01*
X171234000Y-94083810D01*
X171234000Y-93876190D01*
X171666000Y-93876190D01*
X171666000Y-94083810D01*
X171706504Y-94287441D01*
X171785957Y-94479256D01*
X171901305Y-94651886D01*
X172048114Y-94798695D01*
X172220744Y-94914043D01*
X172412559Y-94993496D01*
X172616190Y-95034000D01*
X172823810Y-95034000D01*
X173027441Y-94993496D01*
X173219256Y-94914043D01*
X173391886Y-94798695D01*
X173538695Y-94651886D01*
X173654043Y-94479256D01*
X173733496Y-94287441D01*
X173774000Y-94083810D01*
X173774000Y-93876190D01*
X174206000Y-93876190D01*
X174206000Y-94083810D01*
X174246504Y-94287441D01*
X174325957Y-94479256D01*
X174441305Y-94651886D01*
X174588114Y-94798695D01*
X174760744Y-94914043D01*
X174952559Y-94993496D01*
X175156190Y-95034000D01*
X175363810Y-95034000D01*
X175567441Y-94993496D01*
X175759256Y-94914043D01*
X175931886Y-94798695D01*
X176078695Y-94651886D01*
X176194043Y-94479256D01*
X176273496Y-94287441D01*
X176314000Y-94083810D01*
X176314000Y-93876190D01*
X176746000Y-93876190D01*
X176746000Y-94083810D01*
X176786504Y-94287441D01*
X176865957Y-94479256D01*
X176981305Y-94651886D01*
X177128114Y-94798695D01*
X177300744Y-94914043D01*
X177492559Y-94993496D01*
X177696190Y-95034000D01*
X177903810Y-95034000D01*
X178107441Y-94993496D01*
X178299256Y-94914043D01*
X178471886Y-94798695D01*
X178618695Y-94651886D01*
X178734043Y-94479256D01*
X178813496Y-94287441D01*
X178854000Y-94083810D01*
X178854000Y-93876190D01*
X179286000Y-93876190D01*
X179286000Y-94083810D01*
X179326504Y-94287441D01*
X179405957Y-94479256D01*
X179521305Y-94651886D01*
X179668114Y-94798695D01*
X179840744Y-94914043D01*
X180032559Y-94993496D01*
X180236190Y-95034000D01*
X180443810Y-95034000D01*
X180647441Y-94993496D01*
X180839256Y-94914043D01*
X181011886Y-94798695D01*
X181158695Y-94651886D01*
X181274043Y-94479256D01*
X181353496Y-94287441D01*
X181394000Y-94083810D01*
X181394000Y-93876190D01*
X181353496Y-93672559D01*
X181274043Y-93480744D01*
X181158695Y-93308114D01*
X181011886Y-93161305D01*
X180839256Y-93045957D01*
X180647441Y-92966504D01*
X180443810Y-92926000D01*
X180236190Y-92926000D01*
X180032559Y-92966504D01*
X179840744Y-93045957D01*
X179668114Y-93161305D01*
X179521305Y-93308114D01*
X179405957Y-93480744D01*
X179326504Y-93672559D01*
X179286000Y-93876190D01*
X178854000Y-93876190D01*
X178813496Y-93672559D01*
X178734043Y-93480744D01*
X178618695Y-93308114D01*
X178471886Y-93161305D01*
X178299256Y-93045957D01*
X178107441Y-92966504D01*
X177903810Y-92926000D01*
X177696190Y-92926000D01*
X177492559Y-92966504D01*
X177300744Y-93045957D01*
X177128114Y-93161305D01*
X176981305Y-93308114D01*
X176865957Y-93480744D01*
X176786504Y-93672559D01*
X176746000Y-93876190D01*
X176314000Y-93876190D01*
X176273496Y-93672559D01*
X176194043Y-93480744D01*
X176078695Y-93308114D01*
X175931886Y-93161305D01*
X175759256Y-93045957D01*
X175567441Y-92966504D01*
X175363810Y-92926000D01*
X175156190Y-92926000D01*
X174952559Y-92966504D01*
X174760744Y-93045957D01*
X174588114Y-93161305D01*
X174441305Y-93308114D01*
X174325957Y-93480744D01*
X174246504Y-93672559D01*
X174206000Y-93876190D01*
X173774000Y-93876190D01*
X173733496Y-93672559D01*
X173654043Y-93480744D01*
X173538695Y-93308114D01*
X173391886Y-93161305D01*
X173219256Y-93045957D01*
X173027441Y-92966504D01*
X172823810Y-92926000D01*
X172616190Y-92926000D01*
X172412559Y-92966504D01*
X172220744Y-93045957D01*
X172048114Y-93161305D01*
X171901305Y-93308114D01*
X171785957Y-93480744D01*
X171706504Y-93672559D01*
X171666000Y-93876190D01*
X171234000Y-93876190D01*
X171193496Y-93672559D01*
X171114043Y-93480744D01*
X170998695Y-93308114D01*
X170851886Y-93161305D01*
X170679256Y-93045957D01*
X170487441Y-92966504D01*
X170283810Y-92926000D01*
X170076190Y-92926000D01*
X169872559Y-92966504D01*
X169680744Y-93045957D01*
X169508114Y-93161305D01*
X169361305Y-93308114D01*
X169245957Y-93480744D01*
X169166504Y-93672559D01*
X169126000Y-93876190D01*
X168694000Y-93876190D01*
X168653496Y-93672559D01*
X168574043Y-93480744D01*
X168458695Y-93308114D01*
X168311886Y-93161305D01*
X168139256Y-93045957D01*
X167947441Y-92966504D01*
X167743810Y-92926000D01*
X167536190Y-92926000D01*
X167332559Y-92966504D01*
X167140744Y-93045957D01*
X166968114Y-93161305D01*
X166821305Y-93308114D01*
X166705957Y-93480744D01*
X166626504Y-93672559D01*
X166586000Y-93876190D01*
X166154000Y-93876190D01*
X166113496Y-93672559D01*
X166034043Y-93480744D01*
X165918695Y-93308114D01*
X165771886Y-93161305D01*
X165599256Y-93045957D01*
X165407441Y-92966504D01*
X165203810Y-92926000D01*
X164996190Y-92926000D01*
X164792559Y-92966504D01*
X164600744Y-93045957D01*
X164428114Y-93161305D01*
X164281305Y-93308114D01*
X164165957Y-93480744D01*
X164086504Y-93672559D01*
X164046000Y-93876190D01*
X158585228Y-93876190D01*
X158585228Y-93130000D01*
X158580324Y-93080207D01*
X158565800Y-93032328D01*
X158542214Y-92988203D01*
X158510473Y-92949527D01*
X158471797Y-92917786D01*
X158427672Y-92894200D01*
X158379793Y-92879676D01*
X158330000Y-92874772D01*
X156630000Y-92874772D01*
X156580207Y-92879676D01*
X156532328Y-92894200D01*
X156488203Y-92917786D01*
X156449527Y-92949527D01*
X156417786Y-92988203D01*
X156394200Y-93032328D01*
X156379676Y-93080207D01*
X156374772Y-93130000D01*
X155644517Y-93130000D01*
X155556317Y-93057617D01*
X155364526Y-92955103D01*
X155156422Y-92891975D01*
X154994227Y-92876000D01*
X154885773Y-92876000D01*
X154723578Y-92891975D01*
X154515474Y-92955103D01*
X154323683Y-93057617D01*
X154155577Y-93195577D01*
X154017617Y-93363683D01*
X153915103Y-93555474D01*
X153851975Y-93763578D01*
X153830659Y-93980000D01*
X144449000Y-93980000D01*
X144449000Y-93546429D01*
X151247870Y-93546429D01*
X151289479Y-93732000D01*
X152152000Y-93732000D01*
X152152000Y-92871657D01*
X152648000Y-92871657D01*
X152648000Y-93732000D01*
X153510521Y-93732000D01*
X153552130Y-93546429D01*
X153445407Y-93329991D01*
X153298509Y-93138532D01*
X153117082Y-92979410D01*
X152908098Y-92858740D01*
X152833569Y-92827881D01*
X152648000Y-92871657D01*
X152152000Y-92871657D01*
X151966431Y-92827881D01*
X151891902Y-92858740D01*
X151682918Y-92979410D01*
X151501491Y-93138532D01*
X151354593Y-93329991D01*
X151247870Y-93546429D01*
X144449000Y-93546429D01*
X144449000Y-91873571D01*
X151247870Y-91873571D01*
X151354593Y-92090009D01*
X151501491Y-92281468D01*
X151682918Y-92440590D01*
X151891902Y-92561260D01*
X151966431Y-92592119D01*
X152152000Y-92548343D01*
X152152000Y-91688000D01*
X152648000Y-91688000D01*
X152648000Y-92548343D01*
X152833569Y-92592119D01*
X152908098Y-92561260D01*
X153117082Y-92440590D01*
X153298509Y-92281468D01*
X153445407Y-92090009D01*
X153552130Y-91873571D01*
X153510521Y-91688000D01*
X152648000Y-91688000D01*
X152152000Y-91688000D01*
X151289479Y-91688000D01*
X151247870Y-91873571D01*
X144449000Y-91873571D01*
X144449000Y-91440000D01*
X153830659Y-91440000D01*
X153851975Y-91656422D01*
X153915103Y-91864526D01*
X154017617Y-92056317D01*
X154155577Y-92224423D01*
X154323683Y-92362383D01*
X154515474Y-92464897D01*
X154723578Y-92528025D01*
X154885773Y-92544000D01*
X154994227Y-92544000D01*
X155156422Y-92528025D01*
X155364526Y-92464897D01*
X155556317Y-92362383D01*
X155724423Y-92224423D01*
X155862383Y-92056317D01*
X155964897Y-91864526D01*
X156028025Y-91656422D01*
X156049341Y-91440000D01*
X156028025Y-91223578D01*
X155964897Y-91015474D01*
X155862383Y-90823683D01*
X155724423Y-90655577D01*
X155644517Y-90590000D01*
X156374772Y-90590000D01*
X156374772Y-92290000D01*
X156379676Y-92339793D01*
X156394200Y-92387672D01*
X156417786Y-92431797D01*
X156449527Y-92470473D01*
X156488203Y-92502214D01*
X156532328Y-92525800D01*
X156580207Y-92540324D01*
X156630000Y-92545228D01*
X158330000Y-92545228D01*
X158379793Y-92540324D01*
X158427672Y-92525800D01*
X158471797Y-92502214D01*
X158510473Y-92470473D01*
X158542214Y-92431797D01*
X158565800Y-92387672D01*
X158580324Y-92339793D01*
X158585228Y-92290000D01*
X158585228Y-91336190D01*
X164046000Y-91336190D01*
X164046000Y-91543810D01*
X164086504Y-91747441D01*
X164165957Y-91939256D01*
X164281305Y-92111886D01*
X164428114Y-92258695D01*
X164600744Y-92374043D01*
X164792559Y-92453496D01*
X164996190Y-92494000D01*
X165203810Y-92494000D01*
X165407441Y-92453496D01*
X165599256Y-92374043D01*
X165771886Y-92258695D01*
X165918695Y-92111886D01*
X166034043Y-91939256D01*
X166113496Y-91747441D01*
X166154000Y-91543810D01*
X166154000Y-91336190D01*
X179286000Y-91336190D01*
X179286000Y-91543810D01*
X179326504Y-91747441D01*
X179405957Y-91939256D01*
X179521305Y-92111886D01*
X179668114Y-92258695D01*
X179840744Y-92374043D01*
X180032559Y-92453496D01*
X180236190Y-92494000D01*
X180443810Y-92494000D01*
X180647441Y-92453496D01*
X180839256Y-92374043D01*
X181011886Y-92258695D01*
X181158695Y-92111886D01*
X181274043Y-91939256D01*
X181353496Y-91747441D01*
X181394000Y-91543810D01*
X181394000Y-91336190D01*
X181353496Y-91132559D01*
X181274043Y-90940744D01*
X181158695Y-90768114D01*
X181011886Y-90621305D01*
X180839256Y-90505957D01*
X180647441Y-90426504D01*
X180443810Y-90386000D01*
X180236190Y-90386000D01*
X180032559Y-90426504D01*
X179840744Y-90505957D01*
X179668114Y-90621305D01*
X179521305Y-90768114D01*
X179405957Y-90940744D01*
X179326504Y-91132559D01*
X179286000Y-91336190D01*
X166154000Y-91336190D01*
X166113496Y-91132559D01*
X166034043Y-90940744D01*
X165918695Y-90768114D01*
X165771886Y-90621305D01*
X165599256Y-90505957D01*
X165407441Y-90426504D01*
X165203810Y-90386000D01*
X164996190Y-90386000D01*
X164792559Y-90426504D01*
X164600744Y-90505957D01*
X164428114Y-90621305D01*
X164281305Y-90768114D01*
X164165957Y-90940744D01*
X164086504Y-91132559D01*
X164046000Y-91336190D01*
X158585228Y-91336190D01*
X158585228Y-90590000D01*
X158580324Y-90540207D01*
X158565800Y-90492328D01*
X158542214Y-90448203D01*
X158510473Y-90409527D01*
X158471797Y-90377786D01*
X158427672Y-90354200D01*
X158379793Y-90339676D01*
X158330000Y-90334772D01*
X156630000Y-90334772D01*
X156580207Y-90339676D01*
X156532328Y-90354200D01*
X156488203Y-90377786D01*
X156449527Y-90409527D01*
X156417786Y-90448203D01*
X156394200Y-90492328D01*
X156379676Y-90540207D01*
X156374772Y-90590000D01*
X155644517Y-90590000D01*
X155556317Y-90517617D01*
X155364526Y-90415103D01*
X155156422Y-90351975D01*
X154994227Y-90336000D01*
X154885773Y-90336000D01*
X154723578Y-90351975D01*
X154515474Y-90415103D01*
X154323683Y-90517617D01*
X154155577Y-90655577D01*
X154017617Y-90823683D01*
X153915103Y-91015474D01*
X153851975Y-91223578D01*
X153830659Y-91440000D01*
X144449000Y-91440000D01*
X144449000Y-91006429D01*
X151247870Y-91006429D01*
X151289479Y-91192000D01*
X152152000Y-91192000D01*
X152152000Y-90331657D01*
X152648000Y-90331657D01*
X152648000Y-91192000D01*
X153510521Y-91192000D01*
X153552130Y-91006429D01*
X153445407Y-90789991D01*
X153298509Y-90598532D01*
X153117082Y-90439410D01*
X152908098Y-90318740D01*
X152833569Y-90287881D01*
X152648000Y-90331657D01*
X152152000Y-90331657D01*
X151966431Y-90287881D01*
X151891902Y-90318740D01*
X151682918Y-90439410D01*
X151501491Y-90598532D01*
X151354593Y-90789991D01*
X151247870Y-91006429D01*
X144449000Y-91006429D01*
X144449000Y-89333571D01*
X151247870Y-89333571D01*
X151354593Y-89550009D01*
X151501491Y-89741468D01*
X151682918Y-89900590D01*
X151891902Y-90021260D01*
X151966431Y-90052119D01*
X152152000Y-90008343D01*
X152152000Y-89148000D01*
X152648000Y-89148000D01*
X152648000Y-90008343D01*
X152833569Y-90052119D01*
X152908098Y-90021260D01*
X153117082Y-89900590D01*
X153298509Y-89741468D01*
X153445407Y-89550009D01*
X153552130Y-89333571D01*
X153510521Y-89148000D01*
X152648000Y-89148000D01*
X152152000Y-89148000D01*
X151289479Y-89148000D01*
X151247870Y-89333571D01*
X144449000Y-89333571D01*
X144449000Y-88900000D01*
X153830659Y-88900000D01*
X153851975Y-89116422D01*
X153915103Y-89324526D01*
X154017617Y-89516317D01*
X154155577Y-89684423D01*
X154323683Y-89822383D01*
X154515474Y-89924897D01*
X154723578Y-89988025D01*
X154885773Y-90004000D01*
X154994227Y-90004000D01*
X155156422Y-89988025D01*
X155364526Y-89924897D01*
X155556317Y-89822383D01*
X155724423Y-89684423D01*
X155862383Y-89516317D01*
X155964897Y-89324526D01*
X156028025Y-89116422D01*
X156049341Y-88900000D01*
X156028025Y-88683578D01*
X155964897Y-88475474D01*
X155862383Y-88283683D01*
X155724423Y-88115577D01*
X155644517Y-88050000D01*
X156374772Y-88050000D01*
X156374772Y-89750000D01*
X156379676Y-89799793D01*
X156394200Y-89847672D01*
X156417786Y-89891797D01*
X156449527Y-89930473D01*
X156488203Y-89962214D01*
X156532328Y-89985800D01*
X156580207Y-90000324D01*
X156630000Y-90005228D01*
X158330000Y-90005228D01*
X158379793Y-90000324D01*
X158427672Y-89985800D01*
X158471797Y-89962214D01*
X158510473Y-89930473D01*
X158542214Y-89891797D01*
X158565800Y-89847672D01*
X158580324Y-89799793D01*
X158585228Y-89750000D01*
X158585228Y-88796190D01*
X164046000Y-88796190D01*
X164046000Y-89003810D01*
X164086504Y-89207441D01*
X164165957Y-89399256D01*
X164281305Y-89571886D01*
X164428114Y-89718695D01*
X164600744Y-89834043D01*
X164792559Y-89913496D01*
X164996190Y-89954000D01*
X165203810Y-89954000D01*
X165407441Y-89913496D01*
X165599256Y-89834043D01*
X165771886Y-89718695D01*
X165918695Y-89571886D01*
X166034043Y-89399256D01*
X166113496Y-89207441D01*
X166154000Y-89003810D01*
X166154000Y-88796190D01*
X179286000Y-88796190D01*
X179286000Y-89003810D01*
X179326504Y-89207441D01*
X179405957Y-89399256D01*
X179521305Y-89571886D01*
X179668114Y-89718695D01*
X179840744Y-89834043D01*
X180032559Y-89913496D01*
X180236190Y-89954000D01*
X180443810Y-89954000D01*
X180647441Y-89913496D01*
X180839256Y-89834043D01*
X181011886Y-89718695D01*
X181158695Y-89571886D01*
X181274043Y-89399256D01*
X181353496Y-89207441D01*
X181394000Y-89003810D01*
X181394000Y-88796190D01*
X181353496Y-88592559D01*
X181274043Y-88400744D01*
X181158695Y-88228114D01*
X181011886Y-88081305D01*
X180839256Y-87965957D01*
X180647441Y-87886504D01*
X180443810Y-87846000D01*
X180236190Y-87846000D01*
X180032559Y-87886504D01*
X179840744Y-87965957D01*
X179668114Y-88081305D01*
X179521305Y-88228114D01*
X179405957Y-88400744D01*
X179326504Y-88592559D01*
X179286000Y-88796190D01*
X166154000Y-88796190D01*
X166113496Y-88592559D01*
X166034043Y-88400744D01*
X165918695Y-88228114D01*
X165771886Y-88081305D01*
X165599256Y-87965957D01*
X165407441Y-87886504D01*
X165203810Y-87846000D01*
X164996190Y-87846000D01*
X164792559Y-87886504D01*
X164600744Y-87965957D01*
X164428114Y-88081305D01*
X164281305Y-88228114D01*
X164165957Y-88400744D01*
X164086504Y-88592559D01*
X164046000Y-88796190D01*
X158585228Y-88796190D01*
X158585228Y-88050000D01*
X158580324Y-88000207D01*
X158565800Y-87952328D01*
X158542214Y-87908203D01*
X158510473Y-87869527D01*
X158471797Y-87837786D01*
X158427672Y-87814200D01*
X158379793Y-87799676D01*
X158330000Y-87794772D01*
X156630000Y-87794772D01*
X156580207Y-87799676D01*
X156532328Y-87814200D01*
X156488203Y-87837786D01*
X156449527Y-87869527D01*
X156417786Y-87908203D01*
X156394200Y-87952328D01*
X156379676Y-88000207D01*
X156374772Y-88050000D01*
X155644517Y-88050000D01*
X155556317Y-87977617D01*
X155364526Y-87875103D01*
X155156422Y-87811975D01*
X154994227Y-87796000D01*
X154885773Y-87796000D01*
X154723578Y-87811975D01*
X154515474Y-87875103D01*
X154323683Y-87977617D01*
X154155577Y-88115577D01*
X154017617Y-88283683D01*
X153915103Y-88475474D01*
X153851975Y-88683578D01*
X153830659Y-88900000D01*
X144449000Y-88900000D01*
X144449000Y-88466429D01*
X151247870Y-88466429D01*
X151289479Y-88652000D01*
X152152000Y-88652000D01*
X152152000Y-87791657D01*
X152648000Y-87791657D01*
X152648000Y-88652000D01*
X153510521Y-88652000D01*
X153552130Y-88466429D01*
X153445407Y-88249991D01*
X153298509Y-88058532D01*
X153117082Y-87899410D01*
X152908098Y-87778740D01*
X152833569Y-87747881D01*
X152648000Y-87791657D01*
X152152000Y-87791657D01*
X151966431Y-87747881D01*
X151891902Y-87778740D01*
X151682918Y-87899410D01*
X151501491Y-88058532D01*
X151354593Y-88249991D01*
X151247870Y-88466429D01*
X144449000Y-88466429D01*
X144449000Y-86256190D01*
X164046000Y-86256190D01*
X164046000Y-86463810D01*
X164086504Y-86667441D01*
X164165957Y-86859256D01*
X164281305Y-87031886D01*
X164428114Y-87178695D01*
X164600744Y-87294043D01*
X164792559Y-87373496D01*
X164996190Y-87414000D01*
X165203810Y-87414000D01*
X165407441Y-87373496D01*
X165599256Y-87294043D01*
X165771886Y-87178695D01*
X165918695Y-87031886D01*
X166034043Y-86859256D01*
X166113496Y-86667441D01*
X166154000Y-86463810D01*
X166154000Y-86256190D01*
X179286000Y-86256190D01*
X179286000Y-86463810D01*
X179326504Y-86667441D01*
X179405957Y-86859256D01*
X179521305Y-87031886D01*
X179668114Y-87178695D01*
X179840744Y-87294043D01*
X180032559Y-87373496D01*
X180236190Y-87414000D01*
X180443810Y-87414000D01*
X180647441Y-87373496D01*
X180839256Y-87294043D01*
X181011886Y-87178695D01*
X181158695Y-87031886D01*
X181274043Y-86859256D01*
X181353496Y-86667441D01*
X181394000Y-86463810D01*
X181394000Y-86256190D01*
X181353496Y-86052559D01*
X181274043Y-85860744D01*
X181158695Y-85688114D01*
X181011886Y-85541305D01*
X180839256Y-85425957D01*
X180647441Y-85346504D01*
X180443810Y-85306000D01*
X180236190Y-85306000D01*
X180032559Y-85346504D01*
X179840744Y-85425957D01*
X179668114Y-85541305D01*
X179521305Y-85688114D01*
X179405957Y-85860744D01*
X179326504Y-86052559D01*
X179286000Y-86256190D01*
X166154000Y-86256190D01*
X166113496Y-86052559D01*
X166034043Y-85860744D01*
X165918695Y-85688114D01*
X165771886Y-85541305D01*
X165599256Y-85425957D01*
X165407441Y-85346504D01*
X165203810Y-85306000D01*
X164996190Y-85306000D01*
X164792559Y-85346504D01*
X164600744Y-85425957D01*
X164428114Y-85541305D01*
X164281305Y-85688114D01*
X164165957Y-85860744D01*
X164086504Y-86052559D01*
X164046000Y-86256190D01*
X144449000Y-86256190D01*
X144449000Y-84253571D01*
X151247870Y-84253571D01*
X151354593Y-84470009D01*
X151501491Y-84661468D01*
X151682918Y-84820590D01*
X151891902Y-84941260D01*
X151966431Y-84972119D01*
X152152000Y-84928343D01*
X152152000Y-84068000D01*
X152648000Y-84068000D01*
X152648000Y-84928343D01*
X152833569Y-84972119D01*
X152908098Y-84941260D01*
X153117082Y-84820590D01*
X153298509Y-84661468D01*
X153445407Y-84470009D01*
X153552130Y-84253571D01*
X153510521Y-84068000D01*
X152648000Y-84068000D01*
X152152000Y-84068000D01*
X151289479Y-84068000D01*
X151247870Y-84253571D01*
X144449000Y-84253571D01*
X144449000Y-83820000D01*
X153830659Y-83820000D01*
X153851975Y-84036422D01*
X153915103Y-84244526D01*
X154017617Y-84436317D01*
X154155577Y-84604423D01*
X154323683Y-84742383D01*
X154515474Y-84844897D01*
X154723578Y-84908025D01*
X154885773Y-84924000D01*
X154994227Y-84924000D01*
X155156422Y-84908025D01*
X155364526Y-84844897D01*
X155556317Y-84742383D01*
X155724423Y-84604423D01*
X155862383Y-84436317D01*
X155964897Y-84244526D01*
X156028025Y-84036422D01*
X156049341Y-83820000D01*
X156028025Y-83603578D01*
X155964897Y-83395474D01*
X155862383Y-83203683D01*
X155724423Y-83035577D01*
X155644517Y-82970000D01*
X156374772Y-82970000D01*
X156374772Y-84670000D01*
X156379676Y-84719793D01*
X156394200Y-84767672D01*
X156417786Y-84811797D01*
X156449527Y-84850473D01*
X156488203Y-84882214D01*
X156532328Y-84905800D01*
X156580207Y-84920324D01*
X156630000Y-84925228D01*
X158330000Y-84925228D01*
X158379793Y-84920324D01*
X158427672Y-84905800D01*
X158471797Y-84882214D01*
X158510473Y-84850473D01*
X158542214Y-84811797D01*
X158565800Y-84767672D01*
X158580324Y-84719793D01*
X158585228Y-84670000D01*
X158585228Y-83716190D01*
X164046000Y-83716190D01*
X164046000Y-83923810D01*
X164086504Y-84127441D01*
X164165957Y-84319256D01*
X164281305Y-84491886D01*
X164428114Y-84638695D01*
X164600744Y-84754043D01*
X164792559Y-84833496D01*
X164996190Y-84874000D01*
X165203810Y-84874000D01*
X165407441Y-84833496D01*
X165599256Y-84754043D01*
X165771886Y-84638695D01*
X165918695Y-84491886D01*
X166034043Y-84319256D01*
X166113496Y-84127441D01*
X166154000Y-83923810D01*
X166154000Y-83716190D01*
X179286000Y-83716190D01*
X179286000Y-83923810D01*
X179326504Y-84127441D01*
X179405957Y-84319256D01*
X179521305Y-84491886D01*
X179668114Y-84638695D01*
X179840744Y-84754043D01*
X180032559Y-84833496D01*
X180236190Y-84874000D01*
X180443810Y-84874000D01*
X180647441Y-84833496D01*
X180839256Y-84754043D01*
X181011886Y-84638695D01*
X181158695Y-84491886D01*
X181274043Y-84319256D01*
X181353496Y-84127441D01*
X181394000Y-83923810D01*
X181394000Y-83716190D01*
X181353496Y-83512559D01*
X181274043Y-83320744D01*
X181158695Y-83148114D01*
X181011886Y-83001305D01*
X180839256Y-82885957D01*
X180647441Y-82806504D01*
X180443810Y-82766000D01*
X180236190Y-82766000D01*
X180032559Y-82806504D01*
X179840744Y-82885957D01*
X179668114Y-83001305D01*
X179521305Y-83148114D01*
X179405957Y-83320744D01*
X179326504Y-83512559D01*
X179286000Y-83716190D01*
X166154000Y-83716190D01*
X166113496Y-83512559D01*
X166034043Y-83320744D01*
X165918695Y-83148114D01*
X165771886Y-83001305D01*
X165599256Y-82885957D01*
X165407441Y-82806504D01*
X165203810Y-82766000D01*
X164996190Y-82766000D01*
X164792559Y-82806504D01*
X164600744Y-82885957D01*
X164428114Y-83001305D01*
X164281305Y-83148114D01*
X164165957Y-83320744D01*
X164086504Y-83512559D01*
X164046000Y-83716190D01*
X158585228Y-83716190D01*
X158585228Y-82970000D01*
X158580324Y-82920207D01*
X158565800Y-82872328D01*
X158542214Y-82828203D01*
X158510473Y-82789527D01*
X158471797Y-82757786D01*
X158427672Y-82734200D01*
X158379793Y-82719676D01*
X158330000Y-82714772D01*
X156630000Y-82714772D01*
X156580207Y-82719676D01*
X156532328Y-82734200D01*
X156488203Y-82757786D01*
X156449527Y-82789527D01*
X156417786Y-82828203D01*
X156394200Y-82872328D01*
X156379676Y-82920207D01*
X156374772Y-82970000D01*
X155644517Y-82970000D01*
X155556317Y-82897617D01*
X155364526Y-82795103D01*
X155156422Y-82731975D01*
X154994227Y-82716000D01*
X154885773Y-82716000D01*
X154723578Y-82731975D01*
X154515474Y-82795103D01*
X154323683Y-82897617D01*
X154155577Y-83035577D01*
X154017617Y-83203683D01*
X153915103Y-83395474D01*
X153851975Y-83603578D01*
X153830659Y-83820000D01*
X144449000Y-83820000D01*
X144449000Y-83386429D01*
X151247870Y-83386429D01*
X151289479Y-83572000D01*
X152152000Y-83572000D01*
X152152000Y-82711657D01*
X152648000Y-82711657D01*
X152648000Y-83572000D01*
X153510521Y-83572000D01*
X153552130Y-83386429D01*
X153445407Y-83169991D01*
X153298509Y-82978532D01*
X153117082Y-82819410D01*
X152908098Y-82698740D01*
X152833569Y-82667881D01*
X152648000Y-82711657D01*
X152152000Y-82711657D01*
X151966431Y-82667881D01*
X151891902Y-82698740D01*
X151682918Y-82819410D01*
X151501491Y-82978532D01*
X151354593Y-83169991D01*
X151247870Y-83386429D01*
X144449000Y-83386429D01*
X144449000Y-81713571D01*
X151247870Y-81713571D01*
X151354593Y-81930009D01*
X151501491Y-82121468D01*
X151682918Y-82280590D01*
X151891902Y-82401260D01*
X151966431Y-82432119D01*
X152152000Y-82388343D01*
X152152000Y-81528000D01*
X152648000Y-81528000D01*
X152648000Y-82388343D01*
X152833569Y-82432119D01*
X152908098Y-82401260D01*
X153117082Y-82280590D01*
X153298509Y-82121468D01*
X153445407Y-81930009D01*
X153552130Y-81713571D01*
X153510521Y-81528000D01*
X152648000Y-81528000D01*
X152152000Y-81528000D01*
X151289479Y-81528000D01*
X151247870Y-81713571D01*
X144449000Y-81713571D01*
X144449000Y-81280000D01*
X153830659Y-81280000D01*
X153851975Y-81496422D01*
X153915103Y-81704526D01*
X154017617Y-81896317D01*
X154155577Y-82064423D01*
X154323683Y-82202383D01*
X154515474Y-82304897D01*
X154723578Y-82368025D01*
X154885773Y-82384000D01*
X154994227Y-82384000D01*
X155156422Y-82368025D01*
X155364526Y-82304897D01*
X155556317Y-82202383D01*
X155724423Y-82064423D01*
X155862383Y-81896317D01*
X155964897Y-81704526D01*
X156028025Y-81496422D01*
X156049341Y-81280000D01*
X156028025Y-81063578D01*
X155964897Y-80855474D01*
X155862383Y-80663683D01*
X155724423Y-80495577D01*
X155644517Y-80430000D01*
X156374772Y-80430000D01*
X156374772Y-82130000D01*
X156379676Y-82179793D01*
X156394200Y-82227672D01*
X156417786Y-82271797D01*
X156449527Y-82310473D01*
X156488203Y-82342214D01*
X156532328Y-82365800D01*
X156580207Y-82380324D01*
X156630000Y-82385228D01*
X158330000Y-82385228D01*
X158379793Y-82380324D01*
X158427672Y-82365800D01*
X158471797Y-82342214D01*
X158510473Y-82310473D01*
X158542214Y-82271797D01*
X158565800Y-82227672D01*
X158580324Y-82179793D01*
X158585228Y-82130000D01*
X158585228Y-81176190D01*
X164046000Y-81176190D01*
X164046000Y-81383810D01*
X164086504Y-81587441D01*
X164165957Y-81779256D01*
X164281305Y-81951886D01*
X164428114Y-82098695D01*
X164600744Y-82214043D01*
X164792559Y-82293496D01*
X164996190Y-82334000D01*
X165203810Y-82334000D01*
X165407441Y-82293496D01*
X165599256Y-82214043D01*
X165771886Y-82098695D01*
X165918695Y-81951886D01*
X166034043Y-81779256D01*
X166113496Y-81587441D01*
X166154000Y-81383810D01*
X166154000Y-81176190D01*
X179286000Y-81176190D01*
X179286000Y-81383810D01*
X179326504Y-81587441D01*
X179405957Y-81779256D01*
X179521305Y-81951886D01*
X179668114Y-82098695D01*
X179840744Y-82214043D01*
X180032559Y-82293496D01*
X180236190Y-82334000D01*
X180443810Y-82334000D01*
X180647441Y-82293496D01*
X180839256Y-82214043D01*
X181011886Y-82098695D01*
X181158695Y-81951886D01*
X181274043Y-81779256D01*
X181353496Y-81587441D01*
X181394000Y-81383810D01*
X181394000Y-81176190D01*
X181353496Y-80972559D01*
X181274043Y-80780744D01*
X181158695Y-80608114D01*
X181011886Y-80461305D01*
X180839256Y-80345957D01*
X180647441Y-80266504D01*
X180443810Y-80226000D01*
X180236190Y-80226000D01*
X180032559Y-80266504D01*
X179840744Y-80345957D01*
X179668114Y-80461305D01*
X179521305Y-80608114D01*
X179405957Y-80780744D01*
X179326504Y-80972559D01*
X179286000Y-81176190D01*
X166154000Y-81176190D01*
X166113496Y-80972559D01*
X166034043Y-80780744D01*
X165918695Y-80608114D01*
X165771886Y-80461305D01*
X165599256Y-80345957D01*
X165407441Y-80266504D01*
X165203810Y-80226000D01*
X164996190Y-80226000D01*
X164792559Y-80266504D01*
X164600744Y-80345957D01*
X164428114Y-80461305D01*
X164281305Y-80608114D01*
X164165957Y-80780744D01*
X164086504Y-80972559D01*
X164046000Y-81176190D01*
X158585228Y-81176190D01*
X158585228Y-80430000D01*
X158580324Y-80380207D01*
X158565800Y-80332328D01*
X158542214Y-80288203D01*
X158510473Y-80249527D01*
X158471797Y-80217786D01*
X158427672Y-80194200D01*
X158379793Y-80179676D01*
X158330000Y-80174772D01*
X156630000Y-80174772D01*
X156580207Y-80179676D01*
X156532328Y-80194200D01*
X156488203Y-80217786D01*
X156449527Y-80249527D01*
X156417786Y-80288203D01*
X156394200Y-80332328D01*
X156379676Y-80380207D01*
X156374772Y-80430000D01*
X155644517Y-80430000D01*
X155556317Y-80357617D01*
X155364526Y-80255103D01*
X155156422Y-80191975D01*
X154994227Y-80176000D01*
X154885773Y-80176000D01*
X154723578Y-80191975D01*
X154515474Y-80255103D01*
X154323683Y-80357617D01*
X154155577Y-80495577D01*
X154017617Y-80663683D01*
X153915103Y-80855474D01*
X153851975Y-81063578D01*
X153830659Y-81280000D01*
X144449000Y-81280000D01*
X144449000Y-80846429D01*
X151247870Y-80846429D01*
X151289479Y-81032000D01*
X152152000Y-81032000D01*
X152152000Y-80171657D01*
X152648000Y-80171657D01*
X152648000Y-81032000D01*
X153510521Y-81032000D01*
X153552130Y-80846429D01*
X153445407Y-80629991D01*
X153298509Y-80438532D01*
X153117082Y-80279410D01*
X152908098Y-80158740D01*
X152833569Y-80127881D01*
X152648000Y-80171657D01*
X152152000Y-80171657D01*
X151966431Y-80127881D01*
X151891902Y-80158740D01*
X151682918Y-80279410D01*
X151501491Y-80438532D01*
X151354593Y-80629991D01*
X151247870Y-80846429D01*
X144449000Y-80846429D01*
X144449000Y-79173571D01*
X151247870Y-79173571D01*
X151354593Y-79390009D01*
X151501491Y-79581468D01*
X151682918Y-79740590D01*
X151891902Y-79861260D01*
X151966431Y-79892119D01*
X152152000Y-79848343D01*
X152152000Y-78988000D01*
X152648000Y-78988000D01*
X152648000Y-79848343D01*
X152833569Y-79892119D01*
X152908098Y-79861260D01*
X153117082Y-79740590D01*
X153298509Y-79581468D01*
X153445407Y-79390009D01*
X153552130Y-79173571D01*
X153510521Y-78988000D01*
X152648000Y-78988000D01*
X152152000Y-78988000D01*
X151289479Y-78988000D01*
X151247870Y-79173571D01*
X144449000Y-79173571D01*
X144449000Y-78740000D01*
X153830659Y-78740000D01*
X153851975Y-78956422D01*
X153915103Y-79164526D01*
X154017617Y-79356317D01*
X154155577Y-79524423D01*
X154323683Y-79662383D01*
X154515474Y-79764897D01*
X154723578Y-79828025D01*
X154885773Y-79844000D01*
X154994227Y-79844000D01*
X155156422Y-79828025D01*
X155364526Y-79764897D01*
X155556317Y-79662383D01*
X155724423Y-79524423D01*
X155862383Y-79356317D01*
X155964897Y-79164526D01*
X156028025Y-78956422D01*
X156049341Y-78740000D01*
X156028025Y-78523578D01*
X155964897Y-78315474D01*
X155862383Y-78123683D01*
X155724423Y-77955577D01*
X155644517Y-77890000D01*
X156374772Y-77890000D01*
X156374772Y-79590000D01*
X156379676Y-79639793D01*
X156394200Y-79687672D01*
X156417786Y-79731797D01*
X156449527Y-79770473D01*
X156488203Y-79802214D01*
X156532328Y-79825800D01*
X156580207Y-79840324D01*
X156630000Y-79845228D01*
X158330000Y-79845228D01*
X158379793Y-79840324D01*
X158427672Y-79825800D01*
X158471797Y-79802214D01*
X158510473Y-79770473D01*
X158542214Y-79731797D01*
X158565800Y-79687672D01*
X158580324Y-79639793D01*
X158585228Y-79590000D01*
X158585228Y-78636190D01*
X164046000Y-78636190D01*
X164046000Y-78843810D01*
X164086504Y-79047441D01*
X164165957Y-79239256D01*
X164281305Y-79411886D01*
X164428114Y-79558695D01*
X164600744Y-79674043D01*
X164792559Y-79753496D01*
X164996190Y-79794000D01*
X165203810Y-79794000D01*
X165407441Y-79753496D01*
X165599256Y-79674043D01*
X165771886Y-79558695D01*
X165918695Y-79411886D01*
X166034043Y-79239256D01*
X166113496Y-79047441D01*
X166154000Y-78843810D01*
X166154000Y-78636190D01*
X179286000Y-78636190D01*
X179286000Y-78843810D01*
X179326504Y-79047441D01*
X179405957Y-79239256D01*
X179521305Y-79411886D01*
X179668114Y-79558695D01*
X179840744Y-79674043D01*
X180032559Y-79753496D01*
X180236190Y-79794000D01*
X180443810Y-79794000D01*
X180647441Y-79753496D01*
X180839256Y-79674043D01*
X181011886Y-79558695D01*
X181158695Y-79411886D01*
X181274043Y-79239256D01*
X181353496Y-79047441D01*
X181394000Y-78843810D01*
X181394000Y-78636190D01*
X181353496Y-78432559D01*
X181274043Y-78240744D01*
X181158695Y-78068114D01*
X181011886Y-77921305D01*
X180839256Y-77805957D01*
X180647441Y-77726504D01*
X180443810Y-77686000D01*
X180236190Y-77686000D01*
X180032559Y-77726504D01*
X179840744Y-77805957D01*
X179668114Y-77921305D01*
X179521305Y-78068114D01*
X179405957Y-78240744D01*
X179326504Y-78432559D01*
X179286000Y-78636190D01*
X166154000Y-78636190D01*
X166113496Y-78432559D01*
X166034043Y-78240744D01*
X165918695Y-78068114D01*
X165771886Y-77921305D01*
X165599256Y-77805957D01*
X165407441Y-77726504D01*
X165203810Y-77686000D01*
X164996190Y-77686000D01*
X164792559Y-77726504D01*
X164600744Y-77805957D01*
X164428114Y-77921305D01*
X164281305Y-78068114D01*
X164165957Y-78240744D01*
X164086504Y-78432559D01*
X164046000Y-78636190D01*
X158585228Y-78636190D01*
X158585228Y-77890000D01*
X158580324Y-77840207D01*
X158565800Y-77792328D01*
X158542214Y-77748203D01*
X158510473Y-77709527D01*
X158471797Y-77677786D01*
X158427672Y-77654200D01*
X158379793Y-77639676D01*
X158330000Y-77634772D01*
X156630000Y-77634772D01*
X156580207Y-77639676D01*
X156532328Y-77654200D01*
X156488203Y-77677786D01*
X156449527Y-77709527D01*
X156417786Y-77748203D01*
X156394200Y-77792328D01*
X156379676Y-77840207D01*
X156374772Y-77890000D01*
X155644517Y-77890000D01*
X155556317Y-77817617D01*
X155364526Y-77715103D01*
X155156422Y-77651975D01*
X154994227Y-77636000D01*
X154885773Y-77636000D01*
X154723578Y-77651975D01*
X154515474Y-77715103D01*
X154323683Y-77817617D01*
X154155577Y-77955577D01*
X154017617Y-78123683D01*
X153915103Y-78315474D01*
X153851975Y-78523578D01*
X153830659Y-78740000D01*
X144449000Y-78740000D01*
X144449000Y-78306429D01*
X151247870Y-78306429D01*
X151289479Y-78492000D01*
X152152000Y-78492000D01*
X152152000Y-77631657D01*
X152648000Y-77631657D01*
X152648000Y-78492000D01*
X153510521Y-78492000D01*
X153552130Y-78306429D01*
X153445407Y-78089991D01*
X153298509Y-77898532D01*
X153117082Y-77739410D01*
X152908098Y-77618740D01*
X152833569Y-77587881D01*
X152648000Y-77631657D01*
X152152000Y-77631657D01*
X151966431Y-77587881D01*
X151891902Y-77618740D01*
X151682918Y-77739410D01*
X151501491Y-77898532D01*
X151354593Y-78089991D01*
X151247870Y-78306429D01*
X144449000Y-78306429D01*
X144449000Y-76096190D01*
X164046000Y-76096190D01*
X164046000Y-76303810D01*
X164086504Y-76507441D01*
X164165957Y-76699256D01*
X164281305Y-76871886D01*
X164428114Y-77018695D01*
X164600744Y-77134043D01*
X164792559Y-77213496D01*
X164996190Y-77254000D01*
X165203810Y-77254000D01*
X165407441Y-77213496D01*
X165599256Y-77134043D01*
X165771886Y-77018695D01*
X165918695Y-76871886D01*
X166034043Y-76699256D01*
X166113496Y-76507441D01*
X166154000Y-76303810D01*
X166154000Y-76096190D01*
X179286000Y-76096190D01*
X179286000Y-76303810D01*
X179326504Y-76507441D01*
X179405957Y-76699256D01*
X179521305Y-76871886D01*
X179668114Y-77018695D01*
X179840744Y-77134043D01*
X180032559Y-77213496D01*
X180236190Y-77254000D01*
X180443810Y-77254000D01*
X180647441Y-77213496D01*
X180839256Y-77134043D01*
X181011886Y-77018695D01*
X181158695Y-76871886D01*
X181274043Y-76699256D01*
X181353496Y-76507441D01*
X181394000Y-76303810D01*
X181394000Y-76096190D01*
X181353496Y-75892559D01*
X181274043Y-75700744D01*
X181158695Y-75528114D01*
X181011886Y-75381305D01*
X180839256Y-75265957D01*
X180647441Y-75186504D01*
X180443810Y-75146000D01*
X180236190Y-75146000D01*
X180032559Y-75186504D01*
X179840744Y-75265957D01*
X179668114Y-75381305D01*
X179521305Y-75528114D01*
X179405957Y-75700744D01*
X179326504Y-75892559D01*
X179286000Y-76096190D01*
X166154000Y-76096190D01*
X166113496Y-75892559D01*
X166034043Y-75700744D01*
X165918695Y-75528114D01*
X165771886Y-75381305D01*
X165599256Y-75265957D01*
X165407441Y-75186504D01*
X165203810Y-75146000D01*
X164996190Y-75146000D01*
X164792559Y-75186504D01*
X164600744Y-75265957D01*
X164428114Y-75381305D01*
X164281305Y-75528114D01*
X164165957Y-75700744D01*
X164086504Y-75892559D01*
X164046000Y-76096190D01*
X144449000Y-76096190D01*
X144449000Y-74093571D01*
X151247870Y-74093571D01*
X151354593Y-74310009D01*
X151501491Y-74501468D01*
X151682918Y-74660590D01*
X151891902Y-74781260D01*
X151966431Y-74812119D01*
X152152000Y-74768343D01*
X152152000Y-73908000D01*
X152648000Y-73908000D01*
X152648000Y-74768343D01*
X152833569Y-74812119D01*
X152908098Y-74781260D01*
X153117082Y-74660590D01*
X153298509Y-74501468D01*
X153445407Y-74310009D01*
X153552130Y-74093571D01*
X153510521Y-73908000D01*
X152648000Y-73908000D01*
X152152000Y-73908000D01*
X151289479Y-73908000D01*
X151247870Y-74093571D01*
X144449000Y-74093571D01*
X144449000Y-73660000D01*
X153830659Y-73660000D01*
X153851975Y-73876422D01*
X153915103Y-74084526D01*
X154017617Y-74276317D01*
X154155577Y-74444423D01*
X154323683Y-74582383D01*
X154515474Y-74684897D01*
X154723578Y-74748025D01*
X154885773Y-74764000D01*
X154994227Y-74764000D01*
X155156422Y-74748025D01*
X155364526Y-74684897D01*
X155556317Y-74582383D01*
X155724423Y-74444423D01*
X155862383Y-74276317D01*
X155964897Y-74084526D01*
X156028025Y-73876422D01*
X156049341Y-73660000D01*
X156028025Y-73443578D01*
X155964897Y-73235474D01*
X155862383Y-73043683D01*
X155724423Y-72875577D01*
X155644517Y-72810000D01*
X156374772Y-72810000D01*
X156374772Y-74510000D01*
X156379676Y-74559793D01*
X156394200Y-74607672D01*
X156417786Y-74651797D01*
X156449527Y-74690473D01*
X156488203Y-74722214D01*
X156532328Y-74745800D01*
X156580207Y-74760324D01*
X156630000Y-74765228D01*
X158330000Y-74765228D01*
X158379793Y-74760324D01*
X158427672Y-74745800D01*
X158471797Y-74722214D01*
X158510473Y-74690473D01*
X158542214Y-74651797D01*
X158565800Y-74607672D01*
X158580324Y-74559793D01*
X158585228Y-74510000D01*
X158585228Y-73556190D01*
X164046000Y-73556190D01*
X164046000Y-73763810D01*
X164086504Y-73967441D01*
X164165957Y-74159256D01*
X164281305Y-74331886D01*
X164428114Y-74478695D01*
X164600744Y-74594043D01*
X164792559Y-74673496D01*
X164996190Y-74714000D01*
X165203810Y-74714000D01*
X165407441Y-74673496D01*
X165599256Y-74594043D01*
X165771886Y-74478695D01*
X165918695Y-74331886D01*
X166034043Y-74159256D01*
X166113496Y-73967441D01*
X166154000Y-73763810D01*
X166154000Y-73556190D01*
X179286000Y-73556190D01*
X179286000Y-73763810D01*
X179326504Y-73967441D01*
X179405957Y-74159256D01*
X179521305Y-74331886D01*
X179668114Y-74478695D01*
X179840744Y-74594043D01*
X180032559Y-74673496D01*
X180236190Y-74714000D01*
X180443810Y-74714000D01*
X180647441Y-74673496D01*
X180839256Y-74594043D01*
X181011886Y-74478695D01*
X181158695Y-74331886D01*
X181274043Y-74159256D01*
X181353496Y-73967441D01*
X181394000Y-73763810D01*
X181394000Y-73556190D01*
X181353496Y-73352559D01*
X181274043Y-73160744D01*
X181158695Y-72988114D01*
X181011886Y-72841305D01*
X180839256Y-72725957D01*
X180647441Y-72646504D01*
X180443810Y-72606000D01*
X180236190Y-72606000D01*
X180032559Y-72646504D01*
X179840744Y-72725957D01*
X179668114Y-72841305D01*
X179521305Y-72988114D01*
X179405957Y-73160744D01*
X179326504Y-73352559D01*
X179286000Y-73556190D01*
X166154000Y-73556190D01*
X166113496Y-73352559D01*
X166034043Y-73160744D01*
X165918695Y-72988114D01*
X165771886Y-72841305D01*
X165599256Y-72725957D01*
X165407441Y-72646504D01*
X165203810Y-72606000D01*
X164996190Y-72606000D01*
X164792559Y-72646504D01*
X164600744Y-72725957D01*
X164428114Y-72841305D01*
X164281305Y-72988114D01*
X164165957Y-73160744D01*
X164086504Y-73352559D01*
X164046000Y-73556190D01*
X158585228Y-73556190D01*
X158585228Y-72810000D01*
X158580324Y-72760207D01*
X158565800Y-72712328D01*
X158542214Y-72668203D01*
X158510473Y-72629527D01*
X158471797Y-72597786D01*
X158427672Y-72574200D01*
X158379793Y-72559676D01*
X158330000Y-72554772D01*
X156630000Y-72554772D01*
X156580207Y-72559676D01*
X156532328Y-72574200D01*
X156488203Y-72597786D01*
X156449527Y-72629527D01*
X156417786Y-72668203D01*
X156394200Y-72712328D01*
X156379676Y-72760207D01*
X156374772Y-72810000D01*
X155644517Y-72810000D01*
X155556317Y-72737617D01*
X155364526Y-72635103D01*
X155156422Y-72571975D01*
X154994227Y-72556000D01*
X154885773Y-72556000D01*
X154723578Y-72571975D01*
X154515474Y-72635103D01*
X154323683Y-72737617D01*
X154155577Y-72875577D01*
X154017617Y-73043683D01*
X153915103Y-73235474D01*
X153851975Y-73443578D01*
X153830659Y-73660000D01*
X144449000Y-73660000D01*
X144449000Y-73226429D01*
X151247870Y-73226429D01*
X151289479Y-73412000D01*
X152152000Y-73412000D01*
X152152000Y-72551657D01*
X152648000Y-72551657D01*
X152648000Y-73412000D01*
X153510521Y-73412000D01*
X153552130Y-73226429D01*
X153445407Y-73009991D01*
X153298509Y-72818532D01*
X153117082Y-72659410D01*
X152908098Y-72538740D01*
X152833569Y-72507881D01*
X152648000Y-72551657D01*
X152152000Y-72551657D01*
X151966431Y-72507881D01*
X151891902Y-72538740D01*
X151682918Y-72659410D01*
X151501491Y-72818532D01*
X151354593Y-73009991D01*
X151247870Y-73226429D01*
X144449000Y-73226429D01*
X144449000Y-71553571D01*
X151247870Y-71553571D01*
X151354593Y-71770009D01*
X151501491Y-71961468D01*
X151682918Y-72120590D01*
X151891902Y-72241260D01*
X151966431Y-72272119D01*
X152152000Y-72228343D01*
X152152000Y-71368000D01*
X152648000Y-71368000D01*
X152648000Y-72228343D01*
X152833569Y-72272119D01*
X152908098Y-72241260D01*
X153117082Y-72120590D01*
X153298509Y-71961468D01*
X153445407Y-71770009D01*
X153552130Y-71553571D01*
X153510521Y-71368000D01*
X152648000Y-71368000D01*
X152152000Y-71368000D01*
X151289479Y-71368000D01*
X151247870Y-71553571D01*
X144449000Y-71553571D01*
X144449000Y-71120000D01*
X153830659Y-71120000D01*
X153851975Y-71336422D01*
X153915103Y-71544526D01*
X154017617Y-71736317D01*
X154155577Y-71904423D01*
X154323683Y-72042383D01*
X154515474Y-72144897D01*
X154723578Y-72208025D01*
X154885773Y-72224000D01*
X154994227Y-72224000D01*
X155156422Y-72208025D01*
X155364526Y-72144897D01*
X155556317Y-72042383D01*
X155724423Y-71904423D01*
X155862383Y-71736317D01*
X155964897Y-71544526D01*
X156028025Y-71336422D01*
X156049341Y-71120000D01*
X156028025Y-70903578D01*
X155964897Y-70695474D01*
X155862383Y-70503683D01*
X155724423Y-70335577D01*
X155644517Y-70270000D01*
X156374772Y-70270000D01*
X156374772Y-71970000D01*
X156379676Y-72019793D01*
X156394200Y-72067672D01*
X156417786Y-72111797D01*
X156449527Y-72150473D01*
X156488203Y-72182214D01*
X156532328Y-72205800D01*
X156580207Y-72220324D01*
X156630000Y-72225228D01*
X158330000Y-72225228D01*
X158379793Y-72220324D01*
X158427672Y-72205800D01*
X158471797Y-72182214D01*
X158510473Y-72150473D01*
X158542214Y-72111797D01*
X158565800Y-72067672D01*
X158580324Y-72019793D01*
X158585228Y-71970000D01*
X158585228Y-71016190D01*
X164046000Y-71016190D01*
X164046000Y-71223810D01*
X164086504Y-71427441D01*
X164165957Y-71619256D01*
X164281305Y-71791886D01*
X164428114Y-71938695D01*
X164600744Y-72054043D01*
X164792559Y-72133496D01*
X164996190Y-72174000D01*
X165203810Y-72174000D01*
X165407441Y-72133496D01*
X165599256Y-72054043D01*
X165771886Y-71938695D01*
X165918695Y-71791886D01*
X166034043Y-71619256D01*
X166113496Y-71427441D01*
X166154000Y-71223810D01*
X166154000Y-71016190D01*
X176746000Y-71016190D01*
X176746000Y-71223810D01*
X176786504Y-71427441D01*
X176865957Y-71619256D01*
X176981305Y-71791886D01*
X177128114Y-71938695D01*
X177300744Y-72054043D01*
X177492559Y-72133496D01*
X177696190Y-72174000D01*
X177903810Y-72174000D01*
X178107441Y-72133496D01*
X178299256Y-72054043D01*
X178309859Y-72046958D01*
X179763767Y-72046958D01*
X179858506Y-72204644D01*
X180079360Y-72277737D01*
X180310232Y-72306340D01*
X180542247Y-72289352D01*
X180766491Y-72227426D01*
X180821494Y-72204644D01*
X180916233Y-72046958D01*
X180340000Y-71470725D01*
X179763767Y-72046958D01*
X178309859Y-72046958D01*
X178471886Y-71938695D01*
X178618695Y-71791886D01*
X178734043Y-71619256D01*
X178813496Y-71427441D01*
X178854000Y-71223810D01*
X178854000Y-71090232D01*
X179153660Y-71090232D01*
X179170648Y-71322247D01*
X179232574Y-71546491D01*
X179255356Y-71601494D01*
X179413042Y-71696233D01*
X179989275Y-71120000D01*
X180690725Y-71120000D01*
X181266958Y-71696233D01*
X181424644Y-71601494D01*
X181497737Y-71380640D01*
X181526340Y-71149768D01*
X181509352Y-70917753D01*
X181447426Y-70693509D01*
X181424644Y-70638506D01*
X181266958Y-70543767D01*
X180690725Y-71120000D01*
X179989275Y-71120000D01*
X179413042Y-70543767D01*
X179255356Y-70638506D01*
X179182263Y-70859360D01*
X179153660Y-71090232D01*
X178854000Y-71090232D01*
X178854000Y-71016190D01*
X178813496Y-70812559D01*
X178734043Y-70620744D01*
X178618695Y-70448114D01*
X178471886Y-70301305D01*
X178309860Y-70193042D01*
X179763767Y-70193042D01*
X180340000Y-70769275D01*
X180916233Y-70193042D01*
X180821494Y-70035356D01*
X180600640Y-69962263D01*
X180369768Y-69933660D01*
X180137753Y-69950648D01*
X179913509Y-70012574D01*
X179858506Y-70035356D01*
X179763767Y-70193042D01*
X178309860Y-70193042D01*
X178299256Y-70185957D01*
X178107441Y-70106504D01*
X177903810Y-70066000D01*
X177696190Y-70066000D01*
X177492559Y-70106504D01*
X177300744Y-70185957D01*
X177128114Y-70301305D01*
X176981305Y-70448114D01*
X176865957Y-70620744D01*
X176786504Y-70812559D01*
X176746000Y-71016190D01*
X166154000Y-71016190D01*
X166113496Y-70812559D01*
X166034043Y-70620744D01*
X165918695Y-70448114D01*
X165771886Y-70301305D01*
X165599256Y-70185957D01*
X165407441Y-70106504D01*
X165203810Y-70066000D01*
X164996190Y-70066000D01*
X164792559Y-70106504D01*
X164600744Y-70185957D01*
X164428114Y-70301305D01*
X164281305Y-70448114D01*
X164165957Y-70620744D01*
X164086504Y-70812559D01*
X164046000Y-71016190D01*
X158585228Y-71016190D01*
X158585228Y-70270000D01*
X158580324Y-70220207D01*
X158565800Y-70172328D01*
X158542214Y-70128203D01*
X158510473Y-70089527D01*
X158471797Y-70057786D01*
X158427672Y-70034200D01*
X158379793Y-70019676D01*
X158330000Y-70014772D01*
X156630000Y-70014772D01*
X156580207Y-70019676D01*
X156532328Y-70034200D01*
X156488203Y-70057786D01*
X156449527Y-70089527D01*
X156417786Y-70128203D01*
X156394200Y-70172328D01*
X156379676Y-70220207D01*
X156374772Y-70270000D01*
X155644517Y-70270000D01*
X155556317Y-70197617D01*
X155364526Y-70095103D01*
X155156422Y-70031975D01*
X154994227Y-70016000D01*
X154885773Y-70016000D01*
X154723578Y-70031975D01*
X154515474Y-70095103D01*
X154323683Y-70197617D01*
X154155577Y-70335577D01*
X154017617Y-70503683D01*
X153915103Y-70695474D01*
X153851975Y-70903578D01*
X153830659Y-71120000D01*
X144449000Y-71120000D01*
X144449000Y-70686429D01*
X151247870Y-70686429D01*
X151289479Y-70872000D01*
X152152000Y-70872000D01*
X152152000Y-70011657D01*
X152648000Y-70011657D01*
X152648000Y-70872000D01*
X153510521Y-70872000D01*
X153552130Y-70686429D01*
X153445407Y-70469991D01*
X153298509Y-70278532D01*
X153117082Y-70119410D01*
X152908098Y-69998740D01*
X152833569Y-69967881D01*
X152648000Y-70011657D01*
X152152000Y-70011657D01*
X151966431Y-69967881D01*
X151891902Y-69998740D01*
X151682918Y-70119410D01*
X151501491Y-70278532D01*
X151354593Y-70469991D01*
X151247870Y-70686429D01*
X144449000Y-70686429D01*
X144449000Y-69013571D01*
X151247870Y-69013571D01*
X151354593Y-69230009D01*
X151501491Y-69421468D01*
X151682918Y-69580590D01*
X151891902Y-69701260D01*
X151966431Y-69732119D01*
X152152000Y-69688343D01*
X152152000Y-68828000D01*
X152648000Y-68828000D01*
X152648000Y-69688343D01*
X152833569Y-69732119D01*
X152908098Y-69701260D01*
X153117082Y-69580590D01*
X153298509Y-69421468D01*
X153445407Y-69230009D01*
X153552130Y-69013571D01*
X153510521Y-68828000D01*
X152648000Y-68828000D01*
X152152000Y-68828000D01*
X151289479Y-68828000D01*
X151247870Y-69013571D01*
X144449000Y-69013571D01*
X144449000Y-68580000D01*
X153830659Y-68580000D01*
X153851975Y-68796422D01*
X153915103Y-69004526D01*
X154017617Y-69196317D01*
X154155577Y-69364423D01*
X154323683Y-69502383D01*
X154515474Y-69604897D01*
X154723578Y-69668025D01*
X154885773Y-69684000D01*
X154994227Y-69684000D01*
X155156422Y-69668025D01*
X155364526Y-69604897D01*
X155556317Y-69502383D01*
X155724423Y-69364423D01*
X155862383Y-69196317D01*
X155964897Y-69004526D01*
X156028025Y-68796422D01*
X156049341Y-68580000D01*
X156028025Y-68363578D01*
X155964897Y-68155474D01*
X155862383Y-67963683D01*
X155724423Y-67795577D01*
X155644517Y-67730000D01*
X156374772Y-67730000D01*
X156374772Y-69430000D01*
X156379676Y-69479793D01*
X156394200Y-69527672D01*
X156417786Y-69571797D01*
X156449527Y-69610473D01*
X156488203Y-69642214D01*
X156532328Y-69665800D01*
X156580207Y-69680324D01*
X156630000Y-69685228D01*
X158330000Y-69685228D01*
X158379793Y-69680324D01*
X158427672Y-69665800D01*
X158471797Y-69642214D01*
X158510473Y-69610473D01*
X158542214Y-69571797D01*
X158565800Y-69527672D01*
X158572083Y-69506958D01*
X164523767Y-69506958D01*
X164618506Y-69664644D01*
X164839360Y-69737737D01*
X165070232Y-69766340D01*
X165302247Y-69749352D01*
X165526491Y-69687426D01*
X165581494Y-69664644D01*
X165676233Y-69506958D01*
X165100000Y-68930725D01*
X164523767Y-69506958D01*
X158572083Y-69506958D01*
X158580324Y-69479793D01*
X158585228Y-69430000D01*
X158585228Y-68550232D01*
X163913660Y-68550232D01*
X163930648Y-68782247D01*
X163992574Y-69006491D01*
X164015356Y-69061494D01*
X164173042Y-69156233D01*
X164749275Y-68580000D01*
X165450725Y-68580000D01*
X166026958Y-69156233D01*
X166184644Y-69061494D01*
X166257737Y-68840640D01*
X166286340Y-68609768D01*
X166275673Y-68464076D01*
X179163000Y-68464076D01*
X179163000Y-68695924D01*
X179208231Y-68923318D01*
X179296956Y-69137519D01*
X179425764Y-69330294D01*
X179589706Y-69494236D01*
X179782481Y-69623044D01*
X179996682Y-69711769D01*
X180224076Y-69757000D01*
X180455924Y-69757000D01*
X180683318Y-69711769D01*
X180897519Y-69623044D01*
X181090294Y-69494236D01*
X181254236Y-69330294D01*
X181383044Y-69137519D01*
X181471769Y-68923318D01*
X181517000Y-68695924D01*
X181517000Y-68464076D01*
X181471769Y-68236682D01*
X181383044Y-68022481D01*
X181254236Y-67829706D01*
X181090294Y-67665764D01*
X180897519Y-67536956D01*
X180683318Y-67448231D01*
X180455924Y-67403000D01*
X180224076Y-67403000D01*
X179996682Y-67448231D01*
X179782481Y-67536956D01*
X179589706Y-67665764D01*
X179425764Y-67829706D01*
X179296956Y-68022481D01*
X179208231Y-68236682D01*
X179163000Y-68464076D01*
X166275673Y-68464076D01*
X166269352Y-68377753D01*
X166207426Y-68153509D01*
X166184644Y-68098506D01*
X166026958Y-68003767D01*
X165450725Y-68580000D01*
X164749275Y-68580000D01*
X164173042Y-68003767D01*
X164015356Y-68098506D01*
X163942263Y-68319360D01*
X163913660Y-68550232D01*
X158585228Y-68550232D01*
X158585228Y-67730000D01*
X158580324Y-67680207D01*
X158572084Y-67653042D01*
X164523767Y-67653042D01*
X165100000Y-68229275D01*
X165676233Y-67653042D01*
X165581494Y-67495356D01*
X165360640Y-67422263D01*
X165129768Y-67393660D01*
X164897753Y-67410648D01*
X164673509Y-67472574D01*
X164618506Y-67495356D01*
X164523767Y-67653042D01*
X158572084Y-67653042D01*
X158565800Y-67632328D01*
X158542214Y-67588203D01*
X158510473Y-67549527D01*
X158471797Y-67517786D01*
X158427672Y-67494200D01*
X158379793Y-67479676D01*
X158330000Y-67474772D01*
X156630000Y-67474772D01*
X156580207Y-67479676D01*
X156532328Y-67494200D01*
X156488203Y-67517786D01*
X156449527Y-67549527D01*
X156417786Y-67588203D01*
X156394200Y-67632328D01*
X156379676Y-67680207D01*
X156374772Y-67730000D01*
X155644517Y-67730000D01*
X155556317Y-67657617D01*
X155364526Y-67555103D01*
X155156422Y-67491975D01*
X154994227Y-67476000D01*
X154885773Y-67476000D01*
X154723578Y-67491975D01*
X154515474Y-67555103D01*
X154323683Y-67657617D01*
X154155577Y-67795577D01*
X154017617Y-67963683D01*
X153915103Y-68155474D01*
X153851975Y-68363578D01*
X153830659Y-68580000D01*
X144449000Y-68580000D01*
X144449000Y-68146429D01*
X151247870Y-68146429D01*
X151289479Y-68332000D01*
X152152000Y-68332000D01*
X152152000Y-67471657D01*
X152648000Y-67471657D01*
X152648000Y-68332000D01*
X153510521Y-68332000D01*
X153552130Y-68146429D01*
X153445407Y-67929991D01*
X153298509Y-67738532D01*
X153117082Y-67579410D01*
X152908098Y-67458740D01*
X152833569Y-67427881D01*
X152648000Y-67471657D01*
X152152000Y-67471657D01*
X151966431Y-67427881D01*
X151891902Y-67458740D01*
X151682918Y-67579410D01*
X151501491Y-67738532D01*
X151354593Y-67929991D01*
X151247870Y-68146429D01*
X144449000Y-68146429D01*
X144449000Y-64350000D01*
X151167157Y-64350000D01*
X151174513Y-64424689D01*
X151196299Y-64496508D01*
X151231678Y-64562696D01*
X151279289Y-64620711D01*
X151337304Y-64668322D01*
X151403492Y-64703701D01*
X151475311Y-64725487D01*
X151550000Y-64732843D01*
X152031750Y-64731000D01*
X152127000Y-64635750D01*
X152127000Y-63773000D01*
X152673000Y-63773000D01*
X152673000Y-64635750D01*
X152768250Y-64731000D01*
X153250000Y-64732843D01*
X153324689Y-64725487D01*
X153396508Y-64703701D01*
X153462696Y-64668322D01*
X153520711Y-64620711D01*
X153568322Y-64562696D01*
X153603701Y-64496508D01*
X153625487Y-64424689D01*
X153632843Y-64350000D01*
X153631000Y-63868250D01*
X153535750Y-63773000D01*
X152673000Y-63773000D01*
X152127000Y-63773000D01*
X151264250Y-63773000D01*
X151169000Y-63868250D01*
X151167157Y-64350000D01*
X144449000Y-64350000D01*
X144449000Y-63500000D01*
X153830659Y-63500000D01*
X153851975Y-63716422D01*
X153915103Y-63924526D01*
X154017617Y-64116317D01*
X154155577Y-64284423D01*
X154323683Y-64422383D01*
X154515474Y-64524897D01*
X154723578Y-64588025D01*
X154885773Y-64604000D01*
X154994227Y-64604000D01*
X155156422Y-64588025D01*
X155364526Y-64524897D01*
X155556317Y-64422383D01*
X155644516Y-64350000D01*
X161327157Y-64350000D01*
X161334513Y-64424689D01*
X161356299Y-64496508D01*
X161391678Y-64562696D01*
X161439289Y-64620711D01*
X161497304Y-64668322D01*
X161563492Y-64703701D01*
X161635311Y-64725487D01*
X161710000Y-64732843D01*
X162216750Y-64731000D01*
X162312000Y-64635750D01*
X162312000Y-63748000D01*
X162808000Y-63748000D01*
X162808000Y-64635750D01*
X162903250Y-64731000D01*
X163410000Y-64732843D01*
X163484689Y-64725487D01*
X163556508Y-64703701D01*
X163622696Y-64668322D01*
X163680711Y-64620711D01*
X163728322Y-64562696D01*
X163763701Y-64496508D01*
X163785487Y-64424689D01*
X163792843Y-64350000D01*
X163791000Y-63843250D01*
X163695750Y-63748000D01*
X162808000Y-63748000D01*
X162312000Y-63748000D01*
X161424250Y-63748000D01*
X161329000Y-63843250D01*
X161327157Y-64350000D01*
X155644516Y-64350000D01*
X155724423Y-64284423D01*
X155862383Y-64116317D01*
X155964897Y-63924526D01*
X156028025Y-63716422D01*
X156049341Y-63500000D01*
X163867064Y-63500000D01*
X163890755Y-63740534D01*
X163960916Y-63971824D01*
X164074851Y-64184983D01*
X164228183Y-64371817D01*
X164415017Y-64525149D01*
X164628176Y-64639084D01*
X164859466Y-64709245D01*
X165039732Y-64727000D01*
X165160268Y-64727000D01*
X165340534Y-64709245D01*
X165571824Y-64639084D01*
X165784983Y-64525149D01*
X165971817Y-64371817D01*
X166125149Y-64184983D01*
X166239084Y-63971824D01*
X166309245Y-63740534D01*
X166332936Y-63500000D01*
X166309245Y-63259466D01*
X166239084Y-63028176D01*
X166125149Y-62815017D01*
X165971817Y-62628183D01*
X165784983Y-62474851D01*
X165571824Y-62360916D01*
X165340534Y-62290755D01*
X165160268Y-62273000D01*
X165039732Y-62273000D01*
X164859466Y-62290755D01*
X164628176Y-62360916D01*
X164415017Y-62474851D01*
X164228183Y-62628183D01*
X164074851Y-62815017D01*
X163960916Y-63028176D01*
X163890755Y-63259466D01*
X163867064Y-63500000D01*
X156049341Y-63500000D01*
X156028025Y-63283578D01*
X155964897Y-63075474D01*
X155862383Y-62883683D01*
X155724423Y-62715577D01*
X155644517Y-62650000D01*
X161327157Y-62650000D01*
X161329000Y-63156750D01*
X161424250Y-63252000D01*
X162312000Y-63252000D01*
X162312000Y-62364250D01*
X162808000Y-62364250D01*
X162808000Y-63252000D01*
X163695750Y-63252000D01*
X163791000Y-63156750D01*
X163792843Y-62650000D01*
X163785487Y-62575311D01*
X163763701Y-62503492D01*
X163728322Y-62437304D01*
X163680711Y-62379289D01*
X163622696Y-62331678D01*
X163556508Y-62296299D01*
X163484689Y-62274513D01*
X163410000Y-62267157D01*
X162903250Y-62269000D01*
X162808000Y-62364250D01*
X162312000Y-62364250D01*
X162216750Y-62269000D01*
X161710000Y-62267157D01*
X161635311Y-62274513D01*
X161563492Y-62296299D01*
X161497304Y-62331678D01*
X161439289Y-62379289D01*
X161391678Y-62437304D01*
X161356299Y-62503492D01*
X161334513Y-62575311D01*
X161327157Y-62650000D01*
X155644517Y-62650000D01*
X155556317Y-62577617D01*
X155364526Y-62475103D01*
X155156422Y-62411975D01*
X154994227Y-62396000D01*
X154885773Y-62396000D01*
X154723578Y-62411975D01*
X154515474Y-62475103D01*
X154323683Y-62577617D01*
X154155577Y-62715577D01*
X154017617Y-62883683D01*
X153915103Y-63075474D01*
X153851975Y-63283578D01*
X153830659Y-63500000D01*
X144449000Y-63500000D01*
X144449000Y-62650000D01*
X151167157Y-62650000D01*
X151169000Y-63131750D01*
X151264250Y-63227000D01*
X152127000Y-63227000D01*
X152127000Y-62364250D01*
X152673000Y-62364250D01*
X152673000Y-63227000D01*
X153535750Y-63227000D01*
X153631000Y-63131750D01*
X153632843Y-62650000D01*
X153625487Y-62575311D01*
X153603701Y-62503492D01*
X153568322Y-62437304D01*
X153520711Y-62379289D01*
X153462696Y-62331678D01*
X153396508Y-62296299D01*
X153324689Y-62274513D01*
X153250000Y-62267157D01*
X152768250Y-62269000D01*
X152673000Y-62364250D01*
X152127000Y-62364250D01*
X152031750Y-62269000D01*
X151550000Y-62267157D01*
X151475311Y-62274513D01*
X151403492Y-62296299D01*
X151337304Y-62331678D01*
X151279289Y-62379289D01*
X151231678Y-62437304D01*
X151196299Y-62503492D01*
X151174513Y-62575311D01*
X151167157Y-62650000D01*
X144449000Y-62650000D01*
X144449000Y-61580076D01*
X144444600Y-61535406D01*
X144434459Y-61501975D01*
X144444185Y-61402777D01*
X144500012Y-61217870D01*
X144590688Y-61047332D01*
X144712762Y-60897653D01*
X144861590Y-60774532D01*
X145031493Y-60682666D01*
X145215997Y-60625552D01*
X145321864Y-60614425D01*
X145355406Y-60624600D01*
M02*
