G04 #@! TF.GenerationSoftware,KiCad,Pcbnew,(5.1.5)-3*
G04 #@! TF.CreationDate,2020-04-18T15:08:38-07:00*
G04 #@! TF.ProjectId,ServoPower2,53657276-6f50-46f7-9765-72322e6b6963,rev?*
G04 #@! TF.SameCoordinates,Original*
G04 #@! TF.FileFunction,Legend,Top*
G04 #@! TF.FilePolarity,Positive*
%FSLAX46Y46*%
G04 Gerber Fmt 4.6, Leading zero omitted, Abs format (unit mm)*
G04 Created by KiCad (PCBNEW (5.1.5)-3) date 2020-04-18 15:08:38*
%MOMM*%
%LPD*%
G04 APERTURE LIST*
%ADD10C,0.200000*%
%ADD11C,0.070000*%
%ADD12C,0.120000*%
%ADD13C,0.150000*%
%ADD14C,0.100000*%
G04 APERTURE END LIST*
D10*
X159438095Y-63542857D02*
X160961904Y-63542857D01*
X166878095Y-63542857D02*
X168401904Y-63542857D01*
X167640000Y-64304761D02*
X167640000Y-62780952D01*
D11*
X151027142Y-65635714D02*
X151408095Y-65635714D01*
X153550952Y-65635714D02*
X153931904Y-65635714D01*
X153741428Y-65826190D02*
X153741428Y-65445238D01*
X156050952Y-65802380D02*
X156122380Y-65826190D01*
X156241428Y-65826190D01*
X156289047Y-65802380D01*
X156312857Y-65778571D01*
X156336666Y-65730952D01*
X156336666Y-65683333D01*
X156312857Y-65635714D01*
X156289047Y-65611904D01*
X156241428Y-65588095D01*
X156146190Y-65564285D01*
X156098571Y-65540476D01*
X156074761Y-65516666D01*
X156050952Y-65469047D01*
X156050952Y-65421428D01*
X156074761Y-65373809D01*
X156098571Y-65350000D01*
X156146190Y-65326190D01*
X156265238Y-65326190D01*
X156336666Y-65350000D01*
D12*
X151376190Y-60702380D02*
X151709523Y-61702380D01*
X152042857Y-60702380D01*
X152376190Y-61702380D02*
X152376190Y-60702380D01*
X152376190Y-61083333D02*
X152471428Y-61035714D01*
X152661904Y-61035714D01*
X152757142Y-61083333D01*
X152804761Y-61130952D01*
X152852380Y-61226190D01*
X152852380Y-61511904D01*
X152804761Y-61607142D01*
X152757142Y-61654761D01*
X152661904Y-61702380D01*
X152471428Y-61702380D01*
X152376190Y-61654761D01*
X153709523Y-61702380D02*
X153709523Y-61178571D01*
X153661904Y-61083333D01*
X153566666Y-61035714D01*
X153376190Y-61035714D01*
X153280952Y-61083333D01*
X153709523Y-61654761D02*
X153614285Y-61702380D01*
X153376190Y-61702380D01*
X153280952Y-61654761D01*
X153233333Y-61559523D01*
X153233333Y-61464285D01*
X153280952Y-61369047D01*
X153376190Y-61321428D01*
X153614285Y-61321428D01*
X153709523Y-61273809D01*
X154042857Y-61035714D02*
X154423809Y-61035714D01*
X154185714Y-60702380D02*
X154185714Y-61559523D01*
X154233333Y-61654761D01*
X154328571Y-61702380D01*
X154423809Y-61702380D01*
X159319047Y-61802380D02*
X158985714Y-61326190D01*
X158747619Y-61802380D02*
X158747619Y-60802380D01*
X159128571Y-60802380D01*
X159223809Y-60850000D01*
X159271428Y-60897619D01*
X159319047Y-60992857D01*
X159319047Y-61135714D01*
X159271428Y-61230952D01*
X159223809Y-61278571D01*
X159128571Y-61326190D01*
X158747619Y-61326190D01*
X160128571Y-61754761D02*
X160033333Y-61802380D01*
X159842857Y-61802380D01*
X159747619Y-61754761D01*
X159700000Y-61659523D01*
X159700000Y-61278571D01*
X159747619Y-61183333D01*
X159842857Y-61135714D01*
X160033333Y-61135714D01*
X160128571Y-61183333D01*
X160176190Y-61278571D01*
X160176190Y-61373809D01*
X159700000Y-61469047D01*
X161033333Y-61135714D02*
X161033333Y-61945238D01*
X160985714Y-62040476D01*
X160938095Y-62088095D01*
X160842857Y-62135714D01*
X160700000Y-62135714D01*
X160604761Y-62088095D01*
X161033333Y-61754761D02*
X160938095Y-61802380D01*
X160747619Y-61802380D01*
X160652380Y-61754761D01*
X160604761Y-61707142D01*
X160557142Y-61611904D01*
X160557142Y-61326190D01*
X160604761Y-61230952D01*
X160652380Y-61183333D01*
X160747619Y-61135714D01*
X160938095Y-61135714D01*
X161033333Y-61183333D01*
X161938095Y-61135714D02*
X161938095Y-61802380D01*
X161509523Y-61135714D02*
X161509523Y-61659523D01*
X161557142Y-61754761D01*
X161652380Y-61802380D01*
X161795238Y-61802380D01*
X161890476Y-61754761D01*
X161938095Y-61707142D01*
X162557142Y-61802380D02*
X162461904Y-61754761D01*
X162414285Y-61659523D01*
X162414285Y-60802380D01*
X163366666Y-61802380D02*
X163366666Y-61278571D01*
X163319047Y-61183333D01*
X163223809Y-61135714D01*
X163033333Y-61135714D01*
X162938095Y-61183333D01*
X163366666Y-61754761D02*
X163271428Y-61802380D01*
X163033333Y-61802380D01*
X162938095Y-61754761D01*
X162890476Y-61659523D01*
X162890476Y-61564285D01*
X162938095Y-61469047D01*
X163033333Y-61421428D01*
X163271428Y-61421428D01*
X163366666Y-61373809D01*
X163700000Y-61135714D02*
X164080952Y-61135714D01*
X163842857Y-60802380D02*
X163842857Y-61659523D01*
X163890476Y-61754761D01*
X163985714Y-61802380D01*
X164080952Y-61802380D01*
X164795238Y-61754761D02*
X164700000Y-61802380D01*
X164509523Y-61802380D01*
X164414285Y-61754761D01*
X164366666Y-61659523D01*
X164366666Y-61278571D01*
X164414285Y-61183333D01*
X164509523Y-61135714D01*
X164700000Y-61135714D01*
X164795238Y-61183333D01*
X164842857Y-61278571D01*
X164842857Y-61373809D01*
X164366666Y-61469047D01*
X165700000Y-61802380D02*
X165700000Y-60802380D01*
X165700000Y-61754761D02*
X165604761Y-61802380D01*
X165414285Y-61802380D01*
X165319047Y-61754761D01*
X165271428Y-61707142D01*
X165223809Y-61611904D01*
X165223809Y-61326190D01*
X165271428Y-61230952D01*
X165319047Y-61183333D01*
X165414285Y-61135714D01*
X165604761Y-61135714D01*
X165700000Y-61183333D01*
X167414285Y-60802380D02*
X166938095Y-60802380D01*
X166890476Y-61278571D01*
X166938095Y-61230952D01*
X167033333Y-61183333D01*
X167271428Y-61183333D01*
X167366666Y-61230952D01*
X167414285Y-61278571D01*
X167461904Y-61373809D01*
X167461904Y-61611904D01*
X167414285Y-61707142D01*
X167366666Y-61754761D01*
X167271428Y-61802380D01*
X167033333Y-61802380D01*
X166938095Y-61754761D01*
X166890476Y-61707142D01*
X167747619Y-60802380D02*
X168080952Y-61802380D01*
X168414285Y-60802380D01*
X168747619Y-61802380D02*
X168747619Y-61135714D01*
X168747619Y-60802380D02*
X168700000Y-60850000D01*
X168747619Y-60897619D01*
X168795238Y-60850000D01*
X168747619Y-60802380D01*
X168747619Y-60897619D01*
X169223809Y-61135714D02*
X169223809Y-61802380D01*
X169223809Y-61230952D02*
X169271428Y-61183333D01*
X169366666Y-61135714D01*
X169509523Y-61135714D01*
X169604761Y-61183333D01*
X169652380Y-61278571D01*
X169652380Y-61802380D01*
D10*
X148463095Y-63642857D02*
X149986904Y-63642857D01*
X156638095Y-63542857D02*
X158161904Y-63542857D01*
X157400000Y-64304761D02*
X157400000Y-62780952D01*
D13*
X147502619Y-78397619D02*
X148502619Y-78397619D01*
X148502619Y-78778571D01*
X148455000Y-78873809D01*
X148407380Y-78921428D01*
X148312142Y-78969047D01*
X148169285Y-78969047D01*
X148074047Y-78921428D01*
X148026428Y-78873809D01*
X147978809Y-78778571D01*
X147978809Y-78397619D01*
X148169285Y-79826190D02*
X147502619Y-79826190D01*
X148169285Y-79397619D02*
X147645476Y-79397619D01*
X147550238Y-79445238D01*
X147502619Y-79540476D01*
X147502619Y-79683333D01*
X147550238Y-79778571D01*
X147597857Y-79826190D01*
X148169285Y-80302380D02*
X147169285Y-80302380D01*
X148121666Y-80302380D02*
X148169285Y-80397619D01*
X148169285Y-80588095D01*
X148121666Y-80683333D01*
X148074047Y-80730952D01*
X147978809Y-80778571D01*
X147693095Y-80778571D01*
X147597857Y-80730952D01*
X147550238Y-80683333D01*
X147502619Y-80588095D01*
X147502619Y-80397619D01*
X147550238Y-80302380D01*
X148169285Y-81207142D02*
X147169285Y-81207142D01*
X148121666Y-81207142D02*
X148169285Y-81302380D01*
X148169285Y-81492857D01*
X148121666Y-81588095D01*
X148074047Y-81635714D01*
X147978809Y-81683333D01*
X147693095Y-81683333D01*
X147597857Y-81635714D01*
X147550238Y-81588095D01*
X147502619Y-81492857D01*
X147502619Y-81302380D01*
X147550238Y-81207142D01*
X147550238Y-82492857D02*
X147502619Y-82397619D01*
X147502619Y-82207142D01*
X147550238Y-82111904D01*
X147645476Y-82064285D01*
X148026428Y-82064285D01*
X148121666Y-82111904D01*
X148169285Y-82207142D01*
X148169285Y-82397619D01*
X148121666Y-82492857D01*
X148026428Y-82540476D01*
X147931190Y-82540476D01*
X147835952Y-82064285D01*
X147502619Y-82969047D02*
X148169285Y-82969047D01*
X147978809Y-82969047D02*
X148074047Y-83016666D01*
X148121666Y-83064285D01*
X148169285Y-83159523D01*
X148169285Y-83254761D01*
X147502619Y-84350000D02*
X148502619Y-84350000D01*
X148502619Y-84730952D01*
X148455000Y-84826190D01*
X148407380Y-84873809D01*
X148312142Y-84921428D01*
X148169285Y-84921428D01*
X148074047Y-84873809D01*
X148026428Y-84826190D01*
X147978809Y-84730952D01*
X147978809Y-84350000D01*
X147502619Y-85350000D02*
X148502619Y-85350000D01*
X148502619Y-85588095D01*
X148455000Y-85730952D01*
X148359761Y-85826190D01*
X148264523Y-85873809D01*
X148074047Y-85921428D01*
X147931190Y-85921428D01*
X147740714Y-85873809D01*
X147645476Y-85826190D01*
X147550238Y-85730952D01*
X147502619Y-85588095D01*
X147502619Y-85350000D01*
X148026428Y-86683333D02*
X147978809Y-86826190D01*
X147931190Y-86873809D01*
X147835952Y-86921428D01*
X147693095Y-86921428D01*
X147597857Y-86873809D01*
X147550238Y-86826190D01*
X147502619Y-86730952D01*
X147502619Y-86350000D01*
X148502619Y-86350000D01*
X148502619Y-86683333D01*
X148455000Y-86778571D01*
X148407380Y-86826190D01*
X148312142Y-86873809D01*
X148216904Y-86873809D01*
X148121666Y-86826190D01*
X148074047Y-86778571D01*
X148026428Y-86683333D01*
X148026428Y-86350000D01*
X148169285Y-88016666D02*
X147502619Y-88254761D01*
X148169285Y-88492857D01*
X148502619Y-89064285D02*
X148502619Y-89159523D01*
X148455000Y-89254761D01*
X148407380Y-89302380D01*
X148312142Y-89350000D01*
X148121666Y-89397619D01*
X147883571Y-89397619D01*
X147693095Y-89350000D01*
X147597857Y-89302380D01*
X147550238Y-89254761D01*
X147502619Y-89159523D01*
X147502619Y-89064285D01*
X147550238Y-88969047D01*
X147597857Y-88921428D01*
X147693095Y-88873809D01*
X147883571Y-88826190D01*
X148121666Y-88826190D01*
X148312142Y-88873809D01*
X148407380Y-88921428D01*
X148455000Y-88969047D01*
X148502619Y-89064285D01*
X147597857Y-89826190D02*
X147550238Y-89873809D01*
X147502619Y-89826190D01*
X147550238Y-89778571D01*
X147597857Y-89826190D01*
X147502619Y-89826190D01*
X148502619Y-90207142D02*
X148502619Y-90826190D01*
X148121666Y-90492857D01*
X148121666Y-90635714D01*
X148074047Y-90730952D01*
X148026428Y-90778571D01*
X147931190Y-90826190D01*
X147693095Y-90826190D01*
X147597857Y-90778571D01*
X147550238Y-90730952D01*
X147502619Y-90635714D01*
X147502619Y-90350000D01*
X147550238Y-90254761D01*
X147597857Y-90207142D01*
X148026428Y-92350000D02*
X148026428Y-92016666D01*
X147502619Y-92016666D02*
X148502619Y-92016666D01*
X148502619Y-92492857D01*
X147550238Y-93254761D02*
X147502619Y-93159523D01*
X147502619Y-92969047D01*
X147550238Y-92873809D01*
X147645476Y-92826190D01*
X148026428Y-92826190D01*
X148121666Y-92873809D01*
X148169285Y-92969047D01*
X148169285Y-93159523D01*
X148121666Y-93254761D01*
X148026428Y-93302380D01*
X147931190Y-93302380D01*
X147835952Y-92826190D01*
X147502619Y-93730952D02*
X148502619Y-93730952D01*
X148121666Y-93730952D02*
X148169285Y-93826190D01*
X148169285Y-94016666D01*
X148121666Y-94111904D01*
X148074047Y-94159523D01*
X147978809Y-94207142D01*
X147693095Y-94207142D01*
X147597857Y-94159523D01*
X147550238Y-94111904D01*
X147502619Y-94016666D01*
X147502619Y-93826190D01*
X147550238Y-93730952D01*
X148455000Y-95350000D02*
X148502619Y-95350000D01*
X148597857Y-95397619D01*
X148645476Y-95445238D01*
X148407380Y-95826190D02*
X148455000Y-95873809D01*
X148502619Y-95969047D01*
X148502619Y-96207142D01*
X148455000Y-96302380D01*
X148407380Y-96350000D01*
X148312142Y-96397619D01*
X148216904Y-96397619D01*
X148074047Y-96350000D01*
X147502619Y-95778571D01*
X147502619Y-96397619D01*
X148502619Y-97016666D02*
X148502619Y-97111904D01*
X148455000Y-97207142D01*
X148407380Y-97254761D01*
X148312142Y-97302380D01*
X148121666Y-97350000D01*
X147883571Y-97350000D01*
X147693095Y-97302380D01*
X147597857Y-97254761D01*
X147550238Y-97207142D01*
X147502619Y-97111904D01*
X147502619Y-97016666D01*
X147550238Y-96921428D01*
X147597857Y-96873809D01*
X147693095Y-96826190D01*
X147883571Y-96778571D01*
X148121666Y-96778571D01*
X148312142Y-96826190D01*
X148407380Y-96873809D01*
X148455000Y-96921428D01*
X148502619Y-97016666D01*
D14*
G36*
X172593000Y-81153000D02*
G01*
X172847000Y-81407000D01*
X172466000Y-81661000D01*
X172212000Y-81407000D01*
X172593000Y-81153000D01*
G37*
X172593000Y-81153000D02*
X172847000Y-81407000D01*
X172466000Y-81661000D01*
X172212000Y-81407000D01*
X172593000Y-81153000D01*
G36*
X172974000Y-81534000D02*
G01*
X173228000Y-81788000D01*
X172847000Y-82042000D01*
X172593000Y-81788000D01*
X172974000Y-81534000D01*
G37*
X172974000Y-81534000D02*
X173228000Y-81788000D01*
X172847000Y-82042000D01*
X172593000Y-81788000D01*
X172974000Y-81534000D01*
G36*
X172212000Y-83439000D02*
G01*
X172466000Y-83693000D01*
X172085000Y-83947000D01*
X171831000Y-83693000D01*
X172212000Y-83439000D01*
G37*
X172212000Y-83439000D02*
X172466000Y-83693000D01*
X172085000Y-83947000D01*
X171831000Y-83693000D01*
X172212000Y-83439000D01*
G36*
X172720000Y-83058000D02*
G01*
X172974000Y-83312000D01*
X172593000Y-83566000D01*
X172339000Y-83312000D01*
X172720000Y-83058000D01*
G37*
X172720000Y-83058000D02*
X172974000Y-83312000D01*
X172593000Y-83566000D01*
X172339000Y-83312000D01*
X172720000Y-83058000D01*
G36*
X173228000Y-82677000D02*
G01*
X173482000Y-82931000D01*
X173101000Y-83185000D01*
X172847000Y-82931000D01*
X173228000Y-82677000D01*
G37*
X173228000Y-82677000D02*
X173482000Y-82931000D01*
X173101000Y-83185000D01*
X172847000Y-82931000D01*
X173228000Y-82677000D01*
G36*
X172339000Y-82677000D02*
G01*
X172593000Y-82931000D01*
X172212000Y-83185000D01*
X171958000Y-82931000D01*
X172339000Y-82677000D01*
G37*
X172339000Y-82677000D02*
X172593000Y-82931000D01*
X172212000Y-83185000D01*
X171958000Y-82931000D01*
X172339000Y-82677000D01*
G36*
X172847000Y-82296000D02*
G01*
X173101000Y-82550000D01*
X172720000Y-82804000D01*
X172466000Y-82550000D01*
X172847000Y-82296000D01*
G37*
X172847000Y-82296000D02*
X173101000Y-82550000D01*
X172720000Y-82804000D01*
X172466000Y-82550000D01*
X172847000Y-82296000D01*
G36*
X173355000Y-81915000D02*
G01*
X173609000Y-82169000D01*
X173228000Y-82423000D01*
X172974000Y-82169000D01*
X173355000Y-81915000D01*
G37*
X173355000Y-81915000D02*
X173609000Y-82169000D01*
X173228000Y-82423000D01*
X172974000Y-82169000D01*
X173355000Y-81915000D01*
D13*
X174625000Y-90170000D02*
X177800000Y-90170000D01*
X174625000Y-92710000D02*
X174625000Y-90170000D01*
X177800000Y-92710000D02*
X174625000Y-92710000D01*
X177800000Y-90170000D02*
X177800000Y-92710000D01*
X163830000Y-67310000D02*
X181610000Y-67310000D01*
X163830000Y-102870000D02*
X163830000Y-67310000D01*
X181610000Y-102870000D02*
X163830000Y-102870000D01*
X181610000Y-67310000D02*
X181610000Y-102870000D01*
X167640000Y-89535000D02*
X167640000Y-79375000D01*
X177800000Y-89535000D02*
X177800000Y-79375000D01*
X177800000Y-79375000D02*
X167640000Y-79375000D01*
X167640000Y-89535000D02*
X177800000Y-89535000D01*
X173990000Y-95250000D02*
X173990000Y-99822000D01*
X171450000Y-95250000D02*
X173990000Y-95250000D01*
X171450000Y-99822000D02*
X171450000Y-95250000D01*
X173990000Y-99822000D02*
X171450000Y-99822000D01*
X168910000Y-72390000D02*
X168910000Y-67310000D01*
X176530000Y-72390000D02*
X176530000Y-67310000D01*
X168910000Y-72390000D02*
X176530000Y-72390000D01*
X176530000Y-66040000D02*
X176530000Y-67310000D01*
X168910000Y-66040000D02*
X176530000Y-66040000D01*
X168910000Y-67310000D02*
X168910000Y-66040000D01*
D12*
X185420000Y-99060000D02*
X185420000Y-69850000D01*
X210820000Y-99060000D02*
X185420000Y-99060000D01*
X210820000Y-69850000D02*
X210820000Y-99060000D01*
X185420000Y-69850000D02*
X210820000Y-69850000D01*
X150475000Y-115910000D02*
X163325000Y-115910000D01*
X166175000Y-113360000D02*
X166175000Y-110210000D01*
X163325000Y-107610000D02*
X150475000Y-107610000D01*
X150475000Y-107610000D02*
X150475000Y-115910000D01*
X163325000Y-115910000D02*
X166175000Y-113360000D01*
X166175000Y-110210000D02*
X163325000Y-107610000D01*
X166430000Y-64830000D02*
X166430000Y-62170000D01*
X163830000Y-64830000D02*
X166430000Y-64830000D01*
X163830000Y-62170000D02*
X166430000Y-62170000D01*
X163830000Y-64830000D02*
X163830000Y-62170000D01*
X162560000Y-64830000D02*
X161230000Y-64830000D01*
X161230000Y-64830000D02*
X161230000Y-63500000D01*
X151070000Y-64830000D02*
X151070000Y-63500000D01*
X152400000Y-64830000D02*
X151070000Y-64830000D01*
X153670000Y-64830000D02*
X153670000Y-62170000D01*
X153670000Y-62170000D02*
X156270000Y-62170000D01*
X153670000Y-64830000D02*
X156270000Y-64830000D01*
X156270000Y-64830000D02*
X156270000Y-62170000D01*
X158810000Y-102810000D02*
X158810000Y-104140000D01*
X157480000Y-102810000D02*
X158810000Y-102810000D01*
X156210000Y-102810000D02*
X156210000Y-105470000D01*
X156210000Y-105470000D02*
X151070000Y-105470000D01*
X156210000Y-102810000D02*
X151070000Y-102810000D01*
X151070000Y-102810000D02*
X151070000Y-105470000D01*
X158810000Y-92650000D02*
X158810000Y-93980000D01*
X157480000Y-92650000D02*
X158810000Y-92650000D01*
X156210000Y-92650000D02*
X156210000Y-95310000D01*
X156210000Y-95310000D02*
X151070000Y-95310000D01*
X156210000Y-92650000D02*
X151070000Y-92650000D01*
X151070000Y-92650000D02*
X151070000Y-95310000D01*
X158810000Y-82490000D02*
X158810000Y-83820000D01*
X157480000Y-82490000D02*
X158810000Y-82490000D01*
X156210000Y-82490000D02*
X156210000Y-85150000D01*
X156210000Y-85150000D02*
X151070000Y-85150000D01*
X156210000Y-82490000D02*
X151070000Y-82490000D01*
X151070000Y-82490000D02*
X151070000Y-85150000D01*
X158810000Y-100270000D02*
X158810000Y-101600000D01*
X157480000Y-100270000D02*
X158810000Y-100270000D01*
X156210000Y-100270000D02*
X156210000Y-102930000D01*
X156210000Y-102930000D02*
X151070000Y-102930000D01*
X156210000Y-100270000D02*
X151070000Y-100270000D01*
X151070000Y-100270000D02*
X151070000Y-102930000D01*
X158810000Y-90110000D02*
X158810000Y-91440000D01*
X157480000Y-90110000D02*
X158810000Y-90110000D01*
X156210000Y-90110000D02*
X156210000Y-92770000D01*
X156210000Y-92770000D02*
X151070000Y-92770000D01*
X156210000Y-90110000D02*
X151070000Y-90110000D01*
X151070000Y-90110000D02*
X151070000Y-92770000D01*
X158810000Y-79950000D02*
X158810000Y-81280000D01*
X157480000Y-79950000D02*
X158810000Y-79950000D01*
X156210000Y-79950000D02*
X156210000Y-82610000D01*
X156210000Y-82610000D02*
X151070000Y-82610000D01*
X156210000Y-79950000D02*
X151070000Y-79950000D01*
X151070000Y-79950000D02*
X151070000Y-82610000D01*
X158810000Y-97730000D02*
X158810000Y-99060000D01*
X157480000Y-97730000D02*
X158810000Y-97730000D01*
X156210000Y-97730000D02*
X156210000Y-100390000D01*
X156210000Y-100390000D02*
X151070000Y-100390000D01*
X156210000Y-97730000D02*
X151070000Y-97730000D01*
X151070000Y-97730000D02*
X151070000Y-100390000D01*
X158810000Y-87570000D02*
X158810000Y-88900000D01*
X157480000Y-87570000D02*
X158810000Y-87570000D01*
X156210000Y-87570000D02*
X156210000Y-90230000D01*
X156210000Y-90230000D02*
X151070000Y-90230000D01*
X156210000Y-87570000D02*
X151070000Y-87570000D01*
X151070000Y-87570000D02*
X151070000Y-90230000D01*
X158810000Y-77410000D02*
X158810000Y-78740000D01*
X157480000Y-77410000D02*
X158810000Y-77410000D01*
X156210000Y-77410000D02*
X156210000Y-80070000D01*
X156210000Y-80070000D02*
X151070000Y-80070000D01*
X156210000Y-77410000D02*
X151070000Y-77410000D01*
X151070000Y-77410000D02*
X151070000Y-80070000D01*
X151070000Y-67250000D02*
X151070000Y-69910000D01*
X156210000Y-67250000D02*
X151070000Y-67250000D01*
X156210000Y-69910000D02*
X151070000Y-69910000D01*
X156210000Y-67250000D02*
X156210000Y-69910000D01*
X157480000Y-67250000D02*
X158810000Y-67250000D01*
X158810000Y-67250000D02*
X158810000Y-68580000D01*
X151070000Y-72330000D02*
X151070000Y-74990000D01*
X156210000Y-72330000D02*
X151070000Y-72330000D01*
X156210000Y-74990000D02*
X151070000Y-74990000D01*
X156210000Y-72330000D02*
X156210000Y-74990000D01*
X157480000Y-72330000D02*
X158810000Y-72330000D01*
X158810000Y-72330000D02*
X158810000Y-73660000D01*
X158810000Y-69790000D02*
X158810000Y-71120000D01*
X157480000Y-69790000D02*
X158810000Y-69790000D01*
X156210000Y-69790000D02*
X156210000Y-72450000D01*
X156210000Y-72450000D02*
X151070000Y-72450000D01*
X156210000Y-69790000D02*
X151070000Y-69790000D01*
X151070000Y-69790000D02*
X151070000Y-72450000D01*
D13*
X182332380Y-85851904D02*
X183141904Y-85851904D01*
X183237142Y-85804285D01*
X183284761Y-85756666D01*
X183332380Y-85661428D01*
X183332380Y-85470952D01*
X183284761Y-85375714D01*
X183237142Y-85328095D01*
X183141904Y-85280476D01*
X182332380Y-85280476D01*
X183332380Y-84280476D02*
X183332380Y-84851904D01*
X183332380Y-84566190D02*
X182332380Y-84566190D01*
X182475238Y-84661428D01*
X182570476Y-84756666D01*
X182618095Y-84851904D01*
X171320000Y-87184666D02*
X171320000Y-86484666D01*
X171486666Y-86484666D01*
X171586666Y-86518000D01*
X171653333Y-86584666D01*
X171686666Y-86651333D01*
X171720000Y-86784666D01*
X171720000Y-86884666D01*
X171686666Y-87018000D01*
X171653333Y-87084666D01*
X171586666Y-87151333D01*
X171486666Y-87184666D01*
X171320000Y-87184666D01*
X171920000Y-86484666D02*
X172153333Y-87184666D01*
X172386666Y-86484666D01*
X172953333Y-87184666D02*
X172620000Y-87184666D01*
X172620000Y-86484666D01*
X173486666Y-86484666D02*
X173353333Y-86484666D01*
X173286666Y-86518000D01*
X173253333Y-86551333D01*
X173186666Y-86651333D01*
X173153333Y-86784666D01*
X173153333Y-87051333D01*
X173186666Y-87118000D01*
X173220000Y-87151333D01*
X173286666Y-87184666D01*
X173420000Y-87184666D01*
X173486666Y-87151333D01*
X173520000Y-87118000D01*
X173553333Y-87051333D01*
X173553333Y-86884666D01*
X173520000Y-86818000D01*
X173486666Y-86784666D01*
X173420000Y-86751333D01*
X173286666Y-86751333D01*
X173220000Y-86784666D01*
X173186666Y-86818000D01*
X173153333Y-86884666D01*
X173820000Y-86984666D02*
X174153333Y-86984666D01*
X173753333Y-87184666D02*
X173986666Y-86484666D01*
X174220000Y-87184666D01*
X169636666Y-85660666D02*
X169636666Y-84960666D01*
X169870000Y-85460666D01*
X170103333Y-84960666D01*
X170103333Y-85660666D01*
X170436666Y-85660666D02*
X170436666Y-84960666D01*
X170770000Y-85660666D02*
X170770000Y-84960666D01*
X171003333Y-85460666D01*
X171236666Y-84960666D01*
X171236666Y-85660666D01*
X171503333Y-84960666D02*
X171970000Y-85660666D01*
X171970000Y-84960666D02*
X171503333Y-85660666D01*
X172636666Y-85660666D02*
X172403333Y-85327333D01*
X172236666Y-85660666D02*
X172236666Y-84960666D01*
X172503333Y-84960666D01*
X172570000Y-84994000D01*
X172603333Y-85027333D01*
X172636666Y-85094000D01*
X172636666Y-85194000D01*
X172603333Y-85260666D01*
X172570000Y-85294000D01*
X172503333Y-85327333D01*
X172236666Y-85327333D01*
X172836666Y-84960666D02*
X173236666Y-84960666D01*
X173036666Y-85660666D02*
X173036666Y-84960666D01*
X173836666Y-85660666D02*
X173436666Y-85660666D01*
X173636666Y-85660666D02*
X173636666Y-84960666D01*
X173570000Y-85060666D01*
X173503333Y-85127333D01*
X173436666Y-85160666D01*
X174270000Y-84960666D02*
X174336666Y-84960666D01*
X174403333Y-84994000D01*
X174436666Y-85027333D01*
X174470000Y-85094000D01*
X174503333Y-85227333D01*
X174503333Y-85394000D01*
X174470000Y-85527333D01*
X174436666Y-85594000D01*
X174403333Y-85627333D01*
X174336666Y-85660666D01*
X174270000Y-85660666D01*
X174203333Y-85627333D01*
X174170000Y-85594000D01*
X174136666Y-85527333D01*
X174103333Y-85394000D01*
X174103333Y-85227333D01*
X174136666Y-85094000D01*
X174170000Y-85027333D01*
X174203333Y-84994000D01*
X174270000Y-84960666D01*
X175103333Y-84960666D02*
X174970000Y-84960666D01*
X174903333Y-84994000D01*
X174870000Y-85027333D01*
X174803333Y-85127333D01*
X174770000Y-85260666D01*
X174770000Y-85527333D01*
X174803333Y-85594000D01*
X174836666Y-85627333D01*
X174903333Y-85660666D01*
X175036666Y-85660666D01*
X175103333Y-85627333D01*
X175136666Y-85594000D01*
X175170000Y-85527333D01*
X175170000Y-85360666D01*
X175136666Y-85294000D01*
X175103333Y-85260666D01*
X175036666Y-85227333D01*
X174903333Y-85227333D01*
X174836666Y-85260666D01*
X174803333Y-85294000D01*
X174770000Y-85360666D01*
X175436666Y-85027333D02*
X175470000Y-84994000D01*
X175536666Y-84960666D01*
X175703333Y-84960666D01*
X175770000Y-84994000D01*
X175803333Y-85027333D01*
X175836666Y-85094000D01*
X175836666Y-85160666D01*
X175803333Y-85260666D01*
X175403333Y-85660666D01*
X175836666Y-85660666D01*
X210058095Y-98512380D02*
X210058095Y-99321904D01*
X210105714Y-99417142D01*
X210153333Y-99464761D01*
X210248571Y-99512380D01*
X210439047Y-99512380D01*
X210534285Y-99464761D01*
X210581904Y-99417142D01*
X210629523Y-99321904D01*
X210629523Y-98512380D01*
X211058095Y-98607619D02*
X211105714Y-98560000D01*
X211200952Y-98512380D01*
X211439047Y-98512380D01*
X211534285Y-98560000D01*
X211581904Y-98607619D01*
X211629523Y-98702857D01*
X211629523Y-98798095D01*
X211581904Y-98940952D01*
X211010476Y-99512380D01*
X211629523Y-99512380D01*
X157515476Y-116512380D02*
X157515476Y-117226666D01*
X157467857Y-117369523D01*
X157372619Y-117464761D01*
X157229761Y-117512380D01*
X157134523Y-117512380D01*
X158515476Y-117512380D02*
X157944047Y-117512380D01*
X158229761Y-117512380D02*
X158229761Y-116512380D01*
X158134523Y-116655238D01*
X158039285Y-116750476D01*
X157944047Y-116798095D01*
X158848809Y-116512380D02*
X159467857Y-116512380D01*
X159134523Y-116893333D01*
X159277380Y-116893333D01*
X159372619Y-116940952D01*
X159420238Y-116988571D01*
X159467857Y-117083809D01*
X159467857Y-117321904D01*
X159420238Y-117417142D01*
X159372619Y-117464761D01*
X159277380Y-117512380D01*
X158991666Y-117512380D01*
X158896428Y-117464761D01*
X158848809Y-117417142D01*
X159262380Y-104949523D02*
X159976666Y-104949523D01*
X160119523Y-104997142D01*
X160214761Y-105092380D01*
X160262380Y-105235238D01*
X160262380Y-105330476D01*
X160262380Y-103949523D02*
X160262380Y-104520952D01*
X160262380Y-104235238D02*
X159262380Y-104235238D01*
X159405238Y-104330476D01*
X159500476Y-104425714D01*
X159548095Y-104520952D01*
X159357619Y-103568571D02*
X159310000Y-103520952D01*
X159262380Y-103425714D01*
X159262380Y-103187619D01*
X159310000Y-103092380D01*
X159357619Y-103044761D01*
X159452857Y-102997142D01*
X159548095Y-102997142D01*
X159690952Y-103044761D01*
X160262380Y-103616190D01*
X160262380Y-102997142D01*
X159262380Y-94313333D02*
X159976666Y-94313333D01*
X160119523Y-94360952D01*
X160214761Y-94456190D01*
X160262380Y-94599047D01*
X160262380Y-94694285D01*
X160262380Y-93789523D02*
X160262380Y-93599047D01*
X160214761Y-93503809D01*
X160167142Y-93456190D01*
X160024285Y-93360952D01*
X159833809Y-93313333D01*
X159452857Y-93313333D01*
X159357619Y-93360952D01*
X159310000Y-93408571D01*
X159262380Y-93503809D01*
X159262380Y-93694285D01*
X159310000Y-93789523D01*
X159357619Y-93837142D01*
X159452857Y-93884761D01*
X159690952Y-93884761D01*
X159786190Y-93837142D01*
X159833809Y-93789523D01*
X159881428Y-93694285D01*
X159881428Y-93503809D01*
X159833809Y-93408571D01*
X159786190Y-93360952D01*
X159690952Y-93313333D01*
X159262380Y-84153333D02*
X159976666Y-84153333D01*
X160119523Y-84200952D01*
X160214761Y-84296190D01*
X160262380Y-84439047D01*
X160262380Y-84534285D01*
X159262380Y-83248571D02*
X159262380Y-83439047D01*
X159310000Y-83534285D01*
X159357619Y-83581904D01*
X159500476Y-83677142D01*
X159690952Y-83724761D01*
X160071904Y-83724761D01*
X160167142Y-83677142D01*
X160214761Y-83629523D01*
X160262380Y-83534285D01*
X160262380Y-83343809D01*
X160214761Y-83248571D01*
X160167142Y-83200952D01*
X160071904Y-83153333D01*
X159833809Y-83153333D01*
X159738571Y-83200952D01*
X159690952Y-83248571D01*
X159643333Y-83343809D01*
X159643333Y-83534285D01*
X159690952Y-83629523D01*
X159738571Y-83677142D01*
X159833809Y-83724761D01*
X159262380Y-102409523D02*
X159976666Y-102409523D01*
X160119523Y-102457142D01*
X160214761Y-102552380D01*
X160262380Y-102695238D01*
X160262380Y-102790476D01*
X160262380Y-101409523D02*
X160262380Y-101980952D01*
X160262380Y-101695238D02*
X159262380Y-101695238D01*
X159405238Y-101790476D01*
X159500476Y-101885714D01*
X159548095Y-101980952D01*
X160262380Y-100457142D02*
X160262380Y-101028571D01*
X160262380Y-100742857D02*
X159262380Y-100742857D01*
X159405238Y-100838095D01*
X159500476Y-100933333D01*
X159548095Y-101028571D01*
X159262380Y-91773333D02*
X159976666Y-91773333D01*
X160119523Y-91820952D01*
X160214761Y-91916190D01*
X160262380Y-92059047D01*
X160262380Y-92154285D01*
X159690952Y-91154285D02*
X159643333Y-91249523D01*
X159595714Y-91297142D01*
X159500476Y-91344761D01*
X159452857Y-91344761D01*
X159357619Y-91297142D01*
X159310000Y-91249523D01*
X159262380Y-91154285D01*
X159262380Y-90963809D01*
X159310000Y-90868571D01*
X159357619Y-90820952D01*
X159452857Y-90773333D01*
X159500476Y-90773333D01*
X159595714Y-90820952D01*
X159643333Y-90868571D01*
X159690952Y-90963809D01*
X159690952Y-91154285D01*
X159738571Y-91249523D01*
X159786190Y-91297142D01*
X159881428Y-91344761D01*
X160071904Y-91344761D01*
X160167142Y-91297142D01*
X160214761Y-91249523D01*
X160262380Y-91154285D01*
X160262380Y-90963809D01*
X160214761Y-90868571D01*
X160167142Y-90820952D01*
X160071904Y-90773333D01*
X159881428Y-90773333D01*
X159786190Y-90820952D01*
X159738571Y-90868571D01*
X159690952Y-90963809D01*
X159262380Y-81613333D02*
X159976666Y-81613333D01*
X160119523Y-81660952D01*
X160214761Y-81756190D01*
X160262380Y-81899047D01*
X160262380Y-81994285D01*
X159262380Y-80660952D02*
X159262380Y-81137142D01*
X159738571Y-81184761D01*
X159690952Y-81137142D01*
X159643333Y-81041904D01*
X159643333Y-80803809D01*
X159690952Y-80708571D01*
X159738571Y-80660952D01*
X159833809Y-80613333D01*
X160071904Y-80613333D01*
X160167142Y-80660952D01*
X160214761Y-80708571D01*
X160262380Y-80803809D01*
X160262380Y-81041904D01*
X160214761Y-81137142D01*
X160167142Y-81184761D01*
X159262380Y-99869523D02*
X159976666Y-99869523D01*
X160119523Y-99917142D01*
X160214761Y-100012380D01*
X160262380Y-100155238D01*
X160262380Y-100250476D01*
X160262380Y-98869523D02*
X160262380Y-99440952D01*
X160262380Y-99155238D02*
X159262380Y-99155238D01*
X159405238Y-99250476D01*
X159500476Y-99345714D01*
X159548095Y-99440952D01*
X159262380Y-98250476D02*
X159262380Y-98155238D01*
X159310000Y-98060000D01*
X159357619Y-98012380D01*
X159452857Y-97964761D01*
X159643333Y-97917142D01*
X159881428Y-97917142D01*
X160071904Y-97964761D01*
X160167142Y-98012380D01*
X160214761Y-98060000D01*
X160262380Y-98155238D01*
X160262380Y-98250476D01*
X160214761Y-98345714D01*
X160167142Y-98393333D01*
X160071904Y-98440952D01*
X159881428Y-98488571D01*
X159643333Y-98488571D01*
X159452857Y-98440952D01*
X159357619Y-98393333D01*
X159310000Y-98345714D01*
X159262380Y-98250476D01*
X159262380Y-89233333D02*
X159976666Y-89233333D01*
X160119523Y-89280952D01*
X160214761Y-89376190D01*
X160262380Y-89519047D01*
X160262380Y-89614285D01*
X159262380Y-88852380D02*
X159262380Y-88185714D01*
X160262380Y-88614285D01*
X159262380Y-79073333D02*
X159976666Y-79073333D01*
X160119523Y-79120952D01*
X160214761Y-79216190D01*
X160262380Y-79359047D01*
X160262380Y-79454285D01*
X159595714Y-78168571D02*
X160262380Y-78168571D01*
X159214761Y-78406666D02*
X159929047Y-78644761D01*
X159929047Y-78025714D01*
X159262380Y-68913333D02*
X159976666Y-68913333D01*
X160119523Y-68960952D01*
X160214761Y-69056190D01*
X160262380Y-69199047D01*
X160262380Y-69294285D01*
X160262380Y-67913333D02*
X160262380Y-68484761D01*
X160262380Y-68199047D02*
X159262380Y-68199047D01*
X159405238Y-68294285D01*
X159500476Y-68389523D01*
X159548095Y-68484761D01*
X159262380Y-73993333D02*
X159976666Y-73993333D01*
X160119523Y-74040952D01*
X160214761Y-74136190D01*
X160262380Y-74279047D01*
X160262380Y-74374285D01*
X159262380Y-73612380D02*
X159262380Y-72993333D01*
X159643333Y-73326666D01*
X159643333Y-73183809D01*
X159690952Y-73088571D01*
X159738571Y-73040952D01*
X159833809Y-72993333D01*
X160071904Y-72993333D01*
X160167142Y-73040952D01*
X160214761Y-73088571D01*
X160262380Y-73183809D01*
X160262380Y-73469523D01*
X160214761Y-73564761D01*
X160167142Y-73612380D01*
X159262380Y-71453333D02*
X159976666Y-71453333D01*
X160119523Y-71500952D01*
X160214761Y-71596190D01*
X160262380Y-71739047D01*
X160262380Y-71834285D01*
X159357619Y-71024761D02*
X159310000Y-70977142D01*
X159262380Y-70881904D01*
X159262380Y-70643809D01*
X159310000Y-70548571D01*
X159357619Y-70500952D01*
X159452857Y-70453333D01*
X159548095Y-70453333D01*
X159690952Y-70500952D01*
X160262380Y-71072380D01*
X160262380Y-70453333D01*
M02*
