G04 #@! TF.GenerationSoftware,KiCad,Pcbnew,(5.1.5)-3*
G04 #@! TF.CreationDate,2020-04-04T13:54:15-07:00*
G04 #@! TF.ProjectId,ServoPower2,53657276-6f50-46f7-9765-72322e6b6963,rev?*
G04 #@! TF.SameCoordinates,Original*
G04 #@! TF.FileFunction,Legend,Top*
G04 #@! TF.FilePolarity,Positive*
%FSLAX46Y46*%
G04 Gerber Fmt 4.6, Leading zero omitted, Abs format (unit mm)*
G04 Created by KiCad (PCBNEW (5.1.5)-3) date 2020-04-04 13:54:15*
%MOMM*%
%LPD*%
G04 APERTURE LIST*
%ADD10C,0.070000*%
%ADD11C,0.150000*%
%ADD12C,0.100000*%
%ADD13C,0.120000*%
G04 APERTURE END LIST*
D10*
X151027142Y-65635714D02*
X151408095Y-65635714D01*
X153550952Y-65635714D02*
X153931904Y-65635714D01*
X153741428Y-65826190D02*
X153741428Y-65445238D01*
X156050952Y-65802380D02*
X156122380Y-65826190D01*
X156241428Y-65826190D01*
X156289047Y-65802380D01*
X156312857Y-65778571D01*
X156336666Y-65730952D01*
X156336666Y-65683333D01*
X156312857Y-65635714D01*
X156289047Y-65611904D01*
X156241428Y-65588095D01*
X156146190Y-65564285D01*
X156098571Y-65540476D01*
X156074761Y-65516666D01*
X156050952Y-65469047D01*
X156050952Y-65421428D01*
X156074761Y-65373809D01*
X156098571Y-65350000D01*
X156146190Y-65326190D01*
X156265238Y-65326190D01*
X156336666Y-65350000D01*
X147703571Y-61259285D02*
X147703571Y-61866428D01*
X147739285Y-61937857D01*
X147775000Y-61973571D01*
X147846428Y-62009285D01*
X147989285Y-62009285D01*
X148060714Y-61973571D01*
X148096428Y-61937857D01*
X148132142Y-61866428D01*
X148132142Y-61259285D01*
X148489285Y-61509285D02*
X148489285Y-62009285D01*
X148489285Y-61580714D02*
X148525000Y-61545000D01*
X148596428Y-61509285D01*
X148703571Y-61509285D01*
X148775000Y-61545000D01*
X148810714Y-61616428D01*
X148810714Y-62009285D01*
X149167857Y-62009285D02*
X149167857Y-61509285D01*
X149167857Y-61652142D02*
X149203571Y-61580714D01*
X149239285Y-61545000D01*
X149310714Y-61509285D01*
X149382142Y-61509285D01*
X149917857Y-61973571D02*
X149846428Y-62009285D01*
X149703571Y-62009285D01*
X149632142Y-61973571D01*
X149596428Y-61902142D01*
X149596428Y-61616428D01*
X149632142Y-61545000D01*
X149703571Y-61509285D01*
X149846428Y-61509285D01*
X149917857Y-61545000D01*
X149953571Y-61616428D01*
X149953571Y-61687857D01*
X149596428Y-61759285D01*
X150596428Y-61509285D02*
X150596428Y-62116428D01*
X150560714Y-62187857D01*
X150525000Y-62223571D01*
X150453571Y-62259285D01*
X150346428Y-62259285D01*
X150275000Y-62223571D01*
X150596428Y-61973571D02*
X150525000Y-62009285D01*
X150382142Y-62009285D01*
X150310714Y-61973571D01*
X150275000Y-61937857D01*
X150239285Y-61866428D01*
X150239285Y-61652142D01*
X150275000Y-61580714D01*
X150310714Y-61545000D01*
X150382142Y-61509285D01*
X150525000Y-61509285D01*
X150596428Y-61545000D01*
X151275000Y-61509285D02*
X151275000Y-62009285D01*
X150953571Y-61509285D02*
X150953571Y-61902142D01*
X150989285Y-61973571D01*
X151060714Y-62009285D01*
X151167857Y-62009285D01*
X151239285Y-61973571D01*
X151275000Y-61937857D01*
X151739285Y-62009285D02*
X151667857Y-61973571D01*
X151632142Y-61902142D01*
X151632142Y-61259285D01*
X152346428Y-62009285D02*
X152346428Y-61616428D01*
X152310714Y-61545000D01*
X152239285Y-61509285D01*
X152096428Y-61509285D01*
X152025000Y-61545000D01*
X152346428Y-61973571D02*
X152275000Y-62009285D01*
X152096428Y-62009285D01*
X152025000Y-61973571D01*
X151989285Y-61902142D01*
X151989285Y-61830714D01*
X152025000Y-61759285D01*
X152096428Y-61723571D01*
X152275000Y-61723571D01*
X152346428Y-61687857D01*
X152596428Y-61509285D02*
X152882142Y-61509285D01*
X152703571Y-61259285D02*
X152703571Y-61902142D01*
X152739285Y-61973571D01*
X152810714Y-62009285D01*
X152882142Y-62009285D01*
X153417857Y-61973571D02*
X153346428Y-62009285D01*
X153203571Y-62009285D01*
X153132142Y-61973571D01*
X153096428Y-61902142D01*
X153096428Y-61616428D01*
X153132142Y-61545000D01*
X153203571Y-61509285D01*
X153346428Y-61509285D01*
X153417857Y-61545000D01*
X153453571Y-61616428D01*
X153453571Y-61687857D01*
X153096428Y-61759285D01*
X154096428Y-62009285D02*
X154096428Y-61259285D01*
X154096428Y-61973571D02*
X154025000Y-62009285D01*
X153882142Y-62009285D01*
X153810714Y-61973571D01*
X153775000Y-61937857D01*
X153739285Y-61866428D01*
X153739285Y-61652142D01*
X153775000Y-61580714D01*
X153810714Y-61545000D01*
X153882142Y-61509285D01*
X154025000Y-61509285D01*
X154096428Y-61545000D01*
X154917857Y-61259285D02*
X155167857Y-62009285D01*
X155417857Y-61259285D01*
X155667857Y-62009285D02*
X155667857Y-61259285D01*
X155667857Y-61545000D02*
X155739285Y-61509285D01*
X155882142Y-61509285D01*
X155953571Y-61545000D01*
X155989285Y-61580714D01*
X156025000Y-61652142D01*
X156025000Y-61866428D01*
X155989285Y-61937857D01*
X155953571Y-61973571D01*
X155882142Y-62009285D01*
X155739285Y-62009285D01*
X155667857Y-61973571D01*
X156667857Y-62009285D02*
X156667857Y-61616428D01*
X156632142Y-61545000D01*
X156560714Y-61509285D01*
X156417857Y-61509285D01*
X156346428Y-61545000D01*
X156667857Y-61973571D02*
X156596428Y-62009285D01*
X156417857Y-62009285D01*
X156346428Y-61973571D01*
X156310714Y-61902142D01*
X156310714Y-61830714D01*
X156346428Y-61759285D01*
X156417857Y-61723571D01*
X156596428Y-61723571D01*
X156667857Y-61687857D01*
X156917857Y-61509285D02*
X157203571Y-61509285D01*
X157025000Y-61259285D02*
X157025000Y-61902142D01*
X157060714Y-61973571D01*
X157132142Y-62009285D01*
X157203571Y-62009285D01*
X161683333Y-61911666D02*
X161450000Y-61578333D01*
X161283333Y-61911666D02*
X161283333Y-61211666D01*
X161550000Y-61211666D01*
X161616666Y-61245000D01*
X161650000Y-61278333D01*
X161683333Y-61345000D01*
X161683333Y-61445000D01*
X161650000Y-61511666D01*
X161616666Y-61545000D01*
X161550000Y-61578333D01*
X161283333Y-61578333D01*
X162250000Y-61878333D02*
X162183333Y-61911666D01*
X162050000Y-61911666D01*
X161983333Y-61878333D01*
X161950000Y-61811666D01*
X161950000Y-61545000D01*
X161983333Y-61478333D01*
X162050000Y-61445000D01*
X162183333Y-61445000D01*
X162250000Y-61478333D01*
X162283333Y-61545000D01*
X162283333Y-61611666D01*
X161950000Y-61678333D01*
X162883333Y-61445000D02*
X162883333Y-62011666D01*
X162850000Y-62078333D01*
X162816666Y-62111666D01*
X162750000Y-62145000D01*
X162650000Y-62145000D01*
X162583333Y-62111666D01*
X162883333Y-61878333D02*
X162816666Y-61911666D01*
X162683333Y-61911666D01*
X162616666Y-61878333D01*
X162583333Y-61845000D01*
X162550000Y-61778333D01*
X162550000Y-61578333D01*
X162583333Y-61511666D01*
X162616666Y-61478333D01*
X162683333Y-61445000D01*
X162816666Y-61445000D01*
X162883333Y-61478333D01*
X163516666Y-61445000D02*
X163516666Y-61911666D01*
X163216666Y-61445000D02*
X163216666Y-61811666D01*
X163250000Y-61878333D01*
X163316666Y-61911666D01*
X163416666Y-61911666D01*
X163483333Y-61878333D01*
X163516666Y-61845000D01*
X163950000Y-61911666D02*
X163883333Y-61878333D01*
X163850000Y-61811666D01*
X163850000Y-61211666D01*
X164516666Y-61911666D02*
X164516666Y-61545000D01*
X164483333Y-61478333D01*
X164416666Y-61445000D01*
X164283333Y-61445000D01*
X164216666Y-61478333D01*
X164516666Y-61878333D02*
X164450000Y-61911666D01*
X164283333Y-61911666D01*
X164216666Y-61878333D01*
X164183333Y-61811666D01*
X164183333Y-61745000D01*
X164216666Y-61678333D01*
X164283333Y-61645000D01*
X164450000Y-61645000D01*
X164516666Y-61611666D01*
X164750000Y-61445000D02*
X165016666Y-61445000D01*
X164850000Y-61211666D02*
X164850000Y-61811666D01*
X164883333Y-61878333D01*
X164950000Y-61911666D01*
X165016666Y-61911666D01*
X165516666Y-61878333D02*
X165450000Y-61911666D01*
X165316666Y-61911666D01*
X165250000Y-61878333D01*
X165216666Y-61811666D01*
X165216666Y-61545000D01*
X165250000Y-61478333D01*
X165316666Y-61445000D01*
X165450000Y-61445000D01*
X165516666Y-61478333D01*
X165550000Y-61545000D01*
X165550000Y-61611666D01*
X165216666Y-61678333D01*
X166150000Y-61911666D02*
X166150000Y-61211666D01*
X166150000Y-61878333D02*
X166083333Y-61911666D01*
X165950000Y-61911666D01*
X165883333Y-61878333D01*
X165850000Y-61845000D01*
X165816666Y-61778333D01*
X165816666Y-61578333D01*
X165850000Y-61511666D01*
X165883333Y-61478333D01*
X165950000Y-61445000D01*
X166083333Y-61445000D01*
X166150000Y-61478333D01*
X167350000Y-61211666D02*
X167016666Y-61211666D01*
X166983333Y-61545000D01*
X167016666Y-61511666D01*
X167083333Y-61478333D01*
X167250000Y-61478333D01*
X167316666Y-61511666D01*
X167350000Y-61545000D01*
X167383333Y-61611666D01*
X167383333Y-61778333D01*
X167350000Y-61845000D01*
X167316666Y-61878333D01*
X167250000Y-61911666D01*
X167083333Y-61911666D01*
X167016666Y-61878333D01*
X166983333Y-61845000D01*
X167583333Y-61211666D02*
X167816666Y-61911666D01*
X168050000Y-61211666D01*
X168283333Y-61911666D02*
X168283333Y-61445000D01*
X168283333Y-61211666D02*
X168250000Y-61245000D01*
X168283333Y-61278333D01*
X168316666Y-61245000D01*
X168283333Y-61211666D01*
X168283333Y-61278333D01*
X168616666Y-61445000D02*
X168616666Y-61911666D01*
X168616666Y-61511666D02*
X168650000Y-61478333D01*
X168716666Y-61445000D01*
X168816666Y-61445000D01*
X168883333Y-61478333D01*
X168916666Y-61545000D01*
X168916666Y-61911666D01*
D11*
X167259047Y-63571428D02*
X168020952Y-63571428D01*
X167640000Y-63952380D02*
X167640000Y-63190476D01*
X159639047Y-63571428D02*
X160400952Y-63571428D01*
X148209047Y-63571428D02*
X148970952Y-63571428D01*
X155829047Y-63571428D02*
X156590952Y-63571428D01*
X156210000Y-63952380D02*
X156210000Y-63190476D01*
X147692619Y-80169523D02*
X148692619Y-80169523D01*
X148692619Y-80550476D01*
X148645000Y-80645714D01*
X148597380Y-80693333D01*
X148502142Y-80740952D01*
X148359285Y-80740952D01*
X148264047Y-80693333D01*
X148216428Y-80645714D01*
X148168809Y-80550476D01*
X148168809Y-80169523D01*
X148359285Y-81598095D02*
X147692619Y-81598095D01*
X148359285Y-81169523D02*
X147835476Y-81169523D01*
X147740238Y-81217142D01*
X147692619Y-81312380D01*
X147692619Y-81455238D01*
X147740238Y-81550476D01*
X147787857Y-81598095D01*
X148359285Y-82074285D02*
X147359285Y-82074285D01*
X148311666Y-82074285D02*
X148359285Y-82169523D01*
X148359285Y-82360000D01*
X148311666Y-82455238D01*
X148264047Y-82502857D01*
X148168809Y-82550476D01*
X147883095Y-82550476D01*
X147787857Y-82502857D01*
X147740238Y-82455238D01*
X147692619Y-82360000D01*
X147692619Y-82169523D01*
X147740238Y-82074285D01*
X148359285Y-82979047D02*
X147359285Y-82979047D01*
X148311666Y-82979047D02*
X148359285Y-83074285D01*
X148359285Y-83264761D01*
X148311666Y-83360000D01*
X148264047Y-83407619D01*
X148168809Y-83455238D01*
X147883095Y-83455238D01*
X147787857Y-83407619D01*
X147740238Y-83360000D01*
X147692619Y-83264761D01*
X147692619Y-83074285D01*
X147740238Y-82979047D01*
X147740238Y-84264761D02*
X147692619Y-84169523D01*
X147692619Y-83979047D01*
X147740238Y-83883809D01*
X147835476Y-83836190D01*
X148216428Y-83836190D01*
X148311666Y-83883809D01*
X148359285Y-83979047D01*
X148359285Y-84169523D01*
X148311666Y-84264761D01*
X148216428Y-84312380D01*
X148121190Y-84312380D01*
X148025952Y-83836190D01*
X147692619Y-84740952D02*
X148359285Y-84740952D01*
X148168809Y-84740952D02*
X148264047Y-84788571D01*
X148311666Y-84836190D01*
X148359285Y-84931428D01*
X148359285Y-85026666D01*
X147692619Y-86121904D02*
X148692619Y-86121904D01*
X148692619Y-86502857D01*
X148645000Y-86598095D01*
X148597380Y-86645714D01*
X148502142Y-86693333D01*
X148359285Y-86693333D01*
X148264047Y-86645714D01*
X148216428Y-86598095D01*
X148168809Y-86502857D01*
X148168809Y-86121904D01*
X147692619Y-87121904D02*
X148692619Y-87121904D01*
X148692619Y-87360000D01*
X148645000Y-87502857D01*
X148549761Y-87598095D01*
X148454523Y-87645714D01*
X148264047Y-87693333D01*
X148121190Y-87693333D01*
X147930714Y-87645714D01*
X147835476Y-87598095D01*
X147740238Y-87502857D01*
X147692619Y-87360000D01*
X147692619Y-87121904D01*
X148216428Y-88455238D02*
X148168809Y-88598095D01*
X148121190Y-88645714D01*
X148025952Y-88693333D01*
X147883095Y-88693333D01*
X147787857Y-88645714D01*
X147740238Y-88598095D01*
X147692619Y-88502857D01*
X147692619Y-88121904D01*
X148692619Y-88121904D01*
X148692619Y-88455238D01*
X148645000Y-88550476D01*
X148597380Y-88598095D01*
X148502142Y-88645714D01*
X148406904Y-88645714D01*
X148311666Y-88598095D01*
X148264047Y-88550476D01*
X148216428Y-88455238D01*
X148216428Y-88121904D01*
X148359285Y-89788571D02*
X147692619Y-90026666D01*
X148359285Y-90264761D01*
X148692619Y-90836190D02*
X148692619Y-90931428D01*
X148645000Y-91026666D01*
X148597380Y-91074285D01*
X148502142Y-91121904D01*
X148311666Y-91169523D01*
X148073571Y-91169523D01*
X147883095Y-91121904D01*
X147787857Y-91074285D01*
X147740238Y-91026666D01*
X147692619Y-90931428D01*
X147692619Y-90836190D01*
X147740238Y-90740952D01*
X147787857Y-90693333D01*
X147883095Y-90645714D01*
X148073571Y-90598095D01*
X148311666Y-90598095D01*
X148502142Y-90645714D01*
X148597380Y-90693333D01*
X148645000Y-90740952D01*
X148692619Y-90836190D01*
X147787857Y-91598095D02*
X147740238Y-91645714D01*
X147692619Y-91598095D01*
X147740238Y-91550476D01*
X147787857Y-91598095D01*
X147692619Y-91598095D01*
X148692619Y-91979047D02*
X148692619Y-92598095D01*
X148311666Y-92264761D01*
X148311666Y-92407619D01*
X148264047Y-92502857D01*
X148216428Y-92550476D01*
X148121190Y-92598095D01*
X147883095Y-92598095D01*
X147787857Y-92550476D01*
X147740238Y-92502857D01*
X147692619Y-92407619D01*
X147692619Y-92121904D01*
X147740238Y-92026666D01*
X147787857Y-91979047D01*
X146566428Y-84050476D02*
X146566428Y-83717142D01*
X146042619Y-83717142D02*
X147042619Y-83717142D01*
X147042619Y-84193333D01*
X146090238Y-84955238D02*
X146042619Y-84860000D01*
X146042619Y-84669523D01*
X146090238Y-84574285D01*
X146185476Y-84526666D01*
X146566428Y-84526666D01*
X146661666Y-84574285D01*
X146709285Y-84669523D01*
X146709285Y-84860000D01*
X146661666Y-84955238D01*
X146566428Y-85002857D01*
X146471190Y-85002857D01*
X146375952Y-84526666D01*
X146042619Y-85431428D02*
X147042619Y-85431428D01*
X146661666Y-85431428D02*
X146709285Y-85526666D01*
X146709285Y-85717142D01*
X146661666Y-85812380D01*
X146614047Y-85860000D01*
X146518809Y-85907619D01*
X146233095Y-85907619D01*
X146137857Y-85860000D01*
X146090238Y-85812380D01*
X146042619Y-85717142D01*
X146042619Y-85526666D01*
X146090238Y-85431428D01*
X146995000Y-87050476D02*
X147042619Y-87050476D01*
X147137857Y-87098095D01*
X147185476Y-87145714D01*
X146947380Y-87526666D02*
X146995000Y-87574285D01*
X147042619Y-87669523D01*
X147042619Y-87907619D01*
X146995000Y-88002857D01*
X146947380Y-88050476D01*
X146852142Y-88098095D01*
X146756904Y-88098095D01*
X146614047Y-88050476D01*
X146042619Y-87479047D01*
X146042619Y-88098095D01*
X147042619Y-88717142D02*
X147042619Y-88812380D01*
X146995000Y-88907619D01*
X146947380Y-88955238D01*
X146852142Y-89002857D01*
X146661666Y-89050476D01*
X146423571Y-89050476D01*
X146233095Y-89002857D01*
X146137857Y-88955238D01*
X146090238Y-88907619D01*
X146042619Y-88812380D01*
X146042619Y-88717142D01*
X146090238Y-88621904D01*
X146137857Y-88574285D01*
X146233095Y-88526666D01*
X146423571Y-88479047D01*
X146661666Y-88479047D01*
X146852142Y-88526666D01*
X146947380Y-88574285D01*
X146995000Y-88621904D01*
X147042619Y-88717142D01*
D12*
G36*
X173863000Y-81153000D02*
G01*
X174117000Y-81407000D01*
X173736000Y-81661000D01*
X173482000Y-81407000D01*
X173863000Y-81153000D01*
G37*
X173863000Y-81153000D02*
X174117000Y-81407000D01*
X173736000Y-81661000D01*
X173482000Y-81407000D01*
X173863000Y-81153000D01*
G36*
X174244000Y-81534000D02*
G01*
X174498000Y-81788000D01*
X174117000Y-82042000D01*
X173863000Y-81788000D01*
X174244000Y-81534000D01*
G37*
X174244000Y-81534000D02*
X174498000Y-81788000D01*
X174117000Y-82042000D01*
X173863000Y-81788000D01*
X174244000Y-81534000D01*
G36*
X173482000Y-83439000D02*
G01*
X173736000Y-83693000D01*
X173355000Y-83947000D01*
X173101000Y-83693000D01*
X173482000Y-83439000D01*
G37*
X173482000Y-83439000D02*
X173736000Y-83693000D01*
X173355000Y-83947000D01*
X173101000Y-83693000D01*
X173482000Y-83439000D01*
G36*
X173990000Y-83058000D02*
G01*
X174244000Y-83312000D01*
X173863000Y-83566000D01*
X173609000Y-83312000D01*
X173990000Y-83058000D01*
G37*
X173990000Y-83058000D02*
X174244000Y-83312000D01*
X173863000Y-83566000D01*
X173609000Y-83312000D01*
X173990000Y-83058000D01*
G36*
X174498000Y-82677000D02*
G01*
X174752000Y-82931000D01*
X174371000Y-83185000D01*
X174117000Y-82931000D01*
X174498000Y-82677000D01*
G37*
X174498000Y-82677000D02*
X174752000Y-82931000D01*
X174371000Y-83185000D01*
X174117000Y-82931000D01*
X174498000Y-82677000D01*
G36*
X173609000Y-82677000D02*
G01*
X173863000Y-82931000D01*
X173482000Y-83185000D01*
X173228000Y-82931000D01*
X173609000Y-82677000D01*
G37*
X173609000Y-82677000D02*
X173863000Y-82931000D01*
X173482000Y-83185000D01*
X173228000Y-82931000D01*
X173609000Y-82677000D01*
G36*
X174117000Y-82296000D02*
G01*
X174371000Y-82550000D01*
X173990000Y-82804000D01*
X173736000Y-82550000D01*
X174117000Y-82296000D01*
G37*
X174117000Y-82296000D02*
X174371000Y-82550000D01*
X173990000Y-82804000D01*
X173736000Y-82550000D01*
X174117000Y-82296000D01*
G36*
X174625000Y-81915000D02*
G01*
X174879000Y-82169000D01*
X174498000Y-82423000D01*
X174244000Y-82169000D01*
X174625000Y-81915000D01*
G37*
X174625000Y-81915000D02*
X174879000Y-82169000D01*
X174498000Y-82423000D01*
X174244000Y-82169000D01*
X174625000Y-81915000D01*
D11*
X206375000Y-92710000D02*
X209550000Y-92710000D01*
X206375000Y-95250000D02*
X206375000Y-92710000D01*
X209550000Y-95250000D02*
X206375000Y-95250000D01*
X209550000Y-92710000D02*
X209550000Y-95250000D01*
X195580000Y-69850000D02*
X213360000Y-69850000D01*
X195580000Y-105410000D02*
X195580000Y-69850000D01*
X213360000Y-105410000D02*
X195580000Y-105410000D01*
X213360000Y-69850000D02*
X213360000Y-105410000D01*
X199390000Y-92075000D02*
X199390000Y-81915000D01*
X209550000Y-92075000D02*
X209550000Y-81915000D01*
X209550000Y-81915000D02*
X199390000Y-81915000D01*
X199390000Y-92075000D02*
X209550000Y-92075000D01*
X205740000Y-97790000D02*
X205740000Y-102362000D01*
X203200000Y-97790000D02*
X205740000Y-97790000D01*
X203200000Y-102362000D02*
X203200000Y-97790000D01*
X205740000Y-102362000D02*
X203200000Y-102362000D01*
X200660000Y-74930000D02*
X200660000Y-69850000D01*
X208280000Y-74930000D02*
X208280000Y-69850000D01*
X200660000Y-74930000D02*
X208280000Y-74930000D01*
X208280000Y-68580000D02*
X208280000Y-69850000D01*
X200660000Y-68580000D02*
X208280000Y-68580000D01*
X200660000Y-69850000D02*
X200660000Y-68580000D01*
D13*
X166430000Y-64830000D02*
X166430000Y-62170000D01*
X163830000Y-64830000D02*
X166430000Y-64830000D01*
X163830000Y-62170000D02*
X166430000Y-62170000D01*
X163830000Y-64830000D02*
X163830000Y-62170000D01*
X162560000Y-64830000D02*
X161230000Y-64830000D01*
X161230000Y-64830000D02*
X161230000Y-63500000D01*
X151070000Y-64830000D02*
X151070000Y-63500000D01*
X152400000Y-64830000D02*
X151070000Y-64830000D01*
X153670000Y-64830000D02*
X153670000Y-62170000D01*
X153670000Y-62170000D02*
X156270000Y-62170000D01*
X153670000Y-64830000D02*
X156270000Y-64830000D01*
X156270000Y-64830000D02*
X156270000Y-62170000D01*
X158810000Y-102810000D02*
X158810000Y-104140000D01*
X157480000Y-102810000D02*
X158810000Y-102810000D01*
X156210000Y-102810000D02*
X156210000Y-105470000D01*
X156210000Y-105470000D02*
X151070000Y-105470000D01*
X156210000Y-102810000D02*
X151070000Y-102810000D01*
X151070000Y-102810000D02*
X151070000Y-105470000D01*
X158810000Y-92650000D02*
X158810000Y-93980000D01*
X157480000Y-92650000D02*
X158810000Y-92650000D01*
X156210000Y-92650000D02*
X156210000Y-95310000D01*
X156210000Y-95310000D02*
X151070000Y-95310000D01*
X156210000Y-92650000D02*
X151070000Y-92650000D01*
X151070000Y-92650000D02*
X151070000Y-95310000D01*
X158810000Y-82490000D02*
X158810000Y-83820000D01*
X157480000Y-82490000D02*
X158810000Y-82490000D01*
X156210000Y-82490000D02*
X156210000Y-85150000D01*
X156210000Y-85150000D02*
X151070000Y-85150000D01*
X156210000Y-82490000D02*
X151070000Y-82490000D01*
X151070000Y-82490000D02*
X151070000Y-85150000D01*
X158810000Y-100270000D02*
X158810000Y-101600000D01*
X157480000Y-100270000D02*
X158810000Y-100270000D01*
X156210000Y-100270000D02*
X156210000Y-102930000D01*
X156210000Y-102930000D02*
X151070000Y-102930000D01*
X156210000Y-100270000D02*
X151070000Y-100270000D01*
X151070000Y-100270000D02*
X151070000Y-102930000D01*
X158810000Y-90110000D02*
X158810000Y-91440000D01*
X157480000Y-90110000D02*
X158810000Y-90110000D01*
X156210000Y-90110000D02*
X156210000Y-92770000D01*
X156210000Y-92770000D02*
X151070000Y-92770000D01*
X156210000Y-90110000D02*
X151070000Y-90110000D01*
X151070000Y-90110000D02*
X151070000Y-92770000D01*
X158810000Y-79950000D02*
X158810000Y-81280000D01*
X157480000Y-79950000D02*
X158810000Y-79950000D01*
X156210000Y-79950000D02*
X156210000Y-82610000D01*
X156210000Y-82610000D02*
X151070000Y-82610000D01*
X156210000Y-79950000D02*
X151070000Y-79950000D01*
X151070000Y-79950000D02*
X151070000Y-82610000D01*
X158810000Y-97730000D02*
X158810000Y-99060000D01*
X157480000Y-97730000D02*
X158810000Y-97730000D01*
X156210000Y-97730000D02*
X156210000Y-100390000D01*
X156210000Y-100390000D02*
X151070000Y-100390000D01*
X156210000Y-97730000D02*
X151070000Y-97730000D01*
X151070000Y-97730000D02*
X151070000Y-100390000D01*
X158810000Y-87570000D02*
X158810000Y-88900000D01*
X157480000Y-87570000D02*
X158810000Y-87570000D01*
X156210000Y-87570000D02*
X156210000Y-90230000D01*
X156210000Y-90230000D02*
X151070000Y-90230000D01*
X156210000Y-87570000D02*
X151070000Y-87570000D01*
X151070000Y-87570000D02*
X151070000Y-90230000D01*
X158810000Y-77410000D02*
X158810000Y-78740000D01*
X157480000Y-77410000D02*
X158810000Y-77410000D01*
X156210000Y-77410000D02*
X156210000Y-80070000D01*
X156210000Y-80070000D02*
X151070000Y-80070000D01*
X156210000Y-77410000D02*
X151070000Y-77410000D01*
X151070000Y-77410000D02*
X151070000Y-80070000D01*
X160190000Y-115710000D02*
X160190000Y-112890000D01*
X160190000Y-112890000D02*
X158490000Y-111590000D01*
X160190000Y-115710000D02*
X158490000Y-117010000D01*
X158490000Y-111590000D02*
X149770000Y-111590000D01*
X149770000Y-117010000D02*
X149770000Y-111590000D01*
X158490000Y-117010000D02*
X149770000Y-117010000D01*
X151070000Y-67250000D02*
X151070000Y-69910000D01*
X156210000Y-67250000D02*
X151070000Y-67250000D01*
X156210000Y-69910000D02*
X151070000Y-69910000D01*
X156210000Y-67250000D02*
X156210000Y-69910000D01*
X157480000Y-67250000D02*
X158810000Y-67250000D01*
X158810000Y-67250000D02*
X158810000Y-68580000D01*
X151070000Y-72330000D02*
X151070000Y-74990000D01*
X156210000Y-72330000D02*
X151070000Y-72330000D01*
X156210000Y-74990000D02*
X151070000Y-74990000D01*
X156210000Y-72330000D02*
X156210000Y-74990000D01*
X157480000Y-72330000D02*
X158810000Y-72330000D01*
X158810000Y-72330000D02*
X158810000Y-73660000D01*
X158810000Y-69790000D02*
X158810000Y-71120000D01*
X157480000Y-69790000D02*
X158810000Y-69790000D01*
X156210000Y-69790000D02*
X156210000Y-72450000D01*
X156210000Y-72450000D02*
X151070000Y-72450000D01*
X156210000Y-69790000D02*
X151070000Y-69790000D01*
X151070000Y-69790000D02*
X151070000Y-72450000D01*
D11*
X183602380Y-85851904D02*
X184411904Y-85851904D01*
X184507142Y-85804285D01*
X184554761Y-85756666D01*
X184602380Y-85661428D01*
X184602380Y-85470952D01*
X184554761Y-85375714D01*
X184507142Y-85328095D01*
X184411904Y-85280476D01*
X183602380Y-85280476D01*
X184602380Y-84280476D02*
X184602380Y-84851904D01*
X184602380Y-84566190D02*
X183602380Y-84566190D01*
X183745238Y-84661428D01*
X183840476Y-84756666D01*
X183888095Y-84851904D01*
X172590000Y-87184666D02*
X172590000Y-86484666D01*
X172756666Y-86484666D01*
X172856666Y-86518000D01*
X172923333Y-86584666D01*
X172956666Y-86651333D01*
X172990000Y-86784666D01*
X172990000Y-86884666D01*
X172956666Y-87018000D01*
X172923333Y-87084666D01*
X172856666Y-87151333D01*
X172756666Y-87184666D01*
X172590000Y-87184666D01*
X173190000Y-86484666D02*
X173423333Y-87184666D01*
X173656666Y-86484666D01*
X174223333Y-87184666D02*
X173890000Y-87184666D01*
X173890000Y-86484666D01*
X174756666Y-86484666D02*
X174623333Y-86484666D01*
X174556666Y-86518000D01*
X174523333Y-86551333D01*
X174456666Y-86651333D01*
X174423333Y-86784666D01*
X174423333Y-87051333D01*
X174456666Y-87118000D01*
X174490000Y-87151333D01*
X174556666Y-87184666D01*
X174690000Y-87184666D01*
X174756666Y-87151333D01*
X174790000Y-87118000D01*
X174823333Y-87051333D01*
X174823333Y-86884666D01*
X174790000Y-86818000D01*
X174756666Y-86784666D01*
X174690000Y-86751333D01*
X174556666Y-86751333D01*
X174490000Y-86784666D01*
X174456666Y-86818000D01*
X174423333Y-86884666D01*
X175090000Y-86984666D02*
X175423333Y-86984666D01*
X175023333Y-87184666D02*
X175256666Y-86484666D01*
X175490000Y-87184666D01*
X170906666Y-85660666D02*
X170906666Y-84960666D01*
X171140000Y-85460666D01*
X171373333Y-84960666D01*
X171373333Y-85660666D01*
X171706666Y-85660666D02*
X171706666Y-84960666D01*
X172040000Y-85660666D02*
X172040000Y-84960666D01*
X172273333Y-85460666D01*
X172506666Y-84960666D01*
X172506666Y-85660666D01*
X172773333Y-84960666D02*
X173240000Y-85660666D01*
X173240000Y-84960666D02*
X172773333Y-85660666D01*
X173906666Y-85660666D02*
X173673333Y-85327333D01*
X173506666Y-85660666D02*
X173506666Y-84960666D01*
X173773333Y-84960666D01*
X173840000Y-84994000D01*
X173873333Y-85027333D01*
X173906666Y-85094000D01*
X173906666Y-85194000D01*
X173873333Y-85260666D01*
X173840000Y-85294000D01*
X173773333Y-85327333D01*
X173506666Y-85327333D01*
X174106666Y-84960666D02*
X174506666Y-84960666D01*
X174306666Y-85660666D02*
X174306666Y-84960666D01*
X175106666Y-85660666D02*
X174706666Y-85660666D01*
X174906666Y-85660666D02*
X174906666Y-84960666D01*
X174840000Y-85060666D01*
X174773333Y-85127333D01*
X174706666Y-85160666D01*
X175540000Y-84960666D02*
X175606666Y-84960666D01*
X175673333Y-84994000D01*
X175706666Y-85027333D01*
X175740000Y-85094000D01*
X175773333Y-85227333D01*
X175773333Y-85394000D01*
X175740000Y-85527333D01*
X175706666Y-85594000D01*
X175673333Y-85627333D01*
X175606666Y-85660666D01*
X175540000Y-85660666D01*
X175473333Y-85627333D01*
X175440000Y-85594000D01*
X175406666Y-85527333D01*
X175373333Y-85394000D01*
X175373333Y-85227333D01*
X175406666Y-85094000D01*
X175440000Y-85027333D01*
X175473333Y-84994000D01*
X175540000Y-84960666D01*
X176373333Y-84960666D02*
X176240000Y-84960666D01*
X176173333Y-84994000D01*
X176140000Y-85027333D01*
X176073333Y-85127333D01*
X176040000Y-85260666D01*
X176040000Y-85527333D01*
X176073333Y-85594000D01*
X176106666Y-85627333D01*
X176173333Y-85660666D01*
X176306666Y-85660666D01*
X176373333Y-85627333D01*
X176406666Y-85594000D01*
X176440000Y-85527333D01*
X176440000Y-85360666D01*
X176406666Y-85294000D01*
X176373333Y-85260666D01*
X176306666Y-85227333D01*
X176173333Y-85227333D01*
X176106666Y-85260666D01*
X176073333Y-85294000D01*
X176040000Y-85360666D01*
X176706666Y-85027333D02*
X176740000Y-84994000D01*
X176806666Y-84960666D01*
X176973333Y-84960666D01*
X177040000Y-84994000D01*
X177073333Y-85027333D01*
X177106666Y-85094000D01*
X177106666Y-85160666D01*
X177073333Y-85260666D01*
X176673333Y-85660666D01*
X177106666Y-85660666D01*
X159262380Y-104949523D02*
X159976666Y-104949523D01*
X160119523Y-104997142D01*
X160214761Y-105092380D01*
X160262380Y-105235238D01*
X160262380Y-105330476D01*
X160262380Y-103949523D02*
X160262380Y-104520952D01*
X160262380Y-104235238D02*
X159262380Y-104235238D01*
X159405238Y-104330476D01*
X159500476Y-104425714D01*
X159548095Y-104520952D01*
X159357619Y-103568571D02*
X159310000Y-103520952D01*
X159262380Y-103425714D01*
X159262380Y-103187619D01*
X159310000Y-103092380D01*
X159357619Y-103044761D01*
X159452857Y-102997142D01*
X159548095Y-102997142D01*
X159690952Y-103044761D01*
X160262380Y-103616190D01*
X160262380Y-102997142D01*
X159262380Y-94313333D02*
X159976666Y-94313333D01*
X160119523Y-94360952D01*
X160214761Y-94456190D01*
X160262380Y-94599047D01*
X160262380Y-94694285D01*
X160262380Y-93789523D02*
X160262380Y-93599047D01*
X160214761Y-93503809D01*
X160167142Y-93456190D01*
X160024285Y-93360952D01*
X159833809Y-93313333D01*
X159452857Y-93313333D01*
X159357619Y-93360952D01*
X159310000Y-93408571D01*
X159262380Y-93503809D01*
X159262380Y-93694285D01*
X159310000Y-93789523D01*
X159357619Y-93837142D01*
X159452857Y-93884761D01*
X159690952Y-93884761D01*
X159786190Y-93837142D01*
X159833809Y-93789523D01*
X159881428Y-93694285D01*
X159881428Y-93503809D01*
X159833809Y-93408571D01*
X159786190Y-93360952D01*
X159690952Y-93313333D01*
X159262380Y-84153333D02*
X159976666Y-84153333D01*
X160119523Y-84200952D01*
X160214761Y-84296190D01*
X160262380Y-84439047D01*
X160262380Y-84534285D01*
X159262380Y-83248571D02*
X159262380Y-83439047D01*
X159310000Y-83534285D01*
X159357619Y-83581904D01*
X159500476Y-83677142D01*
X159690952Y-83724761D01*
X160071904Y-83724761D01*
X160167142Y-83677142D01*
X160214761Y-83629523D01*
X160262380Y-83534285D01*
X160262380Y-83343809D01*
X160214761Y-83248571D01*
X160167142Y-83200952D01*
X160071904Y-83153333D01*
X159833809Y-83153333D01*
X159738571Y-83200952D01*
X159690952Y-83248571D01*
X159643333Y-83343809D01*
X159643333Y-83534285D01*
X159690952Y-83629523D01*
X159738571Y-83677142D01*
X159833809Y-83724761D01*
X159262380Y-102409523D02*
X159976666Y-102409523D01*
X160119523Y-102457142D01*
X160214761Y-102552380D01*
X160262380Y-102695238D01*
X160262380Y-102790476D01*
X160262380Y-101409523D02*
X160262380Y-101980952D01*
X160262380Y-101695238D02*
X159262380Y-101695238D01*
X159405238Y-101790476D01*
X159500476Y-101885714D01*
X159548095Y-101980952D01*
X160262380Y-100457142D02*
X160262380Y-101028571D01*
X160262380Y-100742857D02*
X159262380Y-100742857D01*
X159405238Y-100838095D01*
X159500476Y-100933333D01*
X159548095Y-101028571D01*
X159262380Y-91773333D02*
X159976666Y-91773333D01*
X160119523Y-91820952D01*
X160214761Y-91916190D01*
X160262380Y-92059047D01*
X160262380Y-92154285D01*
X159690952Y-91154285D02*
X159643333Y-91249523D01*
X159595714Y-91297142D01*
X159500476Y-91344761D01*
X159452857Y-91344761D01*
X159357619Y-91297142D01*
X159310000Y-91249523D01*
X159262380Y-91154285D01*
X159262380Y-90963809D01*
X159310000Y-90868571D01*
X159357619Y-90820952D01*
X159452857Y-90773333D01*
X159500476Y-90773333D01*
X159595714Y-90820952D01*
X159643333Y-90868571D01*
X159690952Y-90963809D01*
X159690952Y-91154285D01*
X159738571Y-91249523D01*
X159786190Y-91297142D01*
X159881428Y-91344761D01*
X160071904Y-91344761D01*
X160167142Y-91297142D01*
X160214761Y-91249523D01*
X160262380Y-91154285D01*
X160262380Y-90963809D01*
X160214761Y-90868571D01*
X160167142Y-90820952D01*
X160071904Y-90773333D01*
X159881428Y-90773333D01*
X159786190Y-90820952D01*
X159738571Y-90868571D01*
X159690952Y-90963809D01*
X159262380Y-81613333D02*
X159976666Y-81613333D01*
X160119523Y-81660952D01*
X160214761Y-81756190D01*
X160262380Y-81899047D01*
X160262380Y-81994285D01*
X159262380Y-80660952D02*
X159262380Y-81137142D01*
X159738571Y-81184761D01*
X159690952Y-81137142D01*
X159643333Y-81041904D01*
X159643333Y-80803809D01*
X159690952Y-80708571D01*
X159738571Y-80660952D01*
X159833809Y-80613333D01*
X160071904Y-80613333D01*
X160167142Y-80660952D01*
X160214761Y-80708571D01*
X160262380Y-80803809D01*
X160262380Y-81041904D01*
X160214761Y-81137142D01*
X160167142Y-81184761D01*
X159262380Y-99869523D02*
X159976666Y-99869523D01*
X160119523Y-99917142D01*
X160214761Y-100012380D01*
X160262380Y-100155238D01*
X160262380Y-100250476D01*
X160262380Y-98869523D02*
X160262380Y-99440952D01*
X160262380Y-99155238D02*
X159262380Y-99155238D01*
X159405238Y-99250476D01*
X159500476Y-99345714D01*
X159548095Y-99440952D01*
X159262380Y-98250476D02*
X159262380Y-98155238D01*
X159310000Y-98060000D01*
X159357619Y-98012380D01*
X159452857Y-97964761D01*
X159643333Y-97917142D01*
X159881428Y-97917142D01*
X160071904Y-97964761D01*
X160167142Y-98012380D01*
X160214761Y-98060000D01*
X160262380Y-98155238D01*
X160262380Y-98250476D01*
X160214761Y-98345714D01*
X160167142Y-98393333D01*
X160071904Y-98440952D01*
X159881428Y-98488571D01*
X159643333Y-98488571D01*
X159452857Y-98440952D01*
X159357619Y-98393333D01*
X159310000Y-98345714D01*
X159262380Y-98250476D01*
X159262380Y-89233333D02*
X159976666Y-89233333D01*
X160119523Y-89280952D01*
X160214761Y-89376190D01*
X160262380Y-89519047D01*
X160262380Y-89614285D01*
X159262380Y-88852380D02*
X159262380Y-88185714D01*
X160262380Y-88614285D01*
X159262380Y-79073333D02*
X159976666Y-79073333D01*
X160119523Y-79120952D01*
X160214761Y-79216190D01*
X160262380Y-79359047D01*
X160262380Y-79454285D01*
X159595714Y-78168571D02*
X160262380Y-78168571D01*
X159214761Y-78406666D02*
X159929047Y-78644761D01*
X159929047Y-78025714D01*
X160480476Y-115022380D02*
X160480476Y-115736666D01*
X160432857Y-115879523D01*
X160337619Y-115974761D01*
X160194761Y-116022380D01*
X160099523Y-116022380D01*
X161480476Y-116022380D02*
X160909047Y-116022380D01*
X161194761Y-116022380D02*
X161194761Y-115022380D01*
X161099523Y-115165238D01*
X161004285Y-115260476D01*
X160909047Y-115308095D01*
X161813809Y-115022380D02*
X162432857Y-115022380D01*
X162099523Y-115403333D01*
X162242380Y-115403333D01*
X162337619Y-115450952D01*
X162385238Y-115498571D01*
X162432857Y-115593809D01*
X162432857Y-115831904D01*
X162385238Y-115927142D01*
X162337619Y-115974761D01*
X162242380Y-116022380D01*
X161956666Y-116022380D01*
X161861428Y-115974761D01*
X161813809Y-115927142D01*
X160908571Y-114407142D02*
X162051428Y-114407142D01*
X147908571Y-114407142D02*
X149051428Y-114407142D01*
X148480000Y-114978571D02*
X148480000Y-113835714D01*
X159262380Y-68913333D02*
X159976666Y-68913333D01*
X160119523Y-68960952D01*
X160214761Y-69056190D01*
X160262380Y-69199047D01*
X160262380Y-69294285D01*
X160262380Y-67913333D02*
X160262380Y-68484761D01*
X160262380Y-68199047D02*
X159262380Y-68199047D01*
X159405238Y-68294285D01*
X159500476Y-68389523D01*
X159548095Y-68484761D01*
X159262380Y-73993333D02*
X159976666Y-73993333D01*
X160119523Y-74040952D01*
X160214761Y-74136190D01*
X160262380Y-74279047D01*
X160262380Y-74374285D01*
X159262380Y-73612380D02*
X159262380Y-72993333D01*
X159643333Y-73326666D01*
X159643333Y-73183809D01*
X159690952Y-73088571D01*
X159738571Y-73040952D01*
X159833809Y-72993333D01*
X160071904Y-72993333D01*
X160167142Y-73040952D01*
X160214761Y-73088571D01*
X160262380Y-73183809D01*
X160262380Y-73469523D01*
X160214761Y-73564761D01*
X160167142Y-73612380D01*
X159262380Y-71453333D02*
X159976666Y-71453333D01*
X160119523Y-71500952D01*
X160214761Y-71596190D01*
X160262380Y-71739047D01*
X160262380Y-71834285D01*
X159357619Y-71024761D02*
X159310000Y-70977142D01*
X159262380Y-70881904D01*
X159262380Y-70643809D01*
X159310000Y-70548571D01*
X159357619Y-70500952D01*
X159452857Y-70453333D01*
X159548095Y-70453333D01*
X159690952Y-70500952D01*
X160262380Y-71072380D01*
X160262380Y-70453333D01*
M02*
